<?xml version="1.0" encoding="utf-8"?>
<!-- Generator: Adobe Illustrator 25.2.3, SVG Export Plug-In . SVG Version: 6.00 Build 0)  -->
<svg version="1.1" id="图层_1" xmlns="http://www.w3.org/2000/svg" xmlns:xlink="http://www.w3.org/1999/xlink" x="0px" y="0px"
	 viewBox="0 0 565.4 1024.7" style="enable-background:new 0 0 565.4 1024.7;" xml:space="preserve">
<style type="text/css">
	.st0{fill:none;stroke:#939598;stroke-width:3;stroke-miterlimit:10;}
	.st1{fill:#FFFFFF;stroke:#939598;stroke-width:1.9999;stroke-miterlimit:9.9995;}
	.st2{fill:#FFFFFF;stroke:#939598;stroke-width:2;stroke-miterlimit:9.9999;}
	.st3{fill:none;stroke:#939598;stroke-width:2;stroke-miterlimit:10;}
	.st4{fill:#00ACC1;}
	.st5{fill:#FFA726;}
	.st6{fill:#F06292;}
	.st7{fill:#F4511E;}
	.st8{fill:#689F38;}
	.st9{fill:#4FC3F7;}
	.st10{font-family:'ArialMT';}
	.st11{font-size:36.6958px;}
	.st12{fill:#939598;}
	.st13{font-family:'OpenSans-Regular';}
	.st14{font-size:14px;}
	.st15{fill:#FFFFFF;stroke:#939598;stroke-width:1.9997;stroke-miterlimit:9.9985;}
	.st16{font-size:12px;}
	.st17{font-size:26px;}
	.st18{fill:#FDB813;}
	.st19{fill:#023F61;}
	.st20{fill:#343049;}
	.st21{fill:#55D6D2;}
	.st22{fill:#FFFFFF;}
	.st23{fill:#025A82;}
	.st24{fill:#00D9D0;}
	.st25{opacity:0.6;}
	.st26{fill:#46C1BB;}
	.st27{fill:#FA7564;}
	.st28{fill:#FFCA00;}
	.st29{enable-background:new    ;}
	.st30{fill:#024563;}
	.st31{fill:#024463;}
	.st32{fill:#E55D4C;}
	.st33{opacity:0.3;}
	.st34{display:none;fill:#FA7564;}
	.st35{clip-path:url(#SVGID_2_);enable-background:new    ;}
	.st36{clip-path:url(#SVGID_4_);enable-background:new    ;}
	.st37{clip-path:url(#SVGID_6_);enable-background:new    ;}
	.st38{clip-path:url(#SVGID_8_);enable-background:new    ;}
	.st39{clip-path:url(#SVGID_10_);enable-background:new    ;}
	.st40{clip-path:url(#SVGID_12_);enable-background:new    ;}
	.st41{clip-path:url(#SVGID_14_);enable-background:new    ;}
	.st42{clip-path:url(#SVGID_16_);enable-background:new    ;}
</style>
<g id="objects">
	<g>
		<g>
			<line class="st0" x1="280" y1="157.7" x2="280" y2="955.9"/>
			<ellipse class="st1" cx="280" cy="250" rx="8.8" ry="8.8"/>
			<ellipse class="st2" cx="280" cy="358.8" rx="8.8" ry="8.8"/>
			<ellipse class="st2" cx="280" cy="467.6" rx="8.8" ry="8.8"/>
			<ellipse class="st2" cx="280" cy="576.4" rx="8.8" ry="8.8"/>
			<ellipse class="st2" cx="280" cy="685.1" rx="8.8" ry="8.8"/>
			<ellipse class="st2" cx="280" cy="793.9" rx="8.8" ry="8.8"/>
			<path class="st3" d="M280,964.6c-2.4,0-4.3-1.9-4.3-4.3c0-2.4,1.9-4.3,4.3-4.3s4.3,1.9,4.3,4.3
				C284.3,962.6,282.4,964.6,280,964.6z"/>
			<path class="st4" d="M280,255.8c-3.2,0-5.7-2.6-5.7-5.7c0-3.2,2.6-5.7,5.7-5.7s5.7,2.6,5.7,5.7S283.2,255.8,280,255.8z"/>
			<path class="st5" d="M280,364.6c-3.2,0-5.7-2.6-5.7-5.7c0-3.2,2.6-5.7,5.7-5.7s5.7,2.6,5.7,5.7S283.2,364.6,280,364.6z"/>
			<path class="st6" d="M280,473.3c-3.2,0-5.7-2.6-5.7-5.7c0-3.2,2.6-5.7,5.7-5.7s5.7,2.6,5.7,5.7
				C285.7,470.8,283.2,473.3,280,473.3z"/>
			<path class="st7" d="M280,582.1c-3.2,0-5.7-2.6-5.7-5.7c0-3.2,2.6-5.7,5.7-5.7s5.7,2.6,5.7,5.7S283.2,582.1,280,582.1z"/>
			<path class="st8" d="M280,690.9c-3.2,0-5.7-2.6-5.7-5.7c0-3.2,2.6-5.7,5.7-5.7s5.7,2.6,5.7,5.7
				C285.7,688.3,283.2,690.9,280,690.9z"/>
			<path class="st9" d="M280,799.7c-3.2,0-5.7-2.6-5.7-5.7c0-3.2,2.6-5.7,5.7-5.7s5.7,2.6,5.7,5.7
				C285.7,797.1,283.2,799.7,280,799.7z"/>
			<line class="st3" x1="288.8" y1="250" x2="474.8" y2="250"/>
			<line class="st3" x1="288.8" y1="467.6" x2="474.8" y2="467.6"/>
			<line class="st3" x1="288.8" y1="685.1" x2="474.8" y2="685.1"/>
			<line class="st3" x1="85.2" y1="358.8" x2="271.2" y2="358.8"/>
			<line class="st3" x1="85.2" y1="576.4" x2="271.2" y2="576.4"/>
			<line class="st3" x1="85.2" y1="793.9" x2="271.2" y2="793.9"/>
			<path class="st4" d="M474.8,253.7c-2,0-3.6-1.6-3.6-3.6s1.6-3.6,3.6-3.6s3.6,1.6,3.6,3.6C478.4,252,476.8,253.7,474.8,253.7z"/>
			<path class="st5" d="M85.2,362.4c-2,0-3.6-1.6-3.6-3.6s1.6-3.6,3.6-3.6s3.6,1.6,3.6,3.6C88.8,360.8,87.2,362.4,85.2,362.4z"/>
			<path class="st7" d="M85.2,580c-2,0-3.6-1.6-3.6-3.6s1.6-3.6,3.6-3.6s3.6,1.6,3.6,3.6S87.2,580,85.2,580z"/>
			<path class="st9" d="M85.2,797.5c-2,0-3.6-1.6-3.6-3.6s1.6-3.6,3.6-3.6s3.6,1.6,3.6,3.6S87.2,797.5,85.2,797.5z"/>
			<path class="st6" d="M474.8,471.2c-2,0-3.6-1.6-3.6-3.6s1.6-3.6,3.6-3.6s3.6,1.6,3.6,3.6S476.8,471.2,474.8,471.2z"/>
			<path class="st8" d="M474.8,688.8c-2,0-3.6-1.6-3.6-3.6s1.6-3.6,3.6-3.6s3.6,1.6,3.6,3.6S476.8,688.8,474.8,688.8z"/>
			<text transform="matrix(1 0 0 1 491.4553 261.4298)" class="st4 st10 st11">02</text>
			<text transform="matrix(1 0 0 1 348.0793 240.2848)" class="st12 st13 st14">Data preprocessing</text>
			<line class="st3" x1="85.2" y1="153" x2="271.2" y2="153"/>
			<ellipse class="st15" cx="279.9" cy="152" rx="13.9" ry="13.9"/>
			<ellipse transform="matrix(0.2306 -0.973 0.973 0.2306 67.4419 389.2922)" class="st15" cx="279.9" cy="152" rx="8.8" ry="8.8"/>
			<path class="st4" d="M280,157.7c-3.2,0-5.7-2.6-5.7-5.7c0-3.2,2.6-5.7,5.7-5.7s5.7,2.6,5.7,5.7
				C285.7,155.1,283.2,157.7,280,157.7z"/>
			<text transform="matrix(1 0 0 1 34.1164 370.2066)" class="st5 st10 st11">03</text>
			<text transform="matrix(1 0 0 1 34.1164 163.7507)" class="st5 st10 st11">01</text>
			<text transform="matrix(1 0 0 1 90.0336 376.0626)" class="st12 st13 st14">Divide the dataset: </text>
			<text transform="matrix(1 0 0 1 90.0336 392.8626)" class="st12 st13 st14">Training Set (80%),  </text>
			<text transform="matrix(1 0 0 1 90.0336 409.6626)" class="st12 st13 st14">Testing Set (20%)</text>
			<path class="st5" d="M85.2,156.6c-2,0-3.6-1.6-3.6-3.6s1.6-3.6,3.6-3.6s3.6,1.6,3.6,3.6C88.8,155,87.2,156.6,85.2,156.6z"/>
			<text transform="matrix(1 0 0 1 90.8114 170.6808)" class="st12 st13 st14">Label social networking</text>
			<text transform="matrix(1 0 0 1 395.6999 85.7531)" class="st12 st13 st16">by www.emojiall.com</text>
			<text transform="matrix(1 0 0 1 90.8114 187.4808)" class="st12 st13 st14">corpus</text>
			<text transform="matrix(1 0 0 1 34.1164 587.7604)" class="st7 st10 st11">05</text>
			<text transform="matrix(1 0 0 1 90.0336 593.7231)" class="st12 st13 st14">Use the training set data</text>
			<text transform="matrix(1 0 0 1 90.0336 610.5231)" class="st12 st13 st14">to train the model</text>
			<text transform="matrix(1 0 0 1 34.1164 805.3151)" class="st9 st10 st11">07</text>
			<text transform="matrix(1 0 0 1 90.0336 812.0879)" class="st12 st13 st14">Perform the same data</text>
			<text transform="matrix(1 0 0 1 90.0336 828.8879)" class="st12 st13 st14">preprocessing action</text>
			<text transform="matrix(1 0 0 1 90.0336 845.6879)" class="st12 st13 st14">on unlabeled data</text>
			<text transform="matrix(1 0 0 1 491.4553 477.3478)" class="st6 st10 st11">04</text>
			<text transform="matrix(1 0 0 1 310.364 440.524)" class="st12 st13 st14">Use LSTM neural network</text>
			<text transform="matrix(1 0 0 1 364.6639 457.324)" class="st12 st13 st14"> to build a model</text>
			<text transform="matrix(1 0 0 1 491.4553 693.2653)" class="st8 st10 st11">06</text>
			<text transform="matrix(1 0 0 1 405.4924 556.9161)" class="st12 st13 st14">According </text>
			<text transform="matrix(1 0 0 1 345.9924 573.7161)" class="st12 st13 st14">to the performance</text>
			<text transform="matrix(1 0 0 1 392.2924 590.5161)" class="st12 st13 st14">of the model</text>
			<text transform="matrix(1 0 0 1 330.2924 607.316)" class="st12 st13 st14">on the test set, adjust</text>
			<text transform="matrix(1 0 0 1 338.2924 624.1161)" class="st12 st13 st14">the hyperparameters</text>
			<text transform="matrix(1 0 0 1 407.8925 640.9161)" class="st12 st13 st14">to improve</text>
			<text transform="matrix(1 0 0 1 351.8924 657.7161)" class="st12 st13 st14">the generalization</text>
			<text transform="matrix(1 0 0 1 345.2924 674.5161)" class="st12 st13 st14">ability of the model</text>
			<ellipse class="st2" cx="280" cy="897" rx="8.8" ry="8.8"/>
			<path class="st8" d="M280,902.7c-3.2,0-5.7-2.6-5.7-5.7c0-3.2,2.6-5.7,5.7-5.7s5.7,2.6,5.7,5.7
				C285.7,900.2,283.2,902.7,280,902.7z"/>
			<line class="st3" x1="288.8" y1="897" x2="474.8" y2="897"/>
			<path class="st8" d="M474.8,900.6c-2,0-3.6-1.6-3.6-3.6s1.6-3.6,3.6-3.6s3.6,1.6,3.6,3.6S476.8,900.6,474.8,900.6z"/>
			<text transform="matrix(1 0 0 1 491.4553 905.1288)" class="st8 st10 st11">08</text>
			<text transform="matrix(1 0 0 1 377.7873 820.6946)" class="st12 st13 st14">Use the trained</text>
			<text transform="matrix(1 0 0 1 338.9874 837.4946)" class="st12 st13 st14">sentiment prediction</text>
			<text transform="matrix(1 0 0 1 362.4874 854.2946)" class="st12 st13 st14"> model to predict</text>
			<text transform="matrix(1 0 0 1 320.6873 871.0946)" class="st12 st13 st14">the sentiment tendency</text>
			<text transform="matrix(1 0 0 1 352.3873 887.8946)" class="st12 st13 st14">on unlabeled data</text>
		</g>
		<text transform="matrix(1 0 0 1 53.2478 66.4288)" class="st12 st13 st17">Flow chart of emoji sentiment analysis</text>
	</g>
	<g>
		<circle class="st18" cx="133.7" cy="246.4" r="45.5"/>
		<g>
			<g>
				<g>
					<g>
						<polygon class="st19" points="139.3,260.8 123.7,260.8 125,247.6 138,247.6 						"/>
						<rect x="121.8" y="260.8" class="st19" width="19.5" height="1.1"/>
						<path class="st20" d="M152.6,252.7c0,1-0.9,1.9-1.9,1.9h-38.5c-1,0-1.9-0.9-1.9-1.9v-22.3c0-1,0.9-1.9,1.9-1.9h38.5
							c1,0,1.9,0.9,1.9,1.9V252.7z"/>
						<path class="st19" d="M152.6,254.8c0,1-0.9,1.9-1.9,1.9h-38.5c-1,0-1.9-0.9-1.9-1.9v-22.3c0-1,0.9-1.9,1.9-1.9h38.5
							c1,0,1.9,0.9,1.9,1.9V254.8z"/>
						<path class="st19" d="M152.6,252.7c0,1-0.9,1.9-1.9,1.9h-38.5c-1,0-1.9-0.9-1.9-1.9v-22.3c0-1,0.9-1.9,1.9-1.9h38.5
							c1,0,1.9,0.9,1.9,1.9V252.7z"/>
						<rect x="110.3" y="252.7" class="st19" width="42.3" height="2.1"/>
						<path class="st21" d="M151.1,253.1c0,0.6-0.5,1.1-1.1,1.1h-37c-0.6,0-1.1-0.5-1.1-1.1v-21.7c0-0.6,0.5-1.1,1.1-1.1h37
							c0.6,0,1.1,0.5,1.1,1.1V253.1z"/>
						<g>
							<g>
								<polygon class="st22" points="135.5,231.9 124.3,231.9 124.3,252.6 139.8,252.6 139.8,236.2 								"/>
								<polygon class="st23" points="135.5,236.2 139.8,236.2 135.5,231.9 								"/>
							</g>
							<rect x="125.2" y="247.4" class="st23" width="13.6" height="1.2"/>
							<rect x="125.2" y="245" class="st23" width="13.6" height="1.2"/>
							<rect x="125.2" y="242.5" class="st23" width="13.6" height="1.2"/>
							<rect x="125.2" y="239.9" class="st23" width="13.6" height="1.2"/>
							<rect x="125.2" y="237.5" class="st23" width="9.2" height="1.2"/>
						</g>
					</g>
				</g>
				<g>
					<g>
						<path class="st22" d="M158.1,247.2c0.9,0,1.6,0.7,1.6,1.6v16.8c0,0.9-0.7,1-1.6,1h-13.6c-0.9,0-1.6-0.7-1.6-1.6v-16.3
							c0-0.9,0.7-1.6,1.6-1.6h13.6V247.2z"/>
						<path class="st19" d="M152.5,265.6c0,0.3-0.3,0.6-0.6,0.6h-1.3c-0.3,0-0.6-0.3-0.6-0.6l0,0c0-0.3,0.3-0.6,0.6-0.6h1.3
							C152.2,265,152.5,265.3,152.5,265.6L152.5,265.6z"/>
						<path class="st24" d="M158.8,264.2c0,0.2-0.2,0.4-0.4,0.4h-14.3c-0.2,0-0.4-0.2-0.4-0.4v-15.7c0-0.2,0.2-0.4,0.4-0.4h14.3
							c0.2,0,0.4,0.2,0.4,0.4V264.2z"/>
					</g>
					<g>
						<g>
							<polygon class="st22" points="153.6,249.4 146,249.4 146,263.3 156.5,263.3 156.5,252.3 							"/>
							<polygon class="st23" points="153.6,252.3 156.5,252.3 153.6,249.4 							"/>
						</g>
						<rect x="146.7" y="259.9" class="st23" width="9.1" height="0.8"/>
						<rect x="146.7" y="258.2" class="st23" width="9.1" height="0.8"/>
						<rect x="146.7" y="256.5" class="st23" width="9.1" height="0.8"/>
						<rect x="146.7" y="254.8" class="st23" width="9.1" height="0.8"/>
						<rect x="146.7" y="253.1" class="st23" width="6.2" height="0.8"/>
					</g>
				</g>
				<g>
					<g>
						<path class="st23" d="M141.7,265.7c0,0.5-0.4,0.9-0.9,0.9h-6.2c-0.5,0-0.9-0.4-0.9-0.9v-12.8c0-0.5,0.4-0.9,0.9-0.9h6.2
							c0.5,0,0.9,0.4,0.9,0.9V265.7z"/>
						<path class="st21" d="M141.1,264.2c0,0.2-0.2,0.4-0.4,0.4h-6.2c-0.2,0-0.4-0.2-0.4-0.4v-10.6c0-0.2,0.2-0.4,0.4-0.4h6.2
							c0.2,0,0.4,0.2,0.4,0.4V264.2z"/>
						<rect x="136.7" y="252.6" class="st19" width="2" height="0.2"/>
						<path class="st19" d="M138.2,266c0,0.1-0.1,0.2-0.2,0.2h-0.7c-0.1,0-0.2-0.1-0.2-0.2v-0.7c0-0.1,0.1-0.2,0.2-0.2h0.7
							c0.1,0,0.2,0.1,0.2,0.2V266z"/>
					</g>
					<g>
						<g>
							<polygon class="st22" points="138.8,255.7 134.9,255.7 134.9,262.9 140.3,262.9 140.3,257.2 							"/>
							<polygon class="st23" points="138.8,257.2 140.3,257.2 138.8,255.7 							"/>
						</g>
						<rect x="135.3" y="261.1" class="st23" width="4.7" height="0.4"/>
						<rect x="135.3" y="260.2" class="st23" width="4.7" height="0.4"/>
						<rect x="135.3" y="259.4" class="st23" width="4.7" height="0.4"/>
						<rect x="135.3" y="258.5" class="st23" width="4.7" height="0.4"/>
						<rect x="135.3" y="257.6" class="st23" width="3.2" height="0.4"/>
					</g>
				</g>
			</g>
			<g>
				<path class="st22" d="M167.3,263.6l-0.8-0.4c0.4-0.8,0.8-1.7,1.1-2.5l0.9,0.3C168.1,261.9,167.7,262.7,167.3,263.6z
					 M169.3,258.4l-0.9-0.3c0.3-0.9,0.5-1.8,0.7-2.6l0.9,0.2C169.8,256.6,169.6,257.5,169.3,258.4z M170.5,252.9l-0.9-0.1
					c0.1-0.9,0.2-1.8,0.3-2.7l0.9,0.1C170.7,251,170.7,252,170.5,252.9z M169.9,247.3c0-0.9-0.1-1.8-0.2-2.7l0.9-0.1
					c0.1,0.9,0.1,1.9,0.2,2.8H169.9z M169.4,241.9c-0.2-0.9-0.4-1.8-0.6-2.7l0.9-0.2c0.2,0.9,0.4,1.8,0.6,2.7L169.4,241.9z
					 M168,236.6c-0.3-0.9-0.6-1.7-1-2.5l0.8-0.4c0.4,0.9,0.7,1.7,1,2.6L168,236.6z M165.9,231.6c-0.2-0.4-0.4-0.8-0.6-1.2
					s-0.5-0.8-0.7-1.2l0.8-0.5c0.3,0.4,0.5,0.8,0.7,1.2s0.5,0.8,0.7,1.2L165.9,231.6z M163,227c-0.5-0.7-1.1-1.4-1.7-2.1l0.7-0.6
					c0.6,0.7,1.2,1.4,1.8,2.2L163,227z M159.4,222.9c-0.6-0.6-1.3-1.2-2-1.8l0.6-0.7c0.7,0.6,1.4,1.2,2.1,1.9L159.4,222.9z
					 M155.2,219.4c-0.7-0.5-1.5-1-2.3-1.5l0.5-0.8c0.8,0.5,1.6,1,2.3,1.5L155.2,219.4z M150.5,216.6c-0.8-0.4-1.6-0.8-2.5-1.1
					l0.3-0.9c0.9,0.3,1.7,0.7,2.5,1.2L150.5,216.6z M145.5,214.6c-0.9-0.3-1.7-0.5-2.6-0.7l0.2-0.9c0.9,0.2,1.8,0.5,2.7,0.7
					L145.5,214.6z"/>
				<g>
					<polygon class="st22" points="143.2,208.7 134.8,212.4 142.2,217.9 					"/>
				</g>
			</g>
			<g>
				<path class="st22" d="M134.8,284.1c-0.3,0-0.7,0-1,0v-0.9c0.9,0,1.8,0,2.7,0v0.9C136,284.1,135.4,284.1,134.8,284.1z M131,283.9
					c-0.9-0.1-1.9-0.2-2.8-0.4l0.2-0.9c0.9,0.2,1.8,0.3,2.7,0.4L131,283.9z M139.3,283.8l-0.1-0.9c0.9-0.1,1.8-0.3,2.7-0.4l0.2,0.9
					C141.2,283.5,140.3,283.7,139.3,283.8z M125.5,282.9c-0.9-0.2-1.8-0.5-2.7-0.8l0.3-0.9c0.8,0.3,1.7,0.6,2.6,0.8L125.5,282.9z
					 M144.8,282.7l-0.3-0.9c0.9-0.3,1.7-0.5,2.6-0.9l0.3,0.9C146.6,282.1,145.7,282.4,144.8,282.7z M120.2,281
					c-0.8-0.4-1.7-0.8-2.5-1.2l0.4-0.8c0.8,0.4,1.6,0.8,2.4,1.2L120.2,281z M150.1,280.7l-0.4-0.8c0.8-0.4,1.6-0.8,2.4-1.3l0.5,0.8
					C151.7,279.9,150.9,280.3,150.1,280.7z M115.3,278.3c-0.8-0.5-1.5-1-2.3-1.6l0.6-0.7c0.7,0.6,1.5,1.1,2.2,1.6L115.3,278.3z
					 M154.9,277.9l-0.5-0.8c0.7-0.5,1.5-1,2.2-1.6l0.6,0.7C156.4,276.9,155.7,277.4,154.9,277.9z M110.8,275c-0.7-0.6-1.4-1.3-2-1.9
					l0.7-0.6c0.6,0.7,1.3,1.3,2,1.9L110.8,275z M159.3,274.5l-0.6-0.7c0.7-0.6,1.3-1.3,1.9-1.9l0.7,0.6
					C160.7,273.2,160,273.8,159.3,274.5z M107,270.9c-0.6-0.7-1.2-1.5-1.7-2.2l0.8-0.5c0.5,0.7,1.1,1.5,1.7,2.2L107,270.9z"/>
				<g>
					<polygon class="st22" points="164.6,274.9 165.6,265.8 157.2,269.5 					"/>
				</g>
			</g>
			<g>
				<path class="st22" d="M100.2,258.2c-0.3-0.9-0.5-1.8-0.7-2.7l0.9-0.2c0.2,0.9,0.4,1.8,0.7,2.6L100.2,258.2z M99.1,252.8
					c-0.1-0.9-0.2-1.9-0.3-2.8h0.9c0,0.9,0.1,1.8,0.3,2.7L99.1,252.8z M99.7,247.2h-0.9c0-0.9,0.1-1.9,0.2-2.8l0.9,0.1
					C99.8,245.4,99.7,246.3,99.7,247.2z M100.2,241.8l-0.9-0.2c0.2-0.9,0.4-1.8,0.6-2.7l0.9,0.2C100.6,240,100.4,240.9,100.2,241.8z
					 M101.6,236.5l-0.9-0.3c0.3-0.9,0.6-1.8,1-2.6l0.8,0.4C102.2,234.8,101.9,235.7,101.6,236.5z M103.8,231.5l-0.8-0.4
					c0.2-0.4,0.4-0.7,0.6-1.1c0.3-0.4,0.5-0.9,0.8-1.3l0.8,0.5c-0.3,0.4-0.5,0.9-0.8,1.3C104.2,230.8,104,231.2,103.8,231.5z
					 M106.7,226.9l-0.7-0.6c0.6-0.7,1.2-1.5,1.8-2.2l0.7,0.6C107.8,225.5,107.3,226.2,106.7,226.9z M110.3,222.9l-0.6-0.7
					c0.7-0.7,1.4-1.3,2.1-1.9l0.6,0.7C111.7,221.6,111,222.2,110.3,222.9z M114.5,219.4l-0.5-0.8c0.8-0.5,1.5-1,2.3-1.5l0.5,0.8
					C116,218.3,115.2,218.8,114.5,219.4z M119.2,216.6l-0.4-0.8c0.8-0.4,1.7-0.8,2.6-1.1l0.3,0.9C120.8,215.8,120,216.2,119.2,216.6
					z M124.2,214.5l-0.3-0.9c0.9-0.3,1.8-0.5,2.7-0.7l0.2,0.9C126,214,125.1,214.3,124.2,214.5z M129.5,213.3l-0.1-0.9
					c0.9-0.1,1.8-0.2,2.8-0.3l0.1,0.9C131.4,213.1,130.4,213.2,129.5,213.3z"/>
				<g>
					<polygon class="st22" points="96.6,260.4 104,265.8 105,256.7 					"/>
				</g>
			</g>
		</g>
	</g>
	<g>
		<ellipse class="st21" cx="429.6" cy="178.4" rx="45" ry="45"/>
		<g class="st25">
			<path class="st26" d="M413.7,181l0.1-3.1c0-0.1,0-0.2,0-0.3c0.7-0.3,1.4-0.6,2-1c0.2-0.1,0.5,0,0.7,0.1l2.8,1.4
				c0.3,0.2,0.7,0.2,0.9-0.1l0,0l1.9-2.5c0.2-0.3,0.2-0.7-0.1-0.9l-2.1-2.3c-0.1-0.1-0.2-0.2-0.2-0.2c0.3-0.7,0.5-1.4,0.7-2.1
				c0.1-0.2,0.3-0.4,0.6-0.4l3-1c0.4,0,0.6-0.4,0.6-0.7l0,0l-0.4-3.1c0-0.4-0.4-0.6-0.7-0.6l-3.1-0.1c-0.1,0-0.2,0-0.3,0
				c-0.3-0.7-0.6-1.4-1-2c-0.1-0.2,0-0.5,0.1-0.7l1.4-2.8c0.2-0.3,0.2-0.7-0.1-0.9l0,0l-2.5-1.9c-0.3-0.2-0.7-0.2-0.9,0.1l-2.3,2.1
				c-0.1,0.1-0.2,0.2-0.2,0.2c-0.7-0.3-1.4-0.5-2.1-0.7c-0.2-0.1-0.4-0.3-0.4-0.6l-1-3c0-0.4-0.4-0.6-0.7-0.6l0,0l-3.1,0.4
				c-0.4,0-0.6,0.4-0.6,0.7l-0.1,3.1c0,0.1,0,0.2,0,0.3c-0.7,0.3-1.4,0.6-2,1c-0.2,0.1-0.5,0-0.7-0.1l-2.8-1.4
				c-0.3-0.2-0.7-0.2-0.9,0.1l0,0l-1.9,2.5c-0.2,0.3-0.2,0.7,0.1,0.9l2.1,2.3c0.1,0.1,0.2,0.2,0.2,0.2c-0.3,0.7-0.5,1.4-0.7,2.1
				c-0.1,0.2-0.3,0.4-0.6,0.4l-3,1c-0.4,0-0.6,0.4-0.6,0.7l0,0l0.4,3.1c0,0.4,0.4,0.6,0.7,0.6l3.1,0.1c0.1,0,0.2,0,0.3,0
				c0.3,0.7,0.6,1.4,1,2c0.1,0.2,0,0.5-0.1,0.7l-1.4,2.8c-0.2,0.3-0.2,0.7,0.1,0.9l0,0l2.5,1.9c0.3,0.2,0.7,0.2,0.9-0.1l2.3-2.1
				c0.1-0.1,0.2-0.2,0.2-0.2c0.7,0.3,1.4,0.5,2.1,0.7c0.2,0.1,0.4,0.3,0.4,0.6l1,3c0,0.4,0.4,0.6,0.7,0.6l0,0l3.1-0.4
				C413.5,181.7,413.8,181.4,413.7,181z M405.7,168.3c-0.3-2.5,1.4-4.7,3.9-5.1c2.5-0.3,4.7,1.4,5.1,3.9c0.3,2.5-1.4,4.7-3.9,5.1
				C408.3,172.5,406,170.8,405.7,168.3z"/>
		</g>
		<g class="st25">
			<path class="st26" d="M448.4,214.1l0.1-2.2c0-0.1,0-0.2,0-0.2c0.5-0.2,1-0.4,1.4-0.7c0.2,0,0.4,0,0.5,0.1l2,1
				c0.2,0.2,0.5,0.1,0.7-0.1l0,0l1.4-1.8c0.2-0.2,0.1-0.5-0.1-0.7l-1.5-1.7c-0.1,0-0.1-0.1-0.1-0.2c0.2-0.5,0.4-1,0.5-1.5
				c0.1-0.2,0.2-0.3,0.4-0.3l2.1-0.7c0.3,0,0.4-0.3,0.4-0.5l0,0l-0.3-2.2c0-0.3-0.3-0.4-0.5-0.4l-2.2-0.1c-0.1,0-0.2,0-0.2,0
				c-0.2-0.5-0.4-1-0.7-1.4c0-0.2,0-0.4,0.1-0.5l1-2c0.2-0.2,0.1-0.5-0.1-0.7l0,0l-1.8-1.4c-0.2-0.2-0.5-0.1-0.7,0.1l-1.7,1.5
				c0,0.1-0.1,0.1-0.2,0.1c-0.5-0.2-1-0.4-1.5-0.5c-0.2-0.1-0.3-0.2-0.3-0.4l-0.7-2.1c0-0.3-0.3-0.4-0.5-0.4l0,0l-2.2,0.3
				c-0.3,0-0.4,0.3-0.4,0.5l-0.1,2.2c0,0.1,0,0.2,0,0.2c-0.5,0.2-1,0.4-1.4,0.7c-0.2,0-0.4,0-0.5-0.1l-2-1c-0.2-0.2-0.5-0.1-0.7,0.1
				l0,0l-1.4,1.8c-0.2,0.2-0.1,0.5,0.1,0.7l1.5,1.7c0.1,0,0.1,0.1,0.1,0.2c-0.2,0.5-0.4,1-0.5,1.5c-0.1,0.2-0.2,0.3-0.4,0.3
				l-2.1,0.7c-0.3,0-0.4,0.3-0.4,0.5l0,0l0.3,2.2c0,0.3,0.3,0.4,0.5,0.4l2.2,0.1c0.1,0,0.2,0,0.2,0c0.2,0.5,0.4,1,0.7,1.4
				c0,0.2,0,0.4-0.1,0.5l-1,2c-0.2,0.2-0.1,0.5,0.1,0.7l0,0l1.8,1.4c0.2,0.2,0.5,0.1,0.7-0.1l1.7-1.5c0-0.1,0.1-0.1,0.2-0.1
				c0.5,0.2,1,0.4,1.5,0.5c0.2,0.1,0.3,0.2,0.3,0.4l0.7,2.1c0,0.3,0.3,0.4,0.5,0.4l0,0l2.2-0.3C448.3,214.6,448.4,214.4,448.4,214.1
				z M442.6,205.1c-0.2-1.8,1-3.4,2.8-3.6s3.4,1,3.6,2.8s-1,3.4-2.8,3.6C444.5,208.1,442.9,206.8,442.6,205.1z"/>
		</g>
		<g class="st25">
			<path class="st26" d="M440.4,166.3l0.1-3c0-0.1,0-0.2,0-0.3c0.7-0.3,1.3-0.6,1.9-1c0.2-0.1,0.5,0,0.7,0.1l2.6,1.4
				c0.3,0.2,0.7,0.2,0.9-0.1l0,0l1.8-2.4c0.2-0.3,0.2-0.7-0.1-0.9l-2-2.2c-0.1-0.1-0.1-0.1-0.2-0.2c0.3-0.6,0.5-1.3,0.7-2
				c0.1-0.2,0.3-0.4,0.6-0.4l2.8-0.9c0.3,0,0.6-0.4,0.5-0.7l0,0l-0.4-3c0-0.3-0.4-0.6-0.7-0.5l-3-0.1c-0.1,0-0.2,0-0.3,0
				c-0.3-0.7-0.6-1.3-1-1.9c-0.1-0.2,0-0.5,0.1-0.7l1.4-2.6c0.2-0.3,0.2-0.7-0.1-0.9l0,0l-2.4-1.8c-0.3-0.2-0.7-0.2-0.9,0.1l-2.2,2
				c-0.1,0.1-0.1,0.1-0.2,0.2c-0.6-0.3-1.3-0.5-2-0.7c-0.2-0.1-0.4-0.3-0.4-0.6l-0.9-2.8c0-0.3-0.4-0.6-0.7-0.5l0,0l-3,0.4
				c-0.3,0-0.6,0.4-0.5,0.7l-0.1,3c0,0.1,0,0.2,0,0.3c-0.7,0.3-1.3,0.6-1.9,1c-0.2,0.1-0.5,0-0.7-0.1l-2.6-1.4
				c-0.3-0.2-0.7-0.2-0.9,0.1l0,0l-1.8,2.4c-0.2,0.3-0.2,0.7,0.1,0.9l2,2.2c0.1,0.1,0.1,0.1,0.2,0.2c-0.3,0.6-0.5,1.3-0.7,2
				c-0.1,0.2-0.3,0.4-0.6,0.4l-2.8,0.9c-0.3,0-0.6,0.4-0.5,0.7l0,0l0.4,3c0,0.3,0.4,0.6,0.7,0.5l3,0.1c0.1,0,0.2,0,0.3,0
				c0.3,0.7,0.6,1.3,1,1.9c0.1,0.2,0,0.5-0.1,0.7l-1.4,2.6c-0.2,0.3-0.2,0.7,0.1,0.9l0,0l2.4,1.8c0.3,0.2,0.7,0.2,0.9-0.1l2.2-2
				c0.1-0.1,0.1-0.1,0.2-0.2c0.6,0.3,1.3,0.5,2,0.7c0.2,0.1,0.4,0.3,0.4,0.6l0.9,2.8c0,0.3,0.4,0.6,0.7,0.5l0,0l3-0.4
				C440.2,167,440.4,166.7,440.4,166.3z M432.7,154.2c-0.3-2.4,1.3-4.5,3.7-4.8s4.5,1.3,4.8,3.7s-1.3,4.5-3.7,4.8
				C435.1,158.2,433,156.6,432.7,154.2z"/>
		</g>
		<g class="st25">
			<path class="st26" d="M427.3,207.7l0.1-2.2c0-0.1,0-0.2,0-0.2c0.5-0.2,1-0.4,1.4-0.7c0.2,0,0.4,0,0.5,0.1l2,1
				c0.2,0.2,0.5,0.1,0.7-0.1l0,0l1.4-1.8c0.2-0.2,0.1-0.5-0.1-0.7l-1.5-1.7c-0.1,0-0.1-0.1-0.1-0.2c0.2-0.5,0.4-1,0.5-1.5
				c0.1-0.2,0.2-0.3,0.4-0.3l2.1-0.7c0.3,0,0.4-0.3,0.4-0.5l0,0l-0.3-2.2c0-0.3-0.3-0.4-0.5-0.4l-2.2-0.1c-0.1,0-0.2,0-0.2,0
				c-0.2-0.5-0.4-1-0.7-1.4c0-0.2,0-0.4,0.1-0.5l1-2c0.2-0.2,0.1-0.5-0.1-0.7l0,0l-1.8-1.4c-0.2-0.2-0.5-0.1-0.7,0.1l-1.7,1.5
				c0,0.1-0.1,0.1-0.2,0.1c-0.5-0.2-1-0.4-1.5-0.5c-0.2-0.1-0.3-0.2-0.3-0.4l-0.7-2.1c0-0.3-0.3-0.4-0.5-0.4l0,0l-2.2,0.3
				c-0.3,0-0.4,0.3-0.4,0.5l-0.1,2.2c0,0.1,0,0.2,0,0.2c-0.5,0.2-1,0.4-1.4,0.7c-0.2,0-0.4,0-0.5-0.1l-2-1c-0.2-0.2-0.5-0.1-0.7,0.1
				l0,0l-1.4,1.8c-0.2,0.2-0.1,0.5,0.1,0.7l1.5,1.7c0.1,0,0.1,0.1,0.1,0.2c-0.2,0.5-0.4,1-0.5,1.5c-0.1,0.2-0.2,0.3-0.4,0.3
				l-2.1,0.7c-0.3,0-0.4,0.3-0.4,0.5l0,0l0.3,2.2c0,0.3,0.3,0.4,0.5,0.4l2.2,0.1c0.1,0,0.2,0,0.2,0c0.2,0.5,0.4,1,0.7,1.4
				c0,0.2,0,0.4-0.1,0.5l-1,2c-0.2,0.2-0.1,0.5,0.1,0.7l0,0l1.8,1.4c0.2,0.2,0.5,0.1,0.7-0.1l1.7-1.5c0-0.1,0.1-0.1,0.2-0.1
				c0.5,0.2,1,0.4,1.5,0.5c0.2,0.1,0.3,0.2,0.3,0.4l0.7,2.1c0,0.3,0.3,0.4,0.5,0.4l0,0l2.2-0.3C427.2,208.2,427.3,208,427.3,207.7z
				 M421.5,198.6c-0.2-1.8,1-3.4,2.8-3.6c1.8-0.2,3.4,1,3.6,2.8s-1,3.4-2.8,3.6C423.4,201.6,421.7,200.4,421.5,198.6z"/>
		</g>
		<g>
			<path class="st22" d="M451.4,170.4c-1.5,0-3,0.2-4.4,0.7c-1.3-8.4-8.6-14.9-17.4-14.9s-16.1,6.5-17.4,14.9
				c-1.4-0.4-2.9-0.7-4.4-0.7c-8.4,0-15.2,6.8-15.2,15.2s6.8,15.2,15.2,15.2h43.6c8.4,0,15.2-6.8,15.2-15.2S459.8,170.4,451.4,170.4
				z"/>
			<g>
				<path class="st27" d="M442.5,195.9l0.1-2.5c0-0.1,0-0.2,0-0.2c0.6-0.2,1.1-0.5,1.6-0.8c0.2-0.1,0.4,0,0.6,0.1l2.2,1.1
					c0.2,0.2,0.6,0.1,0.7-0.1l0,0l1.5-2c0.2-0.2,0.1-0.6-0.1-0.7l-1.7-1.8c-0.1-0.1-0.1-0.1-0.2-0.2c0.2-0.5,0.4-1.1,0.5-1.7
					c0.1-0.2,0.3-0.3,0.5-0.3l2.3-0.8c0.3,0,0.5-0.3,0.4-0.6l0,0l-0.3-2.5c0-0.3-0.3-0.5-0.6-0.4l-2.5-0.1c-0.1,0-0.2,0-0.2,0
					c-0.2-0.6-0.5-1.1-0.8-1.6c-0.1-0.2,0-0.4,0.1-0.6l1.1-2.2c0.2-0.2,0.1-0.6-0.1-0.7l0,0l-2-1.5c-0.2-0.2-0.6-0.1-0.7,0.1
					l-1.8,1.7c-0.1,0.1-0.1,0.1-0.2,0.2c-0.5-0.2-1.1-0.4-1.7-0.5c-0.2-0.1-0.3-0.3-0.3-0.5l-0.8-2.3c0-0.3-0.3-0.5-0.6-0.4l0,0
					l-2.5,0.3c-0.3,0-0.5,0.3-0.4,0.6l-0.1,2.5c0,0.1,0,0.2,0,0.2c-0.6,0.2-1.1,0.5-1.6,0.8c-0.2,0.1-0.4,0-0.6-0.1l-2.2-1.1
					c-0.2-0.2-0.6-0.1-0.7,0.1l0,0l-1.5,2c-0.2,0.2-0.1,0.6,0.1,0.7l1.7,1.8c0.1,0.1,0.1,0.1,0.2,0.2c-0.2,0.5-0.4,1.1-0.5,1.7
					c-0.1,0.2-0.3,0.3-0.5,0.3l-2.3,0.8c-0.3,0-0.5,0.3-0.4,0.6l0,0l0.3,2.5c0,0.3,0.3,0.5,0.6,0.4l2.5,0.1c0.1,0,0.2,0,0.2,0
					c0.2,0.6,0.5,1.1,0.8,1.6c0.1,0.2,0,0.4-0.1,0.6l-1.1,2.2c-0.2,0.2-0.1,0.6,0.1,0.7l0,0l2,1.5c0.2,0.2,0.6,0.1,0.7-0.1l1.8-1.7
					c0.1-0.1,0.1-0.1,0.2-0.2c0.5,0.2,1.1,0.4,1.7,0.5c0.2,0.1,0.3,0.3,0.3,0.5l0.8,2.3c0,0.3,0.3,0.5,0.6,0.4l0,0l2.5-0.3
					C442.4,196.5,442.6,196.2,442.5,195.9z M436.2,185.9c-0.3-1.9,1.1-3.7,3.1-4c1.9-0.3,3.7,1.1,4,3.1c0.3,1.9-1.1,3.7-3.1,4
					C438.2,189.2,436.4,187.8,436.2,185.9z"/>
			</g>
			<g>
				<path class="st28" d="M420.2,173.1l1.8-0.1c0.1,0,0.1,0,0.2,0c0.2,0.4,0.4,0.8,0.7,1.1c0.1,0.1,0,0.3,0,0.4l-0.6,1.7
					c-0.1,0.2-0.1,0.4,0.1,0.5l0,0l1.6,0.9c0.2,0.1,0.4,0.1,0.5-0.1l1.2-1.4c0-0.1,0.1-0.1,0.1-0.1c0.4,0.1,0.8,0.2,1.3,0.3
					c0.1,0.1,0.2,0.2,0.3,0.3l0.7,1.7c0.1,0.2,0.3,0.3,0.5,0.3l0,0l1.8-0.4c0.2-0.1,0.3-0.3,0.3-0.5l-0.1-1.8c0-0.1,0-0.1,0-0.2
					c0.4-0.2,0.8-0.4,1.1-0.7c0.1-0.1,0.3,0,0.4,0l1.7,0.6c0.2,0.1,0.4,0.1,0.5-0.1l0,0l0.9-1.6c0.1-0.2,0.1-0.4-0.1-0.5l-1.4-1.2
					c-0.1,0-0.1-0.1-0.1-0.1c0.1-0.4,0.2-0.8,0.3-1.3c0.1-0.1,0.2-0.2,0.3-0.3l1.7-0.7c0.2-0.1,0.3-0.3,0.3-0.5l0,0l-0.4-1.8
					c0-0.2-0.3-0.3-0.5-0.3l-1.8,0.1c-0.1,0-0.1,0-0.2,0c-0.2-0.4-0.4-0.8-0.7-1.1c-0.1-0.1,0-0.3,0-0.4l0.6-1.7
					c0.1-0.2,0.1-0.4-0.1-0.5l0,0l-1.6-0.9c-0.2-0.1-0.4-0.1-0.5,0.1l-1.2,1.4c0,0.1-0.1,0.1-0.1,0.1c-0.4-0.1-0.8-0.2-1.3-0.3
					c-0.1-0.1-0.2-0.2-0.3-0.3l-0.7-1.7c-0.1-0.2-0.3-0.3-0.5-0.3l0,0l-1.8,0.4c-0.2,0.1-0.3,0.3-0.3,0.5l0.1,1.8c0,0.1,0,0.1,0,0.2
					c-0.4,0.2-0.8,0.4-1.1,0.7c-0.1,0.1-0.3,0-0.4,0l-1.7-0.6c-0.2-0.1-0.4-0.1-0.5,0.1l0,0l-0.9,1.6c-0.1,0.2-0.1,0.4,0.1,0.5
					l1.4,1.2c0.1,0,0.1,0.1,0.1,0.1c-0.1,0.4-0.2,0.8-0.3,1.3c-0.1,0.1-0.2,0.2-0.3,0.3l-1.7,0.7c-0.2,0.1-0.3,0.3-0.3,0.5l0,0
					l0.4,1.8C419.7,173,420,173.2,420.2,173.1z M427,167.7c1.4-0.3,2.8,0.5,3.2,1.9c0.3,1.4-0.5,2.8-1.9,3.2
					c-1.4,0.3-2.8-0.5-3.2-1.9C424.7,169.4,425.6,168,427,167.7z"/>
			</g>
			<g>
				<path class="st23" d="M416.3,185.8l1.3-0.1h0.1c0.1,0.3,0.3,0.5,0.5,0.8c0,0.1,0,0.2,0,0.3l-0.5,1.2c-0.1,0.1,0,0.3,0.1,0.4l0,0
					l1.1,0.7c0.1,0.1,0.3,0,0.4-0.1l0.8-1l0.1-0.1c0.3,0.1,0.6,0.2,0.9,0.2c0.1,0,0.2,0.1,0.2,0.2l0.5,1.2c0,0.1,0.2,0.2,0.3,0.2
					l0,0l1.3-0.3c0.1,0,0.2-0.2,0.2-0.3l-0.1-1.3v-0.1c0.3-0.1,0.5-0.3,0.8-0.5c0.1,0,0.2,0,0.3,0l1.2,0.5c0.1,0.1,0.3,0,0.4-0.1
					l0,0l0.7-1.1c0.1-0.1,0-0.3-0.1-0.4l-1-0.8l-0.1-0.1c0.1-0.3,0.2-0.6,0.2-0.9c0-0.1,0.1-0.2,0.2-0.2l1.2-0.5
					c0.1,0,0.2-0.2,0.2-0.3l0,0l-0.3-1.3c0-0.1-0.2-0.2-0.3-0.2l-1.3,0.1h-0.1c-0.1-0.3-0.3-0.5-0.5-0.8c0-0.1,0-0.2,0-0.3l0.5-1.2
					c0.1-0.1,0-0.3-0.1-0.4l0,0l-1.1-0.7c-0.1-0.1-0.3,0-0.4,0.1l-0.8,1l-0.1,0.1c-0.3-0.1-0.6-0.2-0.9-0.2c-0.1,0-0.2-0.1-0.2-0.2
					l-0.5-1.2c0-0.1-0.2-0.2-0.3-0.2l0,0l-1.3,0.3c-0.1,0-0.2,0.2-0.2,0.3l0.1,1.3v0.1c-0.3,0.1-0.5,0.3-0.8,0.5c-0.1,0-0.2,0-0.3,0
					l-1.2-0.5c-0.1-0.1-0.3,0-0.4,0.1l0,0l-0.7,1.1c-0.1,0.1,0,0.3,0.1,0.4l1,0.8l0.1,0.1c-0.1,0.3-0.2,0.6-0.2,0.9
					c0,0.1-0.1,0.2-0.2,0.2l-1.2,0.5c-0.1,0-0.2,0.2-0.2,0.3l0,0l0.3,1.3C416,185.8,416.2,185.9,416.3,185.8z M421.2,182
					c1-0.2,2,0.4,2.2,1.4s-0.4,2-1.4,2.2s-2-0.4-2.2-1.4S420.2,182.2,421.2,182z"/>
			</g>
		</g>
	</g>
	<g>
		
			<ellipse transform="matrix(0.4357 -0.9001 0.9001 0.4357 -344.7965 383.6256)" class="st23" cx="133.6" cy="466.8" rx="45.4" ry="45.4"/>
		<g>
			<path class="st22" d="M136.1,464.9c0-1-0.8-1.9-1.9-1.9c-1,0-1.9,0.8-1.9,1.9s0.8,1.9,1.9,1.9S136.1,465.9,136.1,464.9z"/>
			<circle class="st22" cx="109.7" cy="464.9" r="1.9"/>
			<path class="st22" d="M161.5,464.9c0-1-0.8-1.9-1.9-1.9c-1,0-1.9,0.8-1.9,1.9s0.8,1.9,1.9,1.9
				C160.6,466.8,161.5,465.9,161.5,464.9z"/>
			<polygon class="st22" points="160.1,485.4 159.1,485.4 159.1,465.4 110.1,465.4 110.1,485.4 109.2,485.4 109.2,464.5 
				160.1,464.5 			"/>
			<rect x="133.8" y="439.9" class="st22" width="0.9" height="49.9"/>
			<g>
				<path class="st27" d="M101.3,476.6l7.1,0.1c0.5,0,1.1,0.4,1.3,0.9l0.4,1.1h7.9c0.6,0,1,0.5,1,1l-0.4,10.4c0,0.5-0.4,1-1,1h-15.9
					c-0.5,0-1-0.4-1-1l-0.4-12.5C100.3,477,100.7,476.6,101.3,476.6z"/>
				<polygon class="st22" points="118.4,484.2 101.4,485.4 100.9,480.2 117.9,478.9 				"/>
				<path class="st28" d="M118.6,480.3l-7.6,0.1c-0.6,0-1.2,0.4-1.4,0.8l-0.5,1h-8.3c-0.6,0-1.1,0.4-1.1,0.9l0.5,9.3
					c0,0.5,0.5,0.9,1,0.9h16.9c0.6,0,1-0.4,1-0.9l0.5-11.3C119.6,480.7,119.2,480.3,118.6,480.3z"/>
			</g>
			<g>
				<path class="st27" d="M125.9,476.6l7.1,0.1c0.5,0,1.1,0.4,1.3,0.9l0.4,1.1h7.9c0.6,0,1,0.5,1,1l-0.4,10.4c0,0.5-0.4,1-1,1h-15.9
					c-0.5,0-1-0.4-1-1l-0.4-12.5C124.8,477,125.3,476.6,125.9,476.6z"/>
				<polygon class="st22" points="143,484.2 126,485.4 125.5,480.2 142.4,478.9 				"/>
				<path class="st28" d="M143.1,480.3l-7.6,0.1c-0.6,0-1.2,0.4-1.4,0.8l-0.5,1h-8.3c-0.6,0-1.1,0.4-1.1,0.9l0.5,9.3
					c0,0.5,0.5,0.9,1,0.9h16.9c0.6,0,1-0.4,1-0.9l0.5-11.3C144.2,480.7,143.7,480.3,143.1,480.3z"/>
			</g>
			<g>
				<path class="st27" d="M150.4,476.6l7.1,0.1c0.5,0,1.1,0.4,1.3,0.9l0.4,1.1h7.9c0.6,0,1,0.5,1,1l-0.4,10.4c0,0.5-0.4,1-1,1h-15.9
					c-0.5,0-1-0.4-1-1l-0.4-12.5C149.4,477,149.8,476.6,150.4,476.6z"/>
				<polygon class="st22" points="167.5,484.2 150.6,485.4 150,480.2 167,478.9 				"/>
				<path class="st28" d="M167.7,480.3l-7.6,0.1c-0.6,0-1.2,0.4-1.4,0.8l-0.5,1h-8.3c-0.6,0-1.1,0.4-1.1,0.9l0.5,9.3
					c0,0.5,0.5,0.9,1,0.9h16.9c0.6,0,1-0.4,1-0.9l0.5-11.3C168.8,480.7,168.3,480.3,167.7,480.3z"/>
			</g>
			<g>
				<path class="st27" d="M124.2,433.2l8.6,0.1c0.6,0,1.4,0.5,1.6,1.1l0.5,1.3h9.4c0.7,0,1.2,0.6,1.2,1.2l-0.5,12.5
					c0,0.6-0.5,1.2-1.2,1.2h-19.1c-0.6,0-1.2-0.5-1.2-1.2l-0.5-15C123,433.8,123.5,433.2,124.2,433.2z"/>
				<polygon class="st22" points="144.7,442.3 124.3,443.8 123.7,437.6 144.1,436.1 				"/>
				<path class="st28" d="M144.9,437.7l-9.1,0.1c-0.7,0-1.4,0.4-1.7,1l-0.5,1.2h-10c-0.7,0-1.3,0.5-1.3,1.1l0.6,11.2
					c0,0.6,0.6,1.1,1.2,1.1h20.3c0.7,0,1.2-0.5,1.2-1.1l0.6-13.5C146.2,438.2,145.6,437.7,144.9,437.7z"/>
			</g>
		</g>
	</g>
	<g>
		<ellipse class="st27" cx="427.5" cy="374.1" rx="44.6" ry="44.6"/>
		<g>
			<rect x="421.3" y="342.7" class="st22" width="0.9" height="20.1"/>
			<rect x="441.1" y="342.7" class="st22" width="0.9" height="20.1"/>
			<rect x="436.5" y="370" class="st22" width="22.5" height="0.9"/>
			<polygon class="st22" points="427,342.7 426.1,342.7 426.1,349.5 431.4,349.5 431.4,360.1 432.3,360.1 432.3,348.6 427,348.6 			
				"/>
			<polygon class="st22" points="459,355.4 459,354.6 452.2,354.6 452.2,359.9 441.5,359.9 441.5,360.7 453,360.7 453,355.4 			"/>
			<polygon class="st22" points="444.5,404.7 445.4,404.7 445.4,400.5 442.3,400.5 442.3,395.1 441.4,395.1 441.4,401.4 
				444.5,401.4 			"/>
			<polygon class="st22" points="416.5,342.7 416.5,348 411.5,348 411.5,354.8 412.3,354.8 412.3,348.8 417.4,348.8 417.4,342.7 			
				"/>
			<polygon class="st22" points="410.7,390.6 399,390.6 399,385.6 393,385.6 393,384.7 399.9,384.7 399.9,389.8 410.7,389.8 			"/>
			<polygon class="st22" points="410.7,369.9 399,369.9 399,374.9 393,374.9 393,375.8 399.9,375.8 399.9,370.8 410.7,370.8 			"/>
			<path class="st22" d="M459,385h-0.9v-4.5c-1.8,0-8.8,0-9.9,0v-0.9c1.3,0,10.2,0,10.3,0h0.4v5.4H459z"/>
			<path class="st22" d="M421.9,404.6h-3.1v-0.9h2.2c0-1.8,0-8.8,0-9.9h0.9c0,1.3,0,10.2,0,10.3V404.6z"/>
			<path class="st22" d="M436.8,404.6h-5.4v-0.4c0-0.1,0-9.1,0-10.3h0.9c0,1.1,0,8.1,0,9.9h4.5V404.6z"/>
			<rect x="444.8" y="389.7" class="st22" width="14.1" height="0.9"/>
			<rect x="393" y="359.9" class="st22" width="18.9" height="0.9"/>
			<rect x="393" y="379.7" class="st22" width="14.1" height="0.9"/>
			<rect x="411.5" y="390.5" class="st22" width="0.9" height="14.1"/>
			<rect x="408.9" y="352.4" class="st19" width="5.8" height="3.6"/>
			<rect x="418.8" y="352.4" class="st19" width="5.8" height="3.6"/>
			<rect x="428.7" y="352.4" class="st19" width="5.8" height="3.6"/>
			<rect x="438.7" y="352.4" class="st19" width="5.8" height="3.6"/>
			<rect x="408.9" y="394.5" class="st19" width="5.8" height="3.6"/>
			<rect x="418.8" y="394.5" class="st19" width="5.8" height="3.6"/>
			<rect x="428.7" y="394.5" class="st19" width="5.8" height="3.6"/>
			<rect x="438.7" y="394.5" class="st19" width="5.8" height="3.6"/>
			<rect x="445.9" y="357.4" class="st19" width="3.6" height="5.8"/>
			<rect x="445.9" y="367.3" class="st19" width="3.6" height="5.8"/>
			<rect x="445.9" y="377.3" class="st19" width="3.6" height="5.8"/>
			<rect x="445.9" y="387.2" class="st19" width="3.6" height="5.8"/>
			<rect x="403.9" y="357.4" class="st19" width="3.6" height="5.8"/>
			<rect x="403.9" y="367.3" class="st19" width="3.6" height="5.8"/>
			<rect x="403.9" y="377.3" class="st19" width="3.6" height="5.8"/>
			<rect x="403.9" y="387.2" class="st19" width="3.6" height="5.8"/>
			<rect x="405.6" y="354.2" class="st23" width="42.1" height="42.1"/>
			<rect x="410" y="358.5" class="st18" width="33.4" height="33.4"/>
			<g>
				<g>
					<rect x="413.4" y="361.8" class="st22" width="4.1" height="4.1"/>
					<rect x="419" y="361.8" class="st22" width="4.1" height="4.1"/>
					<rect x="424.6" y="361.8" class="st22" width="4.1" height="4.1"/>
					<rect x="430.2" y="361.8" class="st22" width="4.1" height="4.1"/>
					<rect x="435.9" y="361.8" class="st22" width="4.1" height="4.1"/>
				</g>
				<g>
					<rect x="413.4" y="367.5" class="st22" width="4.1" height="4.1"/>
					<rect x="419" y="367.5" class="st22" width="4.1" height="4.1"/>
					<rect x="424.6" y="367.5" class="st22" width="4.1" height="4.1"/>
					<rect x="430.2" y="367.5" class="st22" width="4.1" height="4.1"/>
					<rect x="435.9" y="367.5" class="st22" width="4.1" height="4.1"/>
				</g>
				<g>
					<rect x="413.4" y="373.2" class="st22" width="4.1" height="4.1"/>
					<rect x="419" y="373.2" class="st22" width="4.1" height="4.1"/>
					<rect x="424.6" y="373.2" class="st22" width="4.1" height="4.1"/>
					<rect x="430.2" y="373.2" class="st22" width="4.1" height="4.1"/>
					<rect x="435.9" y="373.2" class="st22" width="4.1" height="4.1"/>
				</g>
				<g>
					<rect x="413.4" y="378.9" class="st22" width="4.1" height="4.1"/>
					<rect x="419" y="378.9" class="st22" width="4.1" height="4.1"/>
					<rect x="424.6" y="378.9" class="st22" width="4.1" height="4.1"/>
					<rect x="430.2" y="378.9" class="st22" width="4.1" height="4.1"/>
					<rect x="435.9" y="378.9" class="st22" width="4.1" height="4.1"/>
				</g>
				<g>
					<rect x="413.4" y="384.5" class="st22" width="4.1" height="4.1"/>
					<rect x="419" y="384.5" class="st22" width="4.1" height="4.1"/>
					<rect x="424.6" y="384.5" class="st22" width="4.1" height="4.1"/>
					<rect x="430.2" y="384.5" class="st22" width="4.1" height="4.1"/>
					<rect x="435.9" y="384.5" class="st22" width="4.1" height="4.1"/>
				</g>
			</g>
		</g>
	</g>
	<g>
		
			<ellipse transform="matrix(0.9921 -0.1255 0.1255 0.9921 -83.1662 22.2456)" class="st27" cx="134.9" cy="670.9" rx="49.4" ry="49.4"/>
		<g>
			<g>
				<g>
					<g class="st29">
						<g>
							<polygon class="st22" points="99.3,670.7 99.3,669.1 108,665 108,666.6 							"/>
						</g>
						<g>
							
								<rect x="99.3" y="669.1" transform="matrix(1 -1.617535e-03 1.617535e-03 1 -1.0835 0.1685)" class="st30" width="8.6" height="1.7"/>
						</g>
						<g>
							<polygon class="st23" points="107.9,669.1 99.3,669.1 108,665 							"/>
						</g>
						<g>
							<polygon class="st22" points="101.2,671.8 101.2,670.1 128.5,670.1 128.5,671.8 							"/>
						</g>
						<g>
							<polygon class="st30" points="101.2,673 101.2,671.3 128.5,671.3 128.5,673 							"/>
						</g>
						<g>
							<polygon class="st23" points="128.5,671.3 101.2,671.3 101.2,670.1 128.5,670.1 							"/>
						</g>
						<g>
							<polygon class="st22" points="101.1,674.3 101.1,672.6 128.6,672.6 128.6,674.3 							"/>
						</g>
						<g>
							<polygon class="st23" points="128.6,673.9 101.1,673.9 101.1,672.6 128.6,672.6 							"/>
						</g>
						<g>
							<polygon class="st30" points="101.1,675.6 101.1,673.9 128.6,673.9 128.6,675.6 							"/>
						</g>
						<g>
							<polygon class="st22" points="101,676.9 101,675.2 128.7,675.2 128.7,676.9 							"/>
						</g>
						<g>
							<polygon class="st30" points="100.9,678.2 100.9,676.5 128.8,676.5 128.8,678.2 							"/>
						</g>
						<g>
							<polygon class="st23" points="128.8,676.5 100.9,676.5 101,675.2 128.7,675.2 							"/>
						</g>
						<g>
							<polygon class="st22" points="100.9,679.5 100.9,677.8 128.8,677.8 128.8,679.5 							"/>
						</g>
						<g>
							<polygon class="st23" points="128.9,679.1 100.8,679.1 100.9,677.8 128.8,677.8 							"/>
						</g>
						<g>
							<polygon class="st30" points="100.8,680.8 100.8,679.1 128.9,679.1 128.9,680.8 							"/>
						</g>
						<g>
							<polygon class="st22" points="100.8,682.2 100.8,680.5 129,680.5 129,682.2 							"/>
						</g>
						<g>
							<polygon class="st31" points="100.7,683.5 100.7,681.8 129,681.8 129,683.5 							"/>
						</g>
						<g>
							<polygon class="st23" points="129,681.8 100.7,681.8 100.8,680.5 129,680.5 							"/>
						</g>
						<g>
							<polygon class="st22" points="100.6,685 100.6,683.2 129.1,683.2 129.1,685 							"/>
						</g>
						<g>
							<polygon class="st23" points="129.1,684.6 100.6,684.6 100.6,683.2 129.1,683.2 							"/>
						</g>
						<g>
							<polygon class="st31" points="100.6,686.3 100.6,684.6 129.1,684.6 129.1,686.3 							"/>
						</g>
						<g>
							<path class="st21" d="M98.3,688.4l1-19.3h8.6l0.1-4.1h22.2l1.2,23.4L98.3,688.4L98.3,688.4z M129,680.5h-28.2l-0.1,1.3H129
								V680.5L129,680.5z M128.8,677.8h-27.9l-0.1,1.3h28.1L128.8,677.8L128.8,677.8z M128.7,675.2H101l-0.1,1.3h27.8V675.2
								L128.7,675.2z M128.6,672.6h-27.5l-0.1,1.2h27.6V672.6L128.6,672.6z M129.1,683.2h-28.5l-0.1,1.3h28.6V683.2L129.1,683.2z
								 M128.5,670.1h-27.2l-0.1,1.2h27.3V670.1L128.5,670.1z"/>
						</g>
						<g>
							<polygon class="st22" points="98.3,690.2 98.3,688.4 131.4,688.4 131.4,690.2 							"/>
						</g>
					</g>
				</g>
				<g>
					<g class="st29">
						<g>
							<polygon class="st22" points="99.3,666.8 99.3,665.2 108,661.1 108,662.7 							"/>
						</g>
						<g>
							
								<rect x="99.3" y="665.2" transform="matrix(1 -1.617632e-03 1.617632e-03 1 -1.0773 0.1685)" class="st30" width="8.6" height="1.7"/>
						</g>
						<g>
							<polygon class="st23" points="107.9,665.2 99.3,665.2 108,661.1 							"/>
						</g>
						<g>
							<polygon class="st22" points="101.2,667.9 101.2,666.2 128.5,666.2 128.5,667.9 							"/>
						</g>
						<g>
							<polygon class="st30" points="101.2,669.1 101.2,667.4 128.5,667.4 128.5,669.1 							"/>
						</g>
						<g>
							<polygon class="st23" points="128.5,667.4 101.2,667.4 101.2,666.2 128.5,666.2 							"/>
						</g>
						<g>
							<polygon class="st22" points="101.1,670.4 101.1,668.7 128.6,668.7 128.6,670.4 							"/>
						</g>
						<g>
							<polygon class="st23" points="128.6,670 101.1,670 101.1,668.7 128.6,668.7 							"/>
						</g>
						<g>
							<polygon class="st30" points="101.1,671.7 101.1,670 128.6,670 128.6,671.7 							"/>
						</g>
						<g>
							<polygon class="st22" points="101,673 101,671.3 128.7,671.3 128.7,673 							"/>
						</g>
						<g>
							<polygon class="st30" points="100.9,674.3 100.9,672.6 128.8,672.6 128.8,674.3 							"/>
						</g>
						<g>
							<polygon class="st23" points="128.8,672.6 100.9,672.6 101,671.3 128.7,671.3 							"/>
						</g>
						<g>
							<polygon class="st22" points="100.9,675.7 100.9,673.9 128.8,673.9 128.8,675.7 							"/>
						</g>
						<g>
							<polygon class="st23" points="128.9,675.2 100.8,675.2 100.9,673.9 128.8,673.9 							"/>
						</g>
						<g>
							<polygon class="st30" points="100.8,676.9 100.8,675.2 128.9,675.2 128.9,676.9 							"/>
						</g>
						<g>
							<polygon class="st22" points="100.8,678.3 100.8,676.6 129,676.6 129,678.3 							"/>
						</g>
						<g>
							<polygon class="st31" points="100.7,679.7 100.7,677.9 129,677.9 129,679.7 							"/>
						</g>
						<g>
							<polygon class="st23" points="129,677.9 100.7,677.9 100.8,676.6 129,676.6 							"/>
						</g>
						<g>
							<polygon class="st22" points="100.6,681.1 100.6,679.3 129.1,679.3 129.1,681.1 							"/>
						</g>
						<g>
							<polygon class="st23" points="129.1,680.7 100.6,680.7 100.6,679.3 129.1,679.3 							"/>
						</g>
						<g>
							<polygon class="st31" points="100.6,682.4 100.6,680.7 129.1,680.7 129.1,682.4 							"/>
						</g>
						<g>
							<path class="st21" d="M98.3,684.5l1-19.3h8.6l0.1-4.1h22.2l1.2,23.4L98.3,684.5L98.3,684.5z M129,676.6h-28.2l-0.1,1.3H129
								V676.6L129,676.6z M128.8,673.9h-27.9l-0.1,1.3h28.1L128.8,673.9L128.8,673.9z M128.7,671.3H101l-0.1,1.3h27.8V671.3
								L128.7,671.3z M128.6,668.7h-27.5l-0.1,1.2h27.6V668.7L128.6,668.7z M129.1,679.3h-28.5l-0.1,1.3h28.6V679.3L129.1,679.3z
								 M128.5,666.2h-27.2l-0.1,1.2h27.3V666.2L128.5,666.2z"/>
						</g>
						<g>
							<polygon class="st22" points="98.3,686.3 98.3,684.5 131.4,684.5 131.4,686.3 							"/>
						</g>
					</g>
				</g>
				<g>
					<g class="st29">
						<g>
							<polygon class="st22" points="99.3,662.9 99.3,661.3 108,657.2 108,658.8 							"/>
						</g>
						<g>
							
								<rect x="99.3" y="661.3" transform="matrix(1 -1.617632e-03 1.617632e-03 1 -1.071 0.1685)" class="st30" width="8.6" height="1.7"/>
						</g>
						<g>
							<polygon class="st23" points="107.9,661.3 99.3,661.3 108,657.2 							"/>
						</g>
						<g>
							<polygon class="st22" points="101.2,664 101.2,662.3 128.5,662.3 128.5,664 							"/>
						</g>
						<g>
							<polygon class="st30" points="101.2,665.2 101.2,663.5 128.5,663.5 128.5,665.2 							"/>
						</g>
						<g>
							<polygon class="st23" points="128.5,663.5 101.2,663.5 101.2,662.3 128.5,662.3 							"/>
						</g>
						<g>
							<polygon class="st22" points="101.1,666.5 101.1,664.8 128.6,664.8 128.6,666.5 							"/>
						</g>
						<g>
							<polygon class="st23" points="128.6,666.1 101.1,666.1 101.1,664.8 128.6,664.8 							"/>
						</g>
						<g>
							<polygon class="st30" points="101.1,667.8 101.1,666.1 128.6,666.1 128.6,667.8 							"/>
						</g>
						<g>
							<polygon class="st22" points="101,669.1 101,667.4 128.7,667.4 128.7,669.1 							"/>
						</g>
						<g>
							<polygon class="st30" points="100.9,670.4 100.9,668.7 128.8,668.7 128.8,670.4 							"/>
						</g>
						<g>
							<polygon class="st23" points="128.8,668.7 100.9,668.7 101,667.4 128.7,667.4 							"/>
						</g>
						<g>
							<polygon class="st22" points="100.9,671.8 100.9,670 128.8,670 128.8,671.8 							"/>
						</g>
						<g>
							<polygon class="st23" points="128.9,671.3 100.8,671.3 100.9,670 128.8,670 							"/>
						</g>
						<g>
							<polygon class="st30" points="100.8,673.1 100.8,671.3 128.9,671.3 128.9,673.1 							"/>
						</g>
						<g>
							<polygon class="st22" points="100.8,674.5 100.8,672.7 129,672.7 129,674.5 							"/>
						</g>
						<g>
							<polygon class="st31" points="100.7,675.8 100.7,674 129,674 129,675.8 							"/>
						</g>
						<g>
							<polygon class="st23" points="129,674 100.7,674 100.8,672.7 129,672.7 							"/>
						</g>
						<g>
							<polygon class="st22" points="100.6,677.2 100.6,675.4 129.1,675.4 129.1,677.2 							"/>
						</g>
						<g>
							<polygon class="st23" points="129.1,676.8 100.6,676.8 100.6,675.4 129.1,675.4 							"/>
						</g>
						<g>
							<polygon class="st31" points="100.6,678.5 100.6,676.8 129.1,676.8 129.1,678.5 							"/>
						</g>
						<g>
							<path class="st21" d="M98.3,680.6l1-19.3h8.6l0.1-4.1h22.2l1.2,23.4L98.3,680.6L98.3,680.6z M129,672.7h-28.2l-0.1,1.3H129
								V672.7L129,672.7z M128.8,670h-27.9l-0.1,1.3h28.1L128.8,670L128.8,670z M128.7,667.4H101l-0.1,1.3h27.8V667.4L128.7,667.4z
								 M128.6,664.8h-27.5L101,666h27.6V664.8L128.6,664.8z M129.1,675.4h-28.5l-0.1,1.3h28.6V675.4L129.1,675.4z M128.5,662.3
								h-27.2l-0.1,1.2h27.3V662.3L128.5,662.3z"/>
						</g>
						<g>
							<polygon class="st22" points="98.3,682.4 98.3,680.6 131.4,680.6 131.4,682.4 							"/>
						</g>
					</g>
				</g>
				<g>
					<g class="st29">
						<g>
							<polygon class="st22" points="99.3,659 99.3,657.4 108,653.3 108,654.9 							"/>
						</g>
						<g>
							
								<rect x="99.3" y="657.4" transform="matrix(1 -1.617535e-03 1.617535e-03 1 -1.0646 0.1684)" class="st30" width="8.6" height="1.7"/>
						</g>
						<g>
							<polygon class="st23" points="107.9,657.4 99.3,657.4 108,653.3 							"/>
						</g>
						<g>
							<polygon class="st22" points="101.2,660.1 101.2,658.4 128.5,658.4 128.5,660.1 							"/>
						</g>
						<g>
							<polygon class="st30" points="101.2,661.3 101.2,659.6 128.5,659.6 128.5,661.3 							"/>
						</g>
						<g>
							<polygon class="st23" points="128.5,659.6 101.2,659.6 101.2,658.4 128.5,658.4 							"/>
						</g>
						<g>
							<polygon class="st22" points="101.1,662.6 101.1,660.9 128.6,660.9 128.6,662.6 							"/>
						</g>
						<g>
							<polygon class="st23" points="128.6,662.2 101.1,662.2 101.1,660.9 128.6,660.9 							"/>
						</g>
						<g>
							<polygon class="st30" points="101.1,663.9 101.1,662.2 128.6,662.2 128.6,663.9 							"/>
						</g>
						<g>
							<polygon class="st22" points="101,665.2 101,663.5 128.7,663.5 128.7,665.2 							"/>
						</g>
						<g>
							<polygon class="st30" points="100.9,666.5 100.9,664.8 128.8,664.8 128.8,666.5 							"/>
						</g>
						<g>
							<polygon class="st23" points="128.8,664.8 100.9,664.8 101,663.5 128.7,663.5 							"/>
						</g>
						<g>
							<polygon class="st22" points="100.9,667.9 100.9,666.2 128.8,666.2 128.8,667.9 							"/>
						</g>
						<g>
							<polygon class="st23" points="128.9,667.4 100.8,667.4 100.9,666.2 128.8,666.2 							"/>
						</g>
						<g>
							<polygon class="st30" points="100.8,669.2 100.8,667.4 128.9,667.4 128.9,669.2 							"/>
						</g>
						<g>
							<polygon class="st22" points="100.8,670.6 100.8,668.8 129,668.8 129,670.6 							"/>
						</g>
						<g>
							<polygon class="st31" points="100.7,671.9 100.7,670.1 129,670.1 129,671.9 							"/>
						</g>
						<g>
							<polygon class="st23" points="129,670.1 100.7,670.1 100.8,668.8 129,668.8 							"/>
						</g>
						<g>
							<polygon class="st22" points="100.6,673.3 100.6,671.6 129.1,671.6 129.1,673.3 							"/>
						</g>
						<g>
							<polygon class="st23" points="129.1,672.9 100.6,672.9 100.6,671.6 129.1,671.6 							"/>
						</g>
						<g>
							<polygon class="st31" points="100.6,674.6 100.6,672.9 129.1,672.9 129.1,674.6 							"/>
						</g>
						<g>
							<path class="st21" d="M98.3,676.7l1-19.3h8.6l0.1-4.1h22.2l1.2,23.4L98.3,676.7L98.3,676.7z M129,668.8h-28.2l-0.1,1.3H129
								V668.8L129,668.8z M128.8,666.2h-27.9l-0.1,1.3h28.1L128.8,666.2L128.8,666.2z M128.7,663.5H101l-0.1,1.3h27.8V663.5
								L128.7,663.5z M128.6,660.9h-27.5l-0.1,1.2h27.6V660.9L128.6,660.9z M129.1,671.6h-28.5l-0.1,1.3h28.6V671.6L129.1,671.6z
								 M128.5,658.4h-27.2l-0.1,1.2h27.3V658.4L128.5,658.4z"/>
						</g>
						<g>
							<polygon class="st22" points="98.3,678.5 98.3,676.7 131.4,676.7 131.4,678.5 							"/>
						</g>
					</g>
				</g>
				<g>
					<g class="st29">
						<g>
							<polygon class="st22" points="99.3,655.2 99.3,653.5 108,649.4 108,651 							"/>
						</g>
						<g>
							
								<rect x="99.3" y="653.5" transform="matrix(1 -1.617632e-03 1.617632e-03 1 -1.0584 0.1684)" class="st30" width="8.6" height="1.7"/>
						</g>
						<g>
							<polygon class="st23" points="107.9,653.5 99.3,653.5 108,649.4 							"/>
						</g>
						<g>
							<polygon class="st22" points="101.2,656.2 101.2,654.5 128.5,654.5 128.5,656.2 							"/>
						</g>
						<g>
							<polygon class="st30" points="101.2,657.4 101.2,655.7 128.5,655.7 128.5,657.4 							"/>
						</g>
						<g>
							<polygon class="st23" points="128.5,655.7 101.2,655.7 101.2,654.5 128.5,654.5 							"/>
						</g>
						<g>
							<polygon class="st22" points="101.1,658.7 101.1,657.1 128.6,657.1 128.6,658.7 							"/>
						</g>
						<g>
							<polygon class="st23" points="128.6,658.3 101.1,658.3 101.1,657.1 128.6,657.1 							"/>
						</g>
						<g>
							<polygon class="st30" points="101.1,660 101.1,658.3 128.6,658.3 128.6,660 							"/>
						</g>
						<g>
							<polygon class="st22" points="101,661.3 101,659.6 128.7,659.6 128.7,661.3 							"/>
						</g>
						<g>
							<polygon class="st30" points="100.9,662.6 100.9,660.9 128.8,660.9 128.8,662.6 							"/>
						</g>
						<g>
							<polygon class="st23" points="128.8,660.9 100.9,660.9 101,659.6 128.7,659.6 							"/>
						</g>
						<g>
							<polygon class="st22" points="100.9,664 100.9,662.3 128.8,662.3 128.8,664 							"/>
						</g>
						<g>
							<polygon class="st23" points="128.9,663.5 100.8,663.5 100.9,662.3 128.8,662.3 							"/>
						</g>
						<g>
							<polygon class="st30" points="100.8,665.3 100.8,663.5 128.9,663.5 128.9,665.3 							"/>
						</g>
						<g>
							<polygon class="st22" points="100.8,666.7 100.8,664.9 129,664.9 129,666.7 							"/>
						</g>
						<g>
							<polygon class="st31" points="100.7,668 100.7,666.2 129,666.2 129,668 							"/>
						</g>
						<g>
							<polygon class="st23" points="129,666.2 100.7,666.2 100.8,664.9 129,664.9 							"/>
						</g>
						<g>
							<polygon class="st22" points="100.6,669.4 100.6,667.7 129.1,667.7 129.1,669.4 							"/>
						</g>
						<g>
							<polygon class="st23" points="129.1,669 100.6,669 100.6,667.7 129.1,667.7 							"/>
						</g>
						<g>
							<polygon class="st31" points="100.6,670.7 100.6,669 129.1,669 129.1,670.7 							"/>
						</g>
						<g>
							<path class="st21" d="M98.3,672.8l1-19.3h8.6l0.1-4.1h22.2l1.2,23.4L98.3,672.8L98.3,672.8z M129,664.9h-28.2l-0.1,1.3H129
								V664.9L129,664.9z M128.8,662.3h-27.9l-0.1,1.3h28.1L128.8,662.3L128.8,662.3z M128.7,659.6H101l-0.1,1.3h27.8V659.6
								L128.7,659.6z M128.6,657.1h-27.5l-0.1,1.2h27.6V657.1L128.6,657.1z M129.1,667.7h-28.5v1.3h28.6L129.1,667.7L129.1,667.7z
								 M128.5,654.5h-27.2l-0.1,1.2h27.3V654.5L128.5,654.5z"/>
						</g>
						<g>
							<polygon class="st22" points="98.3,674.6 98.3,672.8 131.4,672.8 131.4,674.6 							"/>
						</g>
					</g>
				</g>
			</g>
			<g>
				<rect x="114.4" y="688.7" class="st22" width="1" height="1.5"/>
				<path class="st22" d="M115.4,701.9h-1V699h1V701.9z M115.4,696.1h-1v-2.9h1V696.1z"/>
				<polygon class="st22" points="116.4,706.9 114.4,706.9 114.4,704.9 115.4,704.9 115.4,705.9 116.4,705.9 				"/>
				<path class="st22" d="M150.6,706.9h-2.9v-1h2.9V706.9z M144.9,706.9H142v-1h2.9V706.9z M139.2,706.9h-2.9v-1h2.9V706.9z
					 M133.5,706.9h-2.9v-1h2.9V706.9z M127.8,706.9h-2.9v-1h2.9V706.9z M122.1,706.9h-2.9v-1h2.9V706.9z"/>
				<polygon class="st22" points="155.5,706.9 153.5,706.9 153.5,705.9 154.5,705.9 154.5,704.9 155.5,704.9 				"/>
				<rect x="154.5" y="699.9" class="st22" width="1" height="2.5"/>
				<rect x="154.5" y="695.9" class="st22" width="1" height="1.5"/>
				<g>
					<polygon class="st22" points="157.5,696.7 155,692.3 152.5,696.7 					"/>
				</g>
			</g>
			<g>
				<rect x="154.5" y="645.3" class="st22" width="1" height="1.5"/>
				<rect x="154.5" y="638.9" class="st22" width="1" height="3.2"/>
				<polygon class="st22" points="155.5,635.6 154.5,635.6 154.5,634.6 153.5,634.6 153.5,633.6 155.5,633.6 				"/>
				<path class="st22" d="M150.6,634.6h-2.9v-1h2.9V634.6z M144.9,634.6H142v-1h2.9V634.6z M139.2,634.6h-2.9v-1h2.9V634.6z
					 M133.5,634.6h-2.9v-1h2.9V634.6z M127.8,634.6h-2.9v-1h2.9V634.6z M122.1,634.6h-2.9v-1h2.9V634.6z"/>
				<polygon class="st22" points="115.4,635.6 114.4,635.6 114.4,633.6 116.4,633.6 116.4,634.6 115.4,634.6 				"/>
				<rect x="114.4" y="638.1" class="st22" width="1" height="2.5"/>
				<rect x="114.4" y="643.1" class="st22" width="1" height="1.5"/>
				<g>
					<polygon class="st22" points="112.4,643.9 114.9,648.2 117.3,643.9 					"/>
				</g>
			</g>
			<g>
				<g>
					<path class="st23" d="M137.9,677.7v5.5c0,4.6,7.6,8.3,17.1,8.3c9.4,0,17.1-3.7,17.1-8.3v-5.5H137.9z"/>
					<path class="st19" d="M172.1,677.7c0,4.6-7.6,8.3-17.1,8.3c-9.4,0-17.1-3.7-17.1-8.3s7.6-8.3,17.1-8.3
						C164.4,669.4,172.1,673.1,172.1,677.7z"/>
				</g>
				<g>
					<path class="st23" d="M137.9,671v5.5c0,4.6,7.6,8.3,17.1,8.3c9.4,0,17.1-3.7,17.1-8.3V671H137.9z"/>
					<path class="st19" d="M172.1,671c0,4.6-7.6,8.3-17.1,8.3c-9.4,0-17.1-3.7-17.1-8.3s7.6-8.3,17.1-8.3
						C164.4,662.7,172.1,666.4,172.1,671z"/>
				</g>
				<g>
					<path class="st23" d="M137.9,664.3v5.5c0,4.6,7.6,8.3,17.1,8.3c9.4,0,17.1-3.7,17.1-8.3v-5.5H137.9z"/>
					<path class="st19" d="M172.1,664.3c0,4.6-7.6,8.3-17.1,8.3c-9.4,0-17.1-3.7-17.1-8.3s7.6-8.3,17.1-8.3
						C164.4,656,172.1,659.7,172.1,664.3z"/>
				</g>
				<g>
					<path class="st23" d="M137.9,657.6v5.5c0,4.6,7.6,8.3,17.1,8.3c9.4,0,17.1-3.7,17.1-8.3v-5.5H137.9z"/>
					<path class="st19" d="M172.1,657.6c0,4.6-7.6,8.3-17.1,8.3c-9.4,0-17.1-3.7-17.1-8.3s7.6-8.3,17.1-8.3
						C164.4,649.3,172.1,653,172.1,657.6z"/>
				</g>
				<g>
					<path class="st23" d="M137.9,650.9v5.5c0,4.6,7.6,8.3,17.1,8.3c9.4,0,17.1-3.7,17.1-8.3v-5.5H137.9z"/>
					<path class="st19" d="M172.1,650.9c0,4.6-7.6,8.3-17.1,8.3c-9.4,0-17.1-3.7-17.1-8.3s7.6-8.3,17.1-8.3
						C164.4,642.6,172.1,646.3,172.1,650.9z"/>
				</g>
			</g>
		</g>
	</g>
	<g>
		
			<ellipse transform="matrix(0.9985 -5.530040e-02 5.530040e-02 0.9985 -49.9624 8.8372)" class="st18" cx="134.7" cy="907.2" rx="49.4" ry="49.4"/>
		<g>
			<g>
				<polygon class="st23" points="147.7,937.5 121.6,937.5 123.8,915.6 145.5,915.6 				"/>
				<rect x="118.4" y="937.5" class="st23" width="32.5" height="1.9"/>
				<path class="st23" d="M166.8,883.7h-64.3c-1.7,0-3.2,1.4-3.2,3.2v3.5v33.7v3.5c0,1.7,1.4,3.2,3.2,3.2h64.3
					c1.8,0,3.2-1.4,3.2-3.2v-3.5v-33.7v-3.5C170,885.2,168.6,883.7,166.8,883.7z"/>
				<g>
					<path class="st27" d="M120.6,913.4l15-11.6l13.3,3.1c0,0,14.9-11.4,18.5-14.2V889c0-1.1-0.9-1.9-1.9-1.9h-61.7
						c-1,0-1.9,0.9-1.9,1.9v26.9l7.8-6.5L120.6,913.4z"/>
					<path class="st32" d="M148.9,905l-13.3-3.1l-15,11.6l-10.9-4.1l-7.8,6.5v7.2c0,1,0.9,1.9,1.9,1.9h61.7c1,0,1.9-0.9,1.9-1.9
						v-32.3C163.9,893.6,149.3,905.1,148.9,905z"/>
					<path class="st22" d="M150.8,904.8c0-1.1-0.9-2-2-2s-2,0.9-2,2s0.9,2,2,2C149.9,906.8,150.8,905.9,150.8,904.8z"/>
					<path class="st22" d="M137.9,902c0-1.1-0.9-2-2-2s-2,0.9-2,2s0.9,2,2,2C137,904.1,137.9,903.2,137.9,902z"/>
					<path class="st22" d="M122.5,913.3c0-1.1-0.9-2-2-2s-2,0.9-2,2s0.9,2,2,2S122.5,914.4,122.5,913.3z"/>
					<path class="st22" d="M111.7,909.8c0-1.1-0.9-2-2-2s-2,0.9-2,2s0.9,2,2,2C110.8,911.8,111.7,910.9,111.7,909.8z"/>
					<path class="st22" d="M148.8,904.2l-13-3.1c-0.2-0.1-0.5,0-0.6,0.1l-14.7,11.4l-10.5-4c-0.3-0.1-0.5-0.1-0.7,0.1l-7.4,6v1.1
						v0.7c0.1,0,0.3-0.1,0.4-0.2l7.6-6.2l10.5,4c0.2,0.1,0.5,0.1,0.7-0.1l14.7-11.4l12.9,3c0.5,0.2,0.7,0.2,18.7-13.6v-1.9
						C160,895.8,150.5,903.1,148.8,904.2z"/>
				</g>
			</g>
			<g>
				<path class="st22" d="M102.2,902.3l1.3-2.5c0-0.1,0.1-0.2,0.1-0.2c0.7,0,1.3,0,2-0.1c0.2,0,0.4,0.2,0.5,0.4l1.7,2.2
					c0.2,0.3,0.5,0.4,0.8,0.2l0,0l2.5-1.3c0.3-0.2,0.4-0.5,0.2-0.8l-0.8-2.7c0-0.1-0.1-0.2-0.1-0.3c0.5-0.4,1-0.9,1.4-1.5
					c0.2-0.1,0.4-0.2,0.6-0.1l2.8,0.3c0.3,0.1,0.6-0.1,0.7-0.4l0,0l0.8-2.7c0.1-0.3-0.1-0.6-0.4-0.7l-2.5-1.3
					c-0.1,0-0.2-0.1-0.2-0.1c0-0.7,0-1.3-0.1-2c0-0.2,0.2-0.4,0.4-0.5l2.2-1.7c0.3-0.2,0.4-0.5,0.2-0.8l0,0l-1.3-2.5
					c-0.2-0.3-0.5-0.4-0.8-0.2l-2.7,0.8c-0.1,0-0.2,0.1-0.3,0.1c-0.4-0.5-0.9-1-1.5-1.4c-0.1-0.2-0.2-0.4-0.1-0.6l0.3-2.8
					c0.1-0.3-0.1-0.6-0.4-0.7l0,0l-2.7-0.8c-0.3-0.1-0.6,0.1-0.7,0.4l-1.3,2.5c0,0.1-0.1,0.2-0.1,0.2c-0.7,0-1.3,0-2,0.1
					c-0.2,0-0.4-0.2-0.5-0.4l-1.7-2.2c-0.2-0.3-0.5-0.4-0.8-0.2l0,0l-2.5,1.3c-0.3,0.2-0.4,0.5-0.2,0.8l0.8,2.7
					c0,0.1,0.1,0.2,0.1,0.3c-0.5,0.4-1,0.9-1.4,1.5c-0.2,0.1-0.4,0.2-0.6,0.1l-2.8-0.3c-0.3-0.1-0.6,0.1-0.7,0.4l0,0l-0.8,2.7
					c-0.1,0.3,0.1,0.6,0.4,0.7l2.5,1.3c0.1,0,0.2,0.1,0.2,0.1c0,0.7,0,1.3,0.1,2c0,0.2-0.2,0.4-0.4,0.5l-2.2,1.7
					c-0.3,0.2-0.4,0.5-0.2,0.8l0,0l1.3,2.5c0.2,0.3,0.5,0.4,0.8,0.2l2.7-0.8c0.1,0,0.2-0.1,0.3-0.1c0.4,0.5,0.9,1,1.5,1.4
					c0.1,0.2,0.2,0.4,0.1,0.6l-0.3,2.8c-0.1,0.3,0.1,0.6,0.4,0.7l0,0l2.7,0.8C101.8,902.8,102.1,902.6,102.2,902.3z M100.4,889
					c0.7-2.1,2.9-3.3,5-2.7c2.1,0.7,3.3,2.9,2.7,5c-0.7,2.1-2.9,3.3-5,2.7C100.9,893.4,99.7,891.1,100.4,889z"/>
			</g>
			<g>
				<path class="st22" d="M162.9,918.5l2-0.1c0.1,0,0.1,0,0.2,0c0.2,0.4,0.5,0.8,0.8,1.2c0.1,0.1,0.1,0.3,0,0.5l-0.7,1.9
					c-0.1,0.2-0.1,0.5,0.1,0.6l0,0l1.7,1c0.2,0.1,0.5,0.1,0.6-0.1l1.3-1.5c0-0.1,0.1-0.1,0.1-0.1c0.5,0.1,0.9,0.2,1.4,0.3
					c0.1,0.1,0.3,0.2,0.3,0.3l0.8,1.8c0.1,0.2,0.3,0.4,0.5,0.3l0,0l1.9-0.5c0.2-0.1,0.4-0.3,0.3-0.5l-0.1-2c0-0.1,0-0.1,0-0.2
					c0.4-0.2,0.8-0.5,1.2-0.8c0.1-0.1,0.3-0.1,0.5,0l1.9,0.7c0.2,0.1,0.5,0.1,0.6-0.1l0,0l1-1.7c0.1-0.2,0.1-0.5-0.1-0.6l-1.5-1.3
					c-0.1,0-0.1-0.1-0.1-0.1c0.1-0.5,0.2-0.9,0.3-1.4c0.1-0.1,0.2-0.3,0.3-0.3l1.8-0.8c0.2-0.1,0.4-0.3,0.3-0.5l0,0l-0.5-1.9
					c-0.1-0.2-0.3-0.4-0.5-0.3l-2,0.1c-0.1,0-0.1,0-0.2,0c-0.2-0.4-0.5-0.8-0.8-1.2c-0.1-0.1-0.1-0.3,0-0.5l0.7-1.9
					c0.1-0.2,0.1-0.5-0.1-0.6l0,0l-1.7-1c-0.2-0.1-0.5-0.1-0.6,0.1l-1.3,1.5c0,0.1-0.1,0.1-0.1,0.1c-0.5-0.1-0.9-0.2-1.4-0.3
					c-0.1-0.1-0.3-0.2-0.3-0.3l-0.8-1.8c-0.1-0.2-0.3-0.4-0.5-0.3l0,0l-1.9,0.5c-0.2,0.1-0.4,0.3-0.3,0.5l0.1,2c0,0.1,0,0.1,0,0.2
					c-0.4,0.2-0.8,0.5-1.2,0.8c-0.1,0.1-0.3,0.1-0.5,0l-1.9-0.7c-0.2-0.1-0.5-0.1-0.6,0.1l0,0l-1,1.7c-0.1,0.2-0.1,0.5,0.1,0.6
					l1.5,1.3c0.1,0,0.1,0.1,0.1,0.1c-0.1,0.5-0.2,0.9-0.3,1.4c-0.1,0.1-0.2,0.3-0.3,0.3l-1.8,0.8c-0.2,0.1-0.4,0.3-0.3,0.5l0,0
					l0.5,1.9C162.5,918.4,162.7,918.6,162.9,918.5z M170.4,912.5c1.5-0.4,3.1,0.6,3.5,2.1s-0.6,3.1-2.1,3.5s-3.1-0.6-3.5-2.1
					C168,914.5,168.9,912.9,170.4,912.5z"/>
			</g>
		</g>
	</g>
	<g>
		
			<ellipse transform="matrix(0.7071 -0.7071 0.7071 0.7071 -406.6326 522.9126)" class="st21" cx="427.9" cy="752.3" rx="49.4" ry="49.4"/>
		<g>
			<g>
				<path class="st23" d="M467.4,768.7c2,1.8,1.4,3.3-1.3,3.3h-62.5c-2.7,0-3.3-1.5-1.3-3.3l3.6-3.2c2-1.8,5.9-3.3,8.6-3.3h40.8
					c2.7,0,6.6,1.5,8.6,3.3L467.4,768.7z"/>
				<path class="st20" d="M462.3,761.8c0,1.4-1.1,2.5-2.5,2.5h-50c-1.4,0-2.5-1.1-2.5-2.5v-29c0-1.4,1.1-2.5,2.5-2.5h50
					c1.4,0,2.5,1.1,2.5,2.5V761.8z"/>
				<path class="st23" d="M462.3,761.8c0,1.4-1.1,2.5-2.5,2.5h-50c-1.4,0-2.5-1.1-2.5-2.5v-29c0-1.4,1.1-2.5,2.5-2.5h50
					c1.4,0,2.5,1.1,2.5,2.5V761.8z"/>
				<path class="st21" d="M460.3,760.6c0,0.8-0.7,1.5-1.5,1.5h-48c-0.8,0-1.5-0.7-1.5-1.5v-26.5c0-0.8,0.7-1.5,1.5-1.5h48
					c0.8,0,1.5,0.7,1.5,1.5V760.6z"/>
			</g>
			<g>
				<g>
					<path class="st22" d="M413.3,737.3c0-0.9,0.6-1.4,1.4-1.4h1.3c1,0,1.3,0.6,1.3,1.4v2.9c0,0.9-0.5,1.4-1.4,1.4h-1.3
						c-0.9,0-1.4-0.4-1.4-1.4v-2.9H413.3z M414.9,740.5h0.7c0.4,0,0.6-0.1,0.6-0.5v-2.5c0-0.4-0.2-0.5-0.5-0.5h-0.8
						c-0.5,0-0.5,0.3-0.5,0.5v2.5C414.3,740.4,414.6,740.5,414.9,740.5z"/>
				</g>
				<g>
					<path class="st22" d="M432.8,737.3c0-0.9,0.6-1.4,1.4-1.4h1.3c1,0,1.3,0.6,1.3,1.4v2.9c0,0.9-0.5,1.4-1.4,1.4h-1.3
						c-0.9,0-1.4-0.4-1.4-1.4v-2.9H432.8z M434.4,740.5h0.7c0.4,0,0.6-0.1,0.6-0.5v-2.5c0-0.4-0.2-0.5-0.5-0.5h-0.8
						c-0.5,0-0.5,0.3-0.5,0.5v2.5C433.9,740.4,434.2,740.5,434.4,740.5z"/>
				</g>
				<g>
					<path class="st22" d="M419.8,746.2c0-0.9,0.6-1.4,1.4-1.4h1.3c1,0,1.3,0.6,1.3,1.4v2.9c0,0.9-0.5,1.4-1.4,1.4h-1.3
						c-0.9,0-1.4-0.4-1.4-1.4v-2.9H419.8z M421.4,749.4h0.7c0.4,0,0.6-0.1,0.6-0.5v-2.5c0-0.4-0.2-0.5-0.5-0.5h-0.8
						c-0.5,0-0.5,0.3-0.5,0.5v2.5C420.8,749.3,421.2,749.4,421.4,749.4z"/>
				</g>
				<g>
					<path class="st22" d="M419.8,755.1c0-0.9,0.6-1.4,1.4-1.4h1.3c1,0,1.3,0.6,1.3,1.4v2.9c0,0.9-0.5,1.4-1.4,1.4h-1.3
						c-0.9,0-1.4-0.4-1.4-1.4v-2.9H419.8z M421.4,758.3h0.7c0.4,0,0.6-0.1,0.6-0.5v-2.5c0-0.4-0.2-0.5-0.5-0.5h-0.8
						c-0.5,0-0.5,0.3-0.5,0.5v2.5C420.8,758.2,421.2,758.3,421.4,758.3z"/>
				</g>
				<g>
					<path class="st22" d="M413.3,755.1c0-0.9,0.6-1.4,1.4-1.4h1.3c1,0,1.3,0.6,1.3,1.4v2.9c0,0.9-0.5,1.4-1.4,1.4h-1.3
						c-0.9,0-1.4-0.4-1.4-1.4v-2.9H413.3z M414.9,758.3h0.7c0.4,0,0.6-0.1,0.6-0.5v-2.5c0-0.4-0.2-0.5-0.5-0.5h-0.8
						c-0.5,0-0.5,0.3-0.5,0.5v2.5C414.3,758.2,414.6,758.3,414.9,758.3z"/>
				</g>
				<g>
					<path class="st22" d="M439.3,737.3c0-0.9,0.6-1.4,1.4-1.4h1.3c1,0,1.3,0.6,1.3,1.4v2.9c0,0.9-0.5,1.4-1.4,1.4h-1.3
						c-0.9,0-1.4-0.4-1.4-1.4v-2.9H439.3z M441,740.5h0.7c0.4,0,0.6-0.1,0.6-0.5v-2.5c0-0.4-0.2-0.5-0.5-0.5H441
						c-0.5,0-0.5,0.3-0.5,0.5v2.5C440.4,740.4,440.7,740.5,441,740.5z"/>
				</g>
				<g>
					<path class="st22" d="M445.8,737.3c0-0.9,0.6-1.4,1.4-1.4h1.3c1,0,1.3,0.6,1.3,1.4v2.9c0,0.9-0.5,1.4-1.4,1.4h-1.3
						c-0.9,0-1.4-0.4-1.4-1.4v-2.9H445.8z M447.5,740.5h0.7c0.4,0,0.6-0.1,0.6-0.5v-2.5c0-0.4-0.2-0.5-0.5-0.5h-0.8
						c-0.5,0-0.5,0.3-0.5,0.5v2.5C446.9,740.4,447.2,740.5,447.5,740.5z"/>
				</g>
				<g>
					<path class="st22" d="M420.7,736.5l1.1-0.6h1.1v5.6h-1.1V737l-1.1,0.3V736.5z"/>
				</g>
				<g>
					<path class="st22" d="M427.2,736.5l1.1-0.6h1.1v5.6h-1.1V737l-1.1,0.3V736.5z"/>
				</g>
				<g>
					<path class="st22" d="M453.3,736.5l1.1-0.6h1.1v5.6h-1.1V737l-1.1,0.3V736.5z"/>
				</g>
				<g>
					<path class="st22" d="M414.2,745.4l1.1-0.6h1.1v5.6h-1.1v-4.5l-1.1,0.3V745.4z"/>
				</g>
				<g>
					<path class="st22" d="M427.2,754.3l1.1-0.6h1.1v5.6h-1.1v-4.5l-1.1,0.3V754.3z"/>
				</g>
				<g>
					<path class="st22" d="M432.8,746.2c0-0.9,0.6-1.4,1.4-1.4h1.3c1,0,1.3,0.6,1.3,1.4v2.9c0,0.9-0.5,1.4-1.4,1.4h-1.3
						c-0.9,0-1.4-0.4-1.4-1.4v-2.9H432.8z M434.4,749.4h0.7c0.4,0,0.6-0.1,0.6-0.5v-2.5c0-0.4-0.2-0.5-0.5-0.5h-0.8
						c-0.5,0-0.5,0.3-0.5,0.5v2.5C433.9,749.3,434.2,749.4,434.4,749.4z"/>
				</g>
				<g>
					<path class="st22" d="M439.3,755.1c0-0.9,0.6-1.4,1.4-1.4h1.3c1,0,1.3,0.6,1.3,1.4v2.9c0,0.9-0.5,1.4-1.4,1.4h-1.3
						c-0.9,0-1.4-0.4-1.4-1.4v-2.9H439.3z M441,758.3h0.7c0.4,0,0.6-0.1,0.6-0.5v-2.5c0-0.4-0.2-0.5-0.5-0.5H441
						c-0.5,0-0.5,0.3-0.5,0.5v2.5C440.4,758.2,440.7,758.3,441,758.3z"/>
				</g>
				<g>
					<path class="st22" d="M445.8,755.1c0-0.9,0.6-1.4,1.4-1.4h1.3c1,0,1.3,0.6,1.3,1.4v2.9c0,0.9-0.5,1.4-1.4,1.4h-1.3
						c-0.9,0-1.4-0.4-1.4-1.4v-2.9H445.8z M447.5,758.3h0.7c0.4,0,0.6-0.1,0.6-0.5v-2.5c0-0.4-0.2-0.5-0.5-0.5h-0.8
						c-0.5,0-0.5,0.3-0.5,0.5v2.5C446.9,758.2,447.2,758.3,447.5,758.3z"/>
				</g>
				<g>
					<path class="st22" d="M427.2,745.4l1.1-0.6h1.1v5.6h-1.1v-4.5l-1.1,0.3V745.4z"/>
				</g>
				<g>
					<path class="st22" d="M440.3,745.4l1.1-0.6h1.1v5.6h-1.1v-4.5l-1.1,0.3V745.4z"/>
				</g>
				<g>
					<path class="st22" d="M433.7,754.3l1.1-0.6h1.1v5.6h-1.1v-4.5l-1.1,0.3V754.3z"/>
				</g>
				<g>
					<path class="st22" d="M452.4,746.2c0-0.9,0.6-1.4,1.4-1.4h1.3c1,0,1.3,0.6,1.3,1.4v2.9c0,0.9-0.5,1.4-1.4,1.4h-1.3
						c-0.9,0-1.4-0.4-1.4-1.4v-2.9H452.4z M454,749.4h0.7c0.4,0,0.6-0.1,0.6-0.5v-2.5c0-0.4-0.2-0.5-0.5-0.5H454
						c-0.5,0-0.5,0.3-0.5,0.5v2.5C453.4,749.3,453.7,749.4,454,749.4z"/>
				</g>
				<g>
					<path class="st22" d="M453.3,754.3l1.1-0.6h1.1v5.6h-1.1v-4.5l-1.1,0.3V754.3z"/>
				</g>
				<g>
					<path class="st22" d="M446.8,745.4l1.1-0.6h1.1v5.6h-1.1v-4.5l-1.1,0.3V745.4z"/>
				</g>
			</g>
			<g>
				<path class="st23" d="M398.5,759.5c-0.8,0.8-2,0.8-2.8,0l0,0c-0.8-0.8-0.8-2,0-2.8l3.9-3.9c0.8-0.8,2-0.8,2.8,0l0,0
					c0.8,0.8,0.8,2,0,2.8L398.5,759.5z"/>
				<path class="st23" d="M390.9,770.4c-1.6,1.6-4.3,1.5-6-0.3l0,0c-1.7-1.7-1.9-4.4-0.3-6l6.9-6.9c1.6-1.6,4.3-1.5,6,0.3l0,0
					c1.7,1.7,1.9,4.4,0.3,6L390.9,770.4z"/>
				<path class="st18" d="M424.7,744c0-8.2-6.6-14.8-14.8-14.8s-14.8,6.6-14.8,14.8s6.6,14.8,14.8,14.8S424.7,752.2,424.7,744z"/>
				<path class="st21" d="M421.2,744c0-6.2-5.1-11.3-11.3-11.3s-11.3,5.1-11.3,11.3s5.1,11.3,11.3,11.3S421.2,750.2,421.2,744z"/>
			</g>
			<g>
				<path class="st22" d="M412.8,744.7l1.4-0.8h1.4v7.4h-1.4v-6l-1.4,0.4V744.7z"/>
			</g>
			<path class="st22" d="M411.6,737.7c0,1.2,0.7,1.8,1.9,1.8h1.7c1.1,0,1.8-0.6,1.8-1.8v-2.6c-0.4-0.3-0.9-0.7-1.4-0.9v3.3
				c0,0.5-0.3,0.7-0.7,0.7h-1c-0.3,0-0.8-0.1-0.8-0.7v-3.3c0-0.3,0.1-0.7,0.7-0.7h0.1c-0.6-0.2-1.3-0.4-2-0.5
				c-0.2,0.3-0.3,0.7-0.3,1.1L411.6,737.7L411.6,737.7z"/>
		</g>
	</g>
	<g>
		
			<ellipse transform="matrix(0.7071 -0.7071 0.7071 0.7071 -261.3934 462.7537)" class="st23" cx="427.9" cy="546.9" rx="49.4" ry="49.4"/>
		<g class="st33">
			<path class="st23" d="M406.1,563.7l0.2-3.7c0-0.1,0-0.3,0-0.4c0.8-0.3,1.6-0.7,2.4-1.2c0.3-0.1,0.6,0,0.8,0.1l3.3,1.7
				c0.3,0.3,0.8,0.2,1.1-0.1l0,0l2.3-3c0.3-0.3,0.2-0.8-0.1-1.1l-2.5-2.8c-0.1-0.1-0.2-0.2-0.2-0.3c0.4-0.8,0.6-1.7,0.8-2.5
				c0.1-0.3,0.4-0.4,0.7-0.5l3.5-1.1c0.4-0.1,0.7-0.5,0.7-0.9l0,0l-0.5-3.7c-0.1-0.4-0.5-0.7-0.9-0.7l-3.7-0.2c-0.1,0-0.3,0-0.4,0
				c-0.3-0.8-0.7-1.6-1.2-2.4c-0.1-0.3,0-0.6,0.1-0.8l1.7-3.3c0.3-0.3,0.2-0.8-0.1-1.1l0,0l-3-2.3c-0.3-0.3-0.8-0.2-1.1,0.1
				l-2.8,2.5c-0.1,0.1-0.2,0.2-0.3,0.2c-0.8-0.4-1.7-0.6-2.5-0.8c-0.3-0.1-0.4-0.4-0.5-0.7l-1.1-3.5c-0.1-0.4-0.5-0.7-0.9-0.7l0,0
				l-3.7,0.5c-0.4,0.1-0.7,0.5-0.7,0.9l-0.2,3.7c0,0.1,0,0.3,0,0.4c-0.8,0.3-1.6,0.7-2.4,1.2c-0.3,0.1-0.6,0-0.8-0.1l-3.3-1.7
				c-0.3-0.3-0.8-0.2-1.1,0.1l0,0l-2.3,3c-0.3,0.3-0.2,0.8,0.1,1.1l2.5,2.8c0.1,0.1,0.2,0.2,0.2,0.3c-0.4,0.8-0.6,1.7-0.8,2.5
				c-0.1,0.3-0.4,0.4-0.7,0.5l-3.5,1.1c-0.4,0.1-0.7,0.5-0.7,0.9l0,0l0.5,3.7c0.1,0.4,0.5,0.7,0.9,0.7l3.7,0.2c0.1,0,0.3,0,0.4,0
				c0.3,0.8,0.7,1.6,1.2,2.4c0.1,0.3,0,0.6-0.1,0.8l-1.7,3.3c-0.3,0.3-0.2,0.8,0.1,1.1l0,0l3,2.3c0.3,0.3,0.8,0.2,1.1-0.1l2.8-2.5
				c0.1-0.1,0.2-0.2,0.3-0.2c0.8,0.4,1.7,0.6,2.5,0.8c0.3,0.1,0.4,0.4,0.5,0.7l1.1,3.5c0.1,0.4,0.5,0.7,0.9,0.7l0,0l3.7-0.5
				C405.8,564.5,406.1,564.1,406.1,563.7z M396.4,548.5c-0.4-3,1.7-5.7,4.6-6.1c3-0.4,5.7,1.7,6.1,4.6c0.4,3-1.7,5.7-4.6,6.1
				C399.5,553.6,396.8,551.5,396.4,548.5z"/>
		</g>
		<g class="st33">
			<path class="st23" d="M457.9,553.2l0.1-3.1c0-0.1,0-0.2,0-0.3c0.7-0.3,1.4-0.6,2-1c0.2-0.1,0.5,0,0.7,0.1l2.7,1.4
				c0.3,0.2,0.7,0.2,0.9-0.1l0,0l1.9-2.5c0.2-0.3,0.2-0.7-0.1-0.9l-2.1-2.3c-0.1-0.1-0.2-0.1-0.2-0.2c0.3-0.7,0.5-1.4,0.7-2.1
				c0.1-0.2,0.3-0.4,0.6-0.4l2.9-0.9c0.4,0,0.6-0.4,0.6-0.7l0,0l-0.4-3.1c0-0.4-0.4-0.6-0.7-0.6l-3.1-0.1c-0.1,0-0.2,0-0.3,0
				c-0.3-0.7-0.6-1.4-1-2c-0.1-0.2,0-0.5,0.1-0.7l1.4-2.7c0.2-0.3,0.2-0.7-0.1-0.9l0,0l-2.5-1.9c-0.3-0.2-0.7-0.2-0.9,0.1l-2.3,2.1
				c-0.1,0.1-0.1,0.2-0.2,0.2c-0.7-0.3-1.4-0.5-2.1-0.7c-0.2-0.1-0.4-0.3-0.4-0.6l-0.9-2.9c0-0.4-0.4-0.6-0.7-0.6l0,0l-3.1,0.4
				c-0.4,0-0.6,0.4-0.6,0.7l-0.1,3.1c0,0.1,0,0.2,0,0.3c-0.7,0.3-1.4,0.6-2,1c-0.2,0.1-0.5,0-0.7-0.1l-2.7-1.4
				c-0.3-0.2-0.7-0.2-0.9,0.1l0,0l-1.9,2.5c-0.2,0.3-0.2,0.7,0.1,0.9l2.1,2.3c0.1,0.1,0.2,0.1,0.2,0.2c-0.3,0.7-0.5,1.4-0.7,2.1
				c-0.1,0.2-0.3,0.4-0.6,0.4l-2.9,0.9c-0.4,0-0.6,0.4-0.6,0.7l0,0l0.4,3.1c0,0.4,0.4,0.6,0.7,0.6l3.1,0.1c0.1,0,0.2,0,0.3,0
				c0.3,0.7,0.6,1.4,1,2c0.1,0.2,0,0.5-0.1,0.7l-1.4,2.7c-0.2,0.3-0.2,0.7,0.1,0.9l0,0l2.5,1.9c0.3,0.2,0.7,0.2,0.9-0.1l2.3-2.1
				c0.1-0.1,0.1-0.2,0.2-0.2c0.7,0.3,1.4,0.5,2.1,0.7c0.2,0.1,0.4,0.3,0.4,0.6l0.9,2.9c0,0.4,0.4,0.6,0.7,0.6l0,0l3.1-0.4
				C457.7,553.9,458,553.5,457.9,553.2z M450,540.7c-0.3-2.4,1.4-4.7,3.8-5s4.7,1.4,5,3.8c0.3,2.4-1.4,4.7-3.8,5
				C452.5,544.8,450.3,543.1,450,540.7z"/>
		</g>
		<g>
			<g>
				<polygon class="st21" points="438.8,579.6 405.1,579.6 405.1,517.5 451.7,517.5 451.7,566.7 				"/>
				<polygon class="st21" points="438.8,566.7 451.7,566.7 438.8,579.6 				"/>
			</g>
			<rect x="417.7" y="522.4" class="st18" width="21.6" height="4.1"/>
			<rect x="417.7" y="538.1" class="st18" width="21.6" height="3.4"/>
			<rect x="417.7" y="530.4" class="st18" width="21.6" height="3.4"/>
			<rect x="410" y="559.2" class="st18" width="8.6" height="4"/>
			<rect x="410" y="568.9" class="st18" width="8.6" height="4"/>
			<rect x="437.6" y="559.2" class="st18" width="8.6" height="4"/>
			
				<rect x="424.1" y="547.1" transform="matrix(0.7071 -0.7071 0.7071 0.7071 -264.4423 464.4171)" class="st18" width="8.6" height="8.6"/>
			<path class="st18" d="M428.4,549.5c-0.2,0-0.4-0.2-0.4-0.4v-24.6c0-0.2,0.2-0.4,0.4-0.4s0.4,0.2,0.4,0.4v24.6
				C428.8,549.3,428.6,549.5,428.4,549.5z"/>
			<path class="st18" d="M442.4,551.8h-28.1c-0.2,0-0.4-0.2-0.4-0.4s0.2-0.4,0.4-0.4h28.1c0.2,0,0.4,0.2,0.4,0.4
				S442.6,551.8,442.4,551.8z"/>
			<path class="st18" d="M414.3,571.3c-0.2,0-0.4-0.2-0.4-0.4v-19.5c0-0.2,0.2-0.4,0.4-0.4s0.4,0.2,0.4,0.4v19.5
				C414.7,571.1,414.6,571.3,414.3,571.3z"/>
			<path class="st34" d="M442.4,561.9c-0.2,0-0.4-0.2-0.4-0.4v-10.1c0-0.2,0.2-0.4,0.4-0.4s0.4,0.2,0.4,0.4v10.1
				C442.8,561.7,442.6,561.9,442.4,561.9z"/>
		</g>
	</g>
	<g>
		<g>
			<g>
				<defs>
					
						<ellipse id="SVGID_1_" transform="matrix(0.7071 -0.7071 0.7071 0.7071 -261.3934 462.7537)" cx="427.9" cy="546.9" rx="49.4" ry="49.4"/>
				</defs>
				<clipPath id="SVGID_2_">
					<use xlink:href="#SVGID_1_"  style="overflow:visible;"/>
				</clipPath>
				<g class="st35">
					<text transform="matrix(1 0 0 1 405.4924 556.916)" class="st22 st13 st14">According </text>
				</g>
			</g>
			<g>
				<defs>
					
						<ellipse id="SVGID_3_" transform="matrix(0.7071 -0.7071 0.7071 0.7071 -261.3934 462.7537)" cx="427.9" cy="546.9" rx="49.4" ry="49.4"/>
				</defs>
				<clipPath id="SVGID_4_">
					<use xlink:href="#SVGID_3_"  style="overflow:visible;"/>
				</clipPath>
				<g class="st36">
					<text transform="matrix(1 0 0 1 345.9924 573.7161)" class="st22 st13 st14">to the performance</text>
				</g>
			</g>
			<g>
				<defs>
					
						<ellipse id="SVGID_5_" transform="matrix(0.7071 -0.7071 0.7071 0.7071 -261.3934 462.7537)" cx="427.9" cy="546.9" rx="49.4" ry="49.4"/>
				</defs>
				<clipPath id="SVGID_6_">
					<use xlink:href="#SVGID_5_"  style="overflow:visible;"/>
				</clipPath>
				<g class="st37">
					<text transform="matrix(1 0 0 1 392.2924 590.5161)" class="st22 st13 st14">of the model</text>
				</g>
			</g>
			<g>
				<defs>
					
						<ellipse id="SVGID_7_" transform="matrix(0.7071 -0.7071 0.7071 0.7071 -261.3934 462.7537)" cx="427.9" cy="546.9" rx="49.4" ry="49.4"/>
				</defs>
				<clipPath id="SVGID_8_">
					<use xlink:href="#SVGID_7_"  style="overflow:visible;"/>
				</clipPath>
				<g class="st38">
					<text transform="matrix(1 0 0 1 330.2924 607.3159)" class="st22 st13 st14">on the test set, adjust</text>
				</g>
			</g>
			<g>
				<defs>
					
						<ellipse id="SVGID_9_" transform="matrix(0.7071 -0.7071 0.7071 0.7071 -261.3934 462.7537)" cx="427.9" cy="546.9" rx="49.4" ry="49.4"/>
				</defs>
				<clipPath id="SVGID_10_">
					<use xlink:href="#SVGID_9_"  style="overflow:visible;"/>
				</clipPath>
				<g class="st39">
					<text transform="matrix(1 0 0 1 338.2924 624.1161)" class="st22 st13 st14">the hyperparameters</text>
				</g>
			</g>
			<g>
				<defs>
					
						<ellipse id="SVGID_11_" transform="matrix(0.7071 -0.7071 0.7071 0.7071 -261.3934 462.7537)" cx="427.9" cy="546.9" rx="49.4" ry="49.4"/>
				</defs>
				<clipPath id="SVGID_12_">
					<use xlink:href="#SVGID_11_"  style="overflow:visible;"/>
				</clipPath>
				<g class="st40">
					<text transform="matrix(1 0 0 1 407.8925 640.916)" class="st22 st13 st14">to improve</text>
				</g>
			</g>
			<g>
				<defs>
					
						<ellipse id="SVGID_13_" transform="matrix(0.7071 -0.7071 0.7071 0.7071 -261.3934 462.7537)" cx="427.9" cy="546.9" rx="49.4" ry="49.4"/>
				</defs>
				<clipPath id="SVGID_14_">
					<use xlink:href="#SVGID_13_"  style="overflow:visible;"/>
				</clipPath>
				<g class="st41">
					<text transform="matrix(1 0 0 1 351.8924 657.7161)" class="st22 st13 st14">the generalization</text>
				</g>
			</g>
			<g>
				<defs>
					
						<ellipse id="SVGID_15_" transform="matrix(0.7071 -0.7071 0.7071 0.7071 -261.3934 462.7537)" cx="427.9" cy="546.9" rx="49.4" ry="49.4"/>
				</defs>
				<clipPath id="SVGID_16_">
					<use xlink:href="#SVGID_15_"  style="overflow:visible;"/>
				</clipPath>
				<g class="st42">
					<text transform="matrix(1 0 0 1 345.2924 674.5161)" class="st22 st13 st14">ability of the model</text>
				</g>
			</g>
		</g>
	</g>
</g>
</svg>
