<svg viewBox="0 0 390 390" class="chart" xmlns="http://www.w3.org/2000/svg" xmlns:xlink="http://www.w3.org/1999/xlink">
	<title>Emoji art - emojiall.com</title>
	<g font-family="apple color emoji,segoe ui emoji,noto color emoji,android emoji,emojisymbols,emojione mozilla,twemoji mozilla,segoe ui symbol" text-anchor="start" font-size="14px">
		<text x="0" y="20">
			✨✨✨✨✨✨✨✨✨☁️✨✨✨✨✨✨✨✨✨
		</text>	
		<text x="0" y="40">
			✨✨✨✨✨✨✨✨✨☁️✨✨✨✨✨✨✨✨✨
		</text>	
		<text x="0" y="60">
			✨✨✨✨✨✨✨✨✨☁️✨✨✨✨✨✨✨✨✨
		</text>	
		<text x="0" y="80">
			✨✨✨✨✨✨✨✨✨☁️✨✨✨✨✨✨✨✨✨
		</text>	
		<text x="0" y="100">
			✨✨✨✨✨✨✨✨✨☁️✨✨✨✨✨✨✨✨✨
		</text>	
		<text x="0" y="120">
			✨✨✨✨✨✨✨✨✨☁️✨✨✨✨✨✨✨✨✨
		</text>	
		<text x="0" y="140">
			✨✨✨✨✨✨✨✨✨☁️✨✨✨✨✨✨✨✨✨
		</text>	
		<text x="0" y="160">
			✨✨✨✨✨✨✨✨✨☁️✨✨✨✨✨✨✨✨✨
		</text>	
		<text x="0" y="180">
			✨✨✨✨✨✨✨⬛️⬛️☁️⬛️⬛️✨✨✨✨✨✨✨
		</text>	
		<text x="0" y="200">
			✨✨✨✨✨✨✨⬛️🅰️☁️🅰️⬛️✨✨✨✨✨✨✨
		</text>	
		<text x="0" y="220">
			✨✨✨✨✨✨⬛️🅰️🅰️☁️🅰️🅰️⬛️✨✨✨✨✨✨
		</text>	
		<text x="0" y="240">
			✨✨✨⬛️⬛️⬛️🅰️🅰️🅰️☁️🅰️🅰️🅰️⬛️⬛️⬛️✨✨✨
		</text>	
		<text x="0" y="260">
			✨⬛️⬛️🚹🚹🚹🚹🅰️🅰️☁️🅰️🅰️🚹🚹🚹🚹⬛️⬛️✨
		</text>	
		<text x="0" y="280">
			⬛️🚹🚹🚹🚹🚹🚹⬛️⬛️☁️⬛️⬛️🚹🚹🚹🚹🚹🚹⬛️
		</text>	
		<text x="0" y="300">
			⬛️🚹🚹🚹🚹🚹⬛️✨✨☁️✨✨⬛️🚹🚹🚹🚹🚹⬛️
		</text>	
		<text x="0" y="320">
			✨⬛️🚹🚹🚹🚹🚹⬛️⬛️☁️⬛️⬛️🚹🚹🚹🚹🚹⬛️✨
		</text>	
		<text x="0" y="340">
			✨✨⬛️🚹🚹🚹🚹🚹🚹☁️🚹🚹🚹🚹🚹🚹⬛️✨✨
		</text>	
		<text x="0" y="360">
			✨✨✨⬛️🚹🚹🚹🚹🚹☁️🚹🚹🚹🚹🚹⬛️✨✨✨
		</text>	
		<text x="0" y="380">
			✨✨✨✨⬛️⬛️⬛️⬛️⬛️☁️⬛️⬛️⬛️⬛️⬛️✨✨✨✨
		</text>	
		<text x="0" y="400">
			✨✨✨✨⬛️🅰️🅰️🅰️⬛️☁️⬛️🅰️🅰️🅰️⬛️✨✨✨✨
		</text>	
		<text x="0" y="420">
			✨✨✨⬛️🅰️🅰️🅰️🅰️⬛️🅰️⬛️🅰️🅰️🅰️🅰️⬛️✨✨✨
		</text>	
		<text x="0" y="440">
			✨✨⬛️🅰️🅰️🅰️🅰️🅰️⬛️🅰️⬛️🅰️🅰️⁣🅰️🅰️🅰️⬛️✨✨
		</text>	
		<text x="0" y="460">
			✨✨⬛️🅰️🅰️🅰️⬛️⬛️🅰️🅰️🅰️⬛️⬛️🅰️🅰️🅰️⬛️✨✨
		</text>	
		<text x="0" y="480">
			✨⬛️🅰️🅰️🚹⬛️🚹🅰️🅰️🅰️🅰️🅰️🚹⬛️🚹🅰️🅰️⬛️✨
		</text>	
		<text x="0" y="500">
			⬛️🅰️🅰️🚹⬛️🚹🅰️⬛️⬛️⬛️⬛️⬛️🅰️🚹⬛️🚹🅰️🅰️⬛️
		</text>	
		<text x="0" y="520">
			⬛️🅰️🚹⬛️🅰️🅰️⬛️🅰️🅰️🅰️🅰️🅰️⬛️🅰️🅰️⬛️🚹🅰️⬛️
		</text>	
		<text x="0" y="540">
			⬛️🅰️⬛️🅰️🅰️⬛️🅰️🅰️🅰️🅰️🅰️🅰️🅰️⬛️🅰️🅰️⬛️🅰️⬛️
		</text>	
		<text x="0" y="560">
			⬛️🅰️⬛️🅰️⬛️🅰️🅰️🅰️🅰️🅰️🅰️🅰️🅰️🅰️⬛️🅰️⬛️🅰️⬛️
		</text>	
		<text x="0" y="580">
			✨⬛️⬛️⬛️⬛️🅰️🅰️🅰️🅰️🅰️🅰️🅰️🅰️🅰️⬛️⬛️⬛️⬛️✨
		</text>	
		<text x="0" y="600">
			✨✨✨✨⬛️🅰️🅰️⬛️⬛️🅰️⬛️⬛️🅰️🅰️⬛️✨✨✨✨
		</text>	
		<text x="0" y="620">
			✨✨✨✨⬛️🅰️⬛️☁️⬛️🅰️⬛️☁️⬛️🅰️⬛️✨✨✨✨
		</text>	
		<text x="0" y="640">
			✨✨✨✨⬛️🅰️⬛️☁️⬛️🅰️⬛️☁️⬛️🅰️⬛️✨✨✨✨
		</text>	
		<text x="0" y="660">
			✨✨✨✨⬛️🅰️⬛️⬛️⬛️🅰️⬛️⬛️⬛️🅰️⬛️✨✨✨✨
		</text>	
		<text x="0" y="680">
			✨✨✨✨⬛️🅰️⬛️🅰️🅰️🅰️🅰️🅰️⬛️🅰️⬛️✨✨✨✨
		</text>	
		<text x="0" y="700">
			✨✨✨✨⬛️🅰️🅰️🅰️🅰️🅰️🅰️🅰️🅰️🅰️⬛️✨✨✨✨
		</text>	
		<text x="0" y="720">
			✨✨✨✨✨⬛️🅰️🅰️🅰️🅰️🅰️🅰️🅰️⬛️✨✨✨✨✨
		</text>	
		<text x="0" y="740">
			✨✨✨✨✨✨⬛️⬛️🅰️🅰️🅰️⬛️⬛️✨✨✨✨✨✨
		</text>	
		<text x="0" y="760">
			✨✨✨✨✨✨✨✨⬛️⬛️⬛️✨✨✨✨✨✨✨✨
		</text>	
		<text x="0" y="780">
			✨✨✨✨✨✨✨✨✨✨✨✨✨✨✨✨✨✨✨
		</text>	
        <animateTransform xmlns="http://www.w3.org/2000/svg" attributeName="transform" dur="5s" type="translate" values="0 0 ; 0 -400; 0 0" repeatCount="indefinite" begin="0.1"/>
	</g>
</svg>