<svg version="1.1" xmlns="http://www.w3.org/2000/svg" xmlns:xlink="http://www.w3.org/1999/xlink" x="0px" y="0px"
	viewBox="175 225 700 525"  width="1000" height="800">
	<style type="text/css">
		.st0 {
			fill: #444FDF;
		}

		.st1 {
			fill: #683C7F;
		}

		.st2 {
			fill: #7F5390;
		}

		.st3 {
			fill: #9F62BF;
		}

		.st4 {
			fill: #3C2A2A;
		}

		.st5 {
			fill: #FFC82C;
		}

		.st6 {
			fill: #FFA637;
		}

		.st7 {
			fill: #FFDB2B;
		}

		.st8 {
			fill: #82532B;
		}

		.st9 {
			fill: #2E3D42;
		}

		.st10 {
			fill: #436069;
		}

		.st11 {
			fill: #FFE54D;
			stroke: #3C2A2A;
			stroke-width: 5;
			stroke-miterlimit: 10;
		}

		.st12 {
			fill: #6ADBC6;
			stroke: #3C2A2A;
			stroke-width: 5;
			stroke-miterlimit: 10;
		}

		.st13 {
			fill: #FF73C0;
			stroke: #3C2A2A;
			stroke-width: 5;
			stroke-miterlimit: 10;
		}

		.st14 {
			fill: #9A5E2E;
		}

		.st15 {
			fill: #ED405A;
		}

		.st16 {
			fill: #FF504C;
		}

		.st17 {
			fill: #FF6666;
		}

		.st18 {
			fill: #FFFFFD;
		}

		.st19 {
			fill: #D0E7F9;
		}

		.st20 {
			fill: #00C4F3;
		}

		.st21 {
			fill: #00F7FF;
		}

		.st22 {
			fill: #CFFFFF;
		}
	</style>
	<g>
		<g>
			<g>
				<g>
					<path class="st1" d="M552.18,308.17c-11.27,1.59-21.93-1.73-29.17-8.16c-1.68-1.49-4.31-0.68-4.85,1.49
					c-0.76,3.06-0.91,6.34-0.31,9.66c2.14,11.98,13.39,20.33,25.47,18.92c12.67-1.48,21.65-12.86,20.35-25.38
					C560.17,306.39,556.31,307.59,552.18,308.17z" />
					<path class="st1" d="M616.01,285.59c-1.11-3.19-2.83-5.98-4.99-8.28c-1.53-1.63-4.23-1.05-4.96,1.06
					c-3.18,9.14-10.86,17.25-21.48,21.36c-3.89,1.51-7.85,2.35-11.72,2.59c4.98,11.56,18.37,17.11,30.15,12.21
					C614.25,309.87,619.99,297.08,616.01,285.59z" />
				</g>
				<g>

					<ellipse transform="matrix(0.4236 -0.9058 0.9058 0.4236 26.2221 718.049)" class="st2" cx="577.36"
						cy="338.42" rx="44.48" ry="44.48" />
					<path class="st1" d="M588.58,381.46c20.99-5.47,34.55-25.04,33.17-45.91c-22.78,24.53-61.97,1.47-88.85,4.45
					c0.12,3.19,0.58,6.42,1.42,9.64C540.52,373.41,564.81,387.65,588.58,381.46z" />
					<path class="st3" d="M599.75,309.06c2.38,9.14-9.98,13.3-25.52,17.35c-15.54,4.05-28.36,6.46-30.74-2.68
					c-2.38-9.14,8.28-19.83,23.82-23.88C582.84,295.79,597.37,299.92,599.75,309.06z" />
				</g>
				<path class="st4" d="M582.33,357.49c-10.99,2.86-21.85,1.96-30.6-1.82c6.24,8.58,19.26,12.61,32.51,9.15
				c13.25-3.45,22.65-13.32,23.91-23.86C602.36,348.54,593.32,354.63,582.33,357.49z" />
				<g>
					<g>
						<path class="st4" d="M570.93,340.04c1.34,5.15-0.08,9.98-3.18,10.78c-3.1,0.81-6.7-2.71-8.04-7.86
						c-1.34-5.15,0.08-9.98,3.18-10.78C565.99,331.37,569.59,334.89,570.93,340.04z" />
						<path class="st4" d="M551.51,332.62c9.25-0.66,15.97,1.38,22.25,5.65c0,0-5.6-8.19-15.14-9.91
						C549.07,326.65,551.51,332.62,551.51,332.62z" />
					</g>
					<g>
						<path class="st4" d="M583.77,336.69c1.34,5.15,4.94,8.67,8.04,7.86c3.1-0.81,4.52-5.64,3.18-10.78
						c-1.34-5.15-4.94-8.67-8.04-7.86C583.85,326.72,582.43,331.54,583.77,336.69z" />
						<path class="st4" d="M597.1,320.74c-8.39,3.94-13.26,9-16.66,15.79c0,0,0.89-9.88,8.38-16.04
						C596.31,314.34,597.1,320.74,597.1,320.74z" />
					</g>
				</g>
			</g>
			<g>
				<g>

					<ellipse transform="matrix(0.4088 -0.9126 0.9126 0.4088 -367.2943 669.8021)" class="st5" cx="333.35"
						cy="618.4" rx="72.27" ry="72.27" />
					<path class="st6" d="M355.65,687.15c33.52-10.87,53.65-43.92,49.43-77.64c-34.6,41.96-100.39,8.3-143.69,15.69
					c0.49,5.17,1.55,10.36,3.22,15.5C276.92,678.67,317.68,699.46,355.65,687.15z" />
					<path class="st7" d="M366.86,568.64c4.74,14.6-14.93,22.52-39.74,30.57c-24.81,8.05-45.38,13.18-50.12-1.42
					c-4.74-14.6,11.54-32.96,36.35-41.01C338.17,548.73,362.12,554.04,366.86,568.64z" />
				</g>
				<path class="st8" d="M343.23,648.87c-17.55,5.69-35.26,5.26-49.81-0.03c10.94,13.33,32.44,18.61,53.61,11.75
				c21.17-6.87,35.47-23.76,36.5-40.98C374.86,632.43,360.78,643.18,343.23,648.87z" />
				<g>
					<g>
						<path class="st4" d="M383.39,573.38c-0.54-1.11-1.78-1.69-2.98-1.4c-28.96,6.98-47.79,27.97-50.82,28.95c-3.09,1-3.09,1-3.09,1
						l2.88,8.88c0,0,0.37-0.12,1.9-0.62c1.53-0.5,3.31,0.85,5.47,3.54c0.88,1.1,3.03,3.68,5.26,6.34c4,4.77,10.39,6.81,16.41,5.23
						l12.8-3.35c12.16-3.18,19.36-15.77,15.81-27.82c-1.2-4.07-2.78-8.57-4.88-13.41l1.6-0.85c1.24-0.66,1.73-2.17,1.12-3.44
						L383.39,573.38z" />
						<path class="st9" d="M370.63,615.88c-0.31,0.1-0.62,0.19-0.93,0.27l-12.8,3.35c-3.78,0.99-7.79-0.3-10.3-3.29
						c-2.72-3.25-4.46-5.34-5.17-6.23c-0.63-0.79-1.82-2.27-3.45-3.55c-1.37-1.08-1.46-3.12-0.12-4.24
						c0.04-0.04,0.09-0.08,0.14-0.11c6.89-5.78,19.65-16.48,37.19-22.35l1.47,3.39c1.83,4.22,3.38,8.5,4.63,12.72
						C383.73,604.18,378.96,613.18,370.63,615.88L370.63,615.88z" />
						<path class="st10" d="M376.65,583.11l-1.47-3.39c-17.55,5.87-30.3,16.57-37.19,22.35c-0.05,0.04-0.09,0.08-0.14,0.11
						c-1.34,1.12-1.25,3.16,0.12,4.24c1.63,1.28,2.82,2.76,3.45,3.55c0.14,0.17,0.33,0.41,0.55,0.68
						c14.1-11.57,26.29-18.76,36.45-23.15C377.86,586.03,377.28,584.57,376.65,583.11z" />
					</g>
					<g>
						<path class="st4" d="M266.4,611.33c-0.22-1.22,0.45-2.41,1.59-2.88c27.55-11.35,55.11-5.41,58.13-6.4c3.09-1,3.09-1,3.09-1
						l2.88,8.88c0,0-0.37,0.12-1.9,0.62c-1.53,0.5-2.18,2.63-2.35,6.08c-0.07,1.41-0.3,4.76-0.54,8.22
						c-0.44,6.21-4.41,11.61-10.21,13.87l-12.33,4.81c-11.71,4.56-24.93-1.4-29.13-13.24c-1.42-4-2.78-8.57-3.92-13.72l-1.79,0.25
						c-1.39,0.19-2.68-0.74-2.93-2.12L266.4,611.33z" />
						<path class="st9" d="M301.68,638.24c0.31-0.1,0.61-0.21,0.91-0.33l12.33-4.81c3.64-1.42,6.13-4.81,6.41-8.71
						c0.3-4.23,0.48-6.95,0.53-8.08c0.05-1.01,0.14-2.91,0.71-4.9c0.48-1.68-0.65-3.38-2.39-3.5c-0.06,0-0.12-0.01-0.18-0.01
						c-8.98-0.63-25.58-1.81-43.23,3.74l0.8,3.6c1,4.49,2.25,8.87,3.72,13.01C284.21,636.47,293.36,640.94,301.68,638.24
						L301.68,638.24z" />
						<path class="st10" d="M277.58,615.25l-0.8-3.6c17.65-5.55,34.25-4.37,43.23-3.74c0.06,0,0.12,0.01,0.18,0.01
						c1.74,0.12,2.87,1.82,2.39,3.5c-0.57,1.99-0.66,3.89-0.71,4.9c-0.01,0.22-0.03,0.53-0.05,0.87c-18.21-1.09-32.3,0.25-43.1,2.65
						C278.31,618.33,277.92,616.8,277.58,615.25z" />
					</g>
				</g>
				<animateTransform xmlns="http://www.w3.org/2000/svg" attributeName="transform" dur="2s" type="translate" values="0 0 ; 0 -10; 0 0" repeatCount="indefinite" begin="0.1"/>
			</g>
			<g>
				<path class="st11" d="M705.68,312.86c0,45.84-24.69,86.81-59.68,86.81c34.99,0,59.68,40.96,59.68,86.81
				c0-45.84,24.69-86.81,59.68-86.81C730.36,399.67,705.68,358.71,705.68,312.86" >
				<animate attributeName="opacity" dur="1s" values="0;1;0" repeatCount="indefinite" begin="0.1"></animate>
				</path>
				<path class="st12" d="M789.77,312.86c0,22.79-12.48,43.4-29.84,43.4c17.36,0,29.84,20.62,29.84,43.4
				c0-22.79,12.48-43.4,29.84-43.4C802.25,356.27,789.77,335.65,789.77,312.86" >
				<animate attributeName="opacity" dur="1s" values="0;1;0" repeatCount="indefinite" begin="0.2"></animate>
				</path>
				<path class="st13" d="M776.21,399.67c0,22.79-12.48,43.4-29.84,43.4c17.36,0,29.84,20.62,29.84,43.4
				c0-22.79,12.48-43.4,29.84-43.4C788.69,443.07,776.21,422.45,776.21,399.67" >
				<animate attributeName="opacity" dur="1s" values="0;1;0" repeatCount="indefinite" begin="0.3"></animate>
				</path>
			</g>
			<g>
				<g>

					<ellipse transform="matrix(0.7071 -0.7071 0.7071 0.7071 -196.608 678.216)" class="st5" cx="720.38"
						cy="576.43" rx="58.38" ry="58.38" />
					<path class="st6" d="M701.53,631.69c26.94,9.19,55.95-2.44,69.54-26.29c-42.69,10.39-68.94-43.21-100.52-59.39
					c-2.18,3.58-4.01,7.45-5.42,11.58C654.72,588.1,671.01,621.28,701.53,631.69z" />
					<path class="st7" d="M766.13,560.47c-4,11.73-20.55,7.34-40.49,0.54c-19.94-6.8-35.73-13.44-31.72-25.17
					c4-11.73,23.41-15.73,43.35-8.93C757.21,533.71,770.13,548.74,766.13,560.47z" />
				</g>
				<g>
					<path class="st8" d="M715.76,589.97c-13.59-4.64-25.78-10.6-35.82-17.18c-2.86,18.82,8.04,37.57,26.69,43.93
					c18.65,6.36,38.74-1.81,47.98-18.46C742.65,597.33,729.35,594.6,715.76,589.97z" />
					<path class="st14" d="M708,612.72c-14.3-4.88-23.76-18.01-24.27-32.63c9.24,5.4,19.71,10.14,30.67,13.88
					c10.96,3.74,22.14,6.38,32.76,7.76C737.81,612.98,722.3,617.6,708,612.72z" />
				</g>
				<g>
					<g>
						<path class="st15" d="M697.75,578.56l-0.36-0.25c-0.17-0.12-4.15-2.88-7.96-7.23c-2.25-2.57-3.97-5.16-5.09-7.7
						c-1.44-3.23-1.93-6.39-1.46-9.38l0.01-0.07c0-0.02,0.01-0.04,0.01-0.06c0.01-0.04,0.01-0.09,0.02-0.13l0.1-0.63l0.03,0
						c1.2-5.17,6.23-8.62,11.55-7.78c3.26,0.51,6.02,2.53,7.51,5.4c2.29-2.28,5.54-3.36,8.8-2.85c5.33,0.83,9.06,5.65,8.63,10.94
						l0.02,0l-0.08,0.53c-0.01,0.07-0.02,0.14-0.03,0.21c0,0.03-0.01,0.06-0.02,0.09l-0.01,0.04c-0.47,2.99-1.9,5.85-4.25,8.49
						c-1.85,2.07-4.27,4.02-7.2,5.78c-4.95,2.98-9.59,4.4-9.78,4.46L697.75,578.56z" />
						<path class="st16" d="M697.96,577.22c-0.7-0.5-4.22-3.08-7.61-6.95c-2.17-2.48-3.82-4.97-4.9-7.4c-1.34-3.01-1.8-5.94-1.37-8.7
						l0.02-0.13l0.02-0.11l0.04-0.23l0.07-0.32c1.07-4.57,5.54-7.58,10.18-6.86c2.83,0.44,5.3,2.22,6.61,4.76l0.76,1.47l1.18-1.17
						c2.03-2.01,4.92-2.95,7.75-2.51c4.64,0.73,7.98,4.96,7.6,9.64l-0.02,0.3l-0.03,0.18c-0.01,0.06-0.02,0.13-0.03,0.19
						c0,0.02-0.02,0.09-0.02,0.09l-0.01,0.04c-0.43,2.76-1.76,5.4-3.96,7.86c-1.77,1.98-4.1,3.85-6.92,5.55
						C702.93,575.58,698.79,576.96,697.96,577.22z" />
					</g>
					<path class="st17" d="M718.32,558.48c0.25-4.59-3.05-8.69-7.61-9.4c-2.83-0.44-5.72,0.5-7.75,2.51l-1.18,1.17l-0.76-1.47
					c-1.31-2.54-3.79-4.31-6.61-4.76c-4.64-0.72-9.11,2.29-10.18,6.86l-0.07,0.32l-0.04,0.23l-0.02,0.11l-0.02,0.13
					c-0.05,0.35-0.09,0.69-0.12,1.04C694.93,565.55,708.34,562.99,718.32,558.48z" />
				</g>
				<g>
					<g>
						<path class="st15"
							d="M736.52,591.51c-0.12-0.17-2.92-4.13-5.02-9.51c-1.24-3.19-1.97-6.21-2.17-8.98
						c-0.25-3.53,0.36-6.66,1.82-9.32l0.02-0.04c0.01-0.03,0.03-0.05,0.04-0.08c0.04-0.06,0.07-0.13,0.11-0.19l0.26-0.47l0.02,0.01
						c2.89-4.45,8.79-5.99,13.52-3.39c2.89,1.59,4.8,4.43,5.22,7.63c2.93-1.36,6.35-1.27,9.24,0.31c4.72,2.6,6.59,8.4,4.39,13.22
						l0.02,0.01l-0.31,0.56c-0.02,0.04-0.04,0.08-0.06,0.11c-0.01,0.02-0.02,0.03-0.03,0.05l-0.04,0.07
						c-1.46,2.65-3.78,4.85-6.89,6.53c-2.45,1.32-5.39,2.32-8.74,2.98c-5.67,1.12-10.51,0.87-10.72,0.86l-0.44-0.02L736.52,591.51z" />
						<path class="st16" d="M737.43,590.68c0.86,0.03,5.22,0.15,10.27-0.85c3.23-0.64,6.06-1.6,8.4-2.86c2.9-1.57,5.06-3.6,6.4-6.05
						l0.06-0.12l0.05-0.1l0.11-0.21l0.14-0.3c1.95-4.27,0.25-9.38-3.86-11.65c-2.51-1.38-5.55-1.48-8.14-0.28l-1.51,0.7l-0.22-1.65
						c-0.37-2.83-2.09-5.35-4.6-6.72c-4.12-2.26-9.35-0.95-11.91,2.99l-0.16,0.25l-0.09,0.16c-0.03,0.06-0.06,0.11-0.09,0.17
						c-0.01,0.02-0.04,0.08-0.04,0.08l-0.02,0.04c-1.34,2.45-1.91,5.35-1.67,8.64c0.19,2.65,0.89,5.55,2.09,8.62
						C734.5,586.35,736.94,589.97,737.43,590.68z" />
					</g>
					<path class="st17" d="M732.76,563.41c2.6-3.78,7.72-5.02,11.77-2.79c2.51,1.38,4.23,3.89,4.6,6.72l0.22,1.65l1.51-0.7
					c2.59-1.2,5.63-1.1,8.14,0.28c4.12,2.26,5.81,7.38,3.86,11.65l-0.14,0.3l-0.11,0.21l-0.05,0.1l-0.06,0.12
					c-0.17,0.31-0.35,0.61-0.54,0.9C746.96,583.29,737.91,573.07,732.76,563.41z" />
				</g>
			</g>
			<g>
				<g>
					<path class="st15" d="M389.65,511.02l-2.81-0.86c-1.3-0.4-32.3-9.98-65.34-30c-19.55-11.84-35.72-24.89-48.05-38.79
					c-15.7-17.69-25.22-36.81-28.29-56.82l-0.08-0.49c-0.02-0.13-0.04-0.25-0.06-0.38c-0.04-0.28-0.09-0.57-0.13-0.85l-0.64-4.2
					l0.18-0.03c-2.78-35.36,22.26-67.51,57.87-72.98c21.78-3.34,43.48,3.94,58.77,19.23c10-19.17,28.52-32.63,50.3-35.97
					c35.63-5.47,69.17,17.71,77.11,52.31l0.16-0.02l0.55,3.56c0.08,0.48,0.16,0.95,0.24,1.43c0.03,0.2,0.06,0.39,0.08,0.59
					l0.04,0.28c3.07,20.02-0.27,41.11-9.94,62.69c-7.6,16.95-19.1,34.25-34.2,51.42c-25.52,29.01-52.21,47.45-53.33,48.22
					L389.65,511.02z" />
					<path class="st16" d="M388.27,502.07c-5.49-1.76-33.14-11.06-62.56-28.88c-18.85-11.42-34.39-23.94-46.18-37.23
					c-14.64-16.5-23.5-34.21-26.33-52.65l-0.14-0.87l-0.11-0.76l-0.24-1.55l-0.17-2.18c-2.46-31.29,19.94-59.53,50.99-64.29
					c18.91-2.9,38.27,3.43,51.77,16.94l7.85,7.85l5.13-9.84c8.83-16.94,25.4-28.78,44.31-31.69c31.07-4.77,60.91,15.47,67.94,46.08
					l0.45,1.95l0.18,1.17c0.07,0.42,0.14,0.84,0.21,1.27c0.02,0.12,0.08,0.59,0.08,0.59l0.04,0.28c2.83,18.44-0.31,38-9.32,58.13
					c-7.26,16.21-18.32,32.81-32.88,49.37C416.59,481.55,392.99,498.74,388.27,502.07z" />
				</g>
				<path class="st17" d="M480.13,341.45c-7.66-29.74-37-49.22-67.54-44.53c-18.91,2.9-35.48,14.75-44.31,31.69l-5.13,9.84
				l-7.85-7.85c-13.51-13.51-32.86-19.84-51.77-16.94c-31.05,4.77-53.44,33.01-50.99,64.29l0.17,2.18l0.24,1.55l0.11,0.76l0.14,0.87
				c0.35,2.31,0.8,4.61,1.35,6.9C345.36,433.8,425.65,390.37,480.13,341.45z" />
				<animateTransform xmlns="http://www.w3.org/2000/svg" attributeName="transform" dur="3s" type="translate" values="0 0 ; 10 0; 0 0" repeatCount="indefinite" begin="0.2"/>
			</g>
			<g>
				<g>
					<circle class="st5" cx="520.43" cy="502.85" r="138.41" />
					<path class="st6" d="M520.43,641.26c67.49,0,123.69-48.31,135.93-112.23c-87.84,56-187.78-44.2-271.04-56.33
					c-2.16,9.71-3.3,19.79-3.3,30.15C382.02,579.29,443.99,641.26,520.43,641.26z" />
					<path class="st7" d="M610.89,431.99c0,29.39-40.5,32.21-90.46,32.21s-90.46-2.82-90.46-32.21s40.5-53.22,90.46-53.22
					S610.89,402.6,610.89,431.99z" />
				</g>
				<g>
					<path class="st8" d="M425.42,507.35c-0.03,0.45-0.05,0.89-0.05,1.35c0,52.5,42.56,95.06,95.06,95.06
					c52.5,0,95.06-42.56,95.06-95.06c0-0.45-0.02-0.9-0.05-1.35H425.42z" />
					<path class="st14"
						d="M520.43,593.74c-43.97,0-80.25-33.54-84.61-76.38h169.22C600.69,560.2,564.4,593.74,520.43,593.74z" />
					<path class="st18" d="M442.31,542.25h156.25c3.35-7.77,5.6-16.13,6.49-24.89H435.82C436.71,526.12,438.96,534.48,442.31,542.25z
					" />
					<path class="st19" d="M605.04,517.36H435.82c0.37,3.69,1,7.3,1.84,10.83l166.89-6.95C604.74,519.95,604.91,518.66,605.04,517.36
					z" />
				</g>
				<g>
					<g>
						<path class="st8"
							d="M502,489.92c0,0-36.71-11.12-75.27,0c0,0,13.26-25.72,38.84-25.72C491.15,464.2,502,489.92,502,489.92z" />
						<g>
							<path class="st20" d="M417.75,568.77c-14.73,14.73-38.62,14.73-53.35,0c-14.73-14.73-14.73-38.62,0-53.35
							c14.73-14.73,75.38-22.03,75.38-22.03S432.48,554.04,417.75,568.77z" />
							<path class="st21" d="M371.48,561.69c-10.81-10.81-10.81-28.39,0-39.19c7.03-7.03,33.96-13.63,56.5-17.31
							c-3.67,22.54-10.28,49.47-17.31,56.5C399.86,572.5,382.28,572.5,371.48,561.69z" />
							<path class="st22" d="M413.85,540.94c-5.97,5.97-15.65,5.97-21.62,0c-5.97-5.97-5.97-15.65,0-21.62
							c5.97-5.97,30.55-8.93,30.55-8.93S419.82,534.97,413.85,540.94z" />
						</g>
						<path class="st8" d="M423.73,471.14c7.43-7.19,22.57-19.12,46.04-25.33c1.91-0.51,1.76-3.27-0.2-3.57
						c-12.85-1.96-37.85-1.64-48.8,26.91C420.07,470.98,422.32,472.51,423.73,471.14z" />
					</g>
					<g>
						<path class="st8" d="M538.86,489.92c0,0,36.71-11.12,75.27,0c0,0-13.26-25.72-38.84-25.72
						C549.71,464.2,538.86,489.92,538.86,489.92z" />
						<g>
							<path class="st20" d="M623.12,568.77c14.73,14.73,38.62,14.73,53.35,0c14.73-14.73,14.73-38.62,0-53.35
							c-14.73-14.73-75.38-22.03-75.38-22.03S608.38,554.04,623.12,568.77z" />
							<path class="st21" d="M669.39,561.69c10.81-10.81,10.81-28.39,0-39.19c-7.03-7.03-33.96-13.63-56.5-17.31
							c3.67,22.54,10.28,49.47,17.31,56.5C641,572.5,658.58,572.5,669.39,561.69z" />
							<path class="st22" d="M627.01,540.94c5.97,5.97,15.65,5.97,21.62,0c5.97-5.97,5.97-15.65,0-21.62
							c-5.97-5.97-30.55-8.93-30.55-8.93S621.04,534.97,627.01,540.94z" />
						</g>
						<path class="st8" d="M617.13,471.14c-7.43-7.19-22.57-19.12-46.04-25.33c-1.91-0.51-1.76-3.27,0.2-3.57
						c12.85-1.96,37.85-1.64,48.8,26.91C620.8,470.98,618.54,472.51,617.13,471.14z" />
					</g>
				</g>
				<animateTransform xmlns="http://www.w3.org/2000/svg" attributeName="transform" attributeType="XML" type="rotate" dur="3s" values="0 520 507;-5 520 507;0 520 507" repeatCount="indefinite"/>
			</g>
		</g>
	</g>
</svg>