<?xml version="1.0" encoding="utf-8"?>
<!-- Generator: Adobe Illustrator 25.4.1, SVG Export Plug-In . SVG Version: 6.00 Build 0)  -->
<svg version="1.1" id="图层_1" xmlns="http://www.w3.org/2000/svg" xmlns:xlink="http://www.w3.org/1999/xlink" x="0px" y="0px"
	 viewBox="0 0 700 700" style="enable-background:new 0 0 700 700;" xml:space="preserve">
<style type="text/css">
	.st0{fill:#5372E5;}
	.st1{fill:#BDD0FB;}
	.st2{fill:#FFFFFF;}
	.st3{fill:#91B3FA;}
	.st4{fill:url(#SVGID_1_);}
	.st5{opacity:0.72;fill:#FFFFFF;enable-background:new    ;}
	.st6{fill:url(#SVGID_00000001653724443594144570000001031950126895695236_);}
	.st7{fill:url(#SVGID_00000049220688261274327040000009147856368604317074_);}
	.st8{fill:url(#SVGID_00000044858203384236106970000016332573009277369220_);}
	.st9{fill:url(#SVGID_00000165226760796845373010000011198898703440584617_);}
	.st10{fill:#0C216B;}
	.st11{fill:url(#SVGID_00000169550972342502056040000013023474803247285922_);}
	.st12{fill:url(#SVGID_00000164502236947655139800000005836506254966196888_);}
	.st13{fill:url(#SVGID_00000139264095622326552350000007151091942719877016_);}
	.st14{fill:url(#SVGID_00000044162852019736320200000003809023605463860869_);}
	.st15{fill:url(#SVGID_00000091735056128605813750000005702323752811090848_);}
	.st16{fill:url(#SVGID_00000177476571395989089740000015548673142037034904_);}
</style>
<g>
	<path class="st0" d="M582,566.8c-13.9,14.3-26.3,22.7-35.9,29.1c-92.8,62-199,44.1-231.8,38.1c-52.9-9.8-97.6-16.8-136-51.5
		c-87.2-78.8-83-243.3-16.3-345.1c7.9-12.1,74.5-110.7,180.8-124.7c2.6-0.4,4.6-0.6,6.2-0.7c16.4-1.7,118.4-10.9,201.5,58.7
		c11.9,10,31,28,48.8,55.4C664.4,326.3,664.6,481.7,582,566.8z	">
<!-- <animate  accumulate="none" additive="replace" attributeName="d" begin="0.5" calcMode="linear" dur="3s" fill="remove" repeatCount="indefinite" restart="always" values="   M758,703.8c-15.2,15.6-28.7,24.8-39.1,31.7c-101.2,67.6-216.9,48.1-252.7,41.5   c-57.7-10.7-106.4-18.3-148.3-56.1c-95.1-85.9-90.5-265.2-17.8-376.2c8.6-13.2,81.2-120.7,197.1-135.9c2.8-0.4,5-0.6,6.8-0.8   c17.9-1.9,129.1-11.9,219.7,64c13,10.9,33.8,30.5,53.2,60.4C847.8,441.6,848,611,758,703.8z;    M802.7,594.1c-8.6,20-33,61-40.2,71.2C692.3,764.7,628.1,774,592.3,780.7c-57.7,10.7-144.5-16.1-197.2-36.3   c-119.6-46.1-149.6-164.3-121.6-294c3.3-15.4,20.3-151.4,123.1-207.2c2.5-1.4,4.5-2.4,6.1-3.2c16-8.2,112.4-41.6,224.2-3.2   c16,5.5,60.9,11.7,89.7,32.7C821.9,346,853.4,475.2,802.7,594.1z;          M758,703.8c-15.2,15.6-28.7,24.8-39.1,31.7c-101.2,67.6-216.9,48.1-252.7,41.5   c-57.7-10.7-106.4-18.3-148.3-56.1c-95.1-85.9-90.5-265.2-17.8-376.2c8.6-13.2,81.2-120.7,197.1-135.9c2.8-0.4,5-0.6,6.8-0.8   c17.9-1.9,129.1-11.9,219.7,64c13,10.9,33.8,30.5,53.2,60.4C847.8,441.6,848,611,758,703.8z" xmlns="http://www.w3.org/2000/svg">
			</animate> -->
	</path>
	<g>
		<g>
			<path class="st1" d="M40.3,126.1c-2.2-2.1-6.9-0.8-6.8,1.9c0.8,27.2,14,99.7,123.9,153.5c138,67.5,160,115.8,158.7,157.6
				c0,0,26.8-41.6,5.8-91.8C270.4,224,79.1,163.4,40.3,126.1z"/>
			<path class="st2" d="M65.4,162.3c11.6,10.6,23.5,21.2,35.9,31.4c12.3,10.2,25,20.1,38.2,29.7c13.2,9.5,26.7,18.9,40.6,27.9
				c13.9,9,28.4,17.5,43,26c14.5,8.5,29.2,17.2,42.7,26.9c13.5,9.7,25.5,20.7,34.3,33.2c2.2,3.1,4.3,6.2,6.2,9.4
				c1.9,3.2,3.7,6.4,5.3,9.7c3.3,6.5,6,13.3,8,20.2c3.9,13.8,5,28,3.5,42c-0.2,1.5-1.9,2.7-3.9,2.6c-1.9-0.1-3.5-1.3-3.4-2.8l0,0
				c0.2-3.4,0.4-6.9,0.4-10.3c0-1.7-0.1-3.4-0.1-5.1c-0.1-1.7-0.2-3.4-0.4-5c-0.6-6.8-1.9-13.5-3.9-20.1
				c-3.9-13.2-10.4-26-18.8-37.8c-4.3-5.9-9.2-11.6-14.7-16.9c-5.5-5.3-11.6-10.4-18.1-15.1c-12.9-9.5-27.4-18.1-41.8-26.7
				c-14.4-8.6-28.8-17.4-42.7-26.6c-7-4.6-13.8-9.3-20.5-14c-3.4-2.4-6.7-4.8-10-7.2c-3.3-2.5-6.5-4.9-9.7-7.3
				c-12.8-9.9-25.3-20.1-37.3-30.6c-11.9-10.5-23.5-21.3-34.3-32.4c-0.3-0.4-0.2-0.7,0.3-1C64.4,161.9,65.1,161.9,65.4,162.3z"/>
		</g>
		<g>
			<path class="st3" d="M268.4,362.8c4.8,3.1,11.4,0.5,12.6-5c6.9-30,18.5-116.5-50.1-198.1c-57.9-69-82.4-111.7-92-131.9
				c-2-4.3-8.6-3.5-9.6,1.2C118,80.2,96.1,251,268.4,362.8z"/>
			<path class="st2" d="M274.9,358.4c0.2,0,0.3,0,0.5-0.1c1.2-0.3,2-1.5,1.7-2.7c-0.3-1.3-32.1-132.9-108.1-232.3
				c-0.7-0.9-2.1-1.1-3.1-0.5c-1,0.6-1.3,2.1-0.6,3c75.4,98.7,107,229.5,107.3,230.8C272.8,357.8,273.8,358.5,274.9,358.4z"/>
		</g>
		
			<!-- <animateTransform  accumulate="none" additive="replace" attributeName="transform" attributeType="XML" calcMode="linear" dur="4s" fill="remove" repeatCount="indefinite" restart="always" type="rotate" values="0 500 500;-5 400 400;0 500 500;" xmlns="http://www.w3.org/2000/svg">
			</animateTransform> -->
	</g>
</g>
<g>
	
		<linearGradient id="SVGID_1_" gradientUnits="userSpaceOnUse" x1="187.2216" y1="277.6172" x2="552.5977" y2="125.9515" gradientTransform="matrix(0.1083 0.9941 -0.9941 0.1083 507.9353 28.0522)">
		<stop  offset="0" style="stop-color:#4F52FF"/>
		<stop  offset="1" style="stop-color:#4042E2"/>
	</linearGradient>
	<path class="st4" d="M219.7,533.8c1.7,14,12.6,24,24.2,22.4L424,530.7c9.9-1.4,17-11.9,16.1-23.8l-24.4-314.5
		c-0.7-9.4-7.8-16.3-15.6-15.4l-206.9,24.7c-7.3,0.9-12.5,8.8-11.4,17.5L219.7,533.8z"/>
	<g>
		<path class="st1" d="M237,552.2c0.6,4.5,4.2,7.5,7.9,6.3C269,551,352,526.7,422.7,523.3c3.2-0.2,5.7-3.5,5.3-7.3l-23.9-315.9
			c-0.4-4.3-3.5-7.6-7.2-7.3c-29.6,2.1-151.7,11.1-194.3,22.7c-2.6,0.7-4.2,3.7-3.9,6.8L237,552.2z"/>
		<path class="st3" d="M238.9,544c0.5,4.3,4,7.2,7.5,6.1c23.2-7.2,103.1-30.5,171.2-33.9c3.1-0.2,5.4-3.3,5.1-7.1l-23-304.1
			c-0.3-4.1-3.4-7.3-6.9-7.1c-28.5,2-146,10.7-186.9,21.8c-2.5,0.6-4.1,3.5-3.8,6.5L238.9,544z"/>
	</g>
	<path class="st5" d="M383.2,338.7l-20.5,2.8c-3.1,0.5-6-1.9-6.3-5.3l-2.4-22.4c-0.4-3.2,1.8-6.2,4.9-6.6l21.6-3
		c3.2-0.5,6.1,2.1,6.4,5.6l1.4,22.6C388.3,335.6,386.1,338.3,383.2,338.7z"/>
	<path class="st5" d="M365.1,420l-2.4-22.4c-0.4-3.2,1.8-6.2,4.9-6.6l18.3-2.6c3.2-0.5,6.1,2.1,6.4,5.5l1.6,22.5
		c0.2,3.2-1.9,6-4.9,6.4l-17.4,2.4C368.3,425.7,365.5,423.3,365.1,420z"/>
	<path class="st5" d="M271.5,411l2.4,21.3c0.4,3.6-2,6.8-5.3,7.2l-18.7,2.6c-3.3,0.5-6.4-2-6.9-5.5l-3-21.2c-0.6-3.7,1.8-7,5.3-7.5
		l19.4-2.7C268,404.8,271.1,407.4,271.5,411z"/>
	<path class="st5" d="M251,449.7l18.3-2.6c3.3-0.5,6.4,2,6.8,5.6l2.4,21.5c0.4,3.5-1.9,6.7-5.2,7.2l-17.7,2.5
		c-3.3,0.5-6.3-1.9-6.8-5.4l-3-21.4C245.3,453.4,247.7,450.1,251,449.7z"/>
	<path class="st5" d="M333.7,438.2l15-2.1c3.7-0.5,7,2.3,7.3,6.1l2.1,20.5c0.4,3.8-2.1,7.2-5.7,7.6l-14.4,2
		c-3.6,0.5-6.8-2.1-7.3-5.9l-2.8-20.5C327.6,442.2,330.2,438.7,333.7,438.2z"/>
	<path class="st5" d="M290.1,444.2l23-3.2c3.3-0.5,6.3,2,6.8,5.5l2.8,20.9c0.6,3.9-2,7.3-5.6,7.9l-23.2,3.2
		c-3.4,0.5-6.4-2.1-6.8-5.7l-2.2-21.6C284.5,447.8,286.8,444.7,290.1,444.2z"/>
	<path class="st5" d="M360.6,378.2l-2.4-22.4c-0.4-3.2,1.8-6.2,4.9-6.6l20-2.8c3.2-0.5,6.1,2.1,6.4,5.5l1.6,22.5
		c0.2,3.2-1.9,6-4.9,6.4l-19.1,2.7C363.8,383.9,361,381.5,360.6,378.2z"/>
	<path class="st5" d="M285.9,402.3l21.6-2.9c3.3-0.5,6.4,2,6.9,5.6l2.8,21.2c0.5,3.6-1.9,7-5.3,7.4l-22.2,3c-3.4,0.5-6.5-2.1-7-5.8
		l-2.2-21.3C280.2,406,282.6,402.8,285.9,402.3z"/>
	<path class="st5" d="M347.5,356.5L350,381c0.3,2.7-1.6,5.1-4,5.5l-20.7,2.8c-2.6,0.4-4.9-1.6-5.2-4.2l-3.2-24.3
		c-0.4-2.8,1.5-5.3,4-5.6l21.5-2.9C344.8,351.7,347.2,353.6,347.5,356.5z"/>
	<path class="st5" d="M340.5,344.6l-19.7,2.8c-3.2,0.5-6.1-1.9-6.6-5.3l-2.9-21.8c-0.5-3.5,1.8-6.6,5-7.1l20.5-2.8
		c3.3-0.5,6.2,2,6.6,5.5l2.2,21.9C345.9,341.1,343.6,344.2,340.5,344.6z"/>
	<path class="st5" d="M325.6,426.7l-3.2-24.3c-0.4-2.8,1.5-5.3,4-5.6l20.1-2.8c2.6-0.4,5,1.7,5.2,4.4l2.5,24.5
		c0.3,2.7-1.6,5.1-4,5.5l-19.4,2.7C328.2,431.2,325.9,429.4,325.6,426.7z"/>
	<path class="st5" d="M308.7,363.3l2.8,21.2c0.5,3.6-1.9,7-5.3,7.4l-20.9,2.9c-3.4,0.5-6.5-2.1-7-5.8l-2.2-21.3
		c-0.4-3.6,2-6.8,5.3-7.2l20.3-2.8C305.1,357.2,308.2,359.7,308.7,363.3z"/>
	<path class="st5" d="M303,320.8l3,22.7c0.5,3.2-1.7,6.1-4.7,6.6l-21,2.9c-3,0.5-5.8-1.9-6.1-5.1l-2.3-22.8c-0.4-3.1,1.7-6,4.7-6.4
		l20.4-2.8C299.9,315.5,302.6,317.6,303,320.8z"/>
	<path class="st5" d="M369.5,458.7l-1.8-17c-0.5-4.5,2.6-8.6,6.8-9.2l13.2-1.8c3.9-0.6,7.6,2.6,7.9,6.8l1.3,19
		c0.3,4.3-2.7,8.1-6.7,8.7l-11,1.6C374.5,467.4,370.1,463.8,369.5,458.7z"/>
	<path class="st5" d="M273.6,489c3.6-0.5,6.9,2.2,7.3,6.1l0.8,7.4c0.6,5.6-2.4,10.6-6.8,11.2l-12.7,1.7c-4.4,0.6-8.4-3.3-9.3-8.9
		l-1.1-7.9c-0.6-3.6,1.8-6.9,5.2-7.3L273.6,489z"/>
	<path class="st5" d="M253.6,250.4l1.7,14.6c0.4,3.6-2,6.8-5.3,7.2l-23.8,3.3c-3.3,0.5-6.4-2-6.9-5.5l-2-14.4
		c-0.8-5.8,2.2-11,6.8-11.6l20.5-2.8C248.7,240.5,252.9,244.7,253.6,250.4z"/>
	<path class="st5" d="M289.9,500.9l-0.7-7.2c-0.4-3.8,2.1-7.2,5.6-7.6l23.4-3.2c3.6-0.5,6.8,2.1,7.3,5.9l1,7.2
		c0.7,5.7-2.3,10.9-6.8,11.6l-20.5,2.8C294.8,510.9,290.4,506.7,289.9,500.9z"/>
	<path class="st5" d="M334.7,495.1l-1.2-9.1c-0.4-2.9,1.6-5.6,4.2-6l16.9-2.3c2.8-0.4,5.2,1.7,5.6,4.7l0.9,9.2
		c0.6,5.6-2.5,10.5-6.8,11.1l-10.3,1.5C339.6,504.7,335.5,500.7,334.7,495.1z"/>
	<path class="st5" d="M381.5,233.2l1,14.7c0.2,3.3-2,6.2-5.1,6.6l-23.6,3.3c-3.2,0.5-6.2-2-6.6-5.5l-1.7-15
		c-0.6-5.6,2.4-10.5,6.8-11.2l19.7-2.8C376.8,222.7,381.2,227.2,381.5,233.2z"/>
	<path class="st5" d="M266.9,369.1l2.4,21.3c0.4,3.6-2,6.8-5.3,7.2l-20,2.8c-3.3,0.5-6.4-2-6.9-5.5l-3-21.2c-0.6-3.7,1.8-7,5.3-7.5
		l20.6-2.8C263.3,363,266.4,365.5,266.9,369.1z"/>
	<path class="st5" d="M335.7,239.2l1.5,14.8c0.4,3.4-1.9,6.4-5,6.9l-22.5,3.1c-3.2,0.5-6.1-1.9-6.6-5.3l-2-14.8
		c-0.7-5.7,2.3-10.9,6.8-11.6l18.4-2.6C330.8,229.1,335.1,233.4,335.7,239.2z"/>
	<path class="st5" d="M292.8,244.7l2,15.4c0.5,3.2-1.7,6.1-4.7,6.6l-18.4,2.6c-3,0.5-5.8-1.9-6.1-5.1l-1.6-15.5
		c-0.6-5.6,2.5-10.5,6.8-11.1l12.7-1.7C288,235,292.1,239.1,292.8,244.7z"/>
	<path class="st5" d="M295.8,308.3l-19.7,2.8c-3,0.5-5.8-1.9-6.1-5.1l-2.3-22.8c-0.4-3.1,1.7-6,4.7-6.4l19.1-2.7
		c2.9-0.5,5.7,1.8,6.1,5l3,22.7C300.9,305,298.8,307.9,295.8,308.3z"/>
	<path class="st5" d="M257.4,285.5l2.4,21.3c0.4,3.6-2,6.8-5.3,7.2l-22.6,3.1c-3.3,0.5-6.4-2-6.9-5.5l-3-21.2
		c-0.6-3.7,1.8-7,5.3-7.5l23.2-3.2C253.9,279.3,257.1,281.9,257.4,285.5z"/>
	<path class="st5" d="M372.9,489.5l-0.9-8.9c-0.3-2.8,1.6-5.4,4.3-5.8l16.5-2.3c2.8-0.4,5.3,1.8,5.6,4.8l0.6,9.4
		c0.4,5.4-2.7,10.1-6.9,10.6l-9.9,1.4C377.7,499.5,373.5,495.2,372.9,489.5z"/>
	<path class="st5" d="M262.1,327.3l2.3,20.9c0.5,3.8-2.1,7.2-5.6,7.7l-21,2.9c-3.3,0.5-6.4-2-6.9-5.5l-2.9-21.2
		c-0.6-3.7,1.8-7,5.3-7.5l21.9-3C258.6,321.2,261.7,323.7,262.1,327.3z"/>
	<path class="st5" d="M380.3,296.7l-21.9,3c-3.2,0.5-6.2-2-6.6-5.5l-2.4-21.9c-0.4-3.4,1.9-6.4,5-6.9l22.7-3.1
		c3.4-0.5,6.4,2.2,6.6,5.8l1.5,22C385.7,293.3,383.5,296.2,380.3,296.7z"/>
	<path class="st5" d="M336.3,302.7l-21.1,2.9c-3.2,0.5-6.1-1.9-6.6-5.3l-2.9-21.8c-0.5-3.5,1.8-6.6,5-7.1l21.7-3
		c3.3-0.5,6.2,2,6.6,5.5l2.2,21.9C341.7,299.2,339.4,302.3,336.3,302.7z"/>
	
		<linearGradient id="SVGID_00000008113082385661937310000004777911071271264941_" gradientUnits="userSpaceOnUse" x1="261.9447" y1="80.0237" x2="228.2572" y2="195.8419" gradientTransform="matrix(0.1199 1.1004 -1.1438 0.1246 530.2583 -1.08)">
		<stop  offset="0" style="stop-color:#FF928E"/>
		<stop  offset="1" style="stop-color:#FE7062"/>
	</linearGradient>
	<path style="fill:url(#SVGID_00000008113082385661937310000004777911071271264941_);" d="M348.5,269.3c-0.2-1.7,0.3-3.3,1.3-4.6
		c1-1.4,2.6-2.3,4.2-2.6l24.7-3.4c1.7-0.3,3.4,0.2,4.8,1.3c1.4,1.1,2.2,2.7,2.4,4.4l0,0l2.8,27.1c0.4,3.5-2.1,6.7-5.5,7.2l-23.8,3.3
		c-3.4,0.5-6.6-2-7.1-5.5l-3.7-27C348.5,269.5,348.5,269.4,348.5,269.3z M383.9,264.7c-0.1-1.2-0.7-2.3-1.7-3
		c-0.9-0.7-2.1-1.1-3.3-0.9l-24.8,3.4c-1.2,0.2-2.2,0.8-2.9,1.7c-0.7,1-1,2.2-0.9,3.4l3.7,27c0.4,2.5,2.6,4.1,5,3.9l23.8-3.3
		c2.4-0.4,4.1-2.6,3.9-5L383.9,264.7L383.9,264.7z"/>
</g>
<g>
	
		<linearGradient id="SVGID_00000016769997573628558820000001748726635448780218_" gradientUnits="userSpaceOnUse" x1="-7045.9858" y1="459.8353" x2="-6955.9038" y2="227.9314" gradientTransform="matrix(-1 0 0 1 -6456.3174 200)">
		<stop  offset="0" style="stop-color:#FEBBBA"/>
		<stop  offset="1" style="stop-color:#FF928E"/>
	</linearGradient>
	<path style="fill:url(#SVGID_00000016769997573628558820000001748726635448780218_);" d="M517.3,448.8l32.9,8l-8.3,59.7
		c0,0,12.4,11.9,16.5,27.9c4.1,16,7.9,82.7,7.9,82.7l7.8,4.6l0.9,3.9l-22.7,29.5l3.8-23.6c0.6-3.8-0.5-11.3-0.1-11.5
		c-12.4-31.8-38.8-121.5-38.8-121.5L517.3,448.8L517.3,448.8z"/>
	
		<linearGradient id="SVGID_00000008852756756338975010000015271826437937964685_" gradientUnits="userSpaceOnUse" x1="-7046.3086" y1="1204.0499" x2="-6749.2046" y2="-2268.3525" gradientTransform="matrix(-1 0 0 1 -6456.3174 200)">
		<stop  offset="0" style="stop-color:#FEBBBA"/>
		<stop  offset="1" style="stop-color:#FF928E"/>
	</linearGradient>
	<path style="fill:url(#SVGID_00000008852756756338975010000015271826437937964685_);" d="M507.6,635.9c0.4,0,0.7,0,1.1,0
		c-1.6-19.2-8.9-103.6-16.1-135.4C484.4,464.6,505,393,505,393l37.1,35.9l-20.6,67.7c14.1,20.5-2.3,140.2-1.9,140.2v0.3l5.4,7.2
		l-0.6,3.9l-32.8,18.7l12.9-20.3C506.3,643.3,507.5,639.6,507.6,635.9z"/>
	
		<linearGradient id="SVGID_00000009587577060184553130000017940565312453975205_" gradientUnits="userSpaceOnUse" x1="-7037.7842" y1="93.6357" x2="-6998.3628" y2="93.6357" gradientTransform="matrix(-1 0 0 1 -6456.3174 200)">
		<stop  offset="0" style="stop-color:#FEBBBA"/>
		<stop  offset="1" style="stop-color:#FF928E"/>
	</linearGradient>
	<path style="fill:url(#SVGID_00000009587577060184553130000017940565312453975205_);" d="M549.4,234.2c0,0,72.2,78.6,0,118.9
		l-7.3-5.1c0,0,35.9-33.1,0-73.7L549.4,234.2z"/>
	<path class="st10" d="M489.2,669.7h10.5c1.9,0,3.9-0.9,5-2.4c3.3-4.1,10-12.1,13.3-12.3c4.4-0.3,3.8,14.7,3.8,14.7h2.5l3.1-18.6
		c0.7-4.7-1.7-9.4-6-11.5l0,0c0,0-1,7.2-6.4,10.3c-5.4,3.1-21.9,14.4-21.9,14.4s-2-0.3-4.2,0.1C485.4,664.9,485.8,669.7,489.2,669.7
		z"/>
	<path class="st10" d="M551.6,668.5l9.6-3.9c1.8-0.7,3.2-2.2,3.7-4c1.4-5,4.4-15,7.3-16.3c3.9-1.9,9.4,12.1,9.4,12.1l2.3-0.9
		l-4.6-18.3c-1.2-4.6-5.2-8-10.1-8.3l0,0c0,0,1.9,7-1.7,11.8S553,662.1,553,662.1s-2,0.5-3.9,1.7
		C546.2,665.6,548.6,669.8,551.6,668.5z"/>
	
		<linearGradient id="SVGID_00000015340919494708621560000016545730721042208937_" gradientUnits="userSpaceOnUse" x1="610.9493" y1="84.8443" x2="530.8899" y2="193.2582" gradientTransform="matrix(1 0 0 1 0 200)">
		<stop  offset="0" style="stop-color:#4F52FF"/>
		<stop  offset="1" style="stop-color:#4042E2"/>
	</linearGradient>
	<path style="fill:url(#SVGID_00000015340919494708621560000016545730721042208937_);" d="M495.5,332.5c0,0,1.2,7.2-0.6,26.9
		c-1.7,19.7-10.3,66-8.5,110.3c0,0,24.1,5.4,66,2.8c0,0,17.7-69.2,13.4-95.5c-4.3-26.3-27.7-45.1-27.7-45.1L495.5,332.5z"/>
	
		<linearGradient id="SVGID_00000137094796300984757750000015314054700545709966_" gradientUnits="userSpaceOnUse" x1="-6994.6938" y1="8.6067" x2="-6966.7178" y2="8.6067" gradientTransform="matrix(-1 0 0 1 -6456.3174 200)">
		<stop  offset="0" style="stop-color:#FEBBBA"/>
		<stop  offset="1" style="stop-color:#FF928E"/>
	</linearGradient>
	<polygon style="fill:url(#SVGID_00000137094796300984757750000015314054700545709966_);" points="513.3,200.6 510.4,234.2 
		538.4,234.2 531.4,183 	"/>
	
		<linearGradient id="SVGID_00000141425860002149159250000012099879665152428677_" gradientUnits="userSpaceOnUse" x1="859.6183" y1="-31.7251" x2="746.2516" y2="5.4998" gradientTransform="matrix(1 0 0 1 0 200)">
		<stop  offset="0" style="stop-color:#FF928E"/>
		<stop  offset="1" style="stop-color:#FE7062"/>
	</linearGradient>
	<path style="fill:url(#SVGID_00000141425860002149159250000012099879665152428677_);" d="M546.6,229.5c-9.6-0.6-31.3-1.5-46.6-0.6
		c-8.1,0.5-14.8,6.1-16.4,13.7l-3.8,17.3c-1.4,6.4-1.2,13.1,0.6,19.4l15,53.2c0,0,13.3,7.8,42.7-0.6c0,0,25.7-59.3,15.2-97.2
		C552.5,231.8,549.8,229.7,546.6,229.5z"/>
	
		<linearGradient id="SVGID_00000182501712671780463060000005271994626861629880_" gradientUnits="userSpaceOnUse" x1="-6830.2749" y1="22.2717" x2="-7071.834" y2="160.6566" gradientTransform="matrix(-1 0 0 1 -6456.3174 200)">
		<stop  offset="0" style="stop-color:#FEBBBA"/>
		<stop  offset="1" style="stop-color:#FF928E"/>
	</linearGradient>
	<path style="fill:url(#SVGID_00000182501712671780463060000005271994626861629880_);" d="M484.4,239.4
		c-4.1,10.5-7.9,21.6-11.8,31.8c-2,5.1-4.1,10.2-6.3,14.9c-1.1,2.3-2.3,4.4-3.5,6.3c-1.1,1.9-2.4,3.5-3,4.2
		c-0.1,0.1,0.3,0.2,0.5,0.2c0.1,0-2.8,0.5-3.7,0.6H453c-5-0.3-10.5-1.1-16.1-2.1c-11.3-2-23.1-5-35.1-7.1h-0.1
		c-2.3-0.5-4.5,1.1-5,3.3c-0.3,1.5,0.3,2.9,1.4,3.9c4.9,4.1,10,7.5,15.4,10.9c2.7,1.6,5.4,3.1,8.3,4.7c2.8,1.4,5.7,2.8,8.6,4.1
		c6,2.5,12.1,4.9,19.3,6.3c1.8,0.3,3.7,0.6,5.6,0.8c2.1,0.1,4.1,0.3,6.4,0.1c1.3-0.1,2.5-0.3,3.8-0.5c0.6-0.1,1.2-0.1,1.9-0.4
		c0.8-0.3,1.7-0.6,2.6-0.8c1.7-0.6,2.9-1.4,4.3-2.1c1.2-0.7,2.3-1.6,3.3-2.4c3.9-3.2,6.3-6.3,8.4-9.4c2.1-3.1,3.8-6.1,5.3-9.1
		c3-6,5.4-11.9,7.3-17.8c3.9-11.9,6.5-23.7,7.6-36.1c0.6-6-4-11.2-10.2-11.7c-5.1-0.5-9.7,2.6-11.5,7L484.4,239.4z"/>
	
		<linearGradient id="SVGID_00000158718752675993074400000000828463401964452779_" gradientUnits="userSpaceOnUse" x1="-6806.7383" y1="64.0752" x2="-7046.6987" y2="201.5438" gradientTransform="matrix(-1 0 0 1 -6456.3174 200)">
		<stop  offset="0" style="stop-color:#FEBBBA"/>
		<stop  offset="1" style="stop-color:#FF928E"/>
	</linearGradient>
	<path style="fill:url(#SVGID_00000158718752675993074400000000828463401964452779_);" d="M405.5,293.6l-5-11.5l-26.3-6.3
		c0,0-2.1,4.4,9,6.3c0,0-3.9,4.2-1.8,9.2C383.5,296.3,405.7,301.2,405.5,293.6z"/>
	
		<linearGradient id="SVGID_00000144320223630999187620000010423661229091082121_" gradientUnits="userSpaceOnUse" x1="-6948.6621" y1="8.8787" x2="-7001.7393" y2="-68.7344" gradientTransform="matrix(-1 0 0 1 -6456.3174 200)">
		<stop  offset="0" style="stop-color:#FEBBBA"/>
		<stop  offset="1" style="stop-color:#FF928E"/>
	</linearGradient>
	<path style="fill:url(#SVGID_00000144320223630999187620000010423661229091082121_);" d="M501.5,162c-1,0.6-8.9,27.4-2.3,38.7
		c6.6,11.3,26.8-1.4,32.2-17.6C536.9,166.8,528.1,146.8,501.5,162z"/>
	<path class="st10" d="M553.7,183c4.5,21.5,19.5,15.6,30.1,25c17.2,15.4,41.8-0.5,65.7,14.1c17.2,10.5,25.6,37.6,17.3,59.4
		c-11.5,30.3-50.7,42.7-71,33.5c-19.4-8.8-16.7-35.1-42.8-45.3c-11.1-4.3-16.6-1.5-23.2-7.9c-11.6-11.2-8.5-33-7.2-41.4
		c2.7-18.2,8.9-21.5,6-29.4c-5.9-15.6-33.2-12.4-35.5-23.3c-2.1-10,17.8-29,36.4-26C558.2,146.3,551.7,173.5,553.7,183z	">
<!-- <animate  accumulate="none" additive="replace" attributeName="d" calcMode="linear" dur="2s" fill="remove" repeatCount="indefinite" restart="always" values="   M727.1,285.4c4.9,23.4,21.3,17,32.8,27.3c18.8,16.8,45.6-0.5,71.6,15.4c18.8,11.5,27.9,41,18.9,64.8   c-12.5,33-55.3,46.5-77.4,36.5c-21.2-9.6-18.2-38.3-46.7-49.4c-12.1-4.7-18.1-1.6-25.3-8.6c-12.7-12.2-9.3-36-7.9-45.1   c2.9-19.8,9.7-23.4,6.5-32.1c-6.4-17-36.2-13.5-38.7-25.4c-2.3-10.9,19.4-31.6,39.7-28.3C732,245.4,724.9,275,727.1,285.4z;   M727.1,285.4c4.9,23.4,21.3,17,32.8,27.3c18.8,16.8,63.2-6.1,89.2,9.8c18.8,11.5,27.9,41,18.9,64.8   c-12.5,33-48.9,35.3-71,25.3c-21.2-9.6-25.7-27.5-54.2-38.6c-8.4-2.4-22.1-2.4-32.4-6.2c-12.7-12.2-18.7-32.5-17.3-41.6   c2.9-19.8,9.7-23.4,6.5-32.1c-6.4-17-36.2-13.5-38.7-25.4c-2.3-10.9,19.4-31.6,39.7-28.3C732,245.4,724.9,275,727.1,285.4z;       M727.1,285.4c4.9,23.4,21.3,17,32.8,27.3c18.8,16.8,45.6-0.5,71.6,15.4c18.8,11.5,27.9,41,18.9,64.8   c-12.5,33-55.3,46.5-77.4,36.5c-21.2-9.6-18.2-38.3-46.7-49.4c-12.1-4.7-18.1-1.6-25.3-8.6c-12.7-12.2-9.3-36-7.9-45.1   c2.9-19.8,9.7-23.4,6.5-32.1c-6.4-17-36.2-13.5-38.7-25.4c-2.3-10.9,19.4-31.6,39.7-28.3C732,245.4,724.9,275,727.1,285.4z" xmlns="http://www.w3.org/2000/svg">
			</animate> -->
	</path>
</g>
</svg>
