<svg version="1.1" xmlns="http://www.w3.org/2000/svg" xmlns:xlink="http://www.w3.org/1999/xlink" x="0px"
	y="0px" viewBox="0 0 1000 1000"  width="1000" height="1000">
	<style type="text/css">
		.st0 {
			fill: #FFFFFF;
		}

		.st1 {
			fill: #DFEBF9;
		}

		.st2 {
			opacity: 0.5;
		}

		.st3 {
			fill: #AEC3FF;
		}

		.st4 {
			fill: #798EE8;
		}

		.st5 {
			fill: #849DEF;
		}

		.st6 {
			fill: #8C9DF4;
		}

		.st7 {
			fill: #5D70C1;
		}

		.st8 {
			fill: #233862;
		}

		.st9 {
			fill: #F77D48;
		}

		.st10 {
			fill: #CC613B;
		}

		.st11 {
			fill: #505ABA;
		}

		.st12 {
			fill: #FFA25C;
		}

		.st13 {
			fill: #A8D29F;
		}

		.st14 {
			fill: #739AF0;
		}

		.st15 {
			fill: #152949;
		}

		.st16 {
			fill: #F99746;
		}

		.st17 {
			fill: #FFB27D;
		}

		.st18 {
			fill: #E8945B;
		}

		.st19 {
			fill: #243F77;
		}

		.st20 {
			fill: #2B478B;
		}

		.st21 {
			fill: #5A7DE0;
		}

		.st22 {
			fill: #152F54;
		}

		.st23 {
			fill: #1D3868;
		}
	</style>
	<g>
		<rect class="st0" width="1000" height="1000" />
		<g>
			<path class="st1" d="M210.43,197.4c11.63-26.31,56.63-10.65,56.63-10.65s24.1,52.83,33.07,55.37
			c8.97,2.54-11.79-49.19-11.79-49.19c17.99,1,59.83,29.63,59.83,29.63s-11.43,55.59-2.1,55.85c9.32,0.26,7.6-49.74,7.6-49.74
			c16.36,7.77,29.31,30.23,29.31,30.23c15.03,35.65-31.52,53.1-31.52,53.1s-3.54,19.35,5.05,43.48v0c0,0,2.08,4.53,3.76,11.95
			l-4.68-0.71c-0.19-1.31-0.43-2.59-0.71-3.82c0-0.01,0-0.02-0.01-0.02c0-0.02-0.01-0.04-0.01-0.05c-0.21-0.77-0.51-1.87-0.9-3.21
			c0,0,0,0,0,0c0,0,0,0,0-0.01c-1-3.02-1.65-5.23-2.03-6.81c0,0,0-0.01,0-0.01c-2.94-9.43-7.36-21.81-11.1-24.84
			c0,0,0.63-0.65,1.33-1.99c-0.42,0.63-0.87,1.3-1.33,1.99c-10.63,15.93-51.08,12.67-72.68,4.68c-21.6-7.98-10.92-12.79,2.65-21.16
			c13.57-8.37,38.31-1.83,46.35-4.7c8.04-2.87-2.21-8.53-17.25-9.66c-15.04-1.13-24.74,12.6-49.11,11.21
			c-24.36-1.39-35.75-49.35-35.75-49.35c15.79,7.68,46.92,3.08,48.94-2.46c2.02-5.54-42.09-11.7-48.69-14.47
			C208.71,239.26,198.8,223.7,210.43,197.4z" />
		</g>
		<g class="st2">
			<g class="st2">
				<path class="st3" d="M223.82,536.72c0,0,7.8-85.29-24.24-144c-4.26-7.8-15.99-5.92-17.66,2.82c-0.03,0.15-0.05,0.29-0.08,0.44
				C179.22,410.93,213.6,483.69,223.82,536.72z" />
			</g>
			<g class="st2">
				<path class="st3" d="M223.92,561.64c0,0-20.31-113.01-83.04-174.44c-3.83-3.75-10.03-4.01-13.92-0.32
				c-2.53,2.4-4.33,6.61-3.63,13.92C125.21,420.31,192.99,499.1,223.92,561.64z" />
			</g>
		</g>
		<g class="st2">
			<g class="st2">
				<path class="st3" d="M593.09,471.01c0,0,66.69-93.43,150.6-125.03c11.15-4.2,21.41,7.99,15.47,18.31
				c-0.1,0.17-0.2,0.35-0.31,0.52C748.43,382.28,649.87,426.09,593.09,471.01z" />
			</g>
			<g class="st2">
				<path class="st3" d="M571.19,496.22c0,0,119.49-96.99,236.95-104.49c7.16-0.46,13.69,4.71,14.42,11.85
				c0.47,4.65-1.38,10.5-8.5,17.31C795.07,439.06,657.31,459.77,571.19,496.22z" />
			</g>
		</g>
		<g>
			<g>
				<path class="st4" d="M441.5,423.27L418.41,697.8c0,0-2.42,16.64,9.96,16.67c20.35,0.05,101.3,0,101.3,0s-15.32-3.46-15.13-11.26
				c0.22-9.19,26.99-282.54,26.99-282.54L441.5,423.27z" />
			</g>
			<g>
				<path class="st3" d="M537.29,709.48c-4,0.01-82.37,0.14-102.19-0.11c-8.64-0.11-10.15-7.68-10.22-12.58
				c-0.04-2.35,0.26-4.09,0.26-4.09l0.6-7.14l1.53-18.19l1.35-16.07l1.74-20.65l1.46-17.43l16.41-195.07l100.03-2.6
				c0,0-11.27,114.4-19.25,197.67c-0.89,9.28-1.74,18.17-2.52,26.48c-0.25,2.65-0.5,5.24-0.74,7.77c-0.74,7.88-1.42,15.11-2,21.5
				c-0.31,3.37-0.6,6.5-0.85,9.36c-1.02,11.23-1.61,18.4-1.62,19.76c0,0.79,0.06,1.53,0.19,2.22
				C523.1,709.09,535.79,709.48,537.29,709.48z" />
			</g>
			<g>
				<polygon class="st3"
					points="198.57,273.76 254.82,499.67 262.52,530.61 288.71,635.83 775.36,635.83 678.81,273.76 			" />
			</g>
			<g>
				<polygon class="st4" points="198.57,273.76 190.78,276.36 278.35,643.69 288.71,635.83 			" />
			</g>
			<g>
				<polygon class="st5" points="278.35,643.69 762,643.69 775.35,635.83 288.71,635.83 			" />
			</g>
			<g>

				<rect x="448.19" y="709.48" transform="matrix(-1 -1.224647e-16 1.224647e-16 -1 1001.1013 1423.9442)"
					class="st3" width="104.72" height="4.98" />
			</g>
			<g>
				<polygon class="st6"
					points="526.29,643.68 525.75,647.49 427.27,667.38 428.62,651.32 429.26,643.68 			" />
			</g>
			<g class="st2">
				<path class="st6" d="M537.29,709.48c-4,0.01-82.37,0.14-102.19-0.11c-8.64-0.11-10.15-7.68-10.22-12.58l98.02-18.44
				c-1.02,11.23-1.61,18.4-1.62,19.76c0,0.79,0.06,1.53,0.19,2.22C523.1,709.09,535.79,709.48,537.29,709.48z" />
			</g>
			<g>
				<polygon class="st6" points="198.57,273.76 678.81,273.76 756.73,564.75 271.02,564.75 			" />
			</g>
			<g>
				<polygon class="st7"
					points="734.08,552.14 284.43,552.14 268.36,488.13 262.15,463.36 259.61,453.26 243.1,387.48 
				242.24,384.06 233.51,349.29 229.61,333.73 226.28,320.46 223.56,309.63 218.46,289.35 661.63,289.35 667.22,309.63 
				670.21,320.46 673.86,333.73 678.15,349.29 706.41,451.78 706.41,451.79 708.8,460.47 709.92,464.5 729.42,535.26 			" />
			</g>
			<g>
				<polygon class="st6" points="453.47,564.75 288.87,636.68 271.02,564.75 			" />
			</g>
		</g>
		<g id="gamepad01">
			<g>
				<path class="st8" d="M255.2,521.88l-24.37,9.79c-3.96,1.59-5.48,7.06-3.41,12.22l1.77,4.4l38.86-15.62l-2.16-4.47
				C263.87,523.15,259.08,520.32,255.2,521.88z" />
			</g>
			<g>
				<path class="st8" d="M404.26,461.96l-24.37,9.79c-3.96,1.59-5.48,7.06-3.41,12.22l1.77,4.4l38.86-15.62l-2.16-4.47
				C412.92,463.23,408.14,460.4,404.26,461.96z" />
			</g>
			<g>
				<path class="st9"
					d="M477.33,601.44c-1.21,0.65-21.85,12.9-41.35-0.21c-6.17-4.14-12.98-9.75-19.83-16.01
				c-8.94-8.15-21.78-10.43-33.01-5.92l-50.65,20.36c-12.19,4.9-20.46,16.34-21.42,29.44c-0.63,8.64-1.63,16.78-3.12,23.6
				c-5,22.96-28.37,28.41-29.7,28.77c-12.9,3.57-24.48-5.34-27.06-17.71l-22.82-109.27c-0.54-2.59-0.62-5.17-0.3-7.65
				c0.5-3.81,3.06-7.04,6.63-8.48l20.03-8.05c1.25-0.5,4.35-1.76,6.56-1.56c11.53,1.02,22.38,0.12,34.81-4.72l68.33-27.47
				c7.99-3.21,6.84-6.02,11.39-13.33c0.01-0.01,0.01-0.02,0.02-0.03c1.03-1.64,2.59-2.89,4.39-3.61l30.3-12.18
				c2.56-1.03,5.46-0.81,7.79,0.67c2.8,1.78,5.25,4.19,7.12,7.19l59.15,94.66C491.3,580.64,489.11,595.08,477.33,601.44z" />
			</g>
			<g>
				<path class="st10" d="M242.21,584.68c-6.64-16.52,1.22-35.24,17.57-41.81c16.34-6.57,34.98,1.5,41.62,18.02
				c6.64,16.52-1.22,35.24-17.57,41.81C267.49,609.26,248.85,601.2,242.21,584.68z" />
			</g>
			<g>
				<path class="st8" d="M317.88,594.53c-3.34-8.32,0.69-17.77,9-21.11c8.32-3.34,17.77,0.69,21.11,9c3.34,8.32-0.69,17.77-9,21.11
				C330.67,606.88,321.22,602.85,317.88,594.53z" />
			</g>
			<g>
				<path class="st11" d="M323.15,592.41c-2.17-5.4,0.45-11.54,5.85-13.72c5.4-2.17,11.54,0.45,13.72,5.85
				c2.17,5.4-0.45,11.54-5.85,13.72C331.47,600.43,325.33,597.81,323.15,592.41z" />
			</g>
			<g>
				<path class="st8" d="M360.19,577.52c-3.34-8.32,0.69-17.77,9-21.11c8.32-3.34,17.77,0.69,21.11,9c3.34,8.32-0.69,17.77-9,21.11
				C372.99,589.87,363.54,585.84,360.19,577.52z" />
			</g>
			<g>
				<path class="st11" d="M365.47,575.4c-2.17-5.4,0.45-11.54,5.85-13.72c5.4-2.17,11.54,0.45,13.72,5.85
				c2.17,5.4-0.45,11.54-5.85,13.72C373.78,583.42,367.64,580.81,365.47,575.4z" />
			</g>
			<g>
				<path class="st8" d="M356.35,529.47l-44.16,17.75c-5.74,2.31-12.27-0.48-14.58-6.22l-6.15-15.29l64.74-26.03l6.23,15.51
				C364.7,520.82,361.98,527.21,356.35,529.47z" />
			</g>
			<g>
				<g>
					<path class="st12" d="M257.47,555.01l10.81-4.34c3.88-1.56,7.86,2.09,6.69,6.13l-2.98,10.33c-0.57,1.96-2.8,2.86-4.57,1.84
					l-10.46-6.06C253.79,561.06,254.09,556.37,257.47,555.01z" />
				</g>
				<g>
					<path class="st12" d="M284.43,589.1l-10.81,4.34c-3.88,1.56-7.86-2.09-6.69-6.13l2.98-10.33c0.57-1.96,2.8-2.86,4.57-1.84
					l10.46,6.06C288.11,583.05,287.8,587.74,284.43,589.1z" />
				</g>
				<g>
					<g>
						<path class="st12" d="M289.94,558.18l4.39,10.92c1.58,3.92-2.02,7.91-6.04,6.7l-10.27-3.08c-1.95-0.59-2.86-2.85-1.86-4.62
						l5.93-10.5C283.9,554.42,288.57,554.76,289.94,558.18z" />
					</g>
					<g>
						<path class="st12" d="M253.24,586.32l-4.39-10.92c-1.58-3.92,2.02-7.91,6.04-6.7l10.27,3.08c1.95,0.58,2.86,2.85,1.86,4.62
						l-5.93,10.5C259.28,590.08,254.62,589.74,253.24,586.32z" />
					</g>
				</g>
			</g>
			<g>
				<path class="st10" d="M374.36,531.56c-6.64-16.52,1.22-35.24,17.57-41.81c16.34-6.57,34.98,1.5,41.62,18.02
				c6.64,16.52-1.22,35.24-17.57,41.81C399.63,556.14,381,548.08,374.36,531.56z" />
			</g>
			<g>
				<path class="st12" d="M393.01,506.98c-1.37-3.41,0.28-7.28,3.69-8.64c3.41-1.37,7.28,0.28,8.64,3.69
				c1.37,3.41-0.28,7.28-3.69,8.64C398.25,512.03,394.38,510.38,393.01,506.98z" />
			</g>
			<g>
				<path class="st13" d="M404.13,534.65c-1.37-3.4,0.28-7.28,3.69-8.64c3.41-1.37,7.28,0.28,8.64,3.69
				c1.37,3.41-0.28,7.28-3.69,8.64C409.37,539.71,405.5,538.06,404.13,534.65z" />
			</g>
			<g>
				<path class="st14" d="M416.19,506.57c3.41-1.37,7.28,0.28,8.64,3.69c1.37,3.41-0.28,7.28-3.69,8.64
				c-3.41,1.37-7.28-0.28-8.64-3.69C411.14,511.81,412.79,507.94,416.19,506.57z" />
			</g>
			<g>
				<path class="st8" d="M388.75,517.6c3.45-1.24,7.26,0.55,8.5,4.01c1.24,3.45-0.55,7.26-4.01,8.5c-3.45,1.24-7.26-0.55-8.5-4.01
				C383.5,522.65,385.3,518.84,388.75,517.6z" />
			</g>
			<animateTransform xmlns="http://www.w3.org/2000/svg" attributeName="transform" attributeType="XML" type="rotate" dur="3s" values="0 345 560;10 345 560;0 345 560" repeatCount="indefinite"/>
		</g>
		<g>
			<path class="st13" d="M207.45,717h42.41c2.27-1.93-1.57-6.31-5.59-6.6c-1.75-0.13-3.95,0.23-6.47,0.77
			c-0.58-7.75-3.92-42.6-16.48-41.2c-14.12,1.57,0,15.35,3.99,23.5c2.96,6.04,6.08,14.71,7.5,18.79c-1.15,0.25-2.33,0.49-3.55,0.72
			c-1.87-5.75-8.84-25.08-17.69-23.95c-10.4,1.32-6.22,9.07,1.15,13.67c5.41,3.38,12.05,8.19,15.2,10.52
			c-2.67,0.44-5.46,0.73-8.29,0.67C212.37,713.71,208.82,715.85,207.45,717z" />
		</g>
		<g>
			<g>
				<path class="st15" d="M528.81,492.91c-9.13,0-15.84,8.58-13.63,17.44l30.07,120.77l4.71,18.93l13.37,53.72
				c1.56,6.26,7.18,10.65,13.63,10.65h268.46c9.23,0,15.95-8.75,13.57-17.67l-51.57-193.41c-1.64-6.15-7.21-10.43-13.57-10.43
				H528.81z" />
			</g>
			<g>
				<path class="st11" d="M538.6,492.91c-9.13,0-15.84,8.58-13.63,17.44l30.07,120.77l4.71,18.93l13.37,53.72
				c1.56,6.26,7.18,10.65,13.63,10.65h268.46c9.23,0,15.95-8.75,13.57-17.67l-51.57-193.41c-1.64-6.15-7.21-10.43-13.57-10.43H538.6
				z" />
			</g>
			<g>
				<path class="st16" d="M845.3,705.52H593.47c-6.05,0-11.32-4.07-12.79-9.88l-12.54-49.81l-4.42-17.55l-11.78-46.76l-16.42-65.22
				c-2.07-8.22,4.22-16.17,12.79-16.17h248.61c5.97,0,11.2,3.96,12.73,9.67l48.38,179.34C860.26,697.41,853.96,705.52,845.3,705.52z
				" />
			</g>
			<g>
				<path class="st9" d="M764.43,519.03c-17.79,8.94-39.14-12.6-35.01,16.23c4.12,28.83-37.46,28.9-66.85,25.24
				c-29.38-3.66-25.91,31.71-55.59,35.79c-29.68,4.07-55.05-14.77-55.05-14.77l-16.42-65.22c-2.07-8.22,4.22-16.17,12.79-16.17
				h219.59C767.89,500.13,782.22,510.09,764.43,519.03z" />
			</g>
			<g>
				<path class="st0" d="M567.9,521.7h8.1c4.78,0,8.42,2.73,9.36,6.94c1.03,4.62-2.12,7.03-6.64,7.03h-4.08l1.48,6.61h-3.61
				L567.9,521.7z M578.1,532.4c2.73,0,4.09-1.53,3.59-3.73c-0.54-2.41-2.56-3.67-5.25-3.67h-4.2l1.66,7.41H578.1z" />
				<path class="st0" d="M587.5,521.7h3.61l3.88,17.29h10.8l0.74,3.29h-14.41L587.5,521.7z" />
				<path class="st0" d="M612.9,521.55h3.34l13.69,20.73h-3.81l-3.2-4.97h-9.71l-1,4.97h-3.7L612.9,521.55z M620.88,534.11l-5.4-8.23
				l-1.67,8.23H620.88z" />
				<path class="st0"
					d="M634.44,534.17l-10.95-12.46h4.25l7.79,9.11l3.76-9.11h4.14l-5.38,12.38l1.84,8.2h-3.64L634.44,534.17z" />
			</g>
			<g>
				<path class="st0" d="M648.12,539.77c0-1.52,1.23-2.74,2.74-2.74c1.52,0,2.74,1.23,2.74,2.74c0,1.52-1.23,2.74-2.74,2.74
				C649.35,542.51,648.12,541.28,648.12,539.77z" />
			</g>
			<g>
				<circle class="st0" cx="662.58" cy="539.77" r="2.74" />
			</g>
			<g>
				<path class="st0" d="M671.44,539.77c0-1.52,1.23-2.74,2.74-2.74c1.52,0,2.74,1.23,2.74,2.74c0,1.52-1.23,2.74-2.74,2.74
				C672.67,542.51,671.44,541.28,671.44,539.77z" />
			</g>
		</g>
		<g>
			<g>
				<g>
					<path class="st17" d="M714.46,392.29c0-0.26,3.78-8.07,2.58-8.67c-1.2-0.6-3.35-0.51-3.61,0.86
					C713.18,385.85,714.46,392.29,714.46,392.29z" />
				</g>
				<g>
					<path class="st8" d="M770.85,295.2c0,0,22.15-26.62,33.88-9.59c0,0,8.75,3.63,11.91,18.52c3.23,15.2-6.88,26.74-12.1,23.89
					c-3.35-1.83-5.89,4.03-5.89,4.03L770.85,295.2z" />
				</g>
				<g>
					<path class="st17" d="M743.38,436.86c-17.61-6.49-34.58-36.63-34.58-36.63l5.55-3.89c4.63,6.77,25.44,19.76,25.44,19.76
					c0.47-5.7,1.17-10.88,2.02-15.56c5.78-31.85,19-41.29,22.54-43.29c0.57-0.32,0.9-0.45,0.9-0.45s-0.01,0.23-0.04,0.68
					c-0.05,0.96-0.16,2.89-0.35,5.54C763.49,382.73,758.1,442.28,743.38,436.86z" />
				</g>
				<g>
					<path class="st8" d="M802.32,282.91c0,0,2.98-11.91,20.48-8.19c0,0-8.38-1.05-10.67,2.17c0,0,6.64-3.04,10.8-0.5
					c4.16,2.54,4.84,11.11,4.22,13.71c-0.62,2.61-5.21,10.36-8.25,10.36c-3.04,0-6.64-2.67-6.64-2.67L802.32,282.91z" />
				</g>
				<g>
					<path class="st17" d="M828.5,469.38c-8.7-19.51-12.86-25.03-13.01-31.17c-0.12-4.86,2.28-10.09,6.93-22.94
					c1.09-3.03,1.85-6.14,2.32-9.29c3.68-24.76-10.64-51.53-19.54-53.36c-2.48-0.65-6.67-9.6-6.62-24.01l-1.11,0.22l-18.74,3.71
					c0,0,0.43,5.9,0.44,11.45c0.01,4.63-0.27,9.02-1.32,9.57c-1.35,0.12-2.15,0.2-2.15,0.2s-15.63,21.7-16.94,41.88
					c-1.31,20.18,12.51,28.95-0.1,69.29C745.77,506.14,833.31,480.17,828.5,469.38z" />
				</g>
				<g>
					<path class="st18"
						d="M778.72,332.55c0,0,0.43,5.9,0.44,11.45c10.49-0.3,16.03-9.86,18.3-15.17L778.72,332.55z" />
				</g>
				<g>
					<path class="st8" d="M799.39,326.8c0,0,5.5-8.68,6.82-16.11c0.94-5.3-1.76-24.95-21.51-22.12c0,0-5.74,0.57-11.13,4.21
					c-4.29,2.9-10.47,9.15-3.56,26.29l1.8,5.79L799.39,326.8z" />
				</g>
				<g>
					<path class="st17" d="M775.21,337.81c0,0,24.81,0.41,24.83-15.05c0.02-15.46,3.23-25.81-12.61-26.73
					c-15.84-0.91-18.93,4.98-20.19,10.14C765.99,311.33,768.76,337.31,775.21,337.81z" />
				</g>
				<g>
					<path class="st8" d="M776.13,295.66c0,0,6.79,18.13,17.22,20.81c10.43,2.68,14.95-0.11,14.95-0.11s-8-6.35-9.66-17.44
					C798.64,298.92,781.26,287.03,776.13,295.66z" />
				</g>
				<g>
					<path class="st8" d="M777.82,297.13c0,0-5.07,4.05-6.31,7.98c-1.24,3.94-1.79,12.04-4.15,11.76c0,0-5.12-12.33,0.63-19.3
					C774.08,290.19,777.82,297.13,777.82,297.13z" />
				</g>
				<g>
					<path class="st19" d="M806.53,656.63c-6.24,24.83-15.64,43.87-15.64,43.87l-8.18-0.57c0,0,4.01-19.09,3.78-44.88
					c-0.16-18.03-2.39-39.34-9.52-59.69c-24.48-69.92-20.53-120.81-20.53-120.81l46.04,5.39l2.15,0.25
					c0.19,21.14,0.74,49.85,1.21,72.3c0.42,20.19,0.79,35.31,0.79,35.31C815.49,606.87,812.28,633.77,806.53,656.63z" />
				</g>
				<g>
					<path class="st17" d="M860.77,490.11l-7.45,2.23c0,0-25.38-38.81-27.62-49.42c-0.73-3.45-2.4-7.11-3.79-20.07
					c-1.77-16.51-9.88-35.66-9.88-35.66l-1.83-7.94l-6.25-27.09c0,0,11.98,1.22,18.98,4.15c2.32,0.97,4.09,2.12,4.71,3.48
					c5.15,11.32,10.28,39.88,13.9,60.25c2.01,11.36,3.55,20.17,4.35,22.04C848.11,447.29,854.94,475.96,860.77,490.11z" />
				</g>
				<g>
					<path class="st20" d="M830.42,645.9c-3.62,28.14-8.06,49.02-8.06,49.02l-7.63,7.1c0,0-3.7-19.9-6.32-43.59
					c-2.49-22.51-5.91-46.33-9.78-53.6c-15.35-28.83-19.98-137.67-19.98-137.67l46.68-2.32c4.69,7.89,6.74,20.84,7.23,35.56
					c1.23,37.15-6.56,76.02-7.86,83.03C824.7,583.45,836.46,599.01,830.42,645.9z" />
				</g>
				<g>
					<path class="st8" d="M776.87,297.74c0,0,4.84,18.99,18,25.07c0,0-13.16-11.67-14.27-24.2
					C779.48,286.08,776.87,297.74,776.87,297.74z" />
				</g>
				<g>
					<path class="st14" d="M834.35,483.47c0.08,1.57,0,2.83-0.29,3.73c-0.99,3.13-4.4,4.55-12.65,3.7
					c-5.04-0.52-7.29-8.97-8.29-16.18c-3.03,10.31-7.27,16.1-12.74,17.31c-7.99,1.78-48.32,6.68-50.96-12.49
					c-2.9-21.09,5.79-58.42,6.27-78.55c-1.19-7.14-1.59-13.33-1.46-18.65c0.34-14.34,4.54-22.38,7.78-25.61
					c0.92-0.7,1.83-1.14,5.51-1.77c1.88-0.32,4.49-0.69,8.18-1.18c0,0,1.51-0.17,1.47-0.11c-0.68,1.22-4.41,7.07-3.6,12.34
					c2.12,13.76,20.23,2.45,22.78,0.81c8.2-5.28,12.86-13.95,12.86-13.95s11.47,1.25,17.08,5.33c0,0-0.02,0.02-0.06,0.07
					c0.68,0.49,1.19,1,1.48,1.55c5.99,11.4,11.96,40.16,16.17,60.68c-10.19,5.62-19.09,3.94-21.86,3.2
					C825.62,447.33,833.82,472.7,834.35,483.47z" />
				</g>
				<g>
					<path class="st17" d="M714.36,396.34c0-0.77,0.64-11.85-1.33-14.18c-1.97-2.33-6-5.64-7.27-5.54c-1.27,0.1-6.22,6.69-4.73,11.73
					c1.49,5.05,7.78,11.87,7.78,11.87L714.36,396.34z" />
				</g>
				<g>
					<g>
						<path class="st20" d="M720.69,383.19l-11.38,3.41c-0.41,0.12-0.84-0.11-0.96-0.52l-7.61-25.38c-0.12-0.41,0.11-0.84,0.52-0.97
						l11.38-3.41c0.41-0.12,0.84,0.11,0.96,0.52l7.61,25.38C721.33,382.63,721.1,383.07,720.69,383.19z" />
					</g>
					<g>
						<path class="st8" d="M718.96,383.71l-10.23,3.07c-0.73,0.22-1.49-0.2-1.71-0.92l-7.26-24.23c-0.22-0.73,0.19-1.49,0.92-1.71
						l10.23-3.07c0.73-0.22,1.49,0.19,1.71,0.92l7.26,24.23C720.1,382.72,719.69,383.49,718.96,383.71z" />
					</g>
				</g>
				<g>
					<path class="st21" d="M834.35,483.47c-5.54-1.85-12.65-6.77-21.18-17.8c-22.6-29.21-1.92-63.53,0.85-64.17
					c2.77-0.64,7.99,22.21,7.99,22.21C825.62,447.33,833.82,472.7,834.35,483.47z" />
				</g>
				<g>
					<path class="st14" d="M762,356.73c0,0-14.09,7.13-19.24,38.56c0,0,5.07,6.95,12.21,9c1.02,0.29,2.08,0.49,3.18,0.54
					C766.91,405.29,762,356.73,762,356.73z" />
				</g>
				<g>
					<path class="st17" d="M704.57,377.48c0,0,4.78-7.36,5.95-6.95c1.67,0.58-4.34,9.92-4.34,9.92s4.45-6.98,5.14-6.45
					c1.58,1.2-0.94,5.58-3.44,8.94c0,0,4.47-4.1,4.62-3.36c0.51,2.58-4.91,8.85-4.91,8.85l-3.03-6.92V377.48z" />
				</g>
				<g>
					<path class="st17"
						d="M700.99,384.31c0.23-0.9,1.4-18.47,1.9-16.81c0.5,1.67,1.69,10.88,1.69,10.88L700.99,384.31z" />
				</g>
				<g>
					<path class="st0" d="M780.06,328.64c0,0-0.43,1.82-4.96,1.54c0,0-3.8-0.23-3.69-2.24C771.41,327.94,775.1,326.51,780.06,328.64z
					" />
				</g>
				<g>
					<path class="st22" d="M761.02,706.41h39.53c0,0,1.48-6.47-1.12-10.88c-2.3-3.9-2.31-6.23-1.83-10.82
					c-1.79,0.75-10.84,1.19-12.66,0.1c0,4.6-6.74,11-9.02,12.68C773.34,699.41,761.82,698.73,761.02,706.41z" />
				</g>
				<g>
					<path class="st23" d="M788.22,706.41h39.53c0,0,1.48-6.47-1.12-10.88c-2.3-3.9-2.78-6.13-2.3-10.71
					c-1.79,0.75-10.37,1.09-12.2,0c0,4.6-6.74,11-9.02,12.68C800.53,699.41,789.01,698.73,788.22,706.41z" />
				</g>
			</g>
			<g>
				<path class="st17" d="M860.77,490.11c0,0,8.99,5.97,10.36,8.49c1.37,2.52,4.58,11.79,4.58,11.79s-2.29,0.34-4.58-3.66
				c-2.29-4.01-9.84-3.66-12.36-5.84c-2.52-2.17-5.45-8.55-5.45-8.55L860.77,490.11z" />
			</g>
			<g>
				<path class="st17" d="M854.3,494.31c0,0,1.49,7.03,3.33,9.1c1.83,2.06,4.35,5.49,5.38,4.58c1.03-0.92-1.14-8.59-1.14-8.59
				L854.3,494.31z" />
			</g>
			<g>
				<path class="st17"
					d="M869.87,499.4c0.23,0.34,8.13,8.74,8.13,8.74s-2.86,1.3-3.66,0C873.54,506.84,869.87,499.4,869.87,499.4z" />
			</g>
		</g>
		<g>
			<path class="st9" d="M287.57,493.82c-0.38,0-0.73-0.24-0.86-0.62c-0.65-1.97-1.26-3.91-1.8-5.77c-0.14-0.48,0.14-0.98,0.62-1.12
			c0.48-0.14,0.98,0.14,1.12,0.62c0.53,1.84,1.13,3.76,1.78,5.7c0.16,0.47-0.1,0.98-0.57,1.14
			C287.76,493.8,287.67,493.82,287.57,493.82z M284.26,482.26c-0.41,0-0.78-0.28-0.88-0.7c-0.48-2.03-0.88-4.03-1.21-5.94
			c-0.08-0.49,0.25-0.96,0.74-1.04c0.49-0.08,0.96,0.25,1.04,0.74c0.32,1.87,0.72,3.84,1.19,5.83c0.11,0.49-0.19,0.97-0.67,1.08
			C284.4,482.26,284.33,482.26,284.26,482.26z M332.74,478.67c-0.03,0-0.06,0-0.08,0c-1.96-0.18-4-0.53-6.06-1.05
			c-0.48-0.12-0.78-0.61-0.65-1.09c0.12-0.48,0.61-0.78,1.09-0.65c1.96,0.5,3.91,0.83,5.78,1c0.5,0.04,0.86,0.48,0.82,0.98
			C333.6,478.32,333.2,478.67,332.74,478.67z M338.74,478.65c-0.46,0-0.85-0.35-0.9-0.81c-0.05-0.5,0.31-0.94,0.81-0.99
			c1.95-0.2,3.86-0.61,5.67-1.21c0.47-0.16,0.98,0.1,1.14,0.57c0.16,0.47-0.1,0.98-0.57,1.14c-1.94,0.65-3.97,1.08-6.06,1.3
			C338.8,478.65,338.77,478.65,338.74,478.65z M653.61,475.92c-0.26,0-0.51-0.11-0.69-0.32c-0.32-0.38-0.28-0.95,0.1-1.27
			c1.48-1.26,2.87-2.66,4.12-4.15c0.32-0.38,0.89-0.43,1.27-0.11c0.38,0.32,0.43,0.89,0.11,1.27c-1.31,1.58-2.77,3.05-4.34,4.37
			C654.02,475.85,653.81,475.92,653.61,475.92z M321.1,475.79c-0.11,0-0.22-0.02-0.33-0.06c-1.84-0.72-3.71-1.57-5.56-2.53
			c-0.44-0.23-0.61-0.77-0.39-1.22c0.23-0.44,0.77-0.62,1.22-0.39c1.8,0.93,3.61,1.75,5.39,2.45c0.46,0.18,0.69,0.71,0.51,1.17
			C321.8,475.57,321.46,475.79,321.1,475.79z M350.05,474.87c-0.3,0-0.6-0.15-0.77-0.43c-0.26-0.43-0.12-0.98,0.3-1.24
			c1.55-0.94,3.05-2.06,4.46-3.35l0.17-0.16l1.23,1.32l-0.19,0.17c-1.5,1.36-3.1,2.56-4.74,3.56
			C350.37,474.83,350.21,474.87,350.05,474.87z M282.28,470.42c-0.46,0-0.85-0.35-0.9-0.82c-0.17-1.88-0.26-3.72-0.26-5.46
			c0-0.21,0-0.42,0-0.63c0.01-0.49,0.41-0.89,0.9-0.89c0,0,0.01,0,0.01,0c0.5,0.01,0.9,0.41,0.89,0.91c0,0.2,0,0.4,0,0.61
			c0,1.69,0.08,3.48,0.25,5.3c0.04,0.5-0.32,0.93-0.82,0.98C282.33,470.41,282.3,470.42,282.28,470.42z M310.42,470.29
			c-0.17,0-0.33-0.05-0.48-0.14c-2.43-1.56-4.17-2.88-4.99-3.53c-0.39-0.31-0.45-0.88-0.14-1.27c0.31-0.39,0.88-0.45,1.27-0.14
			c0.79,0.63,2.47,1.91,4.84,3.42c0.42,0.27,0.54,0.83,0.27,1.25C311.01,470.15,310.72,470.29,310.42,470.29z M661.28,466.74
			c-0.16,0-0.31-0.04-0.46-0.12c-0.43-0.25-0.57-0.8-0.32-1.23c0.97-1.66,1.83-3.44,2.55-5.28c0.18-0.46,0.7-0.69,1.17-0.51
			c0.46,0.18,0.69,0.7,0.51,1.17c-0.75,1.93-1.65,3.79-2.67,5.53C661.89,466.58,661.59,466.74,661.28,466.74z M358.73,466.69
			c-0.17,0-0.34-0.05-0.49-0.14c-0.42-0.27-0.54-0.83-0.27-1.25c1.08-1.67,1.84-3.42,2.24-5.2c0.11-0.49,0.59-0.79,1.08-0.68
			c0.49,0.11,0.79,0.59,0.68,1.08c-0.45,1.99-1.29,3.93-2.48,5.78C359.31,466.55,359.02,466.69,358.73,466.69z M301.41,462.39
			c-0.26,0-0.51-0.11-0.69-0.32c-1.27-1.5-2.56-3.09-3.82-4.71c-0.3-0.39-0.23-0.96,0.16-1.27c0.39-0.3,0.96-0.23,1.27,0.16
			c1.24,1.61,2.51,3.17,3.76,4.65c0.32,0.38,0.28,0.95-0.1,1.27C301.83,462.31,301.62,462.39,301.41,462.39z M282.48,458.43
			c-0.04,0-0.09,0-0.13-0.01c-0.49-0.07-0.83-0.53-0.76-1.02c0.31-2.11,0.78-4.13,1.4-5.99c0.16-0.47,0.67-0.73,1.14-0.57
			c0.47,0.16,0.73,0.67,0.57,1.14c-0.59,1.77-1.03,3.68-1.33,5.68C283.31,458.11,282.92,458.43,282.48,458.43z M665.67,455.6
			c-0.07,0-0.14-0.01-0.21-0.02c-0.48-0.11-0.79-0.6-0.67-1.08c0.44-1.88,0.76-3.83,0.96-5.81c0.05-0.5,0.5-0.86,0.99-0.81
			c0.5,0.05,0.86,0.49,0.81,0.99c-0.21,2.05-0.54,4.09-1,6.04C666.45,455.32,666.08,455.6,665.67,455.6z M361.26,455.23
			c-0.43,0-0.81-0.31-0.89-0.75c-0.3-1.79-0.93-3.6-1.87-5.37c-0.23-0.44-0.07-0.99,0.37-1.22c0.44-0.23,0.99-0.07,1.22,0.37
			c1.04,1.94,1.73,3.93,2.06,5.92c0.08,0.49-0.25,0.96-0.74,1.04C361.35,455.23,361.3,455.23,361.26,455.23z M294.05,452.86
			c-0.28,0-0.56-0.13-0.74-0.38c-1.17-1.65-2.3-3.35-3.38-5.03c-0.27-0.42-0.15-0.98,0.27-1.25c0.42-0.27,0.98-0.15,1.25,0.27
			c1.06,1.66,2.18,3.33,3.34,4.96c0.29,0.41,0.19,0.97-0.22,1.26C294.41,452.81,294.23,452.86,294.05,452.86z M286.32,447.13
			c-0.16,0-0.32-0.04-0.46-0.13c-0.43-0.25-0.57-0.81-0.31-1.24c0.63-1.07,1.34-2.09,2.11-3.05c-0.34,0.04-0.69-0.13-0.88-0.45
			c-1.02-1.77-1.99-3.56-2.89-5.33c-0.23-0.44-0.05-0.99,0.4-1.21c0.44-0.23,0.99-0.05,1.21,0.4c0.88,1.74,1.84,3.51,2.84,5.25
			c0.07,0.12,0.11,0.26,0.12,0.39c0.28-0.31,0.56-0.62,0.85-0.92c0.35-0.36,0.92-0.37,1.28-0.02c0.36,0.35,0.37,0.92,0.02,1.28
			c-1.34,1.38-2.52,2.93-3.51,4.59C286.93,446.98,286.63,447.13,286.32,447.13z M355.82,444.7c-0.25,0-0.49-0.1-0.67-0.3
			c-1.25-1.39-2.69-2.72-4.29-3.96c-0.39-0.3-0.47-0.87-0.16-1.27c0.3-0.39,0.87-0.47,1.26-0.16c1.69,1.3,3.22,2.71,4.54,4.18
			c0.33,0.37,0.3,0.94-0.07,1.27C356.25,444.62,356.04,444.7,355.82,444.7z M666.89,443.67c-0.49,0-0.89-0.39-0.9-0.88
			c-0.04-1.94-0.19-3.92-0.46-5.89c-0.07-0.49,0.28-0.95,0.77-1.01c0.49-0.06,0.95,0.28,1.01,0.77c0.27,2.03,0.43,4.08,0.47,6.09
			c0.01,0.5-0.39,0.91-0.88,0.92C666.9,443.67,666.89,443.67,666.89,443.67z M294.58,438.56c-0.29,0-0.58-0.14-0.75-0.4
			c-0.27-0.42-0.16-0.97,0.26-1.25c1.64-1.08,3.47-2.06,5.43-2.91c0.46-0.2,0.99,0.01,1.19,0.47c0.2,0.46-0.01,0.99-0.47,1.19
			c-1.86,0.81-3.6,1.73-5.15,2.76C294.93,438.51,294.75,438.56,294.58,438.56z M346.38,437.33c-0.15,0-0.3-0.04-0.44-0.11
			c-1.68-0.94-3.47-1.78-5.33-2.51c-0.46-0.18-0.69-0.71-0.51-1.17c0.18-0.46,0.71-0.69,1.17-0.51c1.93,0.76,3.79,1.64,5.54,2.61
			c0.44,0.24,0.59,0.79,0.35,1.23C347.01,437.17,346.7,437.33,346.38,437.33z M305.54,433.73c-0.39,0-0.76-0.26-0.87-0.66
			c-0.14-0.48,0.14-0.98,0.62-1.11c1.85-0.52,3.85-0.98,5.95-1.35c0.49-0.09,0.96,0.24,1.05,0.73c0.09,0.49-0.24,0.96-0.73,1.05
			c-2.03,0.37-3.98,0.81-5.77,1.32C305.7,433.72,305.62,433.73,305.54,433.73z M335.24,432.91c-0.07,0-0.15-0.01-0.23-0.03
			c-1.9-0.49-3.84-0.88-5.79-1.14c-0.49-0.07-0.84-0.52-0.77-1.02c0.07-0.49,0.52-0.84,1.02-0.77c2.02,0.27,4.04,0.67,6,1.18
			c0.48,0.12,0.77,0.62,0.65,1.1C336,432.64,335.64,432.91,335.24,432.91z M282.13,432c-0.35,0-0.68-0.2-0.83-0.54
			c-0.82-1.88-1.58-3.78-2.26-5.64c-0.17-0.47,0.07-0.99,0.54-1.16c0.47-0.17,0.99,0.07,1.16,0.54c0.66,1.82,1.41,3.68,2.22,5.53
			c0.2,0.46-0.01,0.99-0.46,1.19C282.37,431.97,282.25,432,282.13,432z M665.3,431.78c-0.4,0-0.77-0.28-0.87-0.69
			c-0.47-1.91-1.05-3.81-1.72-5.66c-0.17-0.47,0.07-0.99,0.54-1.15c0.47-0.17,0.99,0.07,1.15,0.54c0.69,1.91,1.29,3.87,1.77,5.84
			c0.12,0.48-0.18,0.97-0.66,1.09C665.45,431.77,665.37,431.78,665.3,431.78z M317.35,431.56c-0.5,0-0.9-0.4-0.9-0.9
			c0-0.46,0.34-0.84,0.78-0.89l0.01,0c0,0,0.01,0,0.01,0l0,0c1.76-0.19,3.56-0.28,5.35-0.28c0.25,0,0.5,0,0.75,0.01
			c0.5,0.01,0.9,0.42,0.89,0.92c-0.01,0.49-0.41,0.89-0.9,0.89c-0.01,0-0.01,0-0.02,0c-0.26,0-0.53-0.01-0.79-0.01
			c-1.7,0-3.4,0.09-5.07,0.27L317.35,431.56z M514.94,421.27c-0.5,0-0.9-0.4-0.9-0.9c0-0.5,0.4-0.9,0.9-0.91
			c1.74-0.01,3.64-0.22,5.78-0.66c0.49-0.1,0.96,0.22,1.06,0.7c0.1,0.49-0.22,0.96-0.7,1.06
			C518.82,421.04,516.81,421.27,514.94,421.27C514.94,421.27,514.94,421.27,514.94,421.27z M278.04,420.69
			c-0.39,0-0.75-0.26-0.87-0.66c-0.56-1.98-1.04-3.97-1.43-5.91c-0.1-0.49,0.22-0.96,0.71-1.06c0.49-0.1,0.96,0.22,1.06,0.71
			c0.38,1.9,0.85,3.84,1.39,5.77c0.14,0.48-0.14,0.98-0.62,1.11C278.2,420.68,278.12,420.69,278.04,420.69z M661.21,420.5
			c-0.33,0-0.66-0.19-0.81-0.51c-0.87-1.77-1.83-3.51-2.88-5.16c-0.27-0.42-0.14-0.98,0.28-1.24c0.42-0.27,0.98-0.14,1.24,0.28
			c1.08,1.71,2.08,3.5,2.97,5.33c0.22,0.45,0.03,0.99-0.41,1.21C661.48,420.47,661.34,420.5,661.21,420.5z M509.04,420.32
			c-0.1,0-0.21-0.02-0.31-0.06c-1.8-0.67-3.43-1.69-4.85-3.03c-0.16-0.15-0.31-0.3-0.46-0.44c-0.35-0.35-0.36-0.92-0.01-1.28
			c0.35-0.35,0.92-0.36,1.27-0.01c0.14,0.14,0.28,0.28,0.43,0.41c1.26,1.19,2.65,2.06,4.23,2.65c0.47,0.17,0.7,0.69,0.53,1.16
			C509.75,420.1,509.41,420.32,509.04,420.32z M526.71,419.08c-0.38,0-0.74-0.25-0.86-0.63c-0.15-0.48,0.12-0.98,0.59-1.13
			c1.71-0.53,3.56-1.17,5.64-1.94c0.47-0.17,0.99,0.06,1.16,0.53c0.17,0.47-0.06,0.99-0.53,1.16c-2.11,0.78-3.99,1.43-5.73,1.97
			C526.89,419.06,526.8,419.08,526.71,419.08z M538,414.94c-0.36,0-0.7-0.21-0.84-0.57c-0.19-0.46,0.04-0.99,0.5-1.17
			c1.98-0.8,4.01-1.64,5.55-2.28c0.46-0.19,0.99,0.03,1.18,0.49c0.19,0.46-0.03,0.99-0.49,1.18c-1.55,0.64-3.59,1.49-5.57,2.29
			C538.23,414.92,538.11,414.94,538,414.94z M500.41,412.3c-0.32,0-0.63-0.17-0.79-0.47c-1.02-1.85-1.7-3.78-2.07-5.93
			c-0.09-0.49,0.24-0.96,0.73-1.04c0.49-0.08,0.96,0.24,1.04,0.73c0.34,1.94,0.95,3.7,1.88,5.37c0.24,0.44,0.08,0.98-0.35,1.23
			C500.7,412.27,500.55,412.3,500.41,412.3z M654.8,410.36c-0.26,0-0.53-0.12-0.7-0.34c-1.23-1.54-2.56-3.02-3.95-4.38
			c-0.36-0.35-0.36-0.92-0.01-1.28c0.35-0.36,0.92-0.36,1.28-0.01c1.44,1.42,2.81,2.94,4.09,4.54c0.31,0.39,0.25,0.96-0.14,1.27
			C655.2,410.3,655,410.36,654.8,410.36z M549.12,410.35c-0.35,0-0.69-0.21-0.83-0.56c-0.19-0.46,0.03-0.99,0.49-1.18
			c1.81-0.75,3.66-1.52,5.56-2.3c0.46-0.19,0.99,0.03,1.18,0.5c0.19,0.46-0.03,0.99-0.49,1.18c-1.9,0.77-3.75,1.54-5.55,2.29
			C549.35,410.33,549.23,410.35,549.12,410.35z M275.72,408.91c-0.46,0-0.85-0.34-0.9-0.81c-0.22-2.05-0.33-4.1-0.34-6.09
			c0-0.5,0.4-0.9,0.9-0.91c0,0,0,0,0,0c0.5,0,0.9,0.4,0.9,0.9c0.01,1.93,0.12,3.92,0.33,5.91c0.05,0.5-0.31,0.94-0.8,0.99
			C275.78,408.91,275.75,408.91,275.72,408.91z M560.26,405.82c-0.36,0-0.7-0.22-0.84-0.57c-0.18-0.46,0.05-0.99,0.51-1.17
			c1.96-0.77,3.8-1.47,5.63-2.15c0.47-0.17,0.99,0.06,1.16,0.53c0.17,0.47-0.06,0.99-0.53,1.16c-1.82,0.68-3.65,1.38-5.6,2.14
			C560.48,405.8,560.37,405.82,560.26,405.82z M646.26,401.95c-0.19,0-0.39-0.06-0.55-0.19c-1.56-1.2-3.2-2.31-4.88-3.3
			c-0.43-0.25-0.57-0.81-0.32-1.23c0.25-0.43,0.8-0.57,1.23-0.32c1.75,1.03,3.45,2.18,5.07,3.42c0.39,0.3,0.47,0.87,0.16,1.26
			C646.79,401.83,646.53,401.95,646.26,401.95z M571.53,401.64c-0.37,0-0.72-0.23-0.85-0.61c-0.16-0.47,0.09-0.98,0.56-1.15
			c1.93-0.67,3.85-1.31,5.72-1.91c0.47-0.15,0.98,0.11,1.13,0.58c0.15,0.47-0.11,0.98-0.58,1.13c-1.86,0.59-3.77,1.23-5.68,1.9
			C571.73,401.62,571.63,401.64,571.53,401.64z M498.17,400.67c-0.02,0-0.04,0-0.06,0c-0.5-0.03-0.87-0.46-0.84-0.96
			c0.12-1.81,0.39-3.79,0.82-6.06c0.09-0.49,0.57-0.81,1.05-0.72c0.49,0.09,0.81,0.57,0.72,1.06c-0.42,2.2-0.68,4.11-0.79,5.84
			C499.04,400.3,498.64,400.67,498.17,400.67z M582.98,397.99c-0.39,0-0.75-0.26-0.87-0.65c-0.14-0.48,0.14-0.98,0.62-1.12
			c1.95-0.56,3.91-1.1,5.83-1.59c0.48-0.12,0.97,0.17,1.1,0.65c0.12,0.48-0.17,0.97-0.65,1.1c-1.9,0.49-3.84,1.02-5.77,1.58
			C583.15,397.97,583.07,397.99,582.98,397.99z M275.68,396.91c-0.03,0-0.06,0-0.09,0c-0.5-0.05-0.86-0.5-0.8-0.99
			c0.21-2.03,0.54-4.06,0.98-6.03c0.11-0.49,0.59-0.79,1.08-0.68c0.49,0.11,0.79,0.59,0.68,1.08c-0.42,1.9-0.74,3.86-0.95,5.83
			C276.52,396.57,276.13,396.91,275.68,396.91z M635.92,395.89c-0.12,0-0.24-0.02-0.35-0.07c-1.8-0.77-3.66-1.43-5.55-1.96
			c-0.48-0.14-0.76-0.63-0.62-1.11c0.14-0.48,0.63-0.76,1.11-0.62c1.96,0.56,3.9,1.24,5.77,2.04c0.46,0.2,0.67,0.73,0.48,1.18
			C636.6,395.68,636.27,395.89,635.92,395.89z M594.63,395c-0.41,0-0.79-0.29-0.88-0.71c-0.11-0.49,0.2-0.97,0.68-1.08
			c1.97-0.44,3.96-0.85,5.92-1.21c0.49-0.09,0.96,0.23,1.05,0.72c0.09,0.49-0.23,0.96-0.72,1.05c-1.94,0.36-3.91,0.77-5.86,1.2
			C594.76,394.99,594.69,395,594.63,395z M606.44,392.79c-0.44,0-0.82-0.32-0.89-0.77c-0.07-0.49,0.26-0.95,0.76-1.03
			c0.44-0.07,0.89-0.13,1.33-0.2c1.58-0.22,3.16-0.39,4.71-0.49c0.49-0.04,0.93,0.34,0.96,0.84c0.03,0.5-0.34,0.93-0.84,0.96
			c-1.5,0.1-3.04,0.26-4.58,0.48c-0.44,0.06-0.88,0.13-1.32,0.19C606.53,392.79,606.49,392.79,606.44,392.79z M624.4,392.61
			c-0.05,0-0.09,0-0.14-0.01c-1.91-0.3-3.89-0.49-5.87-0.57c-0.5-0.02-0.88-0.44-0.86-0.94s0.45-0.88,0.94-0.86
			c2.05,0.08,4.1,0.28,6.08,0.59c0.49,0.08,0.83,0.54,0.75,1.03C625.22,392.29,624.83,392.61,624.4,392.61z M500.29,388.85
			c-0.07,0-0.14-0.01-0.22-0.03c-0.48-0.12-0.78-0.61-0.66-1.09c0.48-1.93,1.02-4,1.5-5.83c0.13-0.48,0.62-0.77,1.1-0.64
			c0.48,0.13,0.77,0.62,0.64,1.1c-0.48,1.82-1.02,3.89-1.5,5.81C501.06,388.58,500.7,388.85,500.29,388.85z M278.29,385.2
			c-0.1,0-0.2-0.02-0.3-0.05c-0.47-0.16-0.72-0.68-0.55-1.15c0.67-1.91,1.46-3.8,2.35-5.64c0.22-0.45,0.76-0.63,1.21-0.42
			c0.45,0.22,0.63,0.76,0.42,1.21c-0.86,1.77-1.63,3.61-2.27,5.45C279.01,384.97,278.66,385.2,278.29,385.2z M503.3,377.21
			c-0.07,0-0.15-0.01-0.22-0.03c-0.48-0.12-0.77-0.61-0.65-1.1c0.53-2.1,0.99-4.01,1.41-5.82c0.11-0.49,0.59-0.79,1.08-0.68
			c0.49,0.11,0.79,0.59,0.68,1.08c-0.42,1.83-0.88,3.75-1.42,5.86C504.07,376.94,503.7,377.21,503.3,377.21z M283.53,374.41
			c-0.17,0-0.33-0.04-0.48-0.14c-0.42-0.27-0.55-0.82-0.28-1.24c0.22-0.36,0.45-0.71,0.69-1.06c0.92-1.39,1.87-2.7,2.84-3.92
			c0.31-0.39,0.88-0.45,1.27-0.14c0.39,0.31,0.45,0.88,0.14,1.27c-0.94,1.17-1.86,2.45-2.75,3.79c-0.23,0.34-0.45,0.69-0.67,1.03
			C284.12,374.26,283.83,374.41,283.53,374.41z M505.96,365.49c-0.06,0-0.12-0.01-0.17-0.02c-0.49-0.1-0.81-0.57-0.71-1.06
			c0.39-1.98,0.74-3.96,1.05-5.89c0.08-0.49,0.54-0.83,1.03-0.75c0.49,0.08,0.83,0.54,0.75,1.03c-0.31,1.95-0.67,3.95-1.06,5.95
			C506.76,365.2,506.39,365.49,505.96,365.49z M291.05,365.08c-0.24,0-0.48-0.09-0.66-0.28c-0.34-0.36-0.33-0.93,0.04-1.27
			c1.54-1.45,3.16-2.74,4.82-3.83c0.42-0.27,0.98-0.16,1.25,0.26c0.27,0.42,0.16,0.98-0.26,1.25c-1.57,1.03-3.11,2.26-4.57,3.64
			C291.49,365,291.27,365.08,291.05,365.08z M354.45,361.54C354.45,361.54,354.45,361.54,354.45,361.54
			c-1.93-0.01-3.92-0.12-6.09-0.34c-0.5-0.05-0.86-0.49-0.81-0.99c0.05-0.5,0.49-0.86,0.99-0.81c2.11,0.21,4.05,0.32,5.91,0.33
			c0.5,0,0.9,0.41,0.9,0.91C355.35,361.14,354.95,361.54,354.45,361.54z M360.45,361.18c-0.44,0-0.83-0.33-0.89-0.78
			c-0.07-0.49,0.28-0.95,0.78-1.01c1.98-0.26,3.9-0.68,5.72-1.24c0.48-0.15,0.98,0.12,1.13,0.6c0.15,0.48-0.12,0.98-0.6,1.13
			c-1.91,0.59-3.94,1.02-6.01,1.3C360.53,361.17,360.49,361.18,360.45,361.18z M342.5,360.4c-0.05,0-0.1,0-0.15-0.01
			c-2.16-0.35-4.31-0.76-5.94-1.08c-0.49-0.09-0.81-0.57-0.71-1.06c0.1-0.49,0.57-0.81,1.06-0.71c1.62,0.31,3.75,0.72,5.89,1.07
			c0.49,0.08,0.82,0.54,0.74,1.04C343.32,360.09,342.93,360.4,342.5,360.4z M301.06,358.56c-0.36,0-0.7-0.21-0.84-0.57
			c-0.19-0.46,0.04-0.99,0.5-1.17c1.87-0.75,3.87-1.34,5.92-1.73c0.49-0.1,0.96,0.23,1.06,0.72c0.09,0.49-0.23,0.96-0.72,1.06
			c-1.94,0.37-3.83,0.92-5.59,1.64C301.28,358.54,301.17,358.56,301.06,358.56z M330.68,358.18c-0.06,0-0.11,0-0.17-0.02
			c-2.37-0.45-4.18-0.77-5.89-1.04c-0.49-0.08-0.83-0.54-0.75-1.03c0.08-0.49,0.54-0.83,1.03-0.75c1.73,0.27,3.57,0.59,5.95,1.05
			c0.49,0.09,0.81,0.57,0.72,1.05C331.49,357.88,331.11,358.18,330.68,358.18z M371.87,357.64c-0.33,0-0.64-0.18-0.8-0.49
			c-0.23-0.44-0.06-0.99,0.39-1.22c1.69-0.88,3.36-1.93,4.94-3.13c0.4-0.3,0.96-0.22,1.26,0.18c0.3,0.4,0.22,0.96-0.18,1.26
			c-1.67,1.26-3.42,2.37-5.2,3.29C372.15,357.61,372.01,357.64,371.87,357.64z M318.79,356.41c-0.02,0-0.05,0-0.08,0
			c-2.11-0.17-4.01-0.23-5.9-0.17c-0.49,0.01-0.91-0.38-0.93-0.87c-0.02-0.5,0.38-0.91,0.87-0.93c1.96-0.06,3.93,0,6.11,0.18
			c0.5,0.04,0.87,0.48,0.82,0.97C319.65,356.05,319.26,356.41,318.79,356.41z M507.85,353.62c-0.04,0-0.07,0-0.11-0.01
			c-0.49-0.06-0.85-0.51-0.79-1c0.23-1.97,0.43-3.97,0.59-5.94c0.04-0.5,0.47-0.87,0.97-0.83c0.5,0.04,0.87,0.47,0.83,0.97
			c-0.16,2-0.36,4.02-0.6,6.02C508.69,353.29,508.3,353.62,507.85,353.62z M381.45,350.47c-0.23,0-0.46-0.09-0.63-0.26
			c-0.35-0.35-0.36-0.92-0.01-1.28c1.32-1.34,2.63-2.83,3.89-4.44c0.31-0.39,0.87-0.46,1.27-0.15c0.39,0.31,0.46,0.87,0.15,1.27
			c-1.3,1.66-2.65,3.21-4.03,4.59C381.92,350.38,381.68,350.47,381.45,350.47z M508.57,341.65c-0.46,0-0.85-0.35-0.9-0.82
			c-0.17-1.93-0.61-3.81-1.29-5.58c-0.18-0.46,0.05-0.99,0.51-1.17c0.47-0.18,0.99,0.05,1.17,0.51c0.75,1.93,1.22,3.97,1.41,6.07
			c0.04,0.5-0.32,0.93-0.82,0.98C508.62,341.64,508.59,341.65,508.57,341.65z M389.23,341.31c-0.22,0-0.43-0.08-0.61-0.24
			c-0.37-0.34-0.39-0.91-0.06-1.27c1.34-1.47,2.8-2.92,4.33-4.29c0.37-0.33,0.94-0.3,1.27,0.07c0.33,0.37,0.3,0.94-0.07,1.27
			c-1.49,1.34-2.9,2.74-4.21,4.17C389.72,341.21,389.47,341.31,389.23,341.31z M398.15,333.27c-0.27,0-0.54-0.12-0.72-0.36
			c-0.3-0.4-0.22-0.96,0.18-1.26c1.59-1.19,3.28-2.35,5.01-3.44c0.42-0.27,0.98-0.14,1.24,0.28c0.27,0.42,0.14,0.98-0.28,1.24
			c-1.7,1.07-3.34,2.2-4.89,3.36C398.53,333.21,398.34,333.27,398.15,333.27z M504.3,330.6c-0.27,0-0.55-0.12-0.72-0.36
			c-1.11-1.48-2.45-2.89-3.99-4.19c-0.38-0.32-0.43-0.89-0.11-1.27c0.32-0.38,0.89-0.43,1.27-0.11c1.64,1.39,3.08,2.9,4.27,4.49
			c0.3,0.4,0.22,0.96-0.18,1.26C504.68,330.54,504.49,330.6,504.3,330.6z M408.3,326.85c-0.32,0-0.63-0.17-0.8-0.48
			c-0.23-0.44-0.07-0.99,0.37-1.22c1.75-0.93,3.59-1.83,5.45-2.67c0.45-0.2,0.99,0,1.19,0.45c0.2,0.45,0,0.99-0.45,1.19
			c-1.83,0.82-3.63,1.7-5.34,2.62C408.59,326.82,408.44,326.85,408.3,326.85z M495.26,322.81c-0.15,0-0.31-0.04-0.45-0.12
			c-1.62-0.95-3.39-1.83-5.27-2.62c-0.46-0.19-0.68-0.72-0.48-1.18c0.19-0.46,0.72-0.67,1.18-0.48c1.96,0.82,3.8,1.74,5.49,2.73
			c0.43,0.25,0.57,0.8,0.32,1.23C495.87,322.65,495.57,322.81,495.26,322.81z M419.26,321.91c-0.36,0-0.71-0.22-0.84-0.58
			c-0.18-0.47,0.06-0.99,0.52-1.16c1.86-0.71,3.79-1.37,5.73-1.98c0.48-0.15,0.98,0.11,1.13,0.59c0.15,0.48-0.12,0.98-0.59,1.13
			c-1.91,0.6-3.8,1.25-5.64,1.95C419.47,321.89,419.36,321.91,419.26,321.91z M430.73,318.31c-0.4,0-0.77-0.27-0.87-0.68
			c-0.12-0.48,0.17-0.97,0.65-1.1c1.94-0.49,3.93-0.94,5.91-1.34c0.49-0.1,0.96,0.22,1.06,0.71c0.1,0.49-0.22,0.96-0.71,1.06
			c-1.95,0.39-3.91,0.83-5.82,1.32C430.88,318.3,430.8,318.31,430.73,318.31z M484.22,318.11c-0.09,0-0.17-0.01-0.26-0.04
			c-1.83-0.55-3.76-1.05-5.75-1.47c-0.49-0.1-0.8-0.58-0.7-1.07c0.1-0.49,0.58-0.8,1.07-0.7c2.03,0.43,4.02,0.94,5.9,1.5
			c0.48,0.14,0.75,0.65,0.6,1.12C484.97,317.86,484.61,318.11,484.22,318.11z M442.51,315.95c-0.44,0-0.82-0.32-0.89-0.77
			c-0.07-0.49,0.27-0.95,0.76-1.02c1.99-0.29,4.01-0.54,6.01-0.72c0.5-0.05,0.94,0.32,0.98,0.81c0.05,0.5-0.32,0.94-0.81,0.98
			c-1.97,0.19-3.96,0.43-5.92,0.71C442.6,315.95,442.56,315.95,442.51,315.95z M472.47,315.6c-0.04,0-0.08,0-0.12-0.01
			c-1.92-0.26-3.92-0.47-5.92-0.61c-0.5-0.04-0.87-0.47-0.84-0.96c0.03-0.5,0.47-0.87,0.96-0.84c2.04,0.15,4.08,0.36,6.04,0.62
			c0.49,0.07,0.84,0.52,0.77,1.02C473.3,315.27,472.92,315.6,472.47,315.6z M454.48,314.83c-0.48,0-0.88-0.38-0.9-0.86
			c-0.02-0.5,0.37-0.92,0.86-0.94c2.03-0.09,4.06-0.12,6.06-0.09c0.5,0.01,0.9,0.42,0.89,0.91c-0.01,0.49-0.41,0.89-0.9,0.89
			c0,0-0.01,0-0.01,0c-1.96-0.03-3.97,0-5.96,0.09C454.5,314.83,454.49,314.83,454.48,314.83z" />
		</g>
		<g>
			<path class="st9" d="M704,350.03c-0.17,0.05-0.36,0.05-0.55-0.01c-0.47-0.16-0.72-0.67-0.56-1.15c0.62-1.8,1.12-3.71,1.5-5.69
			c0.1-0.49,0.57-0.81,1.06-0.71c0.49,0.09,0.81,0.57,0.71,1.06c-0.4,2.06-0.92,4.06-1.57,5.93
			C704.5,349.74,704.27,349.94,704,350.03z M706.29,338.25c-0.1,0.03-0.21,0.04-0.32,0.04c-0.5-0.03-0.87-0.46-0.84-0.96
			c0.12-1.95,0.13-3.93,0.01-5.9c-0.03-0.5,0.35-0.92,0.85-0.95c0.5-0.03,0.92,0.35,0.96,0.85c0.12,2.04,0.12,4.1-0.01,6.12
			C706.91,337.83,706.64,338.15,706.29,338.25z M705.57,326.28c-0.03,0.01-0.06,0.02-0.1,0.02c-0.49,0.09-0.96-0.23-1.05-0.72
			c-0.33-1.78-0.76-3.57-1.28-5.33l-0.12-0.4c-0.15-0.48,0.12-0.98,0.6-1.13c0,0,0,0,0.01,0c0.47-0.14,0.97,0.13,1.12,0.6l0.13,0.42
			c0.54,1.82,0.99,3.68,1.33,5.52C706.28,325.71,706.01,326.15,705.57,326.28z M702.06,314.81c-0.43,0.13-0.9-0.08-1.09-0.51
			c-0.77-1.78-1.65-3.56-2.62-5.3c-0.24-0.43-0.09-0.98,0.35-1.23c0.44-0.24,0.98-0.09,1.23,0.35c1,1.8,1.91,3.64,2.7,5.47
			c0.2,0.46-0.01,0.99-0.47,1.19C702.12,314.79,702.09,314.8,702.06,314.81z M696.23,304.32c-0.37,0.11-0.77-0.02-1-0.36
			c-0.47-0.69-0.96-1.38-1.47-2.06c-0.65-0.88-1.37-1.73-2.14-2.55c-0.34-0.36-0.33-0.93,0.03-1.27c0.36-0.34,0.93-0.33,1.27,0.03
			c0.83,0.87,1.6,1.78,2.29,2.72c0.52,0.7,1.02,1.41,1.5,2.11c0.28,0.41,0.18,0.97-0.24,1.25
			C696.4,304.25,696.32,304.29,696.23,304.32z M687.97,295.69c-0.26,0.08-0.54,0.04-0.78-0.13c-1.53-1.08-3.23-2.09-5.05-2.99
			c-0.45-0.22-0.63-0.76-0.41-1.21c0.22-0.45,0.76-0.63,1.21-0.41c1.9,0.94,3.68,1.99,5.29,3.13c0.41,0.29,0.5,0.85,0.22,1.26
			C688.33,295.52,688.16,295.63,687.97,295.69z M644.31,305.23c0,0-0.01,0-0.01,0c-2,0.57-3.99,1.05-5.91,1.43
			c-0.49,0.1-0.96-0.22-1.06-0.71c-0.1-0.49,0.22-0.96,0.71-1.06c1.88-0.37,3.82-0.85,5.77-1.4c0.48-0.14,0.98,0.14,1.11,0.62
			C645.05,304.6,644.78,305.09,644.31,305.23z M650.03,303.38c-0.45,0.14-0.94-0.11-1.1-0.56c-0.17-0.47,0.07-0.98,0.54-1.15
			c1.86-0.68,3.72-1.42,5.53-2.22c0.46-0.2,0.99,0,1.19,0.46c0.2,0.46,0,0.99-0.46,1.19c-1.84,0.82-3.74,1.58-5.64,2.27
			C650.06,303.37,650.04,303.38,650.03,303.38z M632.52,307.54c-0.06,0.02-0.11,0.03-0.17,0.03c-2.19,0.21-4.25,0.26-6.14,0.15
			c-0.5-0.03-0.88-0.45-0.85-0.95c0.03-0.5,0.45-0.88,0.95-0.85c1.8,0.1,3.77,0.05,5.87-0.15c0.5-0.05,0.94,0.32,0.98,0.81
			C633.2,307.02,632.93,307.42,632.52,307.54z M661.02,298.51c-0.4,0.12-0.85-0.06-1.05-0.44c-0.23-0.44-0.07-0.99,0.37-1.22
			c1.79-0.95,3.52-1.96,5.13-2.99c0.42-0.27,0.98-0.15,1.25,0.27c0.27,0.42,0.15,0.98-0.27,1.25c-1.65,1.06-3.42,2.09-5.26,3.06
			C661.13,298.47,661.08,298.49,661.02,298.51z M677.26,290.32c-0.18,0.05-0.37,0.05-0.56-0.01c-0.82-0.29-1.66-0.56-2.53-0.82
			c-0.86,0.79-1.78,1.58-2.76,2.36c-0.39,0.31-0.96,0.24-1.27-0.15c-0.31-0.39-0.24-0.96,0.15-1.27c0.63-0.5,1.24-1.01,1.82-1.52
			c-0.36-0.09-0.73-0.19-1.09-0.27c-0.48-0.12-0.78-0.6-0.67-1.09c0.12-0.48,0.6-0.78,1.09-0.67c0.76,0.18,1.5,0.38,2.24,0.58
			c0.34-0.33,0.66-0.66,0.98-0.99c0.34-0.36,0.91-0.37,1.28-0.03c0.36,0.34,0.37,0.91,0.03,1.28c-0.1,0.11-0.21,0.22-0.32,0.33
			c0.56,0.18,1.11,0.36,1.65,0.55c0.47,0.16,0.72,0.68,0.55,1.15C677.76,290.03,677.53,290.24,677.26,290.32z M620.61,306.65
			c-0.17,0.05-0.36,0.05-0.54-0.01c-1.96-0.66-3.57-1.6-4.78-2.81c-0.22-0.22-0.42-0.44-0.61-0.66c-0.32-0.38-0.28-0.95,0.1-1.27
			c0.38-0.32,0.95-0.28,1.27,0.1c0.16,0.19,0.33,0.37,0.52,0.56c1.01,1.01,2.38,1.81,4.07,2.38c0.47,0.16,0.73,0.67,0.57,1.14
			C621.11,306.36,620.88,306.57,620.61,306.65z M665.59,287.47c-0.12,0.04-0.26,0.05-0.4,0.03c-1.91-0.3-3.9-0.53-5.91-0.69
			c-0.5-0.04-0.87-0.48-0.83-0.97c0.04-0.5,0.47-0.87,0.97-0.83c2.05,0.17,4.08,0.4,6.04,0.71c0.49,0.08,0.83,0.54,0.75,1.03
			C666.17,287.1,665.92,287.37,665.59,287.47z M679.27,283.24c-0.24,0.07-0.5,0.04-0.73-0.09c-0.42-0.26-0.56-0.81-0.3-1.24
			c1.08-1.76,1.8-3.53,2.15-5.24c0.1-0.49,0.57-0.8,1.06-0.7c0.49,0.1,0.8,0.57,0.7,1.06c-0.39,1.92-1.19,3.88-2.38,5.82
			C679.66,283.04,679.47,283.18,679.27,283.24z M653.61,286.48c-0.09,0.03-0.18,0.04-0.27,0.04c-1.97-0.03-3.97,0-5.95,0.09
			c-0.5,0.02-0.92-0.36-0.94-0.86c-0.02-0.5,0.36-0.92,0.86-0.94c2.02-0.09,4.06-0.13,6.07-0.09c0.5,0.01,0.9,0.42,0.89,0.92
			C654.25,286.03,653.98,286.37,653.61,286.48z M614.52,297.9c-0.2,0.06-0.42,0.05-0.62-0.04c-0.45-0.2-0.66-0.74-0.46-1.19
			c0.73-1.63,2.24-3.19,4.49-4.63c0.42-0.27,0.98-0.15,1.24,0.27c0.27,0.42,0.15,0.98-0.27,1.25c-1.95,1.24-3.23,2.54-3.81,3.84
			C614.97,297.65,614.76,297.82,614.52,297.9z M641.61,287.04c-0.05,0.02-0.11,0.03-0.16,0.03c-2,0.22-3.99,0.5-5.89,0.84
			c-0.49,0.09-0.96-0.24-1.05-0.73c-0.09-0.49,0.24-0.96,0.73-1.05c1.95-0.35,3.97-0.64,6.01-0.86c0.5-0.05,0.94,0.3,0.99,0.8
			C642.29,286.52,642.01,286.92,641.61,287.04z M624.05,291.01c-0.45,0.13-0.93-0.1-1.1-0.54c-0.18-0.46,0.05-0.99,0.52-1.17
			c1.76-0.68,3.72-1.31,5.82-1.86c0.48-0.13,0.97,0.16,1.1,0.64c0.13,0.48-0.16,0.96-0.64,1.1c-2.04,0.54-3.93,1.15-5.63,1.8
			C624.09,291,624.07,291.01,624.05,291.01z M681.32,271.78C681.32,271.78,681.31,271.78,681.32,271.78
			c-0.49,0.14-0.99-0.14-1.12-0.61l-0.04-0.13c-0.49-1.64-1.37-3.26-2.63-4.82c-0.31-0.39-0.25-0.96,0.14-1.27
			c0.39-0.31,0.95-0.25,1.27,0.14c1.4,1.74,2.39,3.56,2.95,5.43l0.04,0.14C682.06,271.14,681.79,271.64,681.32,271.78z
			 M674.15,262.39c-0.27,0.08-0.57,0.04-0.81-0.15c-1.43-1.09-3.09-2.17-4.93-3.19c-0.43-0.24-0.59-0.79-0.35-1.23
			c0.24-0.44,0.79-0.59,1.23-0.35c1.92,1.07,3.65,2.19,5.15,3.33c0.4,0.3,0.47,0.87,0.17,1.26
			C674.49,262.23,674.33,262.33,674.15,262.39z M663.69,256.54c-0.19,0.06-0.4,0.05-0.59-0.03c-1.78-0.72-3.67-1.35-5.6-1.88
			c-0.48-0.13-0.76-0.63-0.63-1.11c0.13-0.48,0.63-0.76,1.11-0.63c1.99,0.55,3.94,1.21,5.79,1.95c0.46,0.19,0.69,0.71,0.5,1.17
			C664.16,256.28,663.94,256.47,663.69,256.54z M652.12,253.32c-0.13,0.04-0.27,0.05-0.41,0.02c-1.89-0.32-3.87-0.57-5.88-0.74
			c-0.5-0.04-0.86-0.48-0.82-0.97c0.04-0.5,0.48-0.87,0.97-0.82c2.06,0.17,4.09,0.43,6.04,0.76c0.49,0.08,0.82,0.55,0.74,1.04
			C652.69,252.96,652.44,253.23,652.12,253.32z M544.03,283.93c-0.38,0.11-0.81-0.04-1.03-0.4c-0.26-0.43-0.12-0.98,0.3-1.24
			c0.02-0.01,1.94-1.18,5.26-3.02c0.44-0.24,0.98-0.08,1.23,0.35c0.24,0.44,0.08,0.98-0.35,1.23c-3.29,1.82-5.18,2.97-5.2,2.98
			C544.17,283.88,544.1,283.91,544.03,283.93z M554.56,278.08c-0.4,0.12-0.85-0.06-1.06-0.45c-0.23-0.44-0.06-0.99,0.38-1.22
			c1.76-0.92,3.57-1.85,5.37-2.75c0.44-0.22,0.99-0.04,1.21,0.4c0.22,0.45,0.04,0.99-0.4,1.21c-1.79,0.9-3.59,1.82-5.34,2.73
			C554.67,278.04,554.61,278.06,554.56,278.08z M640.16,252.3c-0.08,0.03-0.17,0.04-0.27,0.04c-1.93-0.02-3.93,0.03-5.95,0.14
			c-0.5,0.03-0.92-0.35-0.95-0.85c-0.03-0.5,0.35-0.92,0.85-0.95c2.06-0.11,4.1-0.16,6.07-0.15c0.5,0,0.9,0.41,0.89,0.91
			C640.8,251.85,640.53,252.19,640.16,252.3z M565.32,272.7c-0.42,0.13-0.88-0.07-1.07-0.48c-0.21-0.45-0.02-0.99,0.43-1.2
			c1.82-0.86,3.66-1.71,5.48-2.53c0.45-0.2,0.99,0,1.19,0.45c0.2,0.45,0,0.99-0.45,1.19c-1.81,0.81-3.64,1.66-5.44,2.52
			C565.41,272.67,565.36,272.69,565.32,272.7z M628.16,252.95c-0.05,0.02-0.1,0.03-0.16,0.03c-1.92,0.21-3.92,0.49-5.92,0.81
			c-0.49,0.08-0.95-0.26-1.03-0.75c-0.08-0.49,0.25-0.95,0.75-1.03c2.03-0.33,4.05-0.6,6.01-0.82c0.5-0.06,0.94,0.3,1,0.8
			C628.85,252.42,628.57,252.82,628.16,252.95z M576.29,267.76c-0.43,0.13-0.91-0.08-1.09-0.51c-0.2-0.46,0.02-0.99,0.48-1.18
			c1.86-0.79,3.74-1.56,5.58-2.3c0.46-0.18,0.99,0.04,1.17,0.5c0.19,0.46-0.04,0.99-0.5,1.17c-1.83,0.73-3.7,1.5-5.54,2.29
			C576.35,267.74,576.32,267.75,576.29,267.76z M616.28,254.84c-0.03,0.01-0.05,0.01-0.08,0.02c-1.91,0.39-3.87,0.83-5.83,1.31
			c-0.48,0.12-0.97-0.18-1.09-0.66c-0.12-0.48,0.19-0.97,0.66-1.09c1.99-0.48,3.97-0.93,5.9-1.33c0.49-0.1,0.96,0.21,1.06,0.7
			C617,254.26,616.72,254.71,616.28,254.84z M587.46,263.3c-0.45,0.13-0.94-0.1-1.1-0.55c-0.17-0.47,0.06-0.99,0.53-1.16
			c1.9-0.71,3.81-1.39,5.68-2.04c0.47-0.17,0.98,0.09,1.15,0.56c0.16,0.47-0.09,0.98-0.56,1.15c-1.86,0.64-3.75,1.32-5.64,2.02
			C587.5,263.29,587.48,263.3,587.46,263.3z M604.6,257.68c0,0-0.01,0-0.02,0c-1.06,0.3-2.15,0.62-3.24,0.94
			c-0.83,0.25-1.67,0.5-2.49,0.76c-0.48,0.14-0.98-0.12-1.13-0.59c-0.15-0.48,0.12-0.98,0.59-1.13c0.85-0.27,1.71-0.52,2.56-0.78
			c1.08-0.32,2.17-0.64,3.23-0.93c0.48-0.14,0.98,0.15,1.11,0.62C605.34,257.05,605.07,257.54,604.6,257.68z" />
		</g>
	</g>
</svg>