<svg xmlns="http://www.w3.org/2000/svg" xmlns:xlink="http://www.w3.org/1999/xlink" version="1.1" id="Illustration" x="0px" y="0px" viewBox="0 0 1000 1000" style="enable-background:new 0 0 1000 1000;" xml:space="preserve">
<style type="text/css">
	.st0{fill:url(#SVGID_1_);}
	.st1{fill:url(#SVGID_00000085952286118300814060000016854339714759580041_);}
	.st2{opacity:0.7;}
	.st3{fill:#7D97F4;}
	.st4{fill:#91B3FA;}
	.st5{fill:url(#SVGID_00000000211987480478954730000018072660513039162781_);}
	.st6{fill:url(#SVGID_00000044175089801701274360000002083847405258347175_);}
	.st7{fill:#FFFFFF;}
	.st8{opacity:0.23;fill:#FFFFFF;enable-background:new    ;}
	.st9{fill:url(#SVGID_00000139291628085663795020000001053999091149384083_);}
	.st10{fill:url(#SVGID_00000183955438994980684230000005349180446877267612_);}
	.st11{opacity:0.78;fill:#FFFFFF;enable-background:new    ;}
	.st12{opacity:0.74;}
	.st13{opacity:0.48;fill:#FFFFFF;enable-background:new    ;}
	.st14{opacity:0.36;fill:#FFFFFF;enable-background:new    ;}
	.st15{opacity:0.71;fill:none;stroke:#FFFFFF;stroke-width:18;stroke-linecap:round;stroke-linejoin:round;stroke-miterlimit:10;}
	.st16{opacity:0.75;fill:none;stroke:#FFFFFF;stroke-width:18;stroke-linecap:round;stroke-linejoin:round;stroke-miterlimit:10;}
	.st17{opacity:0.78;}
	.st18{fill:url(#SVGID_00000083792784604399472020000010542377848049745301_);}
	.st19{fill:url(#SVGID_00000122706179262363290200000000425106063097375404_);}
	.st20{fill:url(#SVGID_00000163067343436244676540000004573955577506961292_);}
	.st21{fill:url(#SVGID_00000164514381851152425000000017385527657316595616_);}
	.st22{fill:url(#SVGID_00000045582032691502029260000008827936154810248853_);}
	.st23{fill:url(#SVGID_00000011031613843895651210000016558583903137570184_);}
	.st24{fill:url(#SVGID_00000080885393371582200500000014483816272743862947_);}
	.st25{fill:url(#SVGID_00000001649144965448886030000015180752775204136354_);}
	.st26{fill:url(#SVGID_00000096033021154038618010000007801034504535242405_);}
	.st27{fill:url(#SVGID_00000065060882850805963960000017078269775898263210_);}
	.st28{fill:url(#SVGID_00000159460080324418196680000003238752128899687582_);}
	.st29{fill:url(#SVGID_00000085969369254828387680000016267962946502640289_);}
	.st30{fill:url(#SVGID_00000169524007105198292340000011965244619033949846_);}
	.st31{fill:url(#SVGID_00000026845116847162979320000016447543277436371335_);}
	.st32{fill:url(#SVGID_00000026853838826500647590000002728309507371467449_);}
	.st33{fill:url(#SVGID_00000173873450966571490900000007371985585995283335_);}
	.st34{fill:url(#SVGID_00000076561372824722323370000006011183143110769057_);}
	.st35{fill:url(#SVGID_00000061469419601651817630000017105987460229244317_);}
	.st36{fill:url(#SVGID_00000181069165389624359250000005453968415672092077_);}
	.st37{fill:url(#SVGID_00000001640166535574158450000013075116331026352277_);}
	.st38{fill:url(#SVGID_00000031181959010547753120000017218685736814455435_);}
	.st39{fill:url(#SVGID_00000108299315356606420530000012406118477356305042_);}
	.st40 {
			fill: #444FDF;
		}
</style>
<g>
		<rect x="0" class="st40" width="1000" height="1000" />
	</g>
<g>
	
		<linearGradient id="SVGID_1_" gradientUnits="userSpaceOnUse" x1="919.343" y1="122.0082" x2="485.7127" y2="583.6144" gradientTransform="matrix(1 0 0 -1 0 1000)">
		<stop offset="0" style="stop-color:#DAE3FE"/>
		<stop offset="1" style="stop-color:#E9EFFD"/>
	</linearGradient>
	<path class="st0" d="M790.6,691.5c-16.1,16.4-30.5,26-41.6,33.3c-107.6,71-230.7,50.5-268.7,43.5c-61.4-11.3-113.2-19.2-157.7-59   c-101.1-90.3-96.2-278.6-18.9-395.3c9.2-13.8,86.3-126.9,209.6-142.8c3-0.4,5.3-0.6,7.2-0.8c19.1-2,137.3-12.5,233.7,67.3   c13.8,11.4,36,32,56.6,63.4C886.1,416.1,886.4,594,790.6,691.5z"/>
	<g>
		<g>
			
				<linearGradient id="SVGID_00000150062281309485892450000006816411390918223778_" gradientUnits="userSpaceOnUse" x1="228.4059" y1="601.3386" x2="357.2357" y2="601.3386" gradientTransform="matrix(0.9922 -0.1248 -0.1248 -0.9922 60.3135 1053.7809)">
				<stop offset="0" style="stop-color:#4F52FF"/>
				<stop offset="1" style="stop-color:#4042E2"/>
			</linearGradient>
			<path style="fill:url(#SVGID_00000150062281309485892450000006816411390918223778_);" d="M336.1,555.2c0,0-8.3-59.8-35.1-73.7     s-74.6-20-90-105.5c-9-50.1-13.6-71.9-15.9-81.4c-0.9-3.7,1.6-7,4.9-6.5c23.8,3,101.7,16.8,126.6,73.2     C356.1,428.1,336.1,555.2,336.1,555.2z"/>
			<g class="st2">
				<path class="st3" d="M221.6,310.4c29.3,23.4,65.7,66,88.5,109.8c3.2,7.3,11.5,22.6,18.6,50.5c6,23.2,8.8,48.1,8.7,64.7      c0,1-0.8,1.8-1.7,1.7c-1.6-0.2-1.7-2.1-1.7-2.1c-1.3-28.3-8.2-63-20.4-93.8c-15.4-37.8-41.8-73.5-68.1-103.5l-2.7-2.9      c-20.2-22.5-23.7-22.4-22.4-24.1C220.6,310.1,221.2,310,221.6,310.4z"/>
			</g>
		</g>
		<g>
			<path class="st3" d="M357.1,592c4,1-44.8-38.3-73.7-110.7c-13.6-34.1-23.7-78.5-47.8-91c-20-10.4-75.1,11.5-93,19.1     c-2.2,1-2.4,4.1-0.2,5.2c10.7,5.5,33.8,18.9,42.9,35.7c11.9,22.1,37.7,32,58.7,31.5s33,0.9,50.1,30.8     C311.2,542.5,345.6,589.3,357.1,592z"/>
			<path class="st4" d="M171.2,413.5c24.1-4.4,52.1,0.7,69.7,18.1l1.7,1.7c3.9,3.9,27.3,32.7,42.2,57.6c0.2,0.3,0.1,0.7-0.2,0.9     c-0.5,0.3-1-0.2-0.9-0.2c-9.6-13.8-22.9-31-33.3-43.8c-11.2-14-18.9-23.4-38.6-29.7c-21.8-6.6-40.5-3.6-40.5-3.6     c-0.3,0-0.6-0.2-0.6-0.5C170.7,413.8,170.9,413.5,171.2,413.5z"/>
		</g>
	</g>
	<g>
		<g>
			
				<linearGradient id="SVGID_00000163775375046545768360000013339739874690841496_" gradientUnits="userSpaceOnUse" x1="451.7044" y1="246.0777" x2="559.864" y2="570.5571" gradientTransform="matrix(1 0 0 -1 0 1000)">
				<stop offset="0" style="stop-color:#09005D"/>
				<stop offset="1" style="stop-color:#1A0F91"/>
			</linearGradient>
			<path style="fill:url(#SVGID_00000163775375046545768360000013339739874690841496_);" d="M777.9,751.6c0,4.2-4.5,7.6-10.1,7.6     H220.4c-5.6,0-10.1-3.4-10.1-7.6l-4.6-236.3c0-4.2,6.6-12.3,18.6-11.7l534.9-10.4c7-0.1,13.7,1.9,18.7,5.6c5,3.7,7.7,8.8,7.5,14     L777.9,751.6z"/>
			
				<linearGradient id="SVGID_00000078732251384890232430000005887718835283069587_" gradientUnits="userSpaceOnUse" x1="827.3228" y1="549.0404" x2="-696.8746" y2="-290.2597" gradientTransform="matrix(1 0 0 -1 0 1000)">
				<stop offset="0" style="stop-color:#FF928E"/>
				<stop offset="1" style="stop-color:#FE7062"/>
			</linearGradient>
			<path style="fill:url(#SVGID_00000078732251384890232430000005887718835283069587_);" d="M767.9,744.3c0,4-4.3,7.2-9.6,7.2H233.6     c-5.3,0-9.6-3.2-9.6-7.2l-4.3-214.5c0.5-12.9,15.6-17.5,24.7-17.3l512.7-10.3c4.9-0.1,9.7,1.3,13.1,3.9c3.5,2.6,5.4,6.2,5.2,9.9     L767.9,744.3z"/>
			<g>
				<path class="st7" d="M229.8,642c-0.5,0-0.9-0.3-0.9-0.7l-0.3-17.4c0-0.4,0.4-0.7,0.9-0.7c0.5,0,0.9,0.3,0.9,0.7l0.3,17.4      C230.7,641.7,230.3,642,229.8,642L229.8,642z"/>
				<path class="st7" d="M228.9,599.4c-0.5,0-0.9-0.3-0.9-0.7l-1.3-66.6c0-4.5,1.9-8.1,5.5-10.7c6.5-4.7,16.8-4.5,17.2-4.5      l163.7-3.3c0.5,0,0.9,0.3,0.9,0.7c0,0.4-0.4,0.7-0.9,0.7l-163.8,3.3c-0.5,0-9.9-0.2-15.9,4.1c-3.2,2.3-4.9,5.6-4.9,9.7l1.3,66.6      C229.8,599.1,229.4,599.4,228.9,599.4C228.9,599.4,228.9,599.4,228.9,599.4z"/>
			</g>
			<path class="st8" d="M247.2,732.4c0.6-17.7,0.3-174.7-1-188.3c-1.4-13.6,26.8-16.1,69.9-17.6c43.2-1.5,407.3-7.6,416.7-8.1     c21.1-1.3,25.4,22.4,23.3,73.8c-1.6,38.6-4.2,102.2-5.4,131.4c-0.4,8.7-9.8,15.6-21.4,15.6c-87.6,0.2-423.5,0.9-445.8,1.4     C257.7,741.2,247,739.4,247.2,732.4z"/>
		</g>
		
			<linearGradient id="SVGID_00000018204871769016202660000002631238941832012672_" gradientUnits="userSpaceOnUse" x1="528.0986" y1="576.8333" x2="498.1077" y2="212.6599" gradientTransform="matrix(1 0 0 -1 0 1000)">
			<stop offset="0" style="stop-color:#09005D"/>
			<stop offset="1" style="stop-color:#1A0F91"/>
		</linearGradient>
		<path style="fill:url(#SVGID_00000018204871769016202660000002631238941832012672_);" d="M808.5,778.8H190.8    c-7.6,0-13.8-4.7-13.8-10.4l0,0c0-5.7,6.2-10.4,13.8-10.4h617.7c7.6,0,13.8,4.7,13.8,10.4l0,0    C822.3,774.1,816.1,778.8,808.5,778.8z"/>
	</g>
	<g>
		<path class="st4" d="M690.9,217.9L349,215.7c-11.2-0.1-20.2,9.8-19.7,21.6l23.5,511.6h380.4l21.1-457L690.9,217.9z"/>
		
			<linearGradient id="SVGID_00000156550936067323231340000013791873129924543619_" gradientUnits="userSpaceOnUse" x1="725.5858" y1="776.9402" x2="640.1462" y2="673.6475" gradientTransform="matrix(0.9994 3.430000e-02 3.430000e-02 -0.9994 -21.3755 997.4105)">
			<stop offset="0" style="stop-color:#4F52FF"/>
			<stop offset="1" style="stop-color:#4042E2"/>
		</linearGradient>
		<path style="fill:url(#SVGID_00000156550936067323231340000013791873129924543619_);" d="M705.1,289.6    c-11.1-0.4-19.7-10.5-18.8-22.2l3.7-48.9l64.5,73L705.1,289.6z"/>
		<g>
			<g>
				<path class="st11" d="M523.8,316c20.9-0.1,101-0.8,121.2-1c2.6,0,4.6,3.4,4.5,7.6l0,0c-0.1,4-2.1,7.1-4.5,7.2l-121.1,1.9      c-2.3,0-4.3-2.8-4.5-6.6l-0.1-1C519,319.8,521.1,316,523.8,316z"/>
			</g>
			<g>
				<path class="st11" d="M401.9,402.6c47.4,0,229.4,0,275.3,0c5.8,0,10.5,3.8,10.4,8.4l0,0c-0.1,4.4-4.5,7.8-10.1,7.8l-275.1,1.1      c-5.3,0-9.8-3.1-10.4-7.3l-0.1-1C391.2,406.7,395.9,402.6,401.9,402.6z"/>
			</g>
			<g>
				<path class="st11" d="M402.1,484.6c47.4,0,229.4,0,275.3,0c5.8,0,10.5,3.8,10.4,8.4l0,0c-0.1,4.4-4.5,7.8-10.1,7.8l-275.1,1.1      c-5.3,0-9.8-3.1-10.4-7.3l-0.1-1C391.4,488.7,396,484.6,402.1,484.6z"/>
			</g>
			<g>
				<path class="st11" d="M397.3,527.8c37.1,0.1,179.4,0.1,215.3,0.2c4.5,0,8.2,3.8,8,8.3l0,0c-0.1,4.3-3.7,7.8-8,7.8L397.5,545      c-4.1,0-7.6-3.2-8-7.3l-0.1-1C388.9,531.9,392.6,527.8,397.3,527.8z"/>
			</g>
			<g>
				<path class="st11" d="M399.1,578.3c47.4,0,229.3,0,275.3,0c5.8,0,10.5,3.8,10.4,8.3l0,0c-0.1,4.3-4.5,7.8-10.1,7.8l-275.1,1.1      c-5.3,0-9.8-3.2-10.4-7.3l-0.1-1C388.4,582.4,393,578.3,399.1,578.3z"/>
			</g>
			<g class="st12">
				<path class="st11" d="M396.2,616.1c37.1,0.1,179.4,0.1,215.3,0.2c4.5,0,8.2,3.8,8,8.3l0,0c-0.1,4.3-3.7,7.8-8,7.8l-215.2,0.9      c-4.1,0-7.6-3.2-8-7.3l-0.1-1C387.8,620.2,391.5,616.1,396.2,616.1z"/>
			</g>
			<path class="st13" d="M401.9,666c47.4,0,229.4,0,275.3,0c5.8,0,10.5,3.8,10.4,8.3l0,0c-0.1,4.3-4.5,7.8-10.1,7.8l-275.1,1.1     c-5.3,0-9.8-3.2-10.4-7.3l-0.1-1C391.2,670.1,395.9,666,401.9,666z"/>
			<path class="st14" d="M399.2,707.9c36.6,0,177.1-0.2,212.6-0.2c4.5,0,8.1,3.8,7.9,8.3l0,0c-0.1,4.3-3.6,7.8-7.8,7.8l-212.5,1.3     c-4.1,0-7.5-3.1-7.9-7.3l-0.1-1C390.9,712,394.5,707.9,399.2,707.9z"/>

			<line class="st15" x1="529.7" y1="367.2" x2="670" y2="367.2">
				<animate attributeName="x2" attributeType="XML" dur="5s" values="670; 600; 670" repeatCount="indefinite" begin="0.1s"></animate>
			</line>
			
			<line class="st16" x1="400.8" y1="457" x2="649.4" y2="457">
				<animate attributeName="x2" attributeType="XML" dur="8s" values="650; 550; 650" repeatCount="indefinite" begin="0.6s"></animate>
			</line>
		</g>
		<g class="st17">
			<path class="st7" d="M433.9,330.5l-11.5,36.7h-14.8l37.6-116.6h17.2l37.8,116.6H485l-11.8-36.7H433.9z M470.2,318.8l-10.8-33.5     c-2.5-7.6-4.1-14.5-5.8-21.3h-0.3c-1.6,6.9-3.5,14-5.6,21.1l-10.8,33.7L470.2,318.8L470.2,318.8z"/>
		</g>
	</g>
	<g>
		<g>
			
				<linearGradient id="SVGID_00000161601686745607330980000014842506624536101760_" gradientUnits="userSpaceOnUse" x1="519.7019" y1="456.724" x2="454.0024" y2="141.1328" gradientTransform="matrix(1 0 0 -1 0 1000)">
				<stop offset="0" style="stop-color:#4F52FF"/>
				<stop offset="1" style="stop-color:#4042E2"/>
			</linearGradient>
			<path style="fill:url(#SVGID_00000161601686745607330980000014842506624536101760_);" d="M452.8,803.7c-0.4,0-0.7-0.1-1.1-0.2     c-1.4-0.6-2-2.4-1.4-3.8L506.6,657c0.6-1.5,2.2-2.2,3.5-1.5c1.4,0.6,2,2.4,1.4,3.8L455.3,802     C454.9,803.1,453.9,803.7,452.8,803.7z"/>
			
				<linearGradient id="SVGID_00000034083215553037621500000015615431834427075761_" gradientUnits="userSpaceOnUse" x1="526.5261" y1="455.3034" x2="460.8269" y2="139.7132" gradientTransform="matrix(1 0 0 -1 0 1000)">
				<stop offset="0" style="stop-color:#4F52FF"/>
				<stop offset="1" style="stop-color:#4042E2"/>
			</linearGradient>
			<path style="fill:url(#SVGID_00000034083215553037621500000015615431834427075761_);" d="M516.2,803.7c-1,0-2-0.7-2.5-1.8     l-56.2-142.6c-0.6-1.5,0-3.2,1.4-3.8s2.9,0,3.5,1.5l56.2,142.6c0.6,1.5,0,3.2-1.4,3.8C516.9,803.7,516.5,803.7,516.2,803.7z"/>
			
				<linearGradient id="SVGID_00000114069555737973339050000009730936484107661444_" gradientUnits="userSpaceOnUse" x1="749.033" y1="408.9821" x2="683.3336" y2="93.3908" gradientTransform="matrix(1 0 0 -1 0 1000)">
				<stop offset="0" style="stop-color:#4F52FF"/>
				<stop offset="1" style="stop-color:#4042E2"/>
			</linearGradient>
			<path style="fill:url(#SVGID_00000114069555737973339050000009730936484107661444_);" d="M692.1,803.7c-0.3,0-0.7-0.1-1.1-0.2     c-1.4-0.6-2-2.4-1.4-3.8L745.8,657c0.6-1.5,2.2-2.2,3.5-1.5c1.4,0.6,2,2.4,1.4,3.8L694.6,802     C694.1,803.1,693.1,803.7,692.1,803.7z"/>
			
				<linearGradient id="SVGID_00000149381132522481677160000003397612001219594128_" gradientUnits="userSpaceOnUse" x1="755.8497" y1="407.5631" x2="690.1506" y2="91.973" gradientTransform="matrix(1 0 0 -1 0 1000)">
				<stop offset="0" style="stop-color:#4F52FF"/>
				<stop offset="1" style="stop-color:#4042E2"/>
			</linearGradient>
			<path style="fill:url(#SVGID_00000149381132522481677160000003397612001219594128_);" d="M755.4,803.7c-1,0-2-0.7-2.5-1.8     l-56.2-142.6c-0.6-1.5,0-3.2,1.4-3.8c1.4-0.6,2.9,0,3.5,1.5l56.2,142.6c0.6,1.5,0,3.2-1.4,3.8     C756.1,803.7,755.8,803.7,755.4,803.7z"/>
		</g>
		<g>
			
				<linearGradient id="SVGID_00000075873436951782291980000001449184242731495059_" gradientUnits="userSpaceOnUse" x1="603.5054" y1="159.0711" x2="680.1584" y2="296.7334" gradientTransform="matrix(1 0 0 -1 0 1000)">
				<stop offset="0" style="stop-color:#4F52FF"/>
				<stop offset="1" style="stop-color:#4042E2"/>
			</linearGradient>
			
				<rect x="654.4" y="707.6" style="fill:url(#SVGID_00000075873436951782291980000001449184242731495059_);" width="6.7" height="71.9"/>
			
				<linearGradient id="SVGID_00000068654434461615788350000003868822219608096917_" gradientUnits="userSpaceOnUse" x1="619.0823" y1="150.3976" x2="695.7353" y2="288.0599" gradientTransform="matrix(1 0 0 -1 0 1000)">
				<stop offset="0" style="stop-color:#4F52FF"/>
				<stop offset="1" style="stop-color:#4042E2"/>
			</linearGradient>
			<path style="fill:url(#SVGID_00000068654434461615788350000003868822219608096917_);" d="M686.8,780.9h-58.2v-0.3     c0-2.2,1.8-4,4-4h49.9C684.9,776.5,686.8,778.5,686.8,780.9z"/>
			
				<linearGradient id="SVGID_00000091733219559050723670000011792672035047586963_" gradientUnits="userSpaceOnUse" x1="586.678" y1="168.4407" x2="663.3311" y2="306.1028" gradientTransform="matrix(1 0 0 -1 0 1000)">
				<stop offset="0" style="stop-color:#4F52FF"/>
				<stop offset="1" style="stop-color:#4042E2"/>
			</linearGradient>
			<path style="fill:url(#SVGID_00000091733219559050723670000011792672035047586963_);" d="M695.5,705.1c0,3.9-3.2,7.2-7.2,7.2     h-58.9c-3.9,0-7.2-3.2-7.2-7.2v-6.5c0-3.9,3.2-7.2,7.2-7.2h58.9c3.9,0,7.2,3.2,7.2,7.2V705.1z"/>
		</g>
		<g>
			
				<linearGradient id="SVGID_00000181786626920473852100000010692040387478715008_" gradientUnits="userSpaceOnUse" x1="635.5796" y1="191.9872" x2="612.8965" y2="283.5013" gradientTransform="matrix(1 0 0 -1 0 1000)">
				<stop offset="0" style="stop-color:#FEBBBA"/>
				<stop offset="1" style="stop-color:#FF928E"/>
			</linearGradient>
			<path style="fill:url(#SVGID_00000181786626920473852100000010692040387478715008_);" d="M608.7,659.7c0,0-9.9,1.5-21,9     c-1.8,1.2-2.7,3.2-2.4,5.3c1.3,10.5,6.8,44.6,24.8,77.9c1,1.8,1.2,3.8,0.8,5.8l-3.1,14.6l-5.8,5.5h15l10-27l-4.3-1.3     c-3.3-1-5.6-4.1-5.6-7.5l-0.5-28.9c0.4-12.9-7.9-21.8-7.9-21.8l23.9-1.2L608.7,659.7z"/>
			
				<linearGradient id="SVGID_00000001629088765514119790000007960781521815865506_" gradientUnits="userSpaceOnUse" x1="614.1133" y1="250.5455" x2="607.1629" y2="143.9728" gradientTransform="matrix(1 0 0 -1 0 1000)">
				<stop offset="0" style="stop-color:#4F52FF"/>
				<stop offset="1" style="stop-color:#4042E2"/>
			</linearGradient>
			<path style="fill:url(#SVGID_00000001629088765514119790000007960781521815865506_);" d="M596.1,780.2     c-1.4,1.8,14.7,4.1,22.8,0.2c0,0,11.2-19.5,11.2-29.6c0,0-0.9-2-7.5-1.6c0,0-3.8,23.1-7.8,25.7s-11.1,0.3-11.1,0.3     S598.1,777.6,596.1,780.2z"/>
			
				<linearGradient id="SVGID_00000179623974523914623790000006373705909884010896_" gradientUnits="userSpaceOnUse" x1="588.1321" y1="280.6147" x2="734.3979" y2="355.703" gradientTransform="matrix(1 0 0 -1 0 1000)">
				<stop offset="0" style="stop-color:#FEBBBA"/>
				<stop offset="1" style="stop-color:#FF928E"/>
			</linearGradient>
			<path style="fill:url(#SVGID_00000179623974523914623790000006373705909884010896_);" d="M629.4,691.5     c-0.1-0.2-25.7-3.1-25.7-3.1s0.8,7.8-1.8,18.5c-2.6,10.7-40.2,57.1-40.2,57.1l3.9,12.5c-12.2,4.2-24.2,4.9-36,2.2l24.4-14.7     c0,0,22.8-77.9,36.8-91.8l25.7-8.9L629.4,691.5z"/>
			
				<linearGradient id="SVGID_00000000197342759661935290000002954118535815537306_" gradientUnits="userSpaceOnUse" x1="564.6465" y1="330.13" x2="676.3535" y2="330.13" gradientTransform="matrix(1 0 0 -1 0 1000)">
				<stop offset="0" style="stop-color:#09005D"/>
				<stop offset="1" style="stop-color:#1A0F91"/>
			</linearGradient>
			<path style="fill:url(#SVGID_00000000197342759661935290000002954118535815537306_);" d="M686.8,646.2c0,0,14.8,21.9,16,31.9     c1.2,10-4,14.1-19.5,14.7c-15.5,0.7-56.8,0.7-56.8,0.7l-35.2-30.1c0,0,25.7-9.2,32.4-11.8C630.3,649.1,686.8,646.2,686.8,646.2z"/>
			
				<linearGradient id="SVGID_00000087374869291663732900000012066382352269682623_" gradientUnits="userSpaceOnUse" x1="547.0393" y1="254.9197" x2="540.0891" y2="148.3473" gradientTransform="matrix(1 0 0 -1 0 1000)">
				<stop offset="0" style="stop-color:#4F52FF"/>
				<stop offset="1" style="stop-color:#4042E2"/>
			</linearGradient>
			<path style="fill:url(#SVGID_00000087374869291663732900000012066382352269682623_);" d="M564.2,772.3c0,0,4.2,4.1,1.4,8.7     c0,0-33.6,6-42.7,3.2c0,0,1.9-4.3,12.2-9.2l-0.8,0.6c-1,0.7-0.4,2.3,0.8,2.2C541.8,777.4,555.8,776.2,564.2,772.3z"/>
		</g>
		<g>
			
				<linearGradient id="SVGID_00000063591301940206574730000000002953776736796055_" gradientUnits="userSpaceOnUse" x1="612.1994" y1="499.1141" x2="710.1848" y2="412.781" gradientTransform="matrix(1 0 0 -1 0 1000)">
				<stop offset="0" style="stop-color:#09005D"/>
				<stop offset="1" style="stop-color:#1A0F91"/>
			</linearGradient>
			<path style="fill:url(#SVGID_00000063591301940206574730000000002953776736796055_);" d="M636.6,517.7c2.3-0.4,10.8-1.4,12.2,3.7     c0.2,0.7,1,0.9,1.5,0.4c2.7-2.4,9-6.9,15.9-3.7c6.1,2.8,5.5,8.6,4.5,12.2c-0.2,0.9,0.7,1.6,1.4,1.1c5.3-3.6,17.6-10,25.4,0.6     c7.3,9.8,1.3,16.7-2.7,19.8c-0.7,0.5-0.4,1.6,0.5,1.7c2.9,0.3,7,1.9,8.8,8.2c2.9,9.8-15.1,18-17.2,18.9c-0.1,0.1-0.3,0.1-0.4,0.1     l-36.4-1.9c-0.3,0-0.5-0.2-0.7-0.4L627,548.2c-0.2-0.2-0.2-0.6-0.2-0.8l8.9-29C636,518,636.2,517.7,636.6,517.7z"/>
			
				<linearGradient id="SVGID_00000049221498110997609390000014491862303710977665_" gradientUnits="userSpaceOnUse" x1="503.2998" y1="174.5035" x2="662.8629" y2="398.2042" gradientTransform="matrix(1 0 0 -1 0 1000)">
				<stop offset="0" style="stop-color:#FF928E"/>
				<stop offset="1" style="stop-color:#FE7062"/>
			</linearGradient>
			<path style="fill:url(#SVGID_00000049221498110997609390000014491862303710977665_);" d="M647,643.3c0,0-17.2-16.3-25.6-27.2     c-4.6-5.8-6-13.6-3.9-20.7c3.9-13,10.7-26.5,11.3-28.6c1-3.2,20.2-3.1,20.2-3.1s37.9,24.6,52.8,66.2l-16.7,5.2     c0,0-9.9-16.6-19.7-27.2c0,0,16.9,22.3,17.5,31.5L647,643.3z"/>
			
				<linearGradient id="SVGID_00000111894862648742007680000013736417384657919415_" gradientUnits="userSpaceOnUse" x1="641.7159" y1="414.9672" x2="636.7283" y2="446.9711" gradientTransform="matrix(1 0 0 -1 0 1000)">
				<stop offset="0" style="stop-color:#FEBBBA"/>
				<stop offset="1" style="stop-color:#FF928E"/>
			</linearGradient>
			<path style="fill:url(#SVGID_00000111894862648742007680000013736417384657919415_);" d="M626.5,548.9c0.2,0.7,5.2,17.3,5.6,17.7     c0.4,0.3,11,0.9,16-2.5l-8.5-17.8L626.5,548.9z"/>
			<g>
				
					<linearGradient id="SVGID_00000168099073038645759070000016244711409454749596_" gradientUnits="userSpaceOnUse" x1="-910.9607" y1="-1192.1608" x2="-866.9021" y2="-1222.0875" gradientTransform="matrix(0.7443 -0.6678 -0.6678 -0.7443 490.528 -952.499)">
					<stop offset="0" style="stop-color:#FEBBBA"/>
					<stop offset="1" style="stop-color:#FF928E"/>
				</linearGradient>
				<path style="fill:url(#SVGID_00000168099073038645759070000016244711409454749596_);" d="M612.2,525.4c0,0-4.2,8.9,0,22.8      s11.6,15.3,16.5,12.1s11.2-9.1,12.4-21.5S618,514.2,612.2,525.4z"/>
				
					<linearGradient id="SVGID_00000042015052377549756410000001188824754374818701_" gradientUnits="userSpaceOnUse" x1="605.9509" y1="492.0221" x2="703.9359" y2="405.6893" gradientTransform="matrix(1 0 0 -1 0 1000)">
					<stop offset="0" style="stop-color:#09005D"/>
					<stop offset="1" style="stop-color:#1A0F91"/>
				</linearGradient>
				<path style="fill:url(#SVGID_00000042015052377549756410000001188824754374818701_);" d="M631.8,537.6c0,0-7.7-18.8-20.5-7.7      l-1.1,4.8c0,0-11.8-3.8-7.5-14.4c4.2-10.6,18.2-19,30.7-11.7c12.5,7.4,16.9,17.3,15.9,27c-1,9.8-8.2,6.2-8.2,6.2      s-1.2-7.2-4.6-8.6c-3.4-1.4-3.5,4.1-3.5,4.1L631.8,537.6z"/>
				
					<linearGradient id="SVGID_00000138574876282655996460000010305017168153352345_" gradientUnits="userSpaceOnUse" x1="-908.3203" y1="-1188.2736" x2="-864.2617" y2="-1218.2001" gradientTransform="matrix(0.7443 -0.6678 -0.6678 -0.7443 490.528 -952.499)">
					<stop offset="0" style="stop-color:#FEBBBA"/>
					<stop offset="1" style="stop-color:#FF928E"/>
				</linearGradient>
				<path style="fill:url(#SVGID_00000138574876282655996460000010305017168153352345_);" d="M634.7,538c0,0-4-9.7,2-9.8      s3.3,9.3,2,12.7L634.7,538z"/>
			</g>
			
				<linearGradient id="SVGID_00000027580552876067044360000016407598259500940688_" gradientUnits="userSpaceOnUse" x1="670.3483" y1="359.5665" x2="764.0243" y2="359.5665" gradientTransform="matrix(1 0 0 -1 0 1000)">
				<stop offset="0" style="stop-color:#FEBBBA"/>
				<stop offset="1" style="stop-color:#FF928E"/>
			</linearGradient>
			<path style="fill:url(#SVGID_00000027580552876067044360000016407598259500940688_);" d="M612,644.5l12.6-12.2l17.5,7.4     c0,0,17.4,2.7,27.3,0c9.9-2.7,9.9-2.7,9.9-2.7l22.5-7l3.5,10c0.9,2.5,0,5.3-2.2,6.9c-1.9,1.4-4.2,2.9-5.7,3.5     c-3,1.3-72.9-0.9-72.9-0.9L612,644.5z"/>
		</g>
		<g>
			
				<linearGradient id="SVGID_00000049203950022611534340000010121495069370812040_" gradientUnits="userSpaceOnUse" x1="615.5932" y1="223.9689" x2="556.6261" y2="207.8076" gradientTransform="matrix(0.9988 -4.940000e-02 -4.940000e-02 -0.9988 68.3372 884.9126)">
				<stop offset="0" style="stop-color:#09005D"/>
				<stop offset="1" style="stop-color:#1A0F91"/>
			</linearGradient>
			<path style="fill:url(#SVGID_00000049203950022611534340000010121495069370812040_);" d="M659.7,650.2c-0.1,0-0.1,0-0.2,0     l-73.2-0.1c-1.8,0-3.3-1.5-3.3-3.3c0-1.8,1.5-3.3,3.3-3.3l73.2,0.1c1.8,0,3.3,1.5,3.3,3.3C662.8,648.7,661.4,650.2,659.7,650.2z"/>
			
				<linearGradient id="SVGID_00000060747773517601635340000003161472789726744198_" gradientUnits="userSpaceOnUse" x1="592.3192" y1="407.291" x2="550.4794" y2="363.0691" gradientTransform="matrix(1 0 0 -1 0 1000)">
				<stop offset="0" style="stop-color:#09005D"/>
				<stop offset="1" style="stop-color:#1A0F91"/>
			</linearGradient>
			<path style="fill:url(#SVGID_00000060747773517601635340000003161472789726744198_);" d="M520.6,583.8h61c4.5,0,8.6,2.6,10.5,6.7     l28.2,59.8h-75.8c-2.9,0-5.5-1.8-6.6-4.5L516,590.5C514.8,587.3,517.1,583.8,520.6,583.8z"/>
			<path class="st4" d="M563.5,614.4c1.3,4.1,0.3,8.1-2.2,8.9s-5.6-1.9-7-6c-1.3-4.1-0.3-8.1,2.2-8.9     C559.1,607.7,562.2,610.3,563.5,614.4z"/>
		</g>
		
			<linearGradient id="SVGID_00000080197409315300435830000017770572240100091052_" gradientUnits="userSpaceOnUse" x1="589.9299" y1="329.1515" x2="524.2305" y2="13.5608" gradientTransform="matrix(1 0 0 -1 0 1000)">
			<stop offset="0" style="stop-color:#4F52FF"/>
			<stop offset="1" style="stop-color:#4042E2"/>
		</linearGradient>
		<path style="fill:url(#SVGID_00000080197409315300435830000017770572240100091052_);" d="M762,652.9c0.2-0.8-0.1-1.7-0.7-2.3    s-1.5-1-2.5-1H429.2c-1.3,0-2.5,0.6-3.2,1.5c-0.7,0.9-0.8,2.1-0.2,3.1l3.6,6.7c0.8,1.5,2.6,2.5,4.5,2.5h322.7    c1.8,0,3.4-1.1,3.7-2.7L762,652.9z"/>
	</g>
</g>
</svg>