<?xml version="1.0" encoding="utf-8"?>
<!-- Generator: Adobe Illustrator 23.0.3, SVG Export Plug-In . SVG Version: 6.00 Build 0)  -->
<svg version="1.1" id="图层_1" xmlns="http://www.w3.org/2000/svg" xmlns:xlink="http://www.w3.org/1999/xlink" x="0px" y="0px"
	 viewBox="0 0 232 319" style="enable-background:new 0 0 232 319;" xml:space="preserve">
<style type="text/css">
	.st0{fill:#93B3F4;}
	.st1{fill:#FFFFFF;}
</style>
<g>
	<g>
		<path class="st0" d="M62.3,207.77h107.79c32.28,0,58.69-26.41,58.69-58.69v-87.5c0-32.28-26.41-58.69-58.69-58.69H62.3
			c-32.28,0-58.69,26.41-58.69,58.69v87.5C3.61,181.36,30.02,207.77,62.3,207.77z"/>
	</g>
	<g>
		<path class="st0" d="M105.72,308.95c1.76-0.75,3.79,0.07,4.53,1.83c0.75,1.76-0.07,3.79-1.83,4.53c-1.76,0.75-3.79-0.07-4.53-1.83
			C103.14,311.73,103.96,309.7,105.72,308.95z"/>
		<path class="st0" d="M130.68,280.36c3.33-1.41,7.18,0.14,8.59,3.47c1.41,3.33-0.14,7.18-3.47,8.59c-3.33,1.41-7.18-0.14-8.59-3.47
			C125.79,285.62,127.34,281.77,130.68,280.36z"/>
		<path class="st0" d="M145.94,233.06c5.29-2.25,11.4,0.22,13.64,5.51c2.25,5.29-0.22,11.39-5.51,13.64
			c-5.29,2.25-11.39-0.22-13.64-5.51C138.18,241.42,140.65,235.31,145.94,233.06z"/>
	</g>
</g>
</svg>
