<?xml version="1.0" encoding="utf-8"?>
<!-- Generator: Adobe Illustrator 25.4.1, SVG Export Plug-In . SVG Version: 6.00 Build 0)  -->
<svg version="1.1" id="图层_1" xmlns="http://www.w3.org/2000/svg" xmlns:xlink="http://www.w3.org/1999/xlink" x="0px" y="0px"
	 viewBox="0 0 700 700" style="enable-background:new 0 0 700 700;" xml:space="preserve">
<style type="text/css">
	.st0{fill:#683C7F;}
	.st1{fill:#7F5390;}
	.st2{fill:#9F62BF;}
	.st3{fill:#3C2A2A;}
	.st4{fill:#FFC82C;}
	.st5{fill:#FFA637;}
	.st6{fill:#FFDB2B;}
	.st7{fill:#82532B;}
	.st8{fill:#2E3D42;}
	.st9{fill:#436069;}
	.st10{fill:#FFE54D;stroke:#3C2A2A;stroke-width:4.4379;stroke-miterlimit:10;}
	.st11{fill:#6ADBC6;stroke:#3C2A2A;stroke-width:4.4379;stroke-miterlimit:10;}
	.st12{fill:#FF73C0;stroke:#3C2A2A;stroke-width:4.4379;stroke-miterlimit:10;}
	.st13{fill:#9A5E2E;}
	.st14{fill:#ED405A;}
	.st15{fill:#FF504C;}
	.st16{fill:#FF6666;}
	.st17{fill:#FFFFFD;}
	.st18{fill:#D0E7F9;}
	.st19{fill:#00C4F3;}
	.st20{fill:#00F7FF;}
	.st21{fill:#CFFFFF;}
</style>
<g>
	<g>
		<g>
			<g>
				<path class="st0" d="M484.3,172.5c-18.7,2.6-36.5-2.9-48.5-13.6c-2.8-2.5-7.2-1.1-8.1,2.5c-1.3,5.1-1.5,10.5-0.5,16.1
					c3.6,19.9,22.3,33.8,42.4,31.5c21.1-2.5,36-21.4,33.8-42.2C497.5,169.5,491.1,171.5,484.3,172.5z"/>
				<path class="st0" d="M590.4,134.9c-1.8-5.3-4.7-9.9-8.3-13.8c-2.5-2.7-7-1.7-8.2,1.8c-5.3,15.2-18.1,28.7-35.7,35.5
					c-6.5,2.5-13.1,3.9-19.5,4.3c8.3,19.2,30.5,28.5,50.1,20.3C587.5,175.3,597,154,590.4,134.9z"/>
			</g>
			<g>
				
					<ellipse transform="matrix(0.7071 -0.7071 0.7071 0.7071 -3.4565 437.2536)" class="st1" cx="526.1" cy="222.8" rx="74" ry="74"/>
				<path class="st0" d="M544.8,294.4c34.9-9.1,57.5-41.6,55.2-76.3c-37.9,40.8-103.1,2.4-147.8,7.4c0.2,5.3,1,10.7,2.4,16
					C464.9,281,505.3,304.7,544.8,294.4z"/>
				<path class="st2" d="M563.4,174c4,15.2-16.6,22.1-42.4,28.9c-25.8,6.7-47.2,10.7-51.1-4.5c-4-15.2,13.8-33,39.6-39.7
					C535.2,151.9,559.4,158.8,563.4,174z"/>
			</g>
			<path class="st3" d="M534.4,254.5c-18.3,4.8-36.3,3.3-50.9-3c10.4,14.3,32,21,54.1,15.2c22-5.7,37.7-22.2,39.8-39.7
				C567.7,239.6,552.7,249.7,534.4,254.5z"/>
			<g>
				<g>
					<path class="st3" d="M515.4,225.5c2.2,8.6-0.1,16.6-5.3,17.9c-5.2,1.3-11.1-4.5-13.4-13.1c-2.2-8.6,0.1-16.6,5.3-17.9
						C507.2,211.1,513.2,216.9,515.4,225.5z"/>
					<path class="st3" d="M483.1,213.1c15.4-1.1,26.6,2.3,37,9.4c0,0-9.3-13.6-25.2-16.5C479.1,203.2,483.1,213.1,483.1,213.1z"/>
				</g>
				<g>
					<path class="st3" d="M536.8,219.9c2.2,8.6,8.2,14.4,13.4,13.1c5.2-1.3,7.5-9.4,5.3-17.9c-2.2-8.6-8.2-14.4-13.4-13.1
						C536.9,203.3,534.6,211.3,536.8,219.9z"/>
					<path class="st3" d="M559,193.4c-14,6.6-22.1,15-27.7,26.3c0,0,1.5-16.4,13.9-26.7C557.6,182.7,559,193.4,559,193.4z"/>
				</g>
			</g>
		</g>
		<g>
			<g>
				
					<ellipse transform="matrix(0.7071 -0.7071 0.7071 0.7071 -327.1702 272.1047)" class="st4" cx="164.9" cy="531" rx="120.4" ry="120.4"/>
				<path class="st5" d="M202.1,645.5c55.8-18.1,89.4-73.2,82.4-129.4C226.8,586.1,117.2,530,45,542.3c0.8,8.6,2.6,17.3,5.4,25.8
					C70.9,631.4,138.8,666.1,202.1,645.5z"/>
				<path class="st6" d="M220.7,448.1c7.9,24.3-24.9,37.5-66.2,50.9s-75.6,22-83.5-2.4s19.2-54.9,60.6-68.3
					C172.9,414.9,212.8,423.8,220.7,448.1z"/>
			</g>
			<path class="st7" d="M181.4,581.8c-29.2,9.5-58.7,8.8-83-0.1c18.2,22.2,54.1,31,89.3,19.6c35.3-11.4,59.1-39.6,60.8-68.3
				C234.1,554.4,210.6,572.3,181.4,581.8z"/>
			<g>
				<g>
					<path class="st3" d="M248.3,456c-0.9-1.8-3-2.8-5-2.3c-48.3,11.6-79.6,46.6-84.7,48.2c-5.1,1.7-5.1,1.7-5.1,1.7l4.8,14.8
						c0,0,0.6-0.2,3.2-1c2.5-0.8,5.5,1.4,9.1,5.9c1.5,1.8,5,6.1,8.8,10.6c6.7,7.9,17.3,11.3,27.3,8.7l21.3-5.6
						c20.3-5.3,32.3-26.3,26.3-46.4c-2-6.8-4.6-14.3-8.1-22.3l2.7-1.4c2.1-1.1,2.9-3.6,1.9-5.7L248.3,456z"/>
					<path class="st8" d="M227,526.8c-0.5,0.2-1,0.3-1.5,0.4l-21.3,5.6c-6.3,1.6-13-0.5-17.2-5.5c-4.5-5.4-7.4-8.9-8.6-10.4
						c-1-1.3-3-3.8-5.7-5.9c-2.3-1.8-2.4-5.2-0.2-7.1c0.1-0.1,0.1-0.1,0.2-0.2c11.5-9.6,32.7-27.5,62-37.2l2.4,5.6
						c3,7,5.6,14.2,7.7,21.2C248.8,507.3,240.9,522.3,227,526.8L227,526.8z"/>
					<path class="st9" d="M237.1,472.2l-2.4-5.6c-29.2,9.8-50.5,27.6-62,37.2c-0.1,0.1-0.1,0.1-0.2,0.2c-2.2,1.9-2.1,5.3,0.2,7.1
						c2.7,2.1,4.7,4.6,5.7,5.9c0.2,0.3,0.5,0.7,0.9,1.1c23.5-19.3,43.8-31.3,60.7-38.6C239.1,477.1,238.1,474.6,237.1,472.2z"/>
				</g>
				<g>
					<path class="st3" d="M53.4,519.2c-0.4-2,0.7-4,2.6-4.8c45.9-18.9,91.8-9,96.9-10.7c5.1-1.7,5.1-1.7,5.1-1.7l4.8,14.8
						c0,0-0.6,0.2-3.2,1c-2.5,0.8-3.6,4.4-3.9,10.1c-0.1,2.3-0.5,7.9-0.9,13.7c-0.7,10.3-7.3,19.3-17,23.1l-20.5,8
						c-19.5,7.6-41.5-2.3-48.5-22.1c-2.4-6.7-4.6-14.3-6.5-22.9l-3,0.4c-2.3,0.3-4.5-1.2-4.9-3.5L53.4,519.2z"/>
					<path class="st8" d="M112.1,564.1c0.5-0.2,1-0.3,1.5-0.5l20.5-8c6.1-2.4,10.2-8,10.7-14.5c0.5-7,0.8-11.6,0.9-13.5
						c0.1-1.7,0.2-4.8,1.2-8.2c0.8-2.8-1.1-5.6-4-5.8c-0.1,0-0.2,0-0.3,0c-15-1-42.6-3-72,6.2l1.3,6c1.7,7.5,3.7,14.8,6.2,21.7
						C83,561.1,98.3,568.6,112.1,564.1L112.1,564.1z"/>
					<path class="st9" d="M72,525.8l-1.3-6c29.4-9.2,57.1-7.3,72-6.2c0.1,0,0.2,0,0.3,0c2.9,0.2,4.8,3,4,5.8
						c-0.9,3.3-1.1,6.5-1.2,8.2c0,0.4,0,0.9-0.1,1.4c-30.3-1.8-53.8,0.4-71.8,4.4C73.2,530.9,72.6,528.3,72,525.8z"/>
				</g>
			</g>
			
				<!-- <animateTransform  accumulate="none" additive="replace" attributeName="transform" begin="0.1" calcMode="linear" dur="2s" fill="remove" repeatCount="indefinite" restart="always" type="translate" values="0 0 ; 0 -10; 0 0" xmlns="http://www.w3.org/2000/svg">
				</animateTransform> -->
		</g>
		<g>
			<path class="st10" d="M561.6,35.9c0,40.7-21.9,77.1-53,77.1c31.1,0,53,36.4,53,77.1c0-40.7,21.9-77.1,53-77.1
				C583.5,112.9,561.6,76.6,561.6,35.9			">
<!-- <animate  accumulate="none" additive="replace" attributeName="opacity" begin="0.1" calcMode="linear" dur="1s" fill="remove" repeatCount="indefinite" restart="always" values="0;1;0">
					</animate> -->
			</path>
			<path class="st11" d="M636.2,35.9c0,20.2-11.1,38.5-26.5,38.5c15.4,0,26.5,18.3,26.5,38.5c0-20.2,11.1-38.5,26.5-38.5
				C647.3,74.4,636.2,56.1,636.2,35.9			">
<!-- <animate  accumulate="none" additive="replace" attributeName="opacity" begin="0.2" calcMode="linear" dur="1s" fill="remove" repeatCount="indefinite" restart="always" values="0;1;0">
					</animate> -->
			</path>
			<path class="st12" d="M624.2,112.9c0,20.2-11.1,38.5-26.5,38.5c15.4,0,26.5,18.3,26.5,38.5c0-20.2,11.1-38.5,26.5-38.5
				C635.3,151.5,624.2,133.2,624.2,112.9			">
<!-- <animate  accumulate="none" additive="replace" attributeName="opacity" begin="0.3" calcMode="linear" dur="1s" fill="remove" repeatCount="indefinite" restart="always" values="0;1;0">
					</animate> -->
			</path>
		</g>
		<g>
			<g>
				<ellipse class="st4" cx="560.4" cy="551.4" rx="80.3" ry="80.3"/>
				<path class="st5" d="M534.5,627.3c37,12.6,76.9-3.4,95.6-36.1c-58.7,14.3-94.8-59.4-138.2-81.7c-3,4.9-5.5,10.2-7.5,15.9
					C470.1,567.4,492.5,613,534.5,627.3z"/>
				<path class="st6" d="M623.3,529.4c-5.5,16.1-28.3,10.1-55.7,0.7c-27.4-9.3-49.1-18.5-43.6-34.6c5.5-16.1,32.2-21.6,59.6-12.3
					C611.1,492.6,628.8,513.3,623.3,529.4z"/>
			</g>
			<g>
				<path class="st7" d="M554.1,570c-18.7-6.4-35.4-14.6-49.2-23.6c-3.9,25.9,11.1,51.7,36.7,60.4c25.6,8.7,53.3-2.5,66-25.4
					C591,580.1,572.7,576.3,554.1,570z"/>
				<path class="st13" d="M543.4,601.3c-19.7-6.7-32.7-24.8-33.4-44.9c12.7,7.4,27.1,13.9,42.2,19.1c15.1,5.1,30.4,8.8,45,10.7
					C584.4,601.6,563.1,608,543.4,601.3z"/>
			</g>
			<g>
				<g>
					<path class="st14" d="M529.3,554.3l-0.5-0.3c-0.2-0.2-5.7-4-10.9-9.9c-3.1-3.5-5.5-7.1-7-10.6c-2-4.4-2.7-8.8-2-12.9l0-0.1
						c0,0,0-0.1,0-0.1c0-0.1,0-0.1,0-0.2l0.1-0.9h0c1.6-7.1,8.6-11.9,15.9-10.7c4.5,0.7,8.3,3.5,10.3,7.4c3.1-3.1,7.6-4.6,12.1-3.9
						c7.3,1.1,12.5,7.8,11.9,15h0l-0.1,0.7c0,0.1,0,0.2,0,0.3c0,0,0,0.1,0,0.1l0,0.1c-0.6,4.1-2.6,8-5.8,11.7
						c-2.5,2.8-5.9,5.5-9.9,7.9c-6.8,4.1-13.2,6-13.4,6.1L529.3,554.3z"/>
					<path class="st15" d="M529.6,552.5c-1-0.7-5.8-4.2-10.5-9.6c-3-3.4-5.3-6.8-6.7-10.2c-1.8-4.1-2.5-8.2-1.9-12l0-0.2l0-0.2
						l0.1-0.3l0.1-0.4c1.5-6.3,7.6-10.4,14-9.4c3.9,0.6,7.3,3.1,9.1,6.5l1,2l1.6-1.6c2.8-2.8,6.8-4.1,10.7-3.5
						c6.4,1,11,6.8,10.4,13.3l0,0.4l0,0.2c0,0.1,0,0.2,0,0.3c0,0,0,0.1,0,0.1l0,0.1c-0.6,3.8-2.4,7.4-5.4,10.8
						c-2.4,2.7-5.6,5.3-9.5,7.6C536.4,550.2,530.7,552.1,529.6,552.5z"/>
				</g>
				<path class="st16" d="M557.6,526.7c0.3-6.3-4.2-11.9-10.5-12.9c-3.9-0.6-7.9,0.7-10.7,3.5l-1.6,1.6l-1-2
					c-1.8-3.5-5.2-5.9-9.1-6.5c-6.4-1-12.5,3.1-14,9.4l-0.1,0.4l-0.1,0.3l0,0.2l0,0.2c-0.1,0.5-0.1,0.9-0.2,1.4
					C525.4,536.4,543.9,532.9,557.6,526.7z"/>
			</g>
			<g>
				<g>
					<path class="st14" d="M582.6,572.1c-0.2-0.2-4-5.7-6.9-13.1c-1.7-4.4-2.7-8.5-3-12.3c-0.3-4.9,0.5-9.2,2.5-12.8l0-0.1
						c0,0,0-0.1,0.1-0.1c0.1-0.1,0.1-0.2,0.2-0.3l0.4-0.6l0,0c4-6.1,12.1-8.2,18.6-4.7c4,2.2,6.6,6.1,7.2,10.5
						c4-1.9,8.7-1.7,12.7,0.4c6.5,3.6,9.1,11.5,6,18.2l0,0l-0.4,0.8c0,0.1-0.1,0.1-0.1,0.2c0,0,0,0,0,0.1l-0.1,0.1
						c-2,3.6-5.2,6.7-9.5,9c-3.4,1.8-7.4,3.2-12,4.1c-7.8,1.5-14.4,1.2-14.7,1.2l-0.6,0L582.6,572.1z"/>
					<path class="st15" d="M583.9,571c1.2,0,7.2,0.2,14.1-1.2c4.4-0.9,8.3-2.2,11.5-3.9c4-2.2,7-4.9,8.8-8.3l0.1-0.2l0.1-0.1
						l0.2-0.3l0.2-0.4c2.7-5.9,0.3-12.9-5.3-16c-3.5-1.9-7.6-2-11.2-0.4l-2.1,1l-0.3-2.3c-0.5-3.9-2.9-7.4-6.3-9.2
						c-5.7-3.1-12.9-1.3-16.4,4.1L577,534l-0.1,0.2c0,0.1-0.1,0.2-0.1,0.2c0,0-0.1,0.1-0.1,0.1l0,0.1c-1.8,3.4-2.6,7.4-2.3,11.9
						c0.3,3.6,1.2,7.6,2.9,11.9C579.8,565,583.2,570,583.9,571z"/>
				</g>
				<path class="st16" d="M577.4,533.5c3.6-5.2,10.6-6.9,16.2-3.8c3.5,1.9,5.8,5.3,6.3,9.2l0.3,2.3l2.1-1c3.6-1.6,7.7-1.5,11.2,0.4
					c5.7,3.1,8,10.1,5.3,16l-0.2,0.4l-0.2,0.3l-0.1,0.1l-0.1,0.2c-0.2,0.4-0.5,0.8-0.7,1.2C597,560.8,584.5,546.7,577.4,533.5z"/>
			</g>
		</g>
		<g>
			<g>
				<path class="st14" d="M196.1,307l-3.2-1c-1.5-0.5-36.7-11.4-74.3-34.1c-22.2-13.5-40.6-28.3-54.7-44.1
					c-17.9-20.1-28.7-41.9-32.2-64.6l-0.1-0.6c0-0.1,0-0.3-0.1-0.4c0-0.3-0.1-0.6-0.1-1l-0.7-4.8l0.2,0c-3.2-40.2,25.3-76.8,65.8-83
					c24.8-3.8,49.5,4.5,66.8,21.9c11.4-21.8,32.4-37.1,57.2-40.9c40.5-6.2,78.7,20.1,87.7,59.5l0.2,0l0.6,4c0.1,0.5,0.2,1.1,0.3,1.6
					c0,0.2,0.1,0.4,0.1,0.7l0,0.3c3.5,22.8-0.3,46.8-11.3,71.3c-8.6,19.3-21.7,39-38.9,58.5c-29,33-59.4,54-60.7,54.8L196.1,307z"/>
				<path class="st15" d="M194.5,296.8c-6.2-2-37.7-12.6-71.2-32.8c-21.4-13-39.1-27.2-52.5-42.3c-16.7-18.8-26.7-38.9-29.9-59.9
					l-0.2-1l-0.1-0.9l-0.3-1.8l-0.2-2.5c-2.8-35.6,22.7-67.7,58-73.1c21.5-3.3,43.5,3.9,58.9,19.3l8.9,8.9l5.8-11.2
					c10-19.3,28.9-32.7,50.4-36c35.3-5.4,69.3,17.6,77.3,52.4l0.5,2.2l0.2,1.3c0.1,0.5,0.2,1,0.2,1.4c0,0.1,0.1,0.7,0.1,0.7l0,0.3
					c3.2,21-0.4,43.2-10.6,66.1c-8.3,18.4-20.8,37.3-37.4,56.2C226.7,273.4,199.9,293,194.5,296.8z"/>
			</g>
			<path class="st16" d="M299,114.1c-8.7-33.8-42.1-56-76.8-50.6c-21.5,3.3-40.4,16.8-50.4,36l-5.8,11.2l-8.9-8.9
				c-15.4-15.4-37.4-22.6-58.9-19.3c-35.3,5.4-60.8,37.5-58,73.1l0.2,2.5l0.3,1.8l0.1,0.9l0.2,1c0.4,2.6,0.9,5.2,1.5,7.8
				C145.7,219.1,237,169.7,299,114.1z"/>
			
				<!-- <animateTransform  accumulate="none" additive="replace" attributeName="transform" begin="0.2" calcMode="linear" dur="3s" fill="remove" repeatCount="indefinite" restart="always" type="translate" values="0 0 ; 10 0; 0 0" xmlns="http://www.w3.org/2000/svg">
				</animateTransform> -->
		</g>
		<g>
			<g>
				<circle class="st4" cx="347.5" cy="385" r="184"/>
				<path class="st5" d="M347.5,569c89.7,0,164.4-64.2,180.7-149.2c-116.8,74.4-249.6-58.8-360.3-74.9c-2.9,12.9-4.4,26.3-4.4,40.1
					C163.5,486.6,245.9,569,347.5,569z"/>
				<path class="st6" d="M467.7,290.8c0,39.1-53.8,42.8-120.3,42.8s-120.3-3.7-120.3-42.8S281.1,220,347.5,220
					S467.7,251.7,467.7,290.8z"/>
			</g>
			<g>
				<path class="st7" d="M221.2,391c0,0.6-0.1,1.2-0.1,1.8c0,69.8,56.6,126.4,126.4,126.4s126.4-56.6,126.4-126.4
					c0-0.6,0-1.2-0.1-1.8H221.2z"/>
				<path class="st13" d="M347.5,505.8c-58.5,0-106.7-44.6-112.5-101.5h225C454.2,461.2,405.9,505.8,347.5,505.8z"/>
				<path class="st17" d="M243.6,437.4h207.7c4.5-10.3,7.4-21.4,8.6-33.1H235C236.2,415.9,239.2,427,243.6,437.4z"/>
				<path class="st18" d="M460,404.3H235c0.5,4.9,1.3,9.7,2.4,14.4l221.9-9.2C459.6,407.7,459.8,406,460,404.3z"/>
			</g>
			<g>
				<g>
					<path class="st7" d="M323,367.8c0,0-48.8-14.8-100.1,0c0,0,17.6-34.2,51.6-34.2S323,367.8,323,367.8z"/>
					<g>
						<path class="st19" d="M211,472.6c-19.6,19.6-51.3,19.6-70.9,0c-19.6-19.6-19.6-51.3,0-70.9c19.6-19.6,100.2-29.3,100.2-29.3
							S230.6,453,211,472.6z"/>
						<path class="st20" d="M149.5,463.2c-14.4-14.4-14.4-37.7,0-52.1c9.3-9.3,45.1-18.1,75.1-23c-4.9,30-13.7,65.8-23,75.1
							C187.2,477.6,163.8,477.6,149.5,463.2z"/>
						<path class="st21" d="M205.8,435.6c-7.9,7.9-20.8,7.9-28.7,0s-7.9-20.8,0-28.7c7.9-7.9,40.6-11.9,40.6-11.9
							S213.7,427.7,205.8,435.6z"/>
					</g>
					<path class="st7" d="M218.9,342.8c9.9-9.6,30-25.4,61.2-33.7c2.5-0.7,2.3-4.3-0.3-4.7c-17.1-2.6-50.3-2.2-64.9,35.8
						C214.1,342.6,217,344.6,218.9,342.8z"/>
				</g>
				<g>
					<path class="st7" d="M372,367.8c0,0,48.8-14.8,100.1,0c0,0-17.6-34.2-51.6-34.2C386.4,333.6,372,367.8,372,367.8z"/>
					<g>
						<path class="st19" d="M484,472.6c19.6,19.6,51.3,19.6,70.9,0c19.6-19.6,19.6-51.3,0-70.9c-19.6-19.6-100.2-29.3-100.2-29.3
							S464.4,453,484,472.6z"/>
						<path class="st20" d="M545.5,463.2c14.4-14.4,14.4-37.7,0-52.1c-9.3-9.3-45.1-18.1-75.1-23c4.9,30,13.7,65.8,23,75.1
							C507.8,477.6,531.1,477.6,545.5,463.2z"/>
						<path class="st21" d="M489.2,435.6c7.9,7.9,20.8,7.9,28.7,0c7.9-7.9,7.9-20.8,0-28.7c-7.9-7.9-40.6-11.9-40.6-11.9
							S481.2,427.7,489.2,435.6z"/>
					</g>
					<path class="st7" d="M476,342.8c-9.9-9.6-30-25.4-61.2-33.7c-2.5-0.7-2.3-4.3,0.3-4.7c17.1-2.6,50.3-2.2,64.9,35.8
						C480.9,342.6,477.9,344.6,476,342.8z"/>
				</g>
			</g>
			
				<!-- <animateTransform  accumulate="none" additive="replace" attributeName="transform" attributeType="XML" calcMode="linear" dur="3s" fill="remove" repeatCount="indefinite" restart="always" type="rotate" values="0 520 507;-5 520 507;0 520 507" xmlns="http://www.w3.org/2000/svg">
				</animateTransform> -->
		</g>
	</g>
</g>
</svg>
