<?xml version="1.0" encoding="utf-8"?>
<!-- Generator: Adobe Illustrator 25.4.1, SVG Export Plug-In . SVG Version: 6.00 Build 0)  -->
<svg version="1.1" id="Illustration" xmlns="http://www.w3.org/2000/svg" xmlns:xlink="http://www.w3.org/1999/xlink" x="0px"
	 y="0px" viewBox="0 0 700 700" style="enable-background:new 0 0 700 700;" xml:space="preserve">
<style type="text/css">
	.st0{fill:url(#SVGID_1_);}
	.st1{opacity:0.7;}
	.st2{fill:#7D97F4;}
	.st3{fill:#91B3FA;}
	.st4{fill:url(#SVGID_00000036964046400351030510000000461758781698289037_);}
	.st5{fill:url(#SVGID_00000106848243287289664920000015976619041191800711_);}
	.st6{fill:#FFFFFF;}
	.st7{opacity:0.23;fill:#FFFFFF;enable-background:new    ;}
	.st8{fill:url(#SVGID_00000070841299279163381030000005264698195871977896_);}
	.st9{fill:url(#SVGID_00000054947674173940037110000001265624699540356789_);}
	.st10{opacity:0.78;fill:#FFFFFF;enable-background:new    ;}
	.st11{opacity:0.74;}
	.st12{opacity:0.48;fill:#FFFFFF;enable-background:new    ;}
	.st13{opacity:0.36;fill:#FFFFFF;enable-background:new    ;}
	
		.st14{opacity:0.71;fill:none;stroke:#FFFFFF;stroke-width:17.8834;stroke-linecap:round;stroke-linejoin:round;stroke-miterlimit:10;enable-background:new    ;}
	
		.st15{opacity:0.75;fill:none;stroke:#FFFFFF;stroke-width:17.8834;stroke-linecap:round;stroke-linejoin:round;stroke-miterlimit:10;enable-background:new    ;}
	.st16{opacity:0.78;}
	.st17{fill:url(#SVGID_00000113325900842916296350000001293815820382119316_);}
	.st18{fill:url(#SVGID_00000018213178167514825820000004648269093800171685_);}
	.st19{fill:url(#SVGID_00000133496879598879076470000009864401052110649245_);}
	.st20{fill:url(#SVGID_00000155109339803993881770000013489073526641335955_);}
	.st21{fill:url(#SVGID_00000170983685666484288750000003392036899631175307_);}
	.st22{fill:url(#SVGID_00000140011914956383899450000003341564363381133759_);}
	.st23{fill:url(#SVGID_00000089569669009602941970000000330790830620143546_);}
	.st24{fill:url(#SVGID_00000147900083802839052570000018426401874489167270_);}
	.st25{fill:url(#SVGID_00000095304771579057926950000014932310627406046099_);}
	.st26{fill:url(#SVGID_00000179646365639381948350000002751231967175411379_);}
	.st27{fill:url(#SVGID_00000145749832337755244140000009367961412454029745_);}
	.st28{fill:url(#SVGID_00000097476023330913898520000008798475478651491245_);}
	.st29{fill:url(#SVGID_00000055686593587540391560000005455430872088325807_);}
	.st30{fill:url(#SVGID_00000023265744048537085690000009265406207742491048_);}
	.st31{fill:url(#SVGID_00000108269374722156367060000001704084123926280585_);}
	.st32{fill:url(#SVGID_00000034090246713002309210000009202409125532223930_);}
	.st33{fill:url(#SVGID_00000142863391680524517430000007695941480082315680_);}
	.st34{fill:url(#SVGID_00000080170111017430846710000008632366671529075619_);}
	.st35{fill:url(#SVGID_00000054973888928879798580000005475058585678711690_);}
	.st36{fill:url(#SVGID_00000116956937169112995550000010403971128165425838_);}
	.st37{fill:url(#SVGID_00000068635084644294414830000010081884051776219835_);}
	.st38{fill:url(#SVGID_00000162318516659938453100000011673201082741708949_);}
</style>
<g>
	<g>
		<g>
			
				<linearGradient id="SVGID_1_" gradientUnits="userSpaceOnUse" x1="124.4485" y1="42.2811" x2="246.3852" y2="42.2811" gradientTransform="matrix(0.9922 -0.1248 0.1248 0.9922 -34.4565 240.9109)">
				<stop  offset="0" style="stop-color:#4F52FF"/>
				<stop  offset="1" style="stop-color:#4042E2"/>
			</linearGradient>
			<path class="st0" d="M211.9,387.2c0,0-7.9-56.6-33.2-69.8c-25.4-13.2-70.6-18.9-85.2-99.9c-8.5-47.4-12.9-68.1-15.1-77.1
				c-0.9-3.5,1.5-6.6,4.6-6.2c22.5,2.8,96.3,15.9,119.9,69.3C230.8,266.8,211.9,387.2,211.9,387.2z"/>
			<g class="st1">
				<path class="st2" d="M103.5,155.4c27.7,22.2,62.2,62.5,83.8,104c3,6.9,10.9,21.4,17.6,47.8c5.7,22,8.3,45.5,8.2,61.3
					c0,0.9-0.8,1.7-1.6,1.6c-1.5-0.2-1.6-2-1.6-2c-1.2-26.8-7.8-59.7-19.3-88.8c-14.6-35.8-39.6-69.6-64.5-98l-2.6-2.7
					c-19.1-21.3-22.4-21.2-21.2-22.8C102.5,155.1,103.1,155,103.5,155.4z"/>
			</g>
		</g>
		<g>
			<path class="st2" d="M231.8,422c3.8,0.9-42.4-36.3-69.8-104.8c-12.9-32.3-22.4-74.3-45.3-86.2c-18.9-9.8-71.1,10.9-88.1,18.1
				c-2.1,0.9-2.3,3.9-0.2,4.9c10.1,5.2,32,17.9,40.6,33.8c11.3,20.9,35.7,30.3,55.6,29.8c19.9-0.5,31.2,0.9,47.4,29.2
				C188.3,375.2,220.9,419.5,231.8,422z"/>
			<path class="st3" d="M55.7,253c22.8-4.2,49.3,0.7,66,17.1l1.6,1.6c3.7,3.7,25.9,31,40,54.5c0.2,0.3,0.1,0.7-0.2,0.9
				c-0.5,0.3-0.9-0.2-0.9-0.2c-9.1-13.1-21.7-29.4-31.5-41.5c-10.6-13.3-17.9-22.2-36.6-28.1c-20.6-6.2-38.4-3.4-38.4-3.4
				c-0.3,0-0.6-0.2-0.6-0.5C55.3,253.3,55.5,253,55.7,253z"/>
		</g>
	</g>
	<g>
		<g>
			
				<linearGradient id="SVGID_00000011020536684923670150000001810022107758213816_" gradientUnits="userSpaceOnUse" x1="308.5618" y1="420.4991" x2="414.7101" y2="102.0537" gradientTransform="matrix(1 0 0 1 0 200)">
				<stop  offset="0" style="stop-color:#09005D"/>
				<stop  offset="1" style="stop-color:#1A0F91"/>
			</linearGradient>
			<path style="fill:url(#SVGID_00000011020536684923670150000001810022107758213816_);" d="M628.7,618.2c0,4.1-4.4,7.5-9.9,7.5
				H81.6c-5.5,0-9.9-3.3-9.9-7.5l-4.5-231.9c0-4.1,6.5-12.1,18.3-11.5l525-10.2c6.9-0.1,13.4,1.9,18.4,5.5c4.9,3.6,7.6,8.6,7.4,13.7
				L628.7,618.2z"/>
			
				<linearGradient id="SVGID_00000139260513869518590760000011838199549548358830_" gradientUnits="userSpaceOnUse" x1="677.2267" y1="123.1768" x2="-818.6268" y2="946.8693" gradientTransform="matrix(1 0 0 1 0 200)">
				<stop  offset="0" style="stop-color:#FF928E"/>
				<stop  offset="1" style="stop-color:#FE7062"/>
			</linearGradient>
			<path style="fill:url(#SVGID_00000139260513869518590760000011838199549548358830_);" d="M618.9,611.1c0,3.9-4.2,7.1-9.4,7.1
				H94.5c-5.2,0-9.4-3.1-9.4-7.1l-4.2-210.5c0.5-12.7,15.3-17.2,24.2-17l503.2-10.1c4.8-0.1,9.5,1.3,12.9,3.8
				c3.4,2.6,5.3,6.1,5.1,9.7L618.9,611.1z"/>
			<g>
				<path class="st6" d="M90.8,510.7c-0.5,0-0.9-0.3-0.9-0.7l-0.3-17.1c0-0.4,0.4-0.7,0.9-0.7c0.5,0,0.9,0.3,0.9,0.7l0.3,17.1
					C91.7,510.4,91.3,510.7,90.8,510.7L90.8,510.7z"/>
				<path class="st6" d="M89.9,468.9c-0.5,0-0.9-0.3-0.9-0.7l-1.3-65.4c0-4.4,1.9-7.9,5.4-10.5c6.4-4.6,16.5-4.4,16.9-4.4l160.7-3.2
					c0.5,0,0.9,0.3,0.9,0.7c0,0.4-0.4,0.7-0.9,0.7L110,389.3c-0.5,0-9.7-0.2-15.6,4c-3.1,2.3-4.8,5.5-4.8,9.5l1.3,65.4
					C90.8,468.6,90.4,468.9,89.9,468.9L89.9,468.9z"/>
			</g>
			<path class="st7" d="M107.9,599.4c0.6-17.4,0.3-171.5-1-184.8c-1.4-13.3,26.3-15.8,68.6-17.3c42.4-1.5,399.7-7.5,409-7.9
				c20.7-1.3,24.9,22,22.9,72.4c-1.6,37.9-4.1,100.3-5.3,129c-0.4,8.5-9.6,15.3-21,15.3c-86,0.2-415.6,0.9-437.5,1.4
				C118.2,608,107.7,606.3,107.9,599.4z"/>
		</g>
		
			<linearGradient id="SVGID_00000072281411228566825630000004074493014684161158_" gradientUnits="userSpaceOnUse" x1="383.5525" y1="95.9043" x2="354.1193" y2="453.3055" gradientTransform="matrix(1 0 0 1 0 200)">
			<stop  offset="0" style="stop-color:#09005D"/>
			<stop  offset="1" style="stop-color:#1A0F91"/>
		</linearGradient>
		<path style="fill:url(#SVGID_00000072281411228566825630000004074493014684161158_);" d="M658.8,644.9H52.5
			c-7.5,0-13.5-4.6-13.5-10.2l0,0c0-5.6,6.1-10.2,13.5-10.2h606.2c7.5,0,13.5,4.6,13.5,10.2l0,0
			C672.3,640.3,666.2,644.9,658.8,644.9z"/>
	</g>
	<g>
		<path class="st3" d="M564.7,43.1L225,40.9c-11.1-0.1-20.1,9.7-19.6,21.5l23.3,508.3h377.9l21-454L564.7,43.1z"/>
		
			<linearGradient id="SVGID_00000134949974356494597260000016807730228674241464_" gradientUnits="userSpaceOnUse" x1="594.8195" y1="-152.7233" x2="509.9333" y2="-50.0998" gradientTransform="matrix(0.9994 3.430000e-02 -3.430000e-02 0.9994 4.2595 203.0055)">
			<stop  offset="0" style="stop-color:#4F52FF"/>
			<stop  offset="1" style="stop-color:#4042E2"/>
		</linearGradient>
		<path style="fill:url(#SVGID_00000134949974356494597260000016807730228674241464_);" d="M578.8,114.3
			c-11-0.4-19.6-10.4-18.7-22.1l3.7-48.6l64.1,72.5L578.8,114.3z"/>
		<g>
			<g>
				<path class="st10" d="M398.7,140.5c20.8-0.1,100.3-0.8,120.4-1c2.6,0,4.6,3.4,4.5,7.6l0,0c-0.1,4-2.1,7.1-4.5,7.2l-120.3,1.9
					c-2.3,0-4.3-2.8-4.5-6.6l-0.1-1C393.9,144.3,396,140.5,398.7,140.5z"/>
			</g>
			<g>
				<path class="st10" d="M277.6,226.6c47.1,0,227.9,0,273.5,0c5.8,0,10.4,3.8,10.3,8.3l0,0c-0.1,4.4-4.5,7.7-10,7.7l-273.3,1.1
					c-5.3,0-9.7-3.1-10.3-7.3l-0.1-1C267,230.6,271.6,226.6,277.6,226.6z"/>
			</g>
			<g>
				<path class="st10" d="M277.8,308c47.1,0,227.9,0,273.5,0c5.8,0,10.4,3.8,10.3,8.3l0,0c-0.1,4.4-4.5,7.7-10,7.7l-273.3,1.1
					c-5.3,0-9.7-3.1-10.3-7.3l-0.1-1C267.2,312.1,271.7,308,277.8,308z"/>
			</g>
			<g>
				<path class="st10" d="M273,350.9c36.9,0.1,178.2,0.1,213.9,0.2c4.5,0,8.1,3.8,7.9,8.2l0,0c-0.1,4.3-3.7,7.7-7.9,7.7L273.2,368
					c-4.1,0-7.6-3.2-7.9-7.3l-0.1-1C264.7,355,268.3,350.9,273,350.9z"/>
			</g>
			<g>
				<path class="st10" d="M274.8,401.1c47.1,0,227.8,0,273.5,0c5.8,0,10.4,3.8,10.3,8.2l0,0c-0.1,4.3-4.5,7.7-10,7.7l-273.3,1.1
					c-5.3,0-9.7-3.2-10.3-7.3l-0.1-1C264.2,405.2,268.7,401.1,274.8,401.1z"/>
			</g>
			<g class="st11">
				<path class="st10" d="M271.9,438.7c36.9,0.1,178.2,0.1,213.9,0.2c4.5,0,8.1,3.8,7.9,8.2l0,0c-0.1,4.3-3.7,7.7-7.9,7.7L272,455.8
					c-4.1,0-7.6-3.2-7.9-7.3l-0.1-1C263.6,442.7,267.3,438.7,271.9,438.7z"/>
			</g>
			<path class="st12" d="M277.6,488.2c47.1,0,227.9,0,273.5,0c5.8,0,10.4,3.8,10.3,8.2l0,0c-0.1,4.3-4.5,7.7-10,7.7l-273.3,1.1
				c-5.3,0-9.7-3.2-10.3-7.3l-0.1-1C267,492.3,271.6,488.2,277.6,488.2z"/>
			<path class="st13" d="M274.9,529.9c36.4,0,176-0.2,211.2-0.2c4.5,0,8,3.8,7.8,8.2l0,0c-0.1,4.3-3.6,7.7-7.7,7.7L275.1,547
				c-4.1,0-7.5-3.1-7.8-7.3l-0.1-1C266.7,534,270.2,529.9,274.9,529.9z"/>
			<line class="st14" x1="404.6" y1="191.4" x2="543.9" y2="191.4">
			
				<!-- <animate  accumulate="none" additive="replace" attributeName="x2" attributeType="XML" begin="0.1s" calcMode="linear" dur="5s" fill="remove" repeatCount="indefinite" restart="always" values="670; 600; 670">
				</animate> -->
			</line>
			<line class="st15" x1="276.5" y1="280.6" x2="523.5" y2="280.6">
			
				<!-- <animate  accumulate="none" additive="replace" attributeName="x2" attributeType="XML" begin="0.6s" calcMode="linear" dur="8s" fill="remove" repeatCount="indefinite" restart="always" values="650; 550; 650">
				</animate> -->
			</line>
		</g>
		<g class="st16">
			<path class="st6" d="M309.4,154.9L298,191.4h-14.7l37.4-115.8h17.1l37.6,115.8h-15.1l-11.7-36.5H309.4z M345.4,143.3L334.7,110
				c-2.5-7.6-4.1-14.4-5.8-21.2h-0.3c-1.6,6.9-3.5,13.9-5.6,21l-10.7,33.5L345.4,143.3L345.4,143.3z"/>
		</g>
	</g>
	<g>
		<g>
			
				<linearGradient id="SVGID_00000125592069012683562140000001728081808915756965_" gradientUnits="userSpaceOnUse" x1="359.521" y1="141.0105" x2="279.7137" y2="524.369" gradientTransform="matrix(1 0 0 1 0 200)">
				<stop  offset="0" style="stop-color:#4F52FF"/>
				<stop  offset="1" style="stop-color:#4042E2"/>
			</linearGradient>
			<path style="fill:url(#SVGID_00000125592069012683562140000001728081808915756965_);" d="M278.3,657.4c-0.5,0-0.9-0.1-1.3-0.2
				c-1.7-0.7-2.4-2.9-1.7-4.6l68.4-173.3c0.7-1.8,2.7-2.7,4.3-1.8c1.7,0.7,2.4,2.9,1.7,4.6l-68.3,173.3
				C280.8,656.6,279.6,657.4,278.3,657.4z"/>
			
				<linearGradient id="SVGID_00000173141924232291980440000011786506742905135237_" gradientUnits="userSpaceOnUse" x1="367.8334" y1="142.7409" x2="288.0265" y2="526.0983" gradientTransform="matrix(1 0 0 1 0 200)">
				<stop  offset="0" style="stop-color:#4F52FF"/>
				<stop  offset="1" style="stop-color:#4042E2"/>
			</linearGradient>
			<path style="fill:url(#SVGID_00000173141924232291980440000011786506742905135237_);" d="M355.3,657.4c-1.2,0-2.4-0.9-3-2.2
				L284,482c-0.7-1.8,0-3.9,1.7-4.6c1.7-0.7,3.5,0,4.3,1.8l68.3,173.2c0.7,1.8,0,3.9-1.7,4.6C356.2,657.4,355.7,657.4,355.3,657.4z"
				/>
			
				<linearGradient id="SVGID_00000023981926910565483830000005183789097369675169_" gradientUnits="userSpaceOnUse" x1="638.0734" y1="198.9992" x2="558.2662" y2="582.3579" gradientTransform="matrix(1 0 0 1 0 200)">
				<stop  offset="0" style="stop-color:#4F52FF"/>
				<stop  offset="1" style="stop-color:#4042E2"/>
			</linearGradient>
			<path style="fill:url(#SVGID_00000023981926910565483830000005183789097369675169_);" d="M569,657.4c-0.4,0-0.9-0.1-1.3-0.2
				c-1.7-0.7-2.4-2.9-1.7-4.6l68.3-173.3c0.7-1.8,2.7-2.7,4.3-1.8c1.7,0.7,2.4,2.9,1.7,4.6L572,655.3
				C571.4,656.6,570.2,657.4,569,657.4z"/>
			
				<linearGradient id="SVGID_00000155825997738402692880000015390888357915786638_" gradientUnits="userSpaceOnUse" x1="646.3276" y1="200.7175" x2="566.5209" y2="584.0747" gradientTransform="matrix(1 0 0 1 0 200)">
				<stop  offset="0" style="stop-color:#4F52FF"/>
				<stop  offset="1" style="stop-color:#4042E2"/>
			</linearGradient>
			<path style="fill:url(#SVGID_00000155825997738402692880000015390888357915786638_);" d="M645.9,657.4c-1.2,0-2.4-0.9-3-2.2
				L574.6,482c-0.7-1.8,0-3.9,1.7-4.6c1.7-0.7,3.5,0,4.3,1.8l68.3,173.2c0.7,1.8,0,3.9-1.7,4.6C646.7,657.4,646.4,657.4,645.9,657.4
				z"/>
		</g>
		<g>
			
				<linearGradient id="SVGID_00000102504409364175477700000011035239128395077555_" gradientUnits="userSpaceOnUse" x1="461.3798" y1="502.5985" x2="554.4927" y2="335.3758" gradientTransform="matrix(1 0 0 1 0 200)">
				<stop  offset="0" style="stop-color:#4F52FF"/>
				<stop  offset="1" style="stop-color:#4042E2"/>
			</linearGradient>
			
				<rect x="523.2" y="540.6" style="fill:url(#SVGID_00000102504409364175477700000011035239128395077555_);" width="8.1" height="87.3"/>
			
				<linearGradient id="SVGID_00000119808008646145889960000008505437376501326249_" gradientUnits="userSpaceOnUse" x1="480.2735" y1="513.1188" x2="573.3863" y2="345.8961" gradientTransform="matrix(1 0 0 1 0 200)">
				<stop  offset="0" style="stop-color:#4F52FF"/>
				<stop  offset="1" style="stop-color:#4042E2"/>
			</linearGradient>
			<path style="fill:url(#SVGID_00000119808008646145889960000008505437376501326249_);" d="M562.5,629.7h-70.7v-0.4
				c0-2.7,2.2-4.9,4.9-4.9h60.6C560.2,624.3,562.5,626.8,562.5,629.7z"/>
			
				<linearGradient id="SVGID_00000051385111083410435120000016586414589212805006_" gradientUnits="userSpaceOnUse" x1="440.8694" y1="491.1782" x2="533.9824" y2="323.9557" gradientTransform="matrix(1 0 0 1 0 200)">
				<stop  offset="0" style="stop-color:#4F52FF"/>
				<stop  offset="1" style="stop-color:#4042E2"/>
			</linearGradient>
			<path style="fill:url(#SVGID_00000051385111083410435120000016586414589212805006_);" d="M573.1,537.6c0,4.7-3.9,8.7-8.7,8.7
				h-71.5c-4.7,0-8.7-3.9-8.7-8.7v-7.9c0-4.7,3.9-8.7,8.7-8.7h71.5c4.7,0,8.7,3.9,8.7,8.7V537.6z"/>
		</g>
		<g>
			
				<linearGradient id="SVGID_00000074417859266916010280000016289929924988591748_" gradientUnits="userSpaceOnUse" x1="500.41" y1="462.5807" x2="472.8561" y2="351.4156" gradientTransform="matrix(1 0 0 1 0 200)">
				<stop  offset="0" style="stop-color:#FEBBBA"/>
				<stop  offset="1" style="stop-color:#FF928E"/>
			</linearGradient>
			<path style="fill:url(#SVGID_00000074417859266916010280000016289929924988591748_);" d="M467.7,482.4c0,0-12,1.8-25.5,10.9
				c-2.2,1.5-3.3,3.9-2.9,6.4c1.6,12.8,8.3,54.2,30.1,94.6c1.2,2.2,1.5,4.6,1,7l-3.8,17.7l-7,6.7h18.2l12.1-32.8l-5.2-1.6
				c-4-1.2-6.8-5-6.8-9.1l-0.6-35.1c0.5-15.7-9.6-26.5-9.6-26.5l29-1.5L467.7,482.4z"/>
			
				<linearGradient id="SVGID_00000016036001927303279250000006318324621976059269_" gradientUnits="userSpaceOnUse" x1="474.2607" y1="391.4713" x2="465.8178" y2="520.9285" gradientTransform="matrix(1 0 0 1 0 200)">
				<stop  offset="0" style="stop-color:#4F52FF"/>
				<stop  offset="1" style="stop-color:#4042E2"/>
			</linearGradient>
			<path style="fill:url(#SVGID_00000016036001927303279250000006318324621976059269_);" d="M452.4,628.8c-1.7,2.2,17.9,5,27.7,0.2
				c0,0,13.6-23.7,13.6-36c0,0-1.1-2.4-9.1-1.9c0,0-4.6,28.1-9.5,31.2c-4.9,3.2-13.5,0.4-13.5,0.4S454.8,625.7,452.4,628.8z"/>
			
				<linearGradient id="SVGID_00000109740369496940105500000003932476058028871095_" gradientUnits="userSpaceOnUse" x1="442.6186" y1="354.8153" x2="620.2923" y2="263.6031" gradientTransform="matrix(1 0 0 1 0 200)">
				<stop  offset="0" style="stop-color:#FEBBBA"/>
				<stop  offset="1" style="stop-color:#FF928E"/>
			</linearGradient>
			<path style="fill:url(#SVGID_00000109740369496940105500000003932476058028871095_);" d="M492.8,521.1
				c-0.1-0.2-31.2-3.8-31.2-3.8s1,9.5-2.2,22.5c-3.2,13-48.8,69.4-48.8,69.4l4.7,15.2c-14.8,5.1-29.4,6-43.7,2.7l29.6-17.9
				c0,0,27.7-94.6,44.7-111.5l31.2-10.8L492.8,521.1z"/>
			
				<linearGradient id="SVGID_00000150823329811855343950000011302625678950898362_" gradientUnits="userSpaceOnUse" x1="414.1561" y1="294.7722" x2="549.7999" y2="294.7722" gradientTransform="matrix(1 0 0 1 0 200)">
				<stop  offset="0" style="stop-color:#09005D"/>
				<stop  offset="1" style="stop-color:#1A0F91"/>
			</linearGradient>
			<path style="fill:url(#SVGID_00000150823329811855343950000011302625678950898362_);" d="M562.5,466c0,0,18,26.6,19.4,38.7
				c1.5,12.1-4.9,17.1-23.7,17.9c-18.8,0.9-69,0.9-69,0.9l-42.8-36.6c0,0,31.2-11.2,39.4-14.3C493.9,469.6,562.5,466,562.5,466z"/>
			
				<linearGradient id="SVGID_00000122683168188449004890000003744698143276620420_" gradientUnits="userSpaceOnUse" x1="392.8137" y1="386.1597" x2="384.3711" y2="515.6166" gradientTransform="matrix(1 0 0 1 0 200)">
				<stop  offset="0" style="stop-color:#4F52FF"/>
				<stop  offset="1" style="stop-color:#4042E2"/>
			</linearGradient>
			<path style="fill:url(#SVGID_00000122683168188449004890000003744698143276620420_);" d="M413.6,619.2c0,0,5.1,5,1.7,10.6
				c0,0-40.8,7.3-51.9,3.9c0,0,2.3-5.2,14.8-11.2l-1,0.7c-1.2,0.9-0.5,2.8,1,2.7C386.4,625.4,403.4,624,413.6,619.2z"/>
		</g>
		<g>
			
				<linearGradient id="SVGID_00000040571246716112367310000002811584767863875740_" gradientUnits="userSpaceOnUse" x1="471.8635" y1="89.5904" x2="590.8895" y2="194.4619" gradientTransform="matrix(1 0 0 1 0 200)">
				<stop  offset="0" style="stop-color:#09005D"/>
				<stop  offset="1" style="stop-color:#1A0F91"/>
			</linearGradient>
			<path style="fill:url(#SVGID_00000040571246716112367310000002811584767863875740_);" d="M501.6,310c2.8-0.5,13.1-1.7,14.8,4.5
				c0.2,0.9,1.2,1.1,1.8,0.5c3.3-2.9,10.9-8.4,19.3-4.5c7.4,3.4,6.7,10.4,5.5,14.8c-0.2,1.1,0.9,1.9,1.7,1.3
				c6.4-4.4,21.4-12.1,30.9,0.7c8.9,11.9,1.6,20.3-3.3,24.1c-0.9,0.6-0.5,1.9,0.6,2.1c3.5,0.4,8.5,2.3,10.7,10
				c3.5,11.9-18.3,21.9-20.9,23c-0.1,0.1-0.4,0.1-0.5,0.1l-44.2-2.3c-0.4,0-0.6-0.2-0.9-0.5L489.9,347c-0.2-0.2-0.2-0.7-0.2-1
				l10.8-35.2C500.8,310.3,501.1,310,501.6,310z"/>
			
				<linearGradient id="SVGID_00000000185239045468271290000010285663997827336588_" gradientUnits="userSpaceOnUse" x1="339.595" y1="483.8113" x2="533.4213" y2="212.075" gradientTransform="matrix(1 0 0 1 0 200)">
				<stop  offset="0" style="stop-color:#FF928E"/>
				<stop  offset="1" style="stop-color:#FE7062"/>
			</linearGradient>
			<path style="fill:url(#SVGID_00000000185239045468271290000010285663997827336588_);" d="M514.2,462.5c0,0-20.9-19.8-31.1-33
				c-5.6-7-7.3-16.5-4.7-25.1c4.7-15.8,13-32.2,13.7-34.7c1.2-3.9,24.5-3.8,24.5-3.8s46,29.9,64.1,80.4l-20.3,6.3
				c0,0-12-20.2-23.9-33c0,0,20.5,27.1,21.3,38.3L514.2,462.5z"/>
			
				<linearGradient id="SVGID_00000067215824442198575920000018347047727373123982_" gradientUnits="userSpaceOnUse" x1="507.8112" y1="191.7363" x2="501.7526" y2="152.8602" gradientTransform="matrix(1 0 0 1 0 200)">
				<stop  offset="0" style="stop-color:#FEBBBA"/>
				<stop  offset="1" style="stop-color:#FF928E"/>
			</linearGradient>
			<path style="fill:url(#SVGID_00000067215824442198575920000018347047727373123982_);" d="M489.3,347.9c0.2,0.9,6.3,21,6.8,21.5
				c0.5,0.4,13.4,1.1,19.4-3l-10.3-21.6L489.3,347.9z"/>
			<g>
				
					<linearGradient id="SVGID_00000162349971457829250060000008669176957383385254_" gradientUnits="userSpaceOnUse" x1="-952.6047" y1="1834.8019" x2="-899.0854" y2="1871.1548" gradientTransform="matrix(0.7443 -0.6678 0.6678 0.7443 -48.677 -1660.894)">
					<stop  offset="0" style="stop-color:#FEBBBA"/>
					<stop  offset="1" style="stop-color:#FF928E"/>
				</linearGradient>
				<path style="fill:url(#SVGID_00000162349971457829250060000008669176957383385254_);" d="M471.9,319.3c0,0-5.1,10.8,0,27.7
					c5.1,16.9,14.1,18.6,20,14.7s13.6-11.1,15.1-26.1C508.5,320.5,479,305.7,471.9,319.3z"/>
				
					<linearGradient id="SVGID_00000041278127824282746770000002230960253116593320_" gradientUnits="userSpaceOnUse" x1="464.3684" y1="98.0973" x2="583.3939" y2="202.9685" gradientTransform="matrix(1 0 0 1 0 200)">
					<stop  offset="0" style="stop-color:#09005D"/>
					<stop  offset="1" style="stop-color:#1A0F91"/>
				</linearGradient>
				<path style="fill:url(#SVGID_00000041278127824282746770000002230960253116593320_);" d="M495.7,334.1c0,0-9.4-22.8-24.9-9.4
					l-1.3,5.8c0,0-14.3-4.6-9.1-17.5c5.1-12.9,22.1-23.1,37.3-14.2c15.2,9,20.5,21,19.3,32.8c-1.2,11.9-10,7.5-10,7.5
					s-1.5-8.7-5.6-10.4c-4.1-1.7-4.3,5-4.3,5L495.7,334.1z"/>
				
					<linearGradient id="SVGID_00000130609069962940058530000007889289475858875565_" gradientUnits="userSpaceOnUse" x1="-949.4209" y1="1830.1145" x2="-895.9016" y2="1866.4672" gradientTransform="matrix(0.7443 -0.6678 0.6678 0.7443 -48.677 -1660.894)">
					<stop  offset="0" style="stop-color:#FEBBBA"/>
					<stop  offset="1" style="stop-color:#FF928E"/>
				</linearGradient>
				<path style="fill:url(#SVGID_00000130609069962940058530000007889289475858875565_);" d="M499.3,334.6c0,0-4.9-11.8,2.4-11.9
					c7.3-0.1,4,11.3,2.4,15.4L499.3,334.6z"/>
			</g>
			
				<linearGradient id="SVGID_00000134930179709054050760000011561523016927338667_" gradientUnits="userSpaceOnUse" x1="542.5555" y1="259.0049" x2="656.3099" y2="259.0049" gradientTransform="matrix(1 0 0 1 0 200)">
				<stop  offset="0" style="stop-color:#FEBBBA"/>
				<stop  offset="1" style="stop-color:#FF928E"/>
			</linearGradient>
			<path style="fill:url(#SVGID_00000134930179709054050760000011561523016927338667_);" d="M471.7,464l15.3-14.8l21.3,9
				c0,0,21.1,3.3,33.2,0s12-3.3,12-3.3l27.3-8.5l4.3,12.1c1.1,3,0,6.4-2.7,8.4c-2.3,1.7-5.1,3.5-6.9,4.3c-3.6,1.6-88.6-1.1-88.6-1.1
				L471.7,464z"/>
		</g>
		<g>
			
				<linearGradient id="SVGID_00000075163033754459431030000004757431855735657882_" gradientUnits="userSpaceOnUse" x1="494.7245" y1="393.7675" x2="423.0953" y2="413.3992" gradientTransform="matrix(0.9988 -4.940000e-02 4.940000e-02 0.9988 31.1072 78.4026)">
				<stop  offset="0" style="stop-color:#09005D"/>
				<stop  offset="1" style="stop-color:#1A0F91"/>
			</linearGradient>
			<path style="fill:url(#SVGID_00000075163033754459431030000004757431855735657882_);" d="M529.6,470.9c-0.1,0-0.1,0-0.2,0
				l-88.9-0.1c-2.2,0-4-1.8-4-4c0-2.2,1.8-4,4-4l88.9,0.1c2.2,0,4,1.8,4,4C533.4,469.1,531.7,470.9,529.6,470.9z"/>
			
				<linearGradient id="SVGID_00000110441291436531177040000014463922508394071424_" gradientUnits="userSpaceOnUse" x1="447.8358" y1="201.1278" x2="397.0116" y2="254.8455" gradientTransform="matrix(1 0 0 1 0 200)">
				<stop  offset="0" style="stop-color:#09005D"/>
				<stop  offset="1" style="stop-color:#1A0F91"/>
			</linearGradient>
			<path style="fill:url(#SVGID_00000110441291436531177040000014463922508394071424_);" d="M360.7,390.2h74.1
				c5.5,0,10.4,3.2,12.8,8.1l34.3,72.6h-92.1c-3.5,0-6.7-2.2-8-5.5l-26.6-67.2C353.6,394.5,356.4,390.2,360.7,390.2z"/>
			<path class="st3" d="M412.8,427.4c1.6,5,0.4,9.8-2.7,10.8c-3,1-6.8-2.3-8.5-7.3c-1.6-5-0.4-9.8,2.7-10.8
				C407.4,419.3,411.2,422.4,412.8,427.4z"/>
		</g>
		
			<linearGradient id="SVGID_00000077303894236664358950000001178090979904011920_" gradientUnits="userSpaceOnUse" x1="444.8665" y1="295.9846" x2="365.0595" y2="679.3426" gradientTransform="matrix(1 0 0 1 0 200)">
			<stop  offset="0" style="stop-color:#4F52FF"/>
			<stop  offset="1" style="stop-color:#4042E2"/>
		</linearGradient>
		<path style="fill:url(#SVGID_00000077303894236664358950000001178090979904011920_);" d="M653.9,474.2c0.2-1-0.1-2.1-0.9-2.8
			c-0.7-0.7-1.8-1.2-3-1.2H249.6c-1.6,0-3,0.7-3.9,1.8c-0.9,1.1-1,2.6-0.2,3.8l4.4,8.1c1,1.8,3.2,3,5.5,3h392c2.2,0,4.1-1.3,4.5-3.3
			L653.9,474.2z"/>
	</g>
</g>
</svg>
