<?xml version="1.0" encoding="utf-8"?>
<!-- Generator: Adobe Illustrator 25.4.1, SVG Export Plug-In . SVG Version: 6.00 Build 0)  -->
<svg version="1.1" xmlns="http://www.w3.org/2000/svg" xmlns:xlink="http://www.w3.org/1999/xlink" x="0px" y="0px"
	 viewBox="0 0 700 700" style="enable-background:new 0 0 700 700;" xml:space="preserve">
<style type="text/css">
	.st0{fill:url(#SVGID_1_);}
	.st1{fill:url(#SVGID_00000036933733396392825370000005816386549806008755_);}
	.st2{fill:#91B3FA;}
	.st3{fill:#BDD0FB;}
	.st4{opacity:0.51;}
	.st5{fill:#FFFFFF;}
	.st6{opacity:0.51;fill:#FFFFFF;}
	.st7{opacity:0.82;}
	.st8{opacity:0.75;}
	.st9{fill:url(#SVGID_00000101077643971527777030000000487504516201816214_);}
	.st10{fill:url(#SVGID_00000084507467361009678540000015879958093841413534_);}
	.st11{fill:url(#SVGID_00000090267404508469072960000001516912621529873564_);}
	.st12{fill:url(#SVGID_00000128476291927519188250000001048067075592318628_);}
	.st13{fill:url(#SVGID_00000113326993017405355390000008251381755284451514_);}
	.st14{fill:url(#SVGID_00000083047891061227925760000012743407100711695757_);}
	.st15{fill:url(#SVGID_00000078756759535752863400000003140214623134134697_);}
	.st16{fill:url(#SVGID_00000115476644209599018340000013069114199952912011_);}
	.st17{fill:url(#SVGID_00000003813406553628897100000008392854263773413306_);}
	.st18{fill:url(#SVGID_00000157997449780713570150000002079793356273720234_);}
	.st19{fill:url(#SVGID_00000041259359715816007290000001737236423788956305_);}
	.st20{fill:url(#SVGID_00000074427392316540122780000005832651558460370360_);}
	.st21{fill:url(#SVGID_00000144338213781321889540000017685151243111210624_);}
	.st22{fill:#7D97F4;}
	.st23{fill:url(#SVGID_00000081609246696319139270000017760462539165594289_);}
	.st24{fill:url(#SVGID_00000182491232358080595860000014463823028001934254_);}
	.st25{fill:url(#SVGID_00000091000473411541767770000006799932635611240873_);}
	.st26{fill:url(#SVGID_00000093159893846771709150000015313961530360401035_);}
	.st27{fill:url(#SVGID_00000060011265587549172300000012257651012930707882_);}
	.st28{fill:#FFCB4C;}
	.st29{fill:#65471B;}
	.st30{fill:#F19020;}
</style>
<g id="Background">
</g>
<g id="Illustration">
	<g>
		<linearGradient id="SVGID_1_" gradientUnits="userSpaceOnUse" x1="537.9573" y1="578.7227" x2="184.8" y2="197.537">
			<stop  offset="0" style="stop-color:#DAE3FE"/>
			<stop  offset="1" style="stop-color:#E9EFFD"/>
		</linearGradient>
		<path class="st0" d="M489,361.4c-48.6,113.3-176.8,162-277.3,153.7c-27.4-2.3-82.6-6.8-125.7-47.5c-82.8-78.1-70-241.4,9.2-337.5
			c10.2-12.4,80.8-95.3,190.9-94.2c80.6,0.8,137.1,46.2,144,51.9c8.7,7.1,27.8,24.1,45.1,51.1C515.8,202.2,519.3,290.6,489,361.4z"
			/>
		<g>
			
				<linearGradient id="SVGID_00000103233137824336667140000014180011727478420105_" gradientUnits="userSpaceOnUse" x1="-2707.8154" y1="398.1985" x2="-2583.5312" y2="25.3448" gradientTransform="matrix(-1 0 0 1 -2284.4265 0)">
				<stop  offset="0" style="stop-color:#09005D"/>
				<stop  offset="1" style="stop-color:#1A0F91"/>
			</linearGradient>
			<path style="fill:url(#SVGID_00000103233137824336667140000014180011727478420105_);" d="M83.1,405.9c0,5.2,4.7,9.4,10.4,9.4
				h563.1c5.7,0,10.4-4.2,10.4-9.4l4.7-291.4c0-5.2-6.7-15.2-19.1-14.5L102.3,87.3c-7.2-0.2-14.1,2.3-19.2,6.9
				c-5.1,4.6-7.9,10.8-7.7,17.3L83.1,405.9z"/>
			<path class="st2" d="M93.4,396.9c0,4.9,4.4,8.9,9.9,8.9H643c5.4,0,9.9-4,9.9-8.9l4.4-264.5c-0.5-15.9-16-21.6-25.4-21.3
				L104.5,98.4c-5-0.1-9.9,1.6-13.5,4.8c-3.6,3.2-5.5,7.6-5.4,12.2L93.4,396.9z"/>
			<path class="st3" d="M334.6,370.7H136.2c-7.3,0-13.2-5.2-13.5-11.8l-7.2-216c-0.2-7,6.1-12.7,13.8-12.5l205.6,4.8
				c7.3,0.2,13.1,5.5,13.1,12.1v211.2C348.1,365.3,342.1,370.7,334.6,370.7z"/>
			<path class="st3" d="M591.9,370.7H405.5c-10.5,0-19-7.7-19-17.1V152.7c0-9.5,8.5-17.1,19-17.1h193.6c10.7,0,19.4,8,19,17.7
				l-7.3,200.9C610.5,363.4,602.1,370.7,591.9,370.7z"/>
			<g class="st4">
				<path class="st5" d="M332.2,186H133.3c-1,0-1.7-0.8-1.7-1.7v-8.6c0-1,0.8-1.7,1.7-1.7h198.9c1,0,1.7,0.8,1.7,1.7v8.6
					C333.9,185.2,333.2,186,332.2,186z"/>
				<path class="st5" d="M330.9,210.5H132c-1,0-1.7-0.8-1.7-1.7v-8.6c0-1,0.8-1.7,1.7-1.7h198.9c1,0,1.7,0.8,1.7,1.7v8.6
					C332.6,209.8,331.8,210.5,330.9,210.5z"/>
				<path class="st5" d="M330.5,238H131.6c-1,0-1.7-0.8-1.7-1.7v-8.6c0-1,0.8-1.7,1.7-1.7h198.9c1,0,1.7,0.8,1.7,1.7v8.6
					C332.2,237.2,331.4,238,330.5,238z"/>
				<path class="st5" d="M329.2,262.6H130.3c-1,0-1.7-0.8-1.7-1.7v-8.6c0-1,0.8-1.7,1.7-1.7h198.9c1,0,1.7,0.8,1.7,1.7v8.6
					C330.9,261.8,330.1,262.6,329.2,262.6z"/>
			</g>
			<g>
				<path class="st6" d="M600.9,187.2H402c-1,0-1.7-0.8-1.7-1.7v-8.6c0-1,0.8-1.7,1.7-1.7h198.9c1,0,1.7,0.8,1.7,1.7v8.6
					C602.7,186.4,601.9,187.2,600.9,187.2z"/>
				<path class="st6" d="M599.6,211.8H400.7c-1,0-1.7-0.8-1.7-1.7v-8.6c0-1,0.8-1.7,1.7-1.7h198.9c1,0,1.7,0.8,1.7,1.7v8.6
					C601.4,211,600.6,211.8,599.6,211.8z"/>
				<path class="st6" d="M599.2,239.2H400.3c-1,0-1.7-0.8-1.7-1.7v-8.6c0-1,0.8-1.7,1.7-1.7h198.9c1,0,1.7,0.8,1.7,1.7v8.6
					C600.9,238.4,600.2,239.2,599.2,239.2z"/>
				<path class="st6" d="M597.9,263.8H399c-1,0-1.7-0.8-1.7-1.7v-8.6c0-1,0.8-1.7,1.7-1.7h198.9c1,0,1.7,0.8,1.7,1.7v8.6
					C599.6,263,598.8,263.8,597.9,263.8z"/>
			</g>
			<g class="st7">
				<path class="st5" d="M190.6,158.9h-61.1c-0.5,0-1-0.4-1-1v-14c0-0.5,0.4-1,1-1h61.1c0.5,0,1,0.4,1,1v14
					C191.6,158.4,191.1,158.9,190.6,158.9z"/>
				<path class="st5" d="M258.5,158.9h-61.1c-0.5,0-1-0.4-1-1v-14c0-0.5,0.4-1,1-1h61.1c0.5,0,1,0.4,1,1v14
					C259.5,158.4,259,158.9,258.5,158.9z"/>
				<path class="st5" d="M326.6,158.9h-61.1c-0.5,0-1-0.4-1-1v-14c0-0.5,0.4-1,1-1h61.1c0.5,0,1,0.4,1,1v14
					C327.6,158.4,327.2,158.9,326.6,158.9z"/>
			</g>
			<g class="st8">
				<path class="st5" d="M462.6,158.9h-61.1c-0.5,0-1-0.4-1-1v-14c0-0.5,0.4-1,1-1h61.1c0.5,0,1,0.4,1,1v14
					C463.6,158.4,463.2,158.9,462.6,158.9z"/>
				<path class="st5" d="M530.5,158.9h-61.1c-0.5,0-1-0.4-1-1v-14c0-0.5,0.4-1,1-1h61.1c0.5,0,1,0.4,1,1v14
					C531.5,158.4,531.1,158.9,530.5,158.9z"/>
				<path class="st5" d="M598.6,158.9h-61.1c-0.5,0-1-0.4-1-1v-14c0-0.5,0.4-1,1-1h61.1c0.5,0,1,0.4,1,1v14
					C599.6,158.4,599.2,158.9,598.6,158.9z"/>
			</g>
		</g>
		<g>
			<g>
				<g>
					<path class="st2" d="M555.8,642.7l-475.2,0v-95.1l475.2,0C545.7,547.6,545.7,642.7,555.8,642.7z"/>
					
						<linearGradient id="SVGID_00000157271245610183475930000016799732488941121185_" gradientUnits="userSpaceOnUse" x1="371.9295" y1="1245.2117" x2="336.0245" y2="882.5706">
						<stop  offset="0" style="stop-color:#4F52FF"/>
						<stop  offset="1" style="stop-color:#4042E2"/>
					</linearGradient>
					<path style="fill:url(#SVGID_00000157271245610183475930000016799732488941121185_);" d="M80.6,618.9v-43.5
						c0-15.3,9.4-27.8,21-27.8h452.2c9.1,0,16.5-7.4,16.5-16.5v0c0-2.8-2.2-5-5-5H71.1c-11.3,0-29.3,17.8-29.3,39.8v60.8
						c0,20.7,17.5,37.5,28.2,37.5h492.8c4.2,0,7.6-3.4,7.6-7.6c0-7.7-6.2-13.9-13.9-13.9H98.6C88.7,642.7,80.6,632,80.6,618.9z"/>
				</g>
				<path class="st5" d="M539.4,568.3H93.8c-0.7,0-1.2-0.5-1.2-1.2s0.5-1.2,1.2-1.2h445.5c0.7,0,1.2,0.5,1.2,1.2
					S540,568.3,539.4,568.3z"/>
				<path class="st5" d="M539.4,582.4H93.8c-0.7,0-1.2-0.5-1.2-1.2c0-0.7,0.5-1.2,1.2-1.2h445.5c0.7,0,1.2,0.5,1.2,1.2
					C540.6,581.9,540,582.4,539.4,582.4z"/>
				<path class="st5" d="M539.4,596.5H93.8c-0.7,0-1.2-0.5-1.2-1.2c0-0.7,0.5-1.2,1.2-1.2h445.5c0.7,0,1.2,0.5,1.2,1.2
					C540.6,596,540,596.5,539.4,596.5z"/>
				<path class="st5" d="M539.4,610.7H93.8c-0.7,0-1.2-0.5-1.2-1.2c0-0.7,0.5-1.2,1.2-1.2h445.5c0.7,0,1.2,0.5,1.2,1.2
					C540.6,610.1,540,610.7,539.4,610.7z"/>
				<path class="st5" d="M539.4,624.8H93.8c-0.7,0-1.2-0.5-1.2-1.2c0-0.7,0.5-1.2,1.2-1.2h445.5c0.7,0,1.2,0.5,1.2,1.2
					C540.6,624.2,540,624.8,539.4,624.8z"/>
			</g>
			<g>
				
					<linearGradient id="SVGID_00000011732348632007958020000014161975660712830853_" gradientUnits="userSpaceOnUse" x1="293.9973" y1="339.2685" x2="301.2005" y2="-316.2143">
					<stop  offset="0" style="stop-color:#4F52FF"/>
					<stop  offset="1" style="stop-color:#4042E2"/>
				</linearGradient>
				<path style="fill:url(#SVGID_00000011732348632007958020000014161975660712830853_);" d="M512.6,525.7H72.5
					c-4.4,0-7.9-3.5-7.9-7.9v-94.2c0-4.4,3.5-7.9,7.9-7.9h440.2c4.4,0,7.9,3.5,7.9,7.9v94.2C520.5,522.1,517,525.7,512.6,525.7z"/>
				<path class="st2" d="M166.8,513h-47.9c-1.6,0-2.9-1.3-2.9-2.9v-79.1c0-1.6,1.3-2.9,2.9-2.9h47.9c1.6,0,2.9,1.3,2.9,2.9v79.1
					C169.7,511.7,168.4,513,166.8,513z"/>
				<path class="st2" d="M196.2,513H179c-0.8,0-1.4-0.6-1.4-1.4v-81.9c0-0.8,0.6-1.4,1.4-1.4h17.2c0.8,0,1.4,0.6,1.4,1.4v81.9
					C197.6,512.4,197,513,196.2,513z"/>
			</g>
		</g>
		<g>
			
				<linearGradient id="SVGID_00000054237880596231089610000004409058052315571090_" gradientUnits="userSpaceOnUse" x1="-3000.0793" y1="-897.1611" x2="-2867.1213" y2="-713.7046" gradientTransform="matrix(-0.893 -0.4501 -0.4501 0.893 -2813.3413 -266.3646)">
				<stop  offset="0" style="stop-color:#09005D"/>
				<stop  offset="1" style="stop-color:#1A0F91"/>
			</linearGradient>
			<path style="fill:url(#SVGID_00000054237880596231089610000004409058052315571090_);" d="M212.9,267c0,0,0,4.9-16,4.6
				c-8.9-0.2-25.4-2.1-34.7,11.8c-4.8,7.2-13.6,10.5-21.8,7.8c-20.5-6.7-54.8-11.6-76.1,19.1c-16.3,23.4-8.3,39.4,3.6,49.5
				c8.7,7.4,10.4,20.4,3.4,29.4c-6.8,8.6-9.5,21.2,2.7,38.3c27.3,38.4,97.9-9,97.9-9l65.9-111.7L212.9,267z"/>
			<path class="st5" d="M80.6,347.6c-0.8,0-1.6-0.8-2.2-1.7c-5.8-10.1-4.6-24.1,3.1-34.1c4.6-6,10.8-10.1,17.4-11.5
				c4.7-1,9.5-0.6,14.1-0.1c7.6,0.8,15.3,2,22.9,3.6c0.6,0.1,1.2,0.3,1.9,0.4c4.4,0.9,8.9,1.9,13.5,1.9c0,0,0.1,0,0.1,0
				c5.8,0,10.8-1.7,14.2-4.7c2.1-1.9,3.7-4.4,5.3-6.8c1.9-3,3.8-6,6.8-8c0.1-0.1,0.2,0,0.3,0c0.1,0.1,0,0.2,0,0.3
				c-2.9,1.9-4.8,5-6.7,7.9c-1.6,2.4-3.2,4.9-5.3,6.9c-3.5,3.1-8.6,4.8-14.5,4.8c0,0-0.1,0-0.1,0c-4.6,0-9.1-1-13.5-1.9
				c-0.6-0.1-1.2-0.3-1.9-0.4c-7.5-1.5-15.2-2.7-22.8-3.5c-4.5-0.5-9.3-0.9-13.9,0.1C92.4,302,86.3,306,81.8,312
				c-7.6,9.9-8.8,23.8-3,33.7c0.4,0.7,1.4,1.9,2.3,1.4c0.1,0,0.2,0,0.2,0.1c0,0.1,0,0.2-0.1,0.2C81,347.5,80.8,347.6,80.6,347.6z"/>
			<path class="st5" d="M80.5,342.8c-0.1,0-0.2-0.1-0.2-0.1c-1.3-6.6-0.7-12.8,1.5-17.9c2.6-5.9,7.7-10.3,13.4-11.4
				c0.1,0,0.2,0,0.2,0.1c0,0.1,0,0.2-0.1,0.2c-5.6,1.1-10.6,5.4-13.1,11.2c-2.2,5-2.7,11.1-1.5,17.7
				C80.7,342.7,80.7,342.8,80.5,342.8C80.6,342.8,80.6,342.8,80.5,342.8z"/>
			
				<linearGradient id="SVGID_00000044888310242701604830000005053879372045287302_" gradientUnits="userSpaceOnUse" x1="19043.0098" y1="489.6721" x2="18905.043" y2="568.4218" gradientTransform="matrix(1 0 0 1 -18628.4668 0)">
				<stop  offset="0" style="stop-color:#FEBBBA"/>
				<stop  offset="1" style="stop-color:#FF928E"/>
			</linearGradient>
			<path style="fill:url(#SVGID_00000044888310242701604830000005053879372045287302_);" d="M393.6,618.1
				c-0.2-0.1-87.7-153.3-99.5-167.7c-2-2.4-5.1-3.7-8.2-3.3l-24.4,2.9L232.8,512l47.8-27.8c-4.7,32.7,56.7,81.3,77.7,99.1
				c2.1,1.8,2.3,5,0.4,7l-8.4,8.8c13.8,14,29.7,23,47.7,27.1L393.6,618.1z"/>
			
				<linearGradient id="SVGID_00000058576563224467238710000007066086011844138649_" gradientUnits="userSpaceOnUse" x1="-13276.5498" y1="-4144.6748" x2="-13149.5381" y2="-4381.1807" gradientTransform="matrix(-0.8974 -0.4412 -0.4412 0.8974 -13268.1992 1246.1323)">
				<stop  offset="0" style="stop-color:#09005D"/>
				<stop  offset="1" style="stop-color:#1A0F91"/>
			</linearGradient>
			<path style="fill:url(#SVGID_00000058576563224467238710000007066086011844138649_);" d="M355.2,594.3c0,0-5.4,1.7-7.2,6.5
				c-0.9,2.3,0.1,4.9,2.1,6.3c8.8,6.3,38,26.8,51.4,30.8c1.1,0.3,2.2-0.7,1.9-1.8c-0.7-3.1-2.9-9.4-10.1-18.5l0.6,1.3
				c0.8,1.7-1,3.4-2.6,2.5C382.3,616.3,364,605.2,355.2,594.3z"/>
			
				<linearGradient id="SVGID_00000077310401452925699410000013970404573020891275_" gradientUnits="userSpaceOnUse" x1="19029.6641" y1="509.3114" x2="19501.7207" y2="213.7967" gradientTransform="matrix(1 0 0 1 -18628.4668 0)">
				<stop  offset="0" style="stop-color:#FEBBBA"/>
				<stop  offset="1" style="stop-color:#FF928E"/>
			</linearGradient>
			<path style="fill:url(#SVGID_00000077310401452925699410000013970404573020891275_);" d="M359.5,655.7
				c-0.1-0.1-13.3-31.7-13.4-31.8c-12-73.3-41.4-136.1-50.1-152.6c-1.5-2.8-4.2-4.6-7.3-4.9l-24.5-2.1l-40.7,55l52.5-17.6
				c-11.3,31.1,39,91.1,56.1,112.8c1.7,2.2,1.2,5.4-1.1,7l-10,6.9c10.7,16.5,24.5,28.5,41.2,36.2L359.5,655.7z"/>
			
				<linearGradient id="SVGID_00000175310872753649741730000005723958360896552584_" gradientUnits="userSpaceOnUse" x1="-13232.7412" y1="-3507.8428" x2="-13105.7295" y2="-3744.3484" gradientTransform="matrix(-0.7895 -0.6137 -0.6137 0.7895 -13362.6504 1815.1975)">
				<stop  offset="0" style="stop-color:#09005D"/>
				<stop  offset="1" style="stop-color:#1A0F91"/>
			</linearGradient>
			<path style="fill:url(#SVGID_00000175310872753649741730000005723958360896552584_);" d="M326.7,624.7c0,0-5.6,0.6-8.4,4.9
				c-1.3,2.1-0.9,4.8,0.7,6.6c7.4,8,31.8,33.9,44.1,40.5c1,0.5,2.2-0.2,2.2-1.4c0-3.2-1-9.8-6.2-20.2l0.4,1.4c0.5,1.8-1.6,3.1-3,1.9
				C348.8,651.7,333.1,637.1,326.7,624.7z"/>
			<g>
				
					<linearGradient id="SVGID_00000107570078102695833970000013903447804542767502_" gradientUnits="userSpaceOnUse" x1="11050.9756" y1="403.7005" x2="10881.0391" y2="710.8936" gradientTransform="matrix(1 0 0 1 -10796.7676 0)">
					<stop  offset="0" style="stop-color:#09005D"/>
					<stop  offset="1" style="stop-color:#1A0F91"/>
				</linearGradient>
				<path style="fill:url(#SVGID_00000107570078102695833970000013903447804542767502_);" d="M149.4,452.7c0,0-22.2,33-24,48
					c-1.8,15,6.1,20.2,29.3,22.2c69.1,5.7,103.1-15,103.1-15c4.7-30.1,8.1-37.8,47.5-54.2c0,0-49.9,4-59.9,0.1
					C235.4,449.9,149.4,452.7,149.4,452.7z"/>
			</g>
			<g>
				
					<linearGradient id="SVGID_00000157296790515226948230000011546815707122673812_" gradientUnits="userSpaceOnUse" x1="513.7734" y1="224.132" x2="338.5833" y2="318.2966">
					<stop  offset="0" style="stop-color:#FF928E"/>
					<stop  offset="1" style="stop-color:#FE7062"/>
				</linearGradient>
				<path style="fill:url(#SVGID_00000157296790515226948230000011546815707122673812_);" d="M209.4,448.3c0,0,25.8-24.6,38.5-40.9
					c6.9-8.8,9-20.4,5.9-31.1c-5.8-19.5-16.1-39.8-17.1-42.9c-1.4-4.8-30.4-4.6-30.4-4.6s-57,37-79.4,99.6l25.1,7.8
					c0,0,14.9-25,29.6-40.8c0,0-25.4,33.6-26.3,47.3L209.4,448.3z"/>
				
					<linearGradient id="SVGID_00000021078455888631837670000007970569054403942068_" gradientUnits="userSpaceOnUse" x1="-13888.375" y1="367.5912" x2="-13897.749" y2="307.4418" gradientTransform="matrix(-1 0 0 1 -13672.208 0)">
					<stop  offset="0" style="stop-color:#FEBBBA"/>
					<stop  offset="1" style="stop-color:#FF928E"/>
				</linearGradient>
				<path style="fill:url(#SVGID_00000021078455888631837670000007970569054403942068_);" d="M240.2,306.4c-0.3,1-7.9,26.1-8.4,26.6
					c-0.6,0.5-16.6,1.4-24.1-3.8l15.4-34L240.2,306.4z"/>
				
					<linearGradient id="SVGID_00000146461439818078625040000005135754046912745149_" gradientUnits="userSpaceOnUse" x1="-13845.1074" y1="444.2797" x2="-13707.6709" y2="444.2797" gradientTransform="matrix(-1 0 0 1 -13672.208 0)">
					<stop  offset="0" style="stop-color:#FEBBBA"/>
					<stop  offset="1" style="stop-color:#FF928E"/>
				</linearGradient>
				<path style="fill:url(#SVGID_00000146461439818078625040000005135754046912745149_);" d="M258.6,458l-19.4-21.1l-22.4,6
					c0,0-26.1,4-41.1,0c-15-4-15-4-15-4l-33.8-10.5l-5.3,15c-1.3,3.8,0,8,3.3,10.4c2.9,2.1,6.3,4.4,8.5,5.3
					c4.4,1.9,102.5,0.6,102.5,0.6L258.6,458z"/>
			</g>
			<g>
				
					<linearGradient id="SVGID_00000151539948677441955690000010575768963518271640_" gradientUnits="userSpaceOnUse" x1="-13894.6738" y1="-101.9953" x2="-13966.5703" y2="-82.2902" gradientTransform="matrix(-0.9988 -4.940000e-02 -4.940000e-02 0.9988 -13703.8379 -141.8316)">
					<stop  offset="0" style="stop-color:#09005D"/>
					<stop  offset="1" style="stop-color:#1A0F91"/>
				</linearGradient>
				<path style="fill:url(#SVGID_00000151539948677441955690000010575768963518271640_);" d="M194.3,466.4c0.1,0,0.1,0,0.2,0
					l89.2-0.1c2.2,0,4-1.8,4-4c0-2.2-1.8-4-4-4l-89.2,0.1c-2.2,0-4,1.8-4,4C190.5,464.6,192.2,466.3,194.3,466.4z"/>
				
					<linearGradient id="SVGID_00000009582705875272364020000015557653688780552878_" gradientUnits="userSpaceOnUse" x1="-13948.7188" y1="396.2463" x2="-13999.7324" y2="450.1652" gradientTransform="matrix(-1 0 0 1 -13672.208 0)">
					<stop  offset="0" style="stop-color:#09005D"/>
					<stop  offset="1" style="stop-color:#1A0F91"/>
				</linearGradient>
				<path style="fill:url(#SVGID_00000009582705875272364020000015557653688780552878_);" d="M364,385.4h-74.3
					c-5.5,0-10.5,3.2-12.8,8.1l-34.4,72.8h92.4c3.5,0,6.7-2.2,8-5.4l26.6-67.4C371.1,389.6,368.2,385.4,364,385.4z"/>
				<path class="st22" d="M311.6,422.7c-1.6,5-0.4,9.9,2.7,10.9c3.1,1,6.9-2.3,8.5-7.3c1.6-5,0.4-9.9-2.7-10.9
					C317.1,414.5,313.3,417.7,311.6,422.7z"/>
			</g>
			<g>
				
					<linearGradient id="SVGID_00000039125010162373694940000009991574964834450617_" gradientUnits="userSpaceOnUse" x1="-6839.6826" y1="-1725.7731" x2="-6768.7798" y2="-1851.9562" gradientTransform="matrix(-0.7885 -0.615 -0.615 0.7885 -6225.2188 -2503.8372)">
					<stop  offset="0" style="stop-color:#FEBBBA"/>
					<stop  offset="1" style="stop-color:#FF928E"/>
				</linearGradient>
				<path style="fill:url(#SVGID_00000039125010162373694940000009991574964834450617_);" d="M254.5,272.4c0,0,6.8,12.2,2.3,32.1
					c-4.5,20-14.9,22.7-22.1,18.6c-7.2-4.1-16.7-11.8-19.5-29.2C212.2,276.6,245.3,257.1,254.5,272.4z"/>
				
					<linearGradient id="SVGID_00000164494507051716281780000011517175114284699777_" gradientUnits="userSpaceOnUse" x1="-2987.3364" y1="-919.6358" x2="-2848.4602" y2="-728.0132" gradientTransform="matrix(-0.893 -0.4501 -0.4501 0.893 -2813.3413 -266.3646)">
					<stop  offset="0" style="stop-color:#09005D"/>
					<stop  offset="1" style="stop-color:#1A0F91"/>
				</linearGradient>
				<path style="fill:url(#SVGID_00000164494507051716281780000011517175114284699777_);" d="M228,291.6c0,0,9-27.3,28.2-12.8l2,6.6
					c0,0,16.2-6.4,9.2-21c-7-14.6-24-20.3-40.9-8.7c-16.9,11.6-25.7,21.2-23.4,34.9c2.3,13.7,12.2,7.9,12.2,7.9s1-10.3,5.6-12.6
					c4.7-2.3,5.3,5.4,5.3,5.4L228,291.6z"/>
				
					<linearGradient id="SVGID_00000180337523385698188500000011402334261372348559_" gradientUnits="userSpaceOnUse" x1="-6827.874" y1="-1713.082" x2="-6756.9727" y2="-1839.2626" gradientTransform="matrix(-0.7885 -0.615 -0.615 0.7885 -6225.2188 -2503.8372)">
					<stop  offset="0" style="stop-color:#FEBBBA"/>
					<stop  offset="1" style="stop-color:#FF928E"/>
				</linearGradient>
				<path style="fill:url(#SVGID_00000180337523385698188500000011402334261372348559_);" d="M224,297.6c0,0,4.7-14-3.8-13.6
					c-8.6,0.4-3.8,13.4-1.6,18.2L224,297.6z"/>
			</g>
		</g>
		<g>
			<path class="st22" d="M254.4,152.5c10.4-13,16.4-28.3,16.4-44.7c0-47.6-50.7-86.2-113.2-86.2S44.4,60.2,44.4,107.8
				S95,194,157.6,194c23.4,0,45.2-5.4,63.3-14.7c11.9,2,30.5,5.5,40.3,7.3c2.9,0.5,5.2-2.3,4.2-5L254.4,152.5z"/>
			<g>
				<g>
					<path class="st5" d="M110.2,122.6h-7.7V92.7h-9.9v-6.4H120v6.4h-9.9V122.6z"/>
					<path class="st5" d="M146.5,122.6h-20.9V86.3h20.9v6.3h-13.2v8h12.3v6.3h-12.3v9.4h13.2V122.6z"/>
					<path class="st5" d="M183.4,122.6h-8.8l-8.4-13.7l-8.4,13.7h-8.2l12-18.7l-11.3-17.6h8.5l7.8,13.1l7.7-13.1h8.3l-11.4,18
						L183.4,122.6z"/>
					<path class="st5" d="M202,122.6h-7.7V92.7h-9.9v-6.4h27.4v6.4H202V122.6z"/>
				</g>
			</g>
		</g>
		<g>
			
				<linearGradient id="SVGID_00000151519780849562881190000011927123331789725631_" gradientUnits="userSpaceOnUse" x1="423.7751" y1="536.5948" x2="672.7554" y2="536.5948">
				<stop  offset="0" style="stop-color:#FF928E"/>
				<stop  offset="1" style="stop-color:#FE7062"/>
			</linearGradient>
			<path style="fill:url(#SVGID_00000151519780849562881190000011927123331789725631_);" d="M441.8,487.4
				c-11.4,14.3-18,31.2-18,49.2c0,52.3,55.7,94.8,124.5,94.8s124.5-42.4,124.5-94.8c0-52.3-55.7-94.8-124.5-94.8
				c-25.8,0-49.7,6-69.6,16.2c-13.1-2.2-33.5-6-44.3-8c-3.2-0.6-5.8,2.5-4.6,5.5L441.8,487.4z"/>
			<g>
				<g>
					<path class="st5" d="M489.2,551.6h-24v-41.6h24v7.2H474v9.1h14.1v7.2H474v10.7h15.1V551.6z"/>
					<path class="st5" d="M515.5,551.6l-10-32.7h-0.3c0,0.8,0.1,2,0.2,3.5c0.1,1.6,0.2,3.2,0.2,5c0.1,1.8,0.1,3.4,0.1,4.8v19.4h-7.9
						v-41.6h12l9.9,31.8h0.2l10.4-31.8h12v41.6h-8.2v-19.7c0-1.3,0-2.8,0.1-4.5c0-1.7,0.1-3.3,0.2-4.9c0.1-1.5,0.1-2.7,0.2-3.5h-0.3
						l-10.7,32.6H515.5z"/>
					<path class="st5" d="M590.6,530.7c0,3.2-0.4,6.1-1.2,8.8c-0.8,2.6-2,4.9-3.6,6.8c-1.6,1.9-3.7,3.4-6.2,4.4
						c-2.5,1-5.4,1.5-8.8,1.5c-3.4,0-6.3-0.5-8.8-1.5c-2.5-1-4.5-2.5-6.2-4.4c-1.6-1.9-2.8-4.2-3.6-6.8s-1.2-5.6-1.2-8.8
						c0-4.3,0.7-8.1,2.1-11.3c1.4-3.2,3.6-5.7,6.5-7.4c2.9-1.8,6.7-2.6,11.2-2.6c4.5,0,8.2,0.9,11.1,2.6c2.9,1.8,5.1,4.3,6.5,7.5
						C589.9,522.6,590.6,526.4,590.6,530.7z M560.2,530.7c0,2.9,0.4,5.4,1.1,7.5s1.9,3.7,3.4,4.8c1.6,1.1,3.6,1.7,6,1.7
						c2.5,0,4.5-0.6,6.1-1.7c1.6-1.1,2.7-2.7,3.4-4.8s1.1-4.6,1.1-7.5c0-4.4-0.8-7.8-2.4-10.3c-1.6-2.5-4.3-3.8-8.1-3.8
						c-2.5,0-4.5,0.6-6.1,1.7c-1.6,1.1-2.7,2.7-3.4,4.8S560.2,527.8,560.2,530.7z"/>
					<path class="st5" d="M594.9,563.8c-1.1,0-2.1-0.1-3-0.2c-0.9-0.1-1.6-0.3-2.2-0.4v-7.3c0.6,0.1,1.3,0.3,2,0.4
						c0.7,0.1,1.4,0.2,2.2,0.2c1,0,1.9-0.2,2.8-0.6c0.8-0.4,1.5-1.1,1.9-2.2c0.5-1.1,0.7-2.6,0.7-4.7v-39h8.8v38.9
						c0,3.6-0.6,6.4-1.7,8.6s-2.7,3.8-4.6,4.8C599.8,563.3,597.5,563.8,594.9,563.8z"/>
					<path class="st5" d="M618.6,551.6v-41.6h8.8v41.6H618.6z"/>
				</g>
			</g>
		</g>
		<g>
			
				<linearGradient id="SVGID_00000032611133300139434320000015602278283214750393_" gradientUnits="userSpaceOnUse" x1="443.2933" y1="106.0277" x2="660.9988" y2="106.0277" gradientTransform="matrix(0.9905 -0.1379 0.1379 0.9905 -20.9227 77.9133)">
				<stop  offset="0" style="stop-color:#4F52FF"/>
				<stop  offset="1" style="stop-color:#4042E2"/>
			</linearGradient>
			<path style="fill:url(#SVGID_00000032611133300139434320000015602278283214750393_);" d="M451.4,154.9
				c-11-11.1-18-24.6-19.5-39.5c-4.4-43.3,39.7-82.5,99.2-87.8c60.4-5.3,113.7,26.3,118.2,70.7c4.5,44.4-41.5,83.8-102,88
				c-22.5,1.5-43.7-2-61.7-9.3c-11.1,2.7-28.2,7-37.2,9.3c-2.6,0.7-5.1-1.7-4.4-4.3L451.4,154.9z"/>
			<g>
				<circle class="st28" cx="542.8" cy="103.1" r="48.6"/>
				<path class="st29" d="M534.6,115.8c-0.5-0.3-0.8-0.7-1.1-1.2c-0.6-1.2,0-2.7,1.3-3.1c12.4-4.7,22,0.9,22.4,1.1
					c1.2,0.7,1.6,2.2,1,3.3c-0.7,1.1-2.2,1.5-3.4,0.8c-0.3-0.2-7.9-4.5-17.9-0.7C536,116.3,535.2,116.2,534.6,115.8z"/>
				
					<ellipse transform="matrix(0.9905 -0.1379 0.1379 0.9905 -7.1679 73.4519)" class="st29" cx="526.7" cy="88.5" rx="6.1" ry="7.6"/>
				<ellipse transform="matrix(0.9905 -0.1379 0.1379 0.9905 -6.6626 77.8898)" class="st29" cx="559" cy="87" rx="6.1" ry="7.6"/>
				<path class="st30" d="M547.9,154.7c0,0,3.4-1.7,3.5-4.4c0.1-2.8-2.2-3.1-2.2-3.1s2.9-1,2.8-4.4c-0.1-3.2-3-3.5-3-3.5
					s2.6-1.5,2.3-4.8c-0.3-2.7-3.4-3.7-3.4-3.7s13.8-5.4,15.2-6c1.4-0.5,3.5-2.3,2.4-5.2c-1.1-3-3.8-2.7-5.2-2.2
					c-1.4,0.5-18.5,7.1-24.4,9.4l-3.9,1.5c-1.5,0.6-2.3,0-1.3-1.3c1.2-1.7,1.9-3.5,1.8-6.4c-0.1-3-1.6-6.5-2.3-7.8
					c-1.4-2.5-3.5-4.3-5.7-4.7c-3.4-0.7-5.4,1.7-3.8,5c2.4,5,1.9,9.5-0.7,12.5c-6.1,7.1-8.7,11.9-5.3,20.9
					c3.8,9.8,14.7,14.9,24.5,11.2L547.9,154.7z"/>
				<path class="st29" d="M514,76.3c-0.5-0.2-0.9-0.5-1.3-1c-0.8-1.1-0.5-2.6,0.7-3.3c11.4-6.9,21.8-3.2,22.2-3
					c1.3,0.5,2,1.9,1.6,3.1c-0.5,1.2-1.9,1.8-3.2,1.4c-0.4-0.1-8.6-2.9-17.8,2.6C515.5,76.5,514.7,76.6,514,76.3z M549.8,82.2
					c-0.5-0.2-0.9-0.6-1.2-1.1c-0.7-1.2-0.3-2.6,0.9-3.3c11.8-6.1,22-1.7,22.4-1.5c1.3,0.6,1.9,2,1.3,3.2c-0.5,1.2-2,1.7-3.3,1.1
					c-0.4-0.2-8.4-3.5-17.9,1.4C551.3,82.5,550.5,82.5,549.8,82.2z"/>
			</g>
		</g>
	</g>
</g>
</svg>
