<?xml version="1.0" encoding="utf-8"?>
<!-- Generator: Adobe Illustrator 25.4.1, SVG Export Plug-In . SVG Version: 6.00 Build 0)  -->
<svg version="1.1" id="图层_1" xmlns="http://www.w3.org/2000/svg" xmlns:xlink="http://www.w3.org/1999/xlink" x="0px" y="0px"
	 viewBox="0 0 700 700" style="enable-background:new 0 0 700 700;" xml:space="preserve">
<style type="text/css">
	.st0{fill:#DEE9FE;}
	.st1{fill:#7BA9FA;}
	.st2{font-family:'Arial-BoldMT';}
	.st3{font-size:69.2069px;}
	.st4{fill:#B4CFFE;}
	.st5{fill:#3C4D77;}
	.st6{fill:#FFFFFF;}
	.st7{fill:#383C56;}
	.st8{fill:#EBAC3B;}
	.st9{fill:#4361B7;}
	.st10{clip-path:url(#SVGID_00000039833890480661114900000017377012453752737688_);}
	.st11{fill:#80604B;stroke:#5E4434;stroke-width:15.3386;stroke-linecap:round;stroke-linejoin:round;stroke-miterlimit:10;}
	.st12{fill:#1C1A27;}
	.st13{fill:#272425;stroke:#1C1A27;stroke-width:10.1542;stroke-linecap:round;stroke-linejoin:round;stroke-miterlimit:10;}
	.st14{clip-path:url(#SVGID_00000161619736975970995110000017914794597707764624_);}
	.st15{fill:#F2D139;stroke:#ECB54E;stroke-width:10.097;stroke-linecap:round;stroke-linejoin:round;stroke-miterlimit:10;}
	.st16{fill:none;stroke:#1C1A27;stroke-width:12.6214;stroke-linecap:round;stroke-linejoin:round;stroke-miterlimit:10;}
	.st17{fill:#202020;}
	.st18{fill:#D59E40;}
	.st19{fill:#202020;stroke:#EDF2F6;stroke-width:8.9671;stroke-linecap:round;stroke-dasharray:142.8858;}
	.st20{fill:#404347;}
	.st21{font-family:'ArialMT';}
	.st22{font-size:38.7949px;}
	
		.st23{fill:none;stroke:#E2D5BD;stroke-width:3.3846;stroke-linecap:round;stroke-linejoin:round;stroke-miterlimit:10;stroke-dasharray:11.2089;}
	.st24{fill:#E2D5BD;}
</style>
<g id="OBJECTS">
	<g>
		<g>
			<circle class="st0" cx="145.9" cy="128.5" r="86.3"/>
			<text transform="matrix(1 0 0 1 106.3143 151.0421)" class="st1 st2 st3">AI</text>
		</g>
		<g>
			<circle class="st4" cx="259.5" cy="184.4" r="18.4"/>
			<circle class="st4" cx="311.6" cy="108.2" r="28.6"/>
			<path class="st4" d="M670.8,463.3c0,6.1-5,11.1-11.2,11.1s-11.2-5-11.2-11.1s5-11.1,11.2-11.1S670.8,457.2,670.8,463.3z"/>
			<path class="st4" d="M214,289.7c0,29.4-23.4,52.8-52.8,52.8s-52.8-23.4-52.8-52.8c0-29.4,23.4-52.8,52.8-52.8
				C189.9,236.9,214,260.3,214,289.7z"/>
		</g>
	</g>
	<g>
		<g>
			<path class="st5" d="M633.1,628.5H69.4V223.4c0-14,9.3-25.4,20.7-25.4h522.3c11.4,0,20.7,11.4,20.7,25.4v405.1H633.1z"/>
			<path class="st6" d="M440.7,615.3H261.9c-2.1,0-3.8-2.1-3.8-4.7l0,0c0-2.6,1.7-4.7,3.8-4.7h178.8c2.1,0,3.8,2.1,3.8,4.7l0,0
				C444.5,613.2,442.8,615.3,440.7,615.3z"/>
			<path class="st7" d="M617.2,594.2H85.3c-3.5,0-6.3-3.5-6.3-7.7V214.7c0-4.3,2.9-7.7,6.3-7.7h531.9c3.5,0,6.3,3.5,6.3,7.7v371.6
				C623.5,590.8,620.8,594.2,617.2,594.2z"/>
			<path class="st6" d="M612.6,588.7H89.9c-3,0-5.5-3.1-5.5-6.8V220.2c0-3.7,2.5-6.8,5.5-6.8h522.7c3,0,5.5,3.1,5.5,6.8V582
				C618.1,585.7,615.6,588.7,612.6,588.7z"/>
			<path class="st0" d="M173.4,296.5h-55.1c-2.5,0-4.5-2.5-4.5-5.6v-41.2c0-3.1,2-5.6,4.5-5.6h55.1c2.5,0,4.5,2.5,4.5,5.6V291
				C178,294,176,296.5,173.4,296.5z"/>
			<rect x="290.9" y="213.3" class="st8" width="327.4" height="375.5"/>
			<g>
				<path class="st6" d="M595.6,550.9H445.7c-1.8,0-3.4-1.9-3.4-4.2l0,0c0-2.3,1.6-4.2,3.4-4.2h149.8c1.8,0,3.4,1.9,3.4,4.2l0,0
					C599,548.9,597.4,550.9,595.6,550.9z"/>
				<path class="st6" d="M595.6,572.9H445.7c-1.8,0-3.4-1.9-3.4-4.2l0,0c0-2.3,1.6-4.2,3.4-4.2h149.8c1.8,0,3.4,1.9,3.4,4.2l0,0
					C599,571,597.4,572.9,595.6,572.9z"/>
			</g>
			<path class="st6" d="M504,295.2H389.3c-3.9,0-7.2-3.9-7.2-8.9v-47.3c0-4.8,3.2-8.9,7.2-8.9h114.9c3.9,0,7.2,3.9,7.2,8.9v47.3
				C511.2,291.4,508.1,295.2,504,295.2z"/>
			<g>
				<path class="st8" d="M156.4,545.9h-44.9c-3.9,0-7.1-3.9-7.1-8.7v-49.1c0-4.8,3.2-8.7,7.1-8.7h44.9c3.9,0,7.1,3.9,7.1,8.7v49.1
					C163.5,542,160.4,545.9,156.4,545.9z"/>
				<path class="st0" d="M158.4,574h-52c-1.1,0-1.8-1-1.8-2.3l0,0c0-1.3,0.8-2.3,1.8-2.3h52c1.1,0,1.8,1,1.8,2.3l0,0
					C160.2,572.9,159.5,574,158.4,574z"/>
			</g>
			<path class="st0" d="M185.3,562h-78.9c-1.1,0-1.8-1-1.8-2.3l0,0c0-1.3,0.8-2.3,1.8-2.3h78.9c1.1,0,1.8,1,1.8,2.3l0,0
				C187.1,561,186.2,562,185.3,562z"/>
			<path class="st7" d="M644.2,667H62c-14.4,0-26.3-14.3-26.3-32.2v-6.3h634.7v6.3C670.4,652.5,658.7,667,644.2,667z"/>
		</g>
	</g>
	<g>
		<g>
			<path class="st1" d="M643.5,339.4H428.6c-14.7,0-26.7-12.1-26.7-26.7V65.5c0-14.7,12.1-26.7,26.7-26.7h214.9
				c14.7,0,26.7,12.1,26.7,26.7v246.9C670.2,327.3,658.4,339.4,643.5,339.4z"/>
			<path class="st9" d="M639.9,323H432.2c-8.5,0-15.3-6.8-15.3-15.3V108.1c0-8.5,6.8-15.3,15.3-15.3h207.5c8.5,0,15.3,6.8,15.3,15.3
				v199.6C655.2,316.2,648.4,323,639.9,323z"/>
			<path class="st6" d="M576.4,77.4l-154.6-0.2c-2.6,0-4.9-2.3-4.9-4.9l0,0c0-2.6,2.3-4.9,4.9-4.9l154.6,0.2c2.6,0,4.9,2.3,4.9,4.9
				l0,0C581.3,75.1,579.1,77.4,576.4,77.4z"/>
		</g>
	</g>
	<g>
		<g>
			<defs>
				<rect id="SVGID_1_" x="292.1" y="128.5" width="237.4" height="615.4"/>
			</defs>
			<clipPath id="SVGID_00000140014067514568515890000008137120133788055937_">
				<use xlink:href="#SVGID_1_"  style="overflow:visible;"/>
			</clipPath>
			<g style="clip-path:url(#SVGID_00000140014067514568515890000008137120133788055937_);">
				<g>
					<path class="st11" d="M399.8,437.6h-4.1c11.1-6.5,18.5-18.3,18.5-32l0,0c0-20.4-16.6-37-37-37h-30.3
						c20.7-6,35.8-25.3,35.8-47.9c0-27.7-22.4-50-49.8-50l0,0v22.8c0,11.8-9.4,21.2-21.2,21.2h-62.5c-15.2,0-28.1,11.5-28.6,26.7
						c-0.5,12.3,6.7,22.6,17.3,26.9h-12.5c-20.4,0-37,16.6-37,37l0,0c0,13.7,7.5,25.7,18.5,32h-4.1c-24.3,0-44,19.7-44,44
						c0,24.3,19.7,44,44,44h197.7c24.3,0,44-19.7,44-44C443.8,457.3,424.1,437.6,399.8,437.6z"/>
					<path class="st6" d="M254.3,452.7L254.3,452.7c-13,0-23.8-10.6-23.8-23.8v-31.5c0-13,10.6-23.8,23.8-23.8l0,0
						c13,0,23.8,10.6,23.8,23.8v31.5C277.9,441.9,267.3,452.7,254.3,452.7z"/>
					<path class="st6" d="M347.6,452.7L347.6,452.7c-13,0-23.8-10.6-23.8-23.8v-31.5c0-13,10.6-23.8,23.8-23.8l0,0
						c13,0,23.8,10.6,23.8,23.8v31.5C371.4,441.9,360.6,452.7,347.6,452.7z"/>
					<path class="st12" d="M254.3,440.2L254.3,440.2c-8.2,0-14.7-6.5-14.7-14.7v-24.8c0-8.2,6.5-14.7,14.7-14.7l0,0
						c8.2,0,14.7,6.5,14.7,14.7v24.8C269,433.7,262.5,440.2,254.3,440.2z"/>
					<path class="st12" d="M347.6,440.2L347.6,440.2c-8.2,0-14.7-6.5-14.7-14.7v-24.8c0-8.2,6.5-14.7,14.7-14.7l0,0
						c8.2,0,14.7,6.5,14.7,14.7v24.8C362.3,433.7,355.8,440.2,347.6,440.2z"/>
					<path class="st13" d="M250,473.4c-3.1,0-4.8,3.6-2.9,6c13,15.4,32.2,25,53.9,25c21.6,0,41.1-9.9,53.9-25c1.9-2.4,0.2-6-2.9-6
						H250z"/>
				</g>
			</g>
		</g>
	</g>
	<g>
		<g>
			<defs>
				<rect id="SVGID_00000075862599389566576810000007763363724449014686_" x="95" y="208" width="195.4" height="306.5"/>
			</defs>
			<clipPath id="SVGID_00000116915028411086213300000007532128110585059224_">
				<use xlink:href="#SVGID_00000075862599389566576810000007763363724449014686_"  style="overflow:visible;"/>
			</clipPath>
			<g style="clip-path:url(#SVGID_00000116915028411086213300000007532128110585059224_);">
				<g>
					<circle class="st15" cx="237.4" cy="371.5" r="100.4"/>
					<path class="st16" d="M209.1,413.8c0,0,26.2-36.1,56.3,0"/>
					<path class="st6" d="M167.1,346.3c-0.3,1.6-0.3,2.9-0.3,4.4c0,16.3,13.2,29.3,29.3,29.3c16.3,0,29.3-13.2,29.3-29.3
						c0-1.6,0-3.1-0.3-4.4L167.1,346.3L167.1,346.3z"/>
					<path class="st12" d="M183.2,346.3c0.3,10.4,8.8,18.7,19.5,18.7c10.4,0,18.9-8.3,19.5-18.7H183.2z"/>
					<path class="st6" d="M249.4,346.3c-0.3,1.6-0.3,2.9-0.3,4.4c0,16.3,13.2,29.3,29.3,29.3c16.3,0,29.3-13.2,29.3-29.3
						c0-1.6,0-3.1-0.3-4.4L249.4,346.3L249.4,346.3z"/>
					<path class="st12" d="M265.2,346.3c0.3,10.4,8.8,18.7,19.5,18.7c10.4,0,18.9-8.3,19.5-18.7H265.2z"/>
				</g>
			</g>
		</g>
	</g>
	<g>
		<g>
			<rect x="441" y="247.8" class="st17" width="22.6" height="9.6"/>
			
				<ellipse transform="matrix(0.229 -0.9734 0.9734 0.229 91.9734 620.6275)" class="st18" cx="437.8" cy="252.3" rx="8.5" ry="8.5"/>
		</g>
		<g>
			<path class="st19" d="M597.7,282.8H473.3c-7.4,0-13.2-6.1-13.2-13.2V145.1c0-7.4,6.1-13.2,13.2-13.2h124.4
				c7.4,0,13.2,6.1,13.2,13.2v124.4C610.9,277,604.9,282.8,597.7,282.8z"/>
			<path class="st20" d="M586.7,271.8H484.2c-7.4,0-13.2-6.1-13.2-13.2V156.1c0-7.4,6.1-13.2,13.2-13.2h102.4
				c7.4,0,13.2,6.1,13.2,13.2v102.4C599.9,265.8,593.9,271.8,586.7,271.8z"/>
			<g>
				<rect x="440.3" y="218" class="st17" width="22.6" height="9.6"/>
			</g>
			<g>
				<rect x="439.6" y="190.2" class="st17" width="22.6" height="9.6"/>
			</g>
			<g>
				<rect x="438.5" y="163.5" class="st17" width="22.6" height="9.6"/>
			</g>
			<g>
				<rect x="439" y="138.2" class="st17" width="22.6" height="9.6"/>
			</g>
			<g>
				<rect x="607.1" y="249.2" class="st17" width="22.6" height="9.6"/>
			</g>
			<g>
				<rect x="607.7" y="219.3" class="st17" width="22.6" height="9.6"/>
			</g>
			<g>
				<rect x="608.3" y="191.6" class="st17" width="22.6" height="9.6"/>
			</g>
			<g>
				<rect x="609.8" y="164.8" class="st17" width="22.6" height="9.6"/>
			</g>
			<g>
				<rect x="609" y="139.6" class="st17" width="22.6" height="9.6"/>
				<circle class="st18" cx="633.5" cy="144" r="8.5"/>
			</g>
			<g>
				<rect x="584.5" y="112.4" class="st17" width="9.6" height="22.6"/>
			</g>
			<g>
				<rect x="554.7" y="111.7" class="st17" width="9.6" height="22.6"/>
			</g>
			<g>
				<rect x="526.8" y="110.9" class="st17" width="9.6" height="22.6"/>
			</g>
			<g>
				<rect x="500.1" y="109.6" class="st17" width="9.6" height="22.6"/>
			</g>
			<g>
				<rect x="474.7" y="110.4" class="st17" width="9.6" height="22.6"/>
			</g>
			<g>
				<rect x="477.3" y="278.4" class="st17" width="9.6" height="22.6"/>
			</g>
			<g>
				<rect x="507.2" y="279.1" class="st17" width="9.6" height="22.6"/>
			</g>
			<g>
				<rect x="535.1" y="279.6" class="st17" width="9.6" height="22.6"/>
			</g>
			<g>
				<rect x="561.8" y="281.1" class="st17" width="9.6" height="22.6"/>
			</g>
			<g>
				<rect x="587" y="280.4" class="st17" width="9.6" height="22.6"/>
			</g>
		</g>
		<path class="st18" d="M577.3,240.4h-79.4c-7.4,0-13.2-6.1-13.2-13.2v-35.4c0-7.4,6.1-13.2,13.2-13.2h79.4
			c7.4,0,13.2,6.1,13.2,13.2v35.4C590.7,234.6,584.7,240.4,577.3,240.4z"/>
		<text transform="matrix(1 0 0 1 497.0244 223.0869)" class="st20 st21 st22">GPU</text>
		<polyline class="st23" points="488.5,170 536,170 536,158.6 		"/>
		<path class="st24" d="M536,160.8h-1.3c-2.5,0-4.5-2-4.5-4.5V155c0-2.5,2-4.5,4.5-4.5h1.3c2.5,0,4.5,2,4.5,4.5v1.3
			C540.5,159,538.5,160.8,536,160.8z"/>
		<path class="st24" d="M486.9,175h-1.3c-2.5,0-4.5-2-4.5-4.5v-1.1c0-2.5,2-4.5,4.5-4.5h1.3c2.5,0,4.5,2,4.5,4.5v1.3
			C491.4,173.2,489.4,175,486.9,175z"/>
		<polyline class="st23" points="584,246 536.5,246 536.5,257.5 		"/>
		<path class="st24" d="M536.5,255.2h1.3c2.5,0,4.5,2,4.5,4.5v1.3c0,2.5-2,4.5-4.5,4.5h-1.3c-2.5,0-4.5-2-4.5-4.5v-1.3
			C532,257.2,534,255.2,536.5,255.2z"/>
		<path class="st24" d="M585.4,241.1h1.3c2.5,0,4.5,2,4.5,4.5v1.3c0,2.5-2,4.5-4.5,4.5h-1.3c-2.5,0-4.5-2-4.5-4.5v-1.3
			C581.1,243.1,583.1,241.1,585.4,241.1z"/>
	</g>
</g>
</svg>
