<?xml version="1.0" encoding="utf-8"?>
<!-- Generator: Adobe Illustrator 25.4.1, SVG Export Plug-In . SVG Version: 6.00 Build 0)  -->
<svg version="1.1" id="图层_1" xmlns="http://www.w3.org/2000/svg" xmlns:xlink="http://www.w3.org/1999/xlink" x="0px" y="0px"
	 viewBox="0 0 700 700" style="enable-background:new 0 0 700 700;" xml:space="preserve">
<style type="text/css">
	.st0{fill:#DFEBF9;}
	.st1{opacity:0.5;}
	.st2{fill:#AEC3FF;}
	.st3{fill:#798EE8;}
	.st4{fill:#849DEF;}
	.st5{fill:#8C9DF4;}
	.st6{fill:#5D70C1;}
	.st7{fill:#233862;}
	.st8{fill:#F77D48;}
	.st9{fill:#CC613B;}
	.st10{fill:#505ABA;}
	.st11{fill:#FFA25C;}
	.st12{fill:#A8D29F;}
	.st13{fill:#739AF0;}
	.st14{fill:#152949;}
	.st15{fill:#F99746;}
	.st16{fill:#FFFFFF;}
	.st17{fill:#FFB27D;}
	.st18{fill:#E8945B;}
	.st19{fill:#243F77;}
	.st20{fill:#2B478B;}
	.st21{fill:#5A7DE0;}
	.st22{fill:#152F54;}
	.st23{fill:#1D3868;}
</style>
<g>
	<g>
		<path class="st0" d="M23.9,342.3c13.3-23.5,53.9-4.7,53.9-4.7s17.6,51.6,25.8,54.8s-6.5-47.1-6.5-47.1
			c16.7,2.6,53.2,33.2,53.2,33.2s-15.8,50.9-7.1,52c8.7,1.1,11.7-45.8,11.7-45.8c14.6,8.8,24.6,31,24.6,31
			c10.7,34.7-34.4,46.7-34.4,46.7s-5.1,17.8,0.7,41.1l0,0c0,0,1.5,4.4,2.4,11.5l-4.3-1.1c-0.1-1.2-0.2-2.5-0.3-3.6c0,0,0,0,0,0
			c0,0,0,0,0,0c-0.1-0.7-0.3-1.8-0.5-3.1l0,0c0,0,0,0,0,0c-0.7-2.9-1.1-5-1.3-6.6l0,0c-1.9-9.1-4.9-21.1-8.1-24.2
			c0,0,0.6-0.5,1.4-1.7c-0.5,0.5-0.9,1.1-1.4,1.7c-11.4,13.9-48.9,7.1-68.4-2.4c-19.4-9.5-9-13,4.4-19.5c13.5-6.6,36,1.8,43.8-0.1
			c7.8-1.9-1.3-8.2-15.2-10.6s-24.3,9.5-46.9,5.9c-22.6-3.6-28.8-49.4-28.8-49.4c14,8.6,43.6,7.2,46,2.2s-38.2-14.8-44.2-18
			C18.4,381.3,10.6,365.8,23.9,342.3z"/>
	</g>
	<g class="st1">
		<g class="st1">
			<path class="st2" d="M561.1,170c0,0-8.5-80.1,26.3-135.2c4.6-7.3,17.3-5.6,19.2,2.6c0,0.1,0.1,0.3,0.1,0.4
				C609.5,51.9,572.2,120.2,561.1,170z"/>
		</g>
		<g class="st1">
			<path class="st2" d="M561,193.4c0,0,22-106.1,90-163.8c4.2-3.5,10.9-3.8,15.1-0.3c2.7,2.3,4.7,6.2,3.9,13.1
				C668.1,60.7,594.6,134.7,561,193.4z"/>
		</g>
	</g>
	<g class="st1">
		<g class="st1">
			<path class="st2" d="M413.1,412.3c0,0,62.6-87.7,141.4-117.4c10.5-3.9,20.1,7.5,14.5,17.2c-0.1,0.2-0.2,0.3-0.3,0.5
				C559,329,466.5,370.1,413.1,412.3z"/>
		</g>
		<g class="st1">
			<path class="st2" d="M392.6,436c0,0,112.2-91.1,222.5-98.1c6.7-0.4,12.9,4.4,13.5,11.1c0.4,4.4-1.3,9.9-8,16.3
				C602.8,382.3,473.4,401.7,392.6,436z"/>
		</g>
	</g>
	<g>
		<g>
			<path class="st3" d="M283.1,198.7l-21.7,257.8c0,0-2.3,15.6,9.4,15.7c19.1,0,95.1,0,95.1,0s-14.4-3.2-14.2-10.6
				c0.2-8.6,25.3-265.3,25.3-265.3L283.1,198.7z"/>
		</g>
		<g>
			<path class="st2" d="M373,467.5c-3.8,0-77.4,0.1-96-0.1c-8.1-0.1-9.5-7.2-9.6-11.8c0-2.2,0.2-3.8,0.2-3.8l0.6-6.7l1.4-17.1
				l1.3-15.1l1.6-19.4l1.4-16.4l15.4-183.2l93.9-2.4c0,0-10.6,107.4-18.1,185.6c-0.8,8.7-1.6,17.1-2.4,24.9
				c-0.2,2.5-0.5,4.9-0.7,7.3c-0.7,7.4-1.3,14.2-1.9,20.2c-0.3,3.2-0.6,6.1-0.8,8.8c-1,10.5-1.5,17.3-1.5,18.6
				c0,0.7,0.1,1.4,0.2,2.1C359.7,467.1,371.6,467.5,373,467.5z"/>
		</g>
		<g>
			<polygon class="st2" points="54.9,58.3 107.8,270.4 115,299.5 139.6,398.3 596.6,398.3 505.9,58.3 			"/>
		</g>
		<g>
			<polygon class="st3" points="54.9,58.3 47.6,60.7 129.9,405.7 139.6,398.3 			"/>
		</g>
		<g>
			<polygon class="st4" points="129.9,405.7 584.1,405.7 596.6,398.3 139.6,398.3 			"/>
		</g>
		<g>
			<rect x="289.4" y="467.5" class="st2" width="98.3" height="4.7"/>
		</g>
		<g>
			<polygon class="st5" points="362.7,405.7 362.2,409.2 269.7,427.9 271,412.8 271.6,405.7 			"/>
		</g>
		<g class="st1">
			<path class="st5" d="M373,467.5c-3.8,0-77.4,0.1-96-0.1c-8.1-0.1-9.5-7.2-9.6-11.8l92.1-17.3c-1,10.5-1.5,17.3-1.5,18.6
				c0,0.7,0.1,1.4,0.2,2.1C359.7,467.1,371.6,467.5,373,467.5z"/>
		</g>
		<g>
			<polygon class="st5" points="54.9,58.3 505.9,58.3 579.1,331.5 123,331.5 			"/>
		</g>
		<g>
			<polygon class="st6" points="557.8,319.7 135.6,319.7 120.5,259.6 114.6,236.3 112.3,226.8 96.8,165.1 95.9,161.8 87.7,129.2 
				84.1,114.6 81,102.1 78.4,91.9 73.6,72.9 489.8,72.9 495.1,91.9 497.9,102.1 501.3,114.6 505.3,129.2 531.9,225.4 531.9,225.5 
				534.1,233.6 535.2,237.4 553.5,303.8 			"/>
		</g>
		<g>
			<polygon class="st5" points="294.3,331.5 139.7,399.1 123,331.5 			"/>
		</g>
	</g>
	<g id="gamepad01">
		<g>
			<path class="st7" d="M109.5,485.5l-22.9,9.2c-3.7,1.5-5.1,6.6-3.2,11.5l1.7,4.1l36.5-14.7l-2-4.2
				C117.6,486.7,113.1,484.1,109.5,485.5z"/>
		</g>
		<g>
			<path class="st7" d="M249.5,429.3l-22.9,9.2c-3.7,1.5-5.1,6.6-3.2,11.5l1.7,4.1l36.5-14.7l-2-4.2
				C257.6,430.5,253.1,427.8,249.5,429.3z"/>
		</g>
		<g>
			<path class="st8" d="M318.1,560.3c-1.1,0.6-20.5,12.1-38.8-0.2c-5.8-3.9-12.2-9.2-18.6-15c-8.4-7.7-20.5-9.8-31-5.6l-47.6,19.1
				c-11.4,4.6-19.2,15.3-20.1,27.6c-0.6,8.1-1.5,15.8-2.9,22.2c-4.7,21.6-26.6,26.7-27.9,27c-12.1,3.4-23-5-25.4-16.6L84.3,516.2
				c-0.5-2.4-0.6-4.9-0.3-7.2c0.5-3.6,2.9-6.6,6.2-8l18.8-7.6c1.2-0.5,4.1-1.7,6.2-1.5c10.8,1,21,0.1,32.7-4.4l64.2-25.8
				c7.5-3,6.4-5.7,10.7-12.5c0,0,0,0,0,0c1-1.5,2.4-2.7,4.1-3.4l28.5-11.4c2.4-1,5.1-0.8,7.3,0.6c2.6,1.7,4.9,3.9,6.7,6.8l55.5,88.9
				C331.2,540.7,329.2,554.3,318.1,560.3z"/>
		</g>
		<g>
			<path class="st9" d="M97.3,544.5c-6.2-15.5,1.1-33.1,16.5-39.3c15.3-6.2,32.9,1.4,39.1,16.9c6.2,15.5-1.1,33.1-16.5,39.3
				C121,567.6,103.5,560,97.3,544.5z"/>
		</g>
		<g>
			<path class="st7" d="M168.4,553.8c-3.1-7.8,0.6-16.7,8.5-19.8c7.8-3.1,16.7,0.6,19.8,8.5c3.1,7.8-0.6,16.7-8.5,19.8
				C180.4,565.4,171.5,561.6,168.4,553.8z"/>
		</g>
		<g>
			<path class="st10" d="M173.3,551.8c-2-5.1,0.4-10.8,5.5-12.9c5.1-2,10.8,0.4,12.9,5.5c2,5.1-0.4,10.8-5.5,12.9
				C181.1,559.3,175.4,556.9,173.3,551.8z"/>
		</g>
		<g>
			<path class="st7" d="M208.1,537.8c-3.1-7.8,0.6-16.7,8.5-19.8c7.8-3.1,16.7,0.6,19.8,8.5c3.1,7.8-0.6,16.7-8.5,19.8
				C220.1,549.4,211.2,545.6,208.1,537.8z"/>
		</g>
		<g>
			<path class="st10" d="M213.1,535.8c-2-5.1,0.4-10.8,5.5-12.9c5.1-2,10.8,0.4,12.9,5.5c2,5.1-0.4,10.8-5.5,12.9
				C220.9,543.3,215.1,540.9,213.1,535.8z"/>
		</g>
		<g>
			<path class="st7" d="M204.5,492.7L163,509.3c-5.4,2.2-11.5-0.5-13.7-5.8l-5.8-14.4l60.8-24.4l5.9,14.6
				C212.3,484.6,209.8,490.6,204.5,492.7z"/>
		</g>
		<g>
			<g>
				<path class="st11" d="M111.6,516.7l10.2-4.1c3.6-1.5,7.4,2,6.3,5.8l-2.8,9.7c-0.5,1.8-2.6,2.7-4.3,1.7l-9.8-5.7
					C108.2,522.3,108.5,517.9,111.6,516.7z"/>
			</g>
			<g>
				<path class="st11" d="M137,548.7l-10.2,4.1c-3.6,1.5-7.4-2-6.3-5.8l2.8-9.7c0.5-1.8,2.6-2.7,4.3-1.7l9.8,5.7
					C140.4,543,140.1,547.4,137,548.7z"/>
			</g>
			<g>
				<g>
					<path class="st11" d="M142.1,519.6l4.1,10.3c1.5,3.7-1.9,7.4-5.7,6.3l-9.6-2.9c-1.8-0.6-2.7-2.7-1.7-4.3l5.6-9.9
						C136.5,516.1,140.8,516.4,142.1,519.6z"/>
				</g>
				<g>
					<path class="st11" d="M107.7,546.1l-4.1-10.3c-1.5-3.7,1.9-7.4,5.7-6.3l9.6,2.9c1.8,0.5,2.7,2.7,1.7,4.3l-5.6,9.9
						C113.3,549.6,109,549.3,107.7,546.1z"/>
				</g>
			</g>
		</g>
		<g>
			<path class="st9" d="M221.4,494.6c-6.2-15.5,1.1-33.1,16.5-39.3c15.3-6.2,32.9,1.4,39.1,16.9c6.2,15.5-1.1,33.1-16.5,39.3
				C245.1,517.7,227.6,510.2,221.4,494.6z"/>
		</g>
		<g>
			<path class="st11" d="M238.9,471.6c-1.3-3.2,0.3-6.8,3.5-8.1c3.2-1.3,6.8,0.3,8.1,3.5c1.3,3.2-0.3,6.8-3.5,8.1
				C243.8,476.3,240.2,474.7,238.9,471.6z"/>
		</g>
		<g>
			<path class="st12" d="M249.4,497.5c-1.3-3.2,0.3-6.8,3.5-8.1c3.2-1.3,6.8,0.3,8.1,3.5c1.3,3.2-0.3,6.8-3.5,8.1
				C254.3,502.3,250.7,500.7,249.4,497.5z"/>
		</g>
		<g>
			<path class="st13" d="M260.7,471.2c3.2-1.3,6.8,0.3,8.1,3.5c1.3,3.2-0.3,6.8-3.5,8.1c-3.2,1.3-6.8-0.3-8.1-3.5
				C255.9,476.1,257.5,472.5,260.7,471.2z"/>
		</g>
		<g>
			<path class="st7" d="M234.9,481.5c3.2-1.2,6.8,0.5,8,3.8c1.2,3.2-0.5,6.8-3.8,8c-3.2,1.2-6.8-0.5-8-3.8
				C230,486.3,231.7,482.7,234.9,481.5z"/>
		</g>
		
			<!-- <animateTransform  accumulate="none" additive="replace" attributeName="transform" attributeType="XML" calcMode="linear" dur="3s" fill="remove" repeatCount="indefinite" restart="always" type="rotate" values="0 345 560;10 345 560;0 345 560" xmlns="http://www.w3.org/2000/svg">
			</animateTransform> -->
	</g>
	<g>
		<path class="st12" d="M52.1,643.3h63.3c3.4-2.9-2.3-9.4-8.3-9.9c-2.6-0.2-5.9,0.3-9.7,1.1c-0.9-11.6-5.9-63.6-24.6-61.5
			c-21.1,2.3,0,22.9,6,35.1c4.4,9,9.1,22,11.2,28c-1.7,0.4-3.5,0.7-5.3,1.1c-2.8-8.6-13.2-37.4-26.4-35.8c-15.5,2-9.3,13.5,1.7,20.4
			c8.1,5,18,12.2,22.7,15.7c-4,0.7-8.2,1.1-12.4,1C59.5,638.4,54.2,641.6,52.1,643.3z"/>
	</g>
	<g>
		<g>
			<path class="st14" d="M352.8,432.9c-8.6,0-14.9,8.1-12.8,16.4l28.2,113.4l4.4,17.8l12.6,50.5c1.5,5.9,6.7,10,12.8,10h252.1
				c8.7,0,15-8.2,12.7-16.6l-48.4-181.6c-1.5-5.8-6.8-9.8-12.7-9.8L352.8,432.9L352.8,432.9z"/>
		</g>
		<g>
			<path class="st10" d="M362,432.9c-8.6,0-14.9,8.1-12.8,16.4l28.2,113.4l4.4,17.8l12.6,50.5c1.5,5.9,6.7,10,12.8,10h252.1
				c8.7,0,15-8.2,12.7-16.6l-48.4-181.6c-1.5-5.8-6.8-9.8-12.7-9.8L362,432.9L362,432.9z"/>
		</g>
		<g>
			<path class="st15" d="M650,632.5H413.5c-5.7,0-10.6-3.8-12-9.3l-11.8-46.8l-4.2-16.5l-11.1-43.9l-15.4-61.3
				c-1.9-7.7,4-15.2,12-15.2h233.5c5.6,0,10.5,3.7,12,9.1l45.4,168.4C664,624.9,658.1,632.5,650,632.5z"/>
		</g>
		<g>
			<path class="st8" d="M574,457.4c-16.7,8.4-36.8-11.8-32.9,15.2c3.9,27.1-35.2,27.1-62.8,23.7c-27.6-3.4-24.3,29.8-52.2,33.6
				c-27.9,3.8-51.7-13.9-51.7-13.9l-15.4-61.3c-1.9-7.7,4-15.2,12-15.2h206.2C577.3,439.6,590.7,449,574,457.4z"/>
		</g>
		<g>
			<path class="st16" d="M389.5,459.9h7.6c4.5,0,7.9,2.6,8.8,6.5c1,4.3-2,6.6-6.2,6.6h-3.8l1.4,6.2h-3.4L389.5,459.9z M399.1,470
				c2.6,0,3.8-1.4,3.4-3.5c-0.5-2.3-2.4-3.4-4.9-3.4h-3.9l1.6,7L399.1,470L399.1,470z"/>
			<path class="st16" d="M407.9,459.9h3.4l3.6,16.2h10.1l0.7,3.1h-13.5L407.9,459.9z"/>
			<path class="st16" d="M431.7,459.8h3.1l12.9,19.5h-3.6l-3-4.7H432l-0.9,4.7h-3.5L431.7,459.8z M439.2,471.6l-5.1-7.7l-1.6,7.7
				H439.2z"/>
			<path class="st16" d="M452,471.6l-10.3-11.7h4l7.3,8.6l3.5-8.6h3.9l-5.1,11.6l1.7,7.7h-3.4L452,471.6z"/>
		</g>
		<g>
			<path class="st16" d="M464.8,476.9c0-1.4,1.2-2.6,2.6-2.6c1.4,0,2.6,1.2,2.6,2.6c0,1.4-1.2,2.6-2.6,2.6
				C466,479.4,464.8,478.3,464.8,476.9z"/>
		</g>
		<g>
			<circle class="st16" cx="478.4" cy="476.9" r="2.6"/>
		</g>
		<g>
			<path class="st16" d="M486.7,476.9c0-1.4,1.2-2.6,2.6-2.6c1.4,0,2.6,1.2,2.6,2.6c0,1.4-1.2,2.6-2.6,2.6S486.7,478.3,486.7,476.9z
				"/>
		</g>
	</g>
	<g>
		<g>
			<g>
				<path class="st17" d="M527.1,338.4c0-0.2,3.5-7.6,2.4-8.1c-1.1-0.6-3.1-0.5-3.4,0.8C525.9,332.3,527.1,338.4,527.1,338.4z"/>
			</g>
			<g>
				<path class="st7" d="M580.1,247.2c0,0,20.8-25,31.8-9c0,0,8.2,3.4,11.2,17.4c3,14.3-6.5,25.1-11.4,22.4
					c-3.1-1.7-5.5,3.8-5.5,3.8L580.1,247.2z"/>
			</g>
			<g>
				<path class="st17" d="M554.3,380.2c-16.5-6.1-32.5-34.4-32.5-34.4l5.2-3.7c4.3,6.4,23.9,18.6,23.9,18.6
					c0.4-5.4,1.1-10.2,1.9-14.6c5.4-29.9,17.8-38.8,21.2-40.7c0.5-0.3,0.8-0.4,0.8-0.4s0,0.2,0,0.6c0,0.9-0.2,2.7-0.3,5.2
					C573.2,329.4,568.1,385.3,554.3,380.2z"/>
			</g>
			<g>
				<path class="st7" d="M609.6,235.7c0,0,2.8-11.2,19.2-7.7c0,0-7.9-1-10,2c0,0,6.2-2.9,10.1-0.5c3.9,2.4,4.5,10.4,4,12.9
					c-0.6,2.5-4.9,9.7-7.7,9.7c-2.9,0-6.2-2.5-6.2-2.5L609.6,235.7z"/>
			</g>
			<g>
				<path class="st17" d="M634.2,410.8c-8.2-18.3-12.1-23.5-12.2-29.3c-0.1-4.6,2.1-9.5,6.5-21.5c1-2.8,1.7-5.8,2.2-8.7
					c3.5-23.3-10-48.4-18.4-50.1c-2.3-0.6-6.3-9-6.2-22.5l-1,0.2l-17.6,3.5c0,0,0.4,5.5,0.4,10.8c0,4.3-0.3,8.5-1.2,9
					c-1.3,0.1-2,0.2-2,0.2s-14.7,20.4-15.9,39.3c-1.2,19,11.7,27.2-0.1,65.1C556.5,445.3,638.7,420.9,634.2,410.8z"/>
			</g>
			<g>
				<path class="st18" d="M587.5,282.3c0,0,0.4,5.5,0.4,10.8c9.9-0.3,15.1-9.3,17.2-14.2L587.5,282.3z"/>
			</g>
			<g>
				<path class="st7" d="M606.9,276.9c0,0,5.2-8.2,6.4-15.1c0.9-5-1.7-23.4-20.2-20.8c0,0-5.4,0.5-10.5,4c-4,2.7-9.8,8.6-3.3,24.7
					l1.7,5.4L606.9,276.9z"/>
			</g>
			<g>
				<path class="st17" d="M584.2,287.2c0,0,23.3,0.4,23.3-14.1s3-24.2-11.8-25.1c-14.9-0.9-17.8,4.7-19,9.5
					C575.5,262.3,578.1,286.7,584.2,287.2z"/>
			</g>
			<g>
				<path class="st7" d="M585,247.6c0,0,6.4,17,16.2,19.5c9.8,2.5,14-0.1,14-0.1s-7.5-6-9.1-16.4C606.2,250.7,589.8,239.5,585,247.6
					z"/>
			</g>
			<g>
				<path class="st7" d="M586.6,249c0,0-4.8,3.8-5.9,7.5c-1.2,3.7-1.7,11.3-3.9,11c0,0-4.8-11.6,0.6-18.1
					C583.1,242.5,586.6,249,586.6,249z"/>
			</g>
			<g>
				<path class="st19" d="M613.6,586.6c-5.9,23.3-14.7,41.2-14.7,41.2l-7.7-0.5c0,0,3.8-17.9,3.5-42.1c-0.2-16.9-2.2-36.9-8.9-56.1
					c-23-65.7-19.3-113.5-19.3-113.5l43.2,5.1l2,0.2c0.2,19.9,0.7,46.8,1.1,67.9c0.4,19,0.7,33.2,0.7,33.2
					C622,539.9,619,565.2,613.6,586.6z"/>
			</g>
			<g>
				<path class="st17" d="M664.5,430.2l-7,2.1c0,0-23.8-36.4-25.9-46.4c-0.7-3.2-2.3-6.7-3.6-18.8c-1.7-15.5-9.3-33.5-9.3-33.5
					l-1.7-7.5l-5.9-25.4c0,0,11.3,1.1,17.8,3.9c2.2,0.9,3.8,2,4.4,3.3c4.8,10.6,9.7,37.5,13.1,56.6c1.9,10.7,3.3,18.9,4.1,20.7
					C652.6,390,659,416.9,664.5,430.2z"/>
			</g>
			<g>
				<path class="st20" d="M636,576.5c-3.4,26.4-7.6,46-7.6,46l-7.2,6.7c0,0-3.5-18.7-5.9-40.9c-2.3-21.1-5.6-43.5-9.2-50.3
					c-14.4-27.1-18.8-129.3-18.8-129.3l43.8-2.2c4.4,7.4,6.3,19.6,6.8,33.4c1.2,34.9-6.2,71.4-7.4,78
					C630.6,517.9,641.7,532.5,636,576.5z"/>
			</g>
			<g>
				<path class="st7" d="M585.7,249.6c0,0,4.5,17.8,16.9,23.5c0,0-12.4-11-13.4-22.7C588.2,238.6,585.7,249.6,585.7,249.6z"/>
			</g>
			<g>
				<path class="st13" d="M639.7,424c0.1,1.5,0,2.7-0.3,3.5c-0.9,2.9-4.1,4.3-11.9,3.5c-4.7-0.5-6.8-8.4-7.8-15.2
					c-2.8,9.7-6.8,15.1-12,16.3c-7.5,1.7-45.4,6.3-47.9-11.7c-2.7-19.8,5.4-54.9,5.9-73.8c-1.1-6.7-1.5-12.5-1.4-17.5
					c0.3-13.5,4.3-21,7.3-24.1c0.9-0.7,1.7-1.1,5.2-1.7c1.8-0.3,4.2-0.6,7.7-1.1c0,0,1.4-0.2,1.4-0.1c-0.6,1.1-4.1,6.6-3.4,11.6
					c2,12.9,19,2.3,21.4,0.8c7.7-5,12.1-13.1,12.1-13.1s10.8,1.2,16,5c0,0,0,0-0.1,0.1c0.6,0.5,1.1,0.9,1.4,1.5
					c5.6,10.7,11.2,37.7,15.2,57c-9.6,5.3-17.9,3.7-20.5,3C631.5,390.1,639.2,413.9,639.7,424z"/>
			</g>
			<g>
				<path class="st17" d="M527,342.2c0-0.7,0.6-11.1-1.2-13.3c-1.9-2.2-5.6-5.3-6.8-5.2c-1.2,0.1-5.8,6.3-4.4,11
					c1.4,4.7,7.3,11.1,7.3,11.1L527,342.2z"/>
			</g>
			<g>
				<g>
					<path class="st20" d="M533,329.8l-10.7,3.2c-0.4,0.1-0.8-0.1-0.9-0.5l-7.1-23.8c-0.1-0.4,0.1-0.8,0.5-0.9l10.7-3.2
						c0.4-0.1,0.8,0.1,0.9,0.5l7.1,23.8C533.6,329.3,533.3,329.7,533,329.8z"/>
				</g>
				<g>
					<path class="st7" d="M531.3,330.3l-9.6,2.9c-0.7,0.2-1.4-0.2-1.6-0.9l-6.8-22.8c-0.2-0.7,0.2-1.4,0.9-1.6l9.6-2.9
						c0.7-0.2,1.4,0.2,1.6,0.9l6.8,22.8C532.4,329.4,532,330.1,531.3,330.3z"/>
				</g>
			</g>
			<g>
				<path class="st21" d="M639.7,424c-5.2-1.7-11.9-6.4-19.9-16.7c-21.2-27.4-1.8-59.7,0.8-60.3c2.6-0.6,7.5,20.9,7.5,20.9
					C631.5,390.1,639.2,413.9,639.7,424z"/>
			</g>
			<g>
				<path class="st13" d="M571.8,305c0,0-13.2,6.7-18.1,36.2c0,0,4.8,6.5,11.5,8.5c1,0.3,2,0.5,3,0.5
					C576.4,350.6,571.8,305,571.8,305z"/>
			</g>
			<g>
				<path class="st17" d="M517.8,324.5c0,0,4.5-6.9,5.6-6.5c1.6,0.5-4.1,9.3-4.1,9.3s4.2-6.6,4.8-6.1c1.5,1.1-0.9,5.2-3.2,8.4
					c0,0,4.2-3.9,4.3-3.2c0.5,2.4-4.6,8.3-4.6,8.3l-2.8-6.5L517.8,324.5L517.8,324.5z"/>
			</g>
			<g>
				<path class="st17" d="M514.5,330.9c0.2-0.8,1.3-17.3,1.8-15.8c0.5,1.6,1.6,10.2,1.6,10.2L514.5,330.9z"/>
			</g>
			<g>
				<path class="st16" d="M588.7,278.6c0,0-0.4,1.7-4.7,1.4c0,0-3.6-0.2-3.5-2.1C580.6,277.9,584.1,276.6,588.7,278.6z"/>
			</g>
			<g>
				<path class="st22" d="M570.8,633.4H608c0,0,1.4-6.1-1.1-10.2c-2.2-3.7-2.2-5.9-1.7-10.2c-1.7,0.7-10.2,1.1-11.9,0.1
					c0,4.3-6.3,10.3-8.5,11.9C582.4,626.8,571.6,626.2,570.8,633.4z"/>
			</g>
			<g>
				<path class="st23" d="M596.4,633.4h37.1c0,0,1.4-6.1-1.1-10.2c-2.2-3.7-2.6-5.8-2.2-10.1c-1.7,0.7-9.7,1-11.5,0
					c0,4.3-6.3,10.3-8.5,11.9C607.9,626.8,597.1,626.2,596.4,633.4z"/>
			</g>
		</g>
		<g>
			<path class="st17" d="M664.5,430.2c0,0,8.4,5.6,9.7,8c1.3,2.4,4.3,11.1,4.3,11.1s-2.2,0.3-4.3-3.4c-2.2-3.8-9.2-3.4-11.6-5.5
				c-2.4-2-5.1-8-5.1-8L664.5,430.2z"/>
		</g>
		<g>
			<path class="st17" d="M658.4,434.2c0,0,1.4,6.6,3.1,8.5c1.7,1.9,4.1,5.2,5.1,4.3c1-0.9-1.1-8.1-1.1-8.1L658.4,434.2z"/>
		</g>
		<g>
			<path class="st17" d="M673.1,439c0.2,0.3,7.6,8.2,7.6,8.2s-2.7,1.2-3.4,0C676.5,445.9,673.1,439,673.1,439z"/>
		</g>
	</g>
	<g>
		<path class="st8" d="M126.2,433.7c-0.4,0-0.7-0.2-0.8-0.6c-0.6-1.9-1.2-3.7-1.7-5.4c-0.1-0.5,0.1-0.9,0.6-1.1
			c0.5-0.1,0.9,0.1,1.1,0.6c0.5,1.7,1.1,3.5,1.7,5.4c0.2,0.4-0.1,0.9-0.5,1.1C126.4,433.7,126.3,433.7,126.2,433.7z M123.1,422.9
			c-0.4,0-0.7-0.3-0.8-0.7c-0.5-1.9-0.8-3.8-1.1-5.6c-0.1-0.5,0.2-0.9,0.7-1c0.5-0.1,0.9,0.2,1,0.7c0.3,1.8,0.7,3.6,1.1,5.5
			c0.1,0.5-0.2,0.9-0.6,1C123.2,422.9,123.2,422.9,123.1,422.9z M168.6,419.5C168.6,419.5,168.6,419.5,168.6,419.5
			c-1.9-0.2-3.8-0.5-5.8-1c-0.5-0.1-0.7-0.6-0.6-1c0.1-0.5,0.6-0.7,1-0.6c1.8,0.5,3.7,0.8,5.4,0.9c0.5,0,0.8,0.5,0.8,0.9
			C169.4,419.2,169.1,419.5,168.6,419.5z M174.3,419.5c-0.4,0-0.8-0.3-0.8-0.8c0-0.5,0.3-0.9,0.8-0.9c1.8-0.2,3.6-0.6,5.3-1.1
			c0.4-0.2,0.9,0.1,1.1,0.5c0.2,0.4-0.1,0.9-0.5,1.1C178.2,418.9,176.3,419.3,174.3,419.5C174.3,419.5,174.3,419.5,174.3,419.5z
			 M470,416.9c-0.2,0-0.5-0.1-0.6-0.3c-0.3-0.4-0.3-0.9,0.1-1.2c1.4-1.2,2.7-2.5,3.9-3.9c0.3-0.4,0.8-0.4,1.2-0.1s0.4,0.8,0.1,1.2
			c-1.2,1.5-2.6,2.9-4.1,4.1C470.4,416.8,470.2,416.9,470,416.9z M157.7,416.8c-0.1,0-0.2,0-0.3-0.1c-1.7-0.7-3.5-1.5-5.2-2.4
			c-0.4-0.2-0.6-0.7-0.4-1.1c0.2-0.4,0.7-0.6,1.1-0.4c1.7,0.9,3.4,1.6,5.1,2.3c0.4,0.2,0.6,0.7,0.5,1.1
			C158.4,416.6,158,416.8,157.7,416.8z M184.9,415.9c-0.3,0-0.6-0.1-0.7-0.4c-0.2-0.4-0.1-0.9,0.3-1.2c1.5-0.9,2.9-1.9,4.2-3.1
			l0.2-0.2l1.2,1.2l-0.2,0.2c-1.4,1.3-2.9,2.4-4.5,3.3C185.2,415.9,185,415.9,184.9,415.9z M121.2,411.7c-0.4,0-0.8-0.3-0.8-0.8
			c-0.2-1.8-0.2-3.5-0.2-5.1c0-0.2,0-0.4,0-0.6c0-0.5,0.4-0.8,0.8-0.8h0c0.5,0,0.8,0.4,0.8,0.9c0,0.2,0,0.4,0,0.6
			c0,1.6,0.1,3.3,0.2,5C122.1,411.3,121.8,411.7,121.2,411.7C121.3,411.7,121.3,411.7,121.2,411.7z M147.7,411.6
			c-0.2,0-0.3,0-0.5-0.1c-2.3-1.5-3.9-2.7-4.7-3.3c-0.4-0.3-0.4-0.8-0.1-1.2c0.3-0.4,0.8-0.4,1.2-0.1c0.7,0.6,2.3,1.8,4.5,3.2
			c0.4,0.3,0.5,0.8,0.3,1.2C148.2,411.5,147.9,411.6,147.7,411.6z M477.2,408.3c-0.2,0-0.3,0-0.4-0.1c-0.4-0.2-0.5-0.8-0.3-1.2
			c0.9-1.6,1.7-3.2,2.4-5c0.2-0.4,0.7-0.6,1.1-0.5c0.4,0.2,0.6,0.7,0.5,1.1c-0.7,1.8-1.5,3.6-2.5,5.2
			C477.7,408.1,477.5,408.3,477.2,408.3z M193,408.2c-0.2,0-0.3,0-0.5-0.1c-0.4-0.3-0.5-0.8-0.3-1.2c1-1.6,1.7-3.2,2.1-4.9
			c0.1-0.5,0.6-0.7,1-0.6s0.7,0.6,0.6,1c-0.4,1.9-1.2,3.7-2.3,5.4C193.6,408.1,193.3,408.2,193,408.2z M139.2,404.2
			c-0.2,0-0.5-0.1-0.6-0.3c-1.2-1.4-2.4-2.9-3.6-4.4c-0.3-0.4-0.2-0.9,0.2-1.2c0.4-0.3,0.9-0.2,1.2,0.2c1.2,1.5,2.4,3,3.5,4.4
			c0.3,0.4,0.3,0.9-0.1,1.2C139.6,404.1,139.4,404.2,139.2,404.2z M121.4,400.5c0,0-0.1,0-0.1,0c-0.5-0.1-0.8-0.5-0.7-1
			c0.3-2,0.7-3.9,1.3-5.6c0.2-0.4,0.6-0.7,1.1-0.5c0.4,0.2,0.7,0.6,0.5,1.1c-0.6,1.7-1,3.5-1.2,5.3
			C122.2,400.2,121.8,400.5,121.4,400.5z M481.3,397.8c-0.1,0-0.1,0-0.2,0c-0.5-0.1-0.7-0.6-0.6-1c0.4-1.8,0.7-3.6,0.9-5.5
			c0-0.5,0.5-0.8,0.9-0.8c0.5,0,0.8,0.5,0.8,0.9c-0.2,1.9-0.5,3.8-0.9,5.7C482,397.6,481.7,397.8,481.3,397.8z M195.4,397.5
			c-0.4,0-0.8-0.3-0.8-0.7c-0.3-1.7-0.9-3.4-1.8-5c-0.2-0.4-0.1-0.9,0.3-1.1c0.4-0.2,0.9-0.1,1.1,0.3c1,1.8,1.6,3.7,1.9,5.6
			c0.1,0.5-0.2,0.9-0.7,1C195.5,397.5,195.5,397.5,195.4,397.5z M132.3,395.3c-0.3,0-0.5-0.1-0.7-0.4c-1.1-1.5-2.2-3.1-3.2-4.7
			c-0.3-0.4-0.1-0.9,0.3-1.2c0.4-0.3,0.9-0.1,1.2,0.3c1,1.6,2,3.1,3.1,4.7c0.3,0.4,0.2,0.9-0.2,1.2
			C132.6,395.2,132.5,395.3,132.3,395.3z M125,389.9c-0.2,0-0.3,0-0.4-0.1c-0.4-0.2-0.5-0.8-0.3-1.2c0.6-1,1.3-2,2-2.9
			c-0.3,0-0.6-0.1-0.8-0.4c-1-1.7-1.9-3.3-2.7-5c-0.2-0.4,0-0.9,0.4-1.1c0.4-0.2,0.9,0,1.1,0.4c0.8,1.6,1.7,3.3,2.7,4.9
			c0.1,0.1,0.1,0.2,0.1,0.4c0.3-0.3,0.5-0.6,0.8-0.9c0.3-0.3,0.9-0.3,1.2,0s0.3,0.9,0,1.2c-1.3,1.3-2.4,2.8-3.3,4.3
			C125.6,389.7,125.3,389.9,125,389.9z M190.3,387.6c-0.2,0-0.5-0.1-0.6-0.3c-1.2-1.3-2.5-2.6-4-3.7c-0.4-0.3-0.4-0.8-0.2-1.2
			c0.3-0.4,0.8-0.4,1.2-0.2c1.6,1.2,3,2.5,4.3,3.9c0.3,0.3,0.3,0.9-0.1,1.2C190.7,387.5,190.5,387.6,190.3,387.6z M482.4,386.6
			c-0.5,0-0.8-0.4-0.8-0.8c0-1.8-0.2-3.7-0.4-5.5c-0.1-0.5,0.3-0.9,0.7-0.9c0.5-0.1,0.9,0.3,0.9,0.7c0.3,1.9,0.4,3.8,0.4,5.7
			C483.3,386.2,482.9,386.6,482.4,386.6C482.4,386.6,482.4,386.6,482.4,386.6z M132.8,381.8c-0.3,0-0.5-0.1-0.7-0.4
			c-0.3-0.4-0.2-0.9,0.2-1.2c1.5-1,3.3-1.9,5.1-2.7c0.4-0.2,0.9,0,1.1,0.4c0.2,0.4,0,0.9-0.4,1.1c-1.7,0.8-3.4,1.6-4.8,2.6
			C133.1,381.8,133,381.8,132.8,381.8z M181.4,380.7c-0.1,0-0.3,0-0.4-0.1c-1.6-0.9-3.3-1.7-5-2.4c-0.4-0.2-0.6-0.7-0.5-1.1
			s0.7-0.6,1.1-0.5c1.8,0.7,3.6,1.5,5.2,2.5c0.4,0.2,0.6,0.7,0.3,1.2C182,380.5,181.7,380.7,181.4,380.7z M143.1,377.3
			c-0.4,0-0.7-0.2-0.8-0.6c-0.1-0.5,0.1-0.9,0.6-1c1.7-0.5,3.6-0.9,5.6-1.3c0.5-0.1,0.9,0.2,1,0.7c0.1,0.5-0.2,0.9-0.7,1
			c-1.9,0.3-3.7,0.8-5.4,1.2C143.2,377.3,143.2,377.3,143.1,377.3z M171,376.5c-0.1,0-0.1,0-0.2,0c-1.8-0.5-3.6-0.8-5.4-1.1
			c-0.5-0.1-0.8-0.5-0.7-1c0.1-0.5,0.5-0.8,1-0.7c1.9,0.3,3.8,0.6,5.6,1.1c0.5,0.1,0.7,0.6,0.6,1C171.7,376.3,171.4,376.5,171,376.5
			z M121.1,375.7c-0.3,0-0.6-0.2-0.8-0.5c-0.8-1.8-1.5-3.5-2.1-5.3c-0.2-0.4,0.1-0.9,0.5-1.1s0.9,0.1,1.1,0.5
			c0.6,1.7,1.3,3.5,2.1,5.2c0.2,0.4,0,0.9-0.4,1.1C121.3,375.6,121.2,375.7,121.1,375.7z M480.9,375.5c-0.4,0-0.7-0.3-0.8-0.6
			c-0.4-1.8-1-3.6-1.6-5.3c-0.2-0.4,0.1-0.9,0.5-1.1c0.4-0.2,0.9,0.1,1.1,0.5c0.6,1.8,1.2,3.6,1.7,5.5c0.1,0.5-0.2,0.9-0.6,1
			C481.1,375.4,481,375.5,480.9,375.5z M154.2,375.3c-0.5,0-0.8-0.4-0.8-0.8c0-0.4,0.3-0.8,0.7-0.8h0h0l0,0c1.7-0.2,3.3-0.3,5-0.3
			c0.2,0,0.5,0,0.7,0c0.5,0,0.8,0.4,0.8,0.9c0,0.5-0.4,0.8-0.8,0.8c0,0,0,0,0,0c-0.2,0-0.5,0-0.7,0c-1.6,0-3.2,0.1-4.8,0.3
			L154.2,375.3z M339.7,365.6c-0.5,0-0.8-0.4-0.8-0.8c0-0.5,0.4-0.8,0.8-0.9c1.6,0,3.4-0.2,5.4-0.6c0.5-0.1,0.9,0.2,1,0.7
			c0.1,0.5-0.2,0.9-0.7,1C343.4,365.4,341.5,365.6,339.7,365.6L339.7,365.6z M117.3,365c-0.4,0-0.7-0.2-0.8-0.6
			c-0.5-1.9-1-3.7-1.3-5.6c-0.1-0.5,0.2-0.9,0.7-1c0.5-0.1,0.9,0.2,1,0.7c0.4,1.8,0.8,3.6,1.3,5.4c0.1,0.5-0.1,0.9-0.6,1
			C117.4,365,117.3,365,117.3,365z M477.1,364.9c-0.3,0-0.6-0.2-0.8-0.5c-0.8-1.7-1.7-3.3-2.7-4.8c-0.3-0.4-0.1-0.9,0.3-1.2
			c0.4-0.3,0.9-0.1,1.2,0.3c1,1.6,2,3.3,2.8,5c0.2,0.4,0,0.9-0.4,1.1C477.4,364.8,477.2,364.9,477.1,364.9z M334.2,364.7
			c-0.1,0-0.2,0-0.3-0.1c-1.7-0.6-3.2-1.6-4.6-2.8c-0.2-0.1-0.3-0.3-0.4-0.4c-0.3-0.3-0.3-0.9,0-1.2c0.3-0.3,0.9-0.3,1.2,0
			c0.1,0.1,0.3,0.3,0.4,0.4c1.2,1.1,2.5,1.9,4,2.5c0.4,0.2,0.7,0.6,0.5,1.1C334.9,364.5,334.5,364.7,334.2,364.7z M350.8,363.5
			c-0.4,0-0.7-0.2-0.8-0.6c-0.1-0.5,0.1-0.9,0.6-1.1c1.6-0.5,3.3-1.1,5.3-1.8c0.4-0.2,0.9,0.1,1.1,0.5c0.2,0.4-0.1,0.9-0.5,1.1
			c-2,0.7-3.7,1.3-5.4,1.9C351,363.5,350.9,363.5,350.8,363.5z M361.4,359.6c-0.3,0-0.7-0.2-0.8-0.5c-0.2-0.4,0-0.9,0.5-1.1
			c1.9-0.8,3.8-1.5,5.2-2.1c0.4-0.2,0.9,0,1.1,0.5c0.2,0.4,0,0.9-0.5,1.1c-1.5,0.6-3.4,1.4-5.2,2.2
			C361.6,359.6,361.5,359.6,361.4,359.6z M326.1,357.2c-0.3,0-0.6-0.2-0.7-0.4c-1-1.7-1.6-3.5-1.9-5.6c-0.1-0.5,0.2-0.9,0.7-1
			c0.5-0.1,0.9,0.2,1,0.7c0.3,1.8,0.9,3.5,1.8,5c0.2,0.4,0.1,0.9-0.3,1.2C326.4,357.1,326.2,357.2,326.1,357.2z M471.1,355.3
			c-0.2,0-0.5-0.1-0.7-0.3c-1.2-1.4-2.4-2.8-3.7-4.1c-0.3-0.3-0.3-0.9,0-1.2s0.9-0.3,1.2,0c1.4,1.3,2.6,2.8,3.8,4.3
			c0.3,0.4,0.2,0.9-0.1,1.2C471.5,355.3,471.3,355.3,471.1,355.3z M371.8,355.3c-0.3,0-0.6-0.2-0.8-0.5c-0.2-0.4,0-0.9,0.5-1.1
			c1.7-0.7,3.4-1.4,5.2-2.2c0.4-0.2,0.9,0,1.1,0.5c0.2,0.4,0,0.9-0.5,1.1c-1.8,0.7-3.5,1.4-5.2,2.2
			C372.1,355.3,371.9,355.3,371.8,355.3z M115.1,354c-0.4,0-0.8-0.3-0.8-0.8c-0.2-1.9-0.3-3.9-0.3-5.7c0-0.5,0.4-0.8,0.8-0.9l0,0
			c0.5,0,0.8,0.4,0.8,0.8c0,1.8,0.1,3.7,0.3,5.6C116,353.5,115.6,353.9,115.1,354C115.1,354,115.1,354,115.1,354z M382.3,351.1
			c-0.3,0-0.7-0.2-0.8-0.5c-0.2-0.4,0-0.9,0.5-1.1c1.8-0.7,3.6-1.4,5.3-2c0.4-0.2,0.9,0.1,1.1,0.5c0.2,0.4-0.1,0.9-0.5,1.1
			c-1.7,0.6-3.4,1.3-5.3,2C382.5,351.1,382.4,351.1,382.3,351.1z M463.1,347.4c-0.2,0-0.4-0.1-0.5-0.2c-1.5-1.1-3-2.2-4.6-3.1
			c-0.4-0.2-0.5-0.8-0.3-1.2c0.2-0.4,0.8-0.5,1.2-0.3c1.6,1,3.2,2,4.8,3.2c0.4,0.3,0.4,0.8,0.2,1.2
			C463.6,347.3,463.3,347.4,463.1,347.4z M392.9,347.2c-0.3,0-0.7-0.2-0.8-0.6c-0.2-0.4,0.1-0.9,0.5-1.1c1.8-0.6,3.6-1.2,5.4-1.8
			c0.4-0.1,0.9,0.1,1.1,0.5c0.1,0.4-0.1,0.9-0.5,1.1c-1.7,0.6-3.5,1.2-5.3,1.8C393.1,347.1,393,347.2,392.9,347.2z M324,346.2
			C324,346.2,324,346.2,324,346.2c-0.5,0-0.9-0.4-0.8-0.9c0.1-1.7,0.4-3.6,0.8-5.7c0.1-0.5,0.5-0.8,1-0.7c0.5,0.1,0.8,0.5,0.7,1
			c-0.4,2.1-0.6,3.9-0.7,5.5C324.8,345.9,324.4,346.2,324,346.2z M403.6,343.7c-0.4,0-0.7-0.2-0.8-0.6c-0.1-0.5,0.1-0.9,0.6-1.1
			c1.8-0.5,3.7-1,5.5-1.5c0.5-0.1,0.9,0.2,1,0.6c0.1,0.5-0.2,0.9-0.6,1c-1.8,0.5-3.6,1-5.4,1.5C403.8,343.7,403.7,343.7,403.6,343.7
			z M115,342.7C115,342.7,115,342.7,115,342.7c-0.6,0-0.9-0.5-0.8-0.9c0.2-1.9,0.5-3.8,0.9-5.7c0.1-0.5,0.6-0.7,1-0.6
			c0.5,0.1,0.7,0.6,0.6,1c-0.4,1.8-0.7,3.6-0.9,5.5C115.8,342.4,115.5,342.7,115,342.7z M453.4,341.8c-0.1,0-0.2,0-0.3-0.1
			c-1.7-0.7-3.4-1.3-5.2-1.8c-0.5-0.1-0.7-0.6-0.6-1s0.6-0.7,1-0.6c1.8,0.5,3.7,1.2,5.4,1.9c0.4,0.2,0.6,0.7,0.5,1.1
			C454,341.6,453.7,341.8,453.4,341.8z M414.6,340.9c-0.4,0-0.7-0.3-0.8-0.7c-0.1-0.5,0.2-0.9,0.6-1c1.9-0.4,3.7-0.8,5.6-1.1
			c0.5-0.1,0.9,0.2,1,0.7c0.1,0.5-0.2,0.9-0.7,1c-1.8,0.3-3.7,0.7-5.5,1.1C414.7,340.9,414.6,340.9,414.6,340.9z M425.7,338.8
			c-0.4,0-0.8-0.3-0.8-0.7c-0.1-0.5,0.2-0.9,0.7-1c0.4-0.1,0.8-0.1,1.2-0.2c1.5-0.2,3-0.4,4.4-0.5c0.5,0,0.9,0.3,0.9,0.8
			c0,0.5-0.3,0.9-0.8,0.9c-1.4,0.1-2.9,0.2-4.3,0.5c-0.4,0.1-0.8,0.1-1.2,0.2C425.8,338.8,425.7,338.8,425.7,338.8z M442.5,338.7
			c0,0-0.1,0-0.1,0c-1.8-0.3-3.7-0.5-5.5-0.5c-0.5,0-0.8-0.4-0.8-0.9c0-0.5,0.4-0.8,0.9-0.8c1.9,0.1,3.9,0.3,5.7,0.6
			c0.5,0.1,0.8,0.5,0.7,1C443.3,338.4,442.9,338.7,442.5,338.7z M326,335.1c-0.1,0-0.1,0-0.2,0c-0.5-0.1-0.7-0.6-0.6-1
			c0.5-1.8,1-3.8,1.4-5.5c0.1-0.5,0.6-0.7,1-0.6c0.5,0.1,0.7,0.6,0.6,1c-0.5,1.7-1,3.7-1.4,5.5C326.7,334.9,326.4,335.1,326,335.1z
			 M117.5,331.7c-0.1,0-0.2,0-0.3,0c-0.4-0.2-0.7-0.6-0.5-1.1c0.6-1.8,1.4-3.6,2.2-5.3c0.2-0.4,0.7-0.6,1.1-0.4
			c0.4,0.2,0.6,0.7,0.4,1.1c-0.8,1.7-1.5,3.4-2.1,5.1C118.2,331.5,117.8,331.7,117.5,331.7z M328.8,324.2c-0.1,0-0.1,0-0.2,0
			c-0.5-0.1-0.7-0.6-0.6-1c0.5-2,0.9-3.8,1.3-5.5c0.1-0.5,0.6-0.7,1-0.6c0.5,0.1,0.7,0.6,0.6,1c-0.4,1.7-0.8,3.5-1.3,5.5
			C329.5,324,329.2,324.2,328.8,324.2z M122.4,321.6c-0.2,0-0.3,0-0.5-0.1c-0.4-0.3-0.5-0.8-0.3-1.2c0.2-0.3,0.4-0.7,0.6-1
			c0.9-1.3,1.8-2.5,2.7-3.7c0.3-0.4,0.8-0.4,1.2-0.1c0.4,0.3,0.4,0.8,0.1,1.2c-0.9,1.1-1.7,2.3-2.6,3.6c-0.2,0.3-0.4,0.6-0.6,1
			C123,321.4,122.7,321.6,122.4,321.6z M331.3,313.2c-0.1,0-0.1,0-0.2,0c-0.5-0.1-0.8-0.5-0.7-1c0.4-1.9,0.7-3.7,1-5.5
			c0.1-0.5,0.5-0.8,1-0.7c0.5,0.1,0.8,0.5,0.7,1c-0.3,1.8-0.6,3.7-1,5.6C332.1,312.9,331.7,313.2,331.3,313.2z M129.5,312.8
			c-0.2,0-0.5-0.1-0.6-0.3c-0.3-0.3-0.3-0.9,0-1.2c1.4-1.4,3-2.6,4.5-3.6c0.4-0.3,0.9-0.2,1.2,0.2c0.3,0.4,0.2,0.9-0.2,1.2
			c-1.5,1-2.9,2.1-4.3,3.4C129.9,312.7,129.7,312.8,129.5,312.8z M189,309.5L189,309.5c-1.8,0-3.7-0.1-5.7-0.3
			c-0.5,0-0.8-0.5-0.8-0.9s0.5-0.8,0.9-0.8c2,0.2,3.8,0.3,5.6,0.3c0.5,0,0.8,0.4,0.8,0.9S189.5,309.5,189,309.5z M194.7,309.2
			c-0.4,0-0.8-0.3-0.8-0.7c-0.1-0.5,0.3-0.9,0.7-0.9c1.9-0.2,3.7-0.6,5.4-1.2c0.5-0.1,0.9,0.1,1.1,0.6s-0.1,0.9-0.6,1.1
			c-1.8,0.6-3.7,1-5.6,1.2C194.7,309.1,194.7,309.2,194.7,309.2z M177.8,308.4c0,0-0.1,0-0.1,0c-2-0.3-4-0.7-5.6-1
			c-0.5-0.1-0.8-0.5-0.7-1c0.1-0.5,0.5-0.8,1-0.7c1.5,0.3,3.5,0.7,5.5,1c0.5,0.1,0.8,0.5,0.7,1C178.6,308.1,178.2,308.4,177.8,308.4
			z M138.9,306.7c-0.3,0-0.7-0.2-0.8-0.5c-0.2-0.4,0-0.9,0.5-1.1c1.8-0.7,3.6-1.3,5.6-1.6c0.5-0.1,0.9,0.2,1,0.7
			c0.1,0.5-0.2,0.9-0.7,1c-1.8,0.3-3.6,0.9-5.2,1.5C139.1,306.7,139,306.7,138.9,306.7z M166.7,306.3c-0.1,0-0.1,0-0.2,0
			c-2.2-0.4-3.9-0.7-5.5-1c-0.5-0.1-0.8-0.5-0.7-1c0.1-0.5,0.5-0.8,1-0.7c1.6,0.3,3.4,0.6,5.6,1c0.5,0.1,0.8,0.5,0.7,1
			C167.5,306.1,167.1,306.3,166.7,306.3z M205.4,305.8c-0.3,0-0.6-0.2-0.8-0.5c-0.2-0.4-0.1-0.9,0.4-1.1c1.6-0.8,3.2-1.8,4.6-2.9
			c0.4-0.3,0.9-0.2,1.2,0.2c0.3,0.4,0.2,0.9-0.2,1.2c-1.6,1.2-3.2,2.2-4.9,3.1C205.6,305.8,205.5,305.8,205.4,305.8z M155.5,304.7
			C155.5,304.7,155.5,304.7,155.5,304.7c-2.1-0.2-3.8-0.2-5.6-0.2c-0.5,0-0.9-0.4-0.9-0.8c0-0.5,0.4-0.9,0.8-0.9
			c1.8-0.1,3.7,0,5.7,0.2c0.5,0,0.8,0.5,0.8,0.9C156.3,304.3,156,304.7,155.5,304.7z M333.1,302.1c0,0-0.1,0-0.1,0
			c-0.5-0.1-0.8-0.5-0.7-0.9c0.2-1.9,0.4-3.7,0.6-5.6c0-0.5,0.4-0.8,0.9-0.8c0.5,0,0.8,0.4,0.8,0.9c-0.2,1.9-0.3,3.8-0.6,5.7
			C333.9,301.7,333.5,302.1,333.1,302.1z M214.4,299.1c-0.2,0-0.4-0.1-0.6-0.2c-0.3-0.3-0.3-0.9,0-1.2c1.2-1.3,2.5-2.7,3.7-4.2
			c0.3-0.4,0.8-0.4,1.2-0.1c0.4,0.3,0.4,0.8,0.1,1.2c-1.2,1.6-2.5,3-3.8,4.3C214.8,299,214.6,299.1,214.4,299.1z M333.8,290.8
			c-0.4,0-0.8-0.3-0.8-0.8c-0.2-1.8-0.6-3.6-1.2-5.2c-0.2-0.4,0-0.9,0.5-1.1c0.4-0.2,0.9,0,1.1,0.5c0.7,1.8,1.1,3.7,1.3,5.7
			C334.6,290.4,334.3,290.8,333.8,290.8C333.8,290.8,333.8,290.8,333.8,290.8z M221.7,290.5c-0.2,0-0.4-0.1-0.6-0.2
			c-0.3-0.3-0.4-0.9-0.1-1.2c1.3-1.4,2.6-2.7,4.1-4c0.3-0.3,0.9-0.3,1.2,0.1c0.3,0.3,0.3,0.9-0.1,1.2c-1.4,1.3-2.7,2.6-4,3.9
			C222.1,290.4,221.9,290.5,221.7,290.5z M230.1,282.9c-0.3,0-0.5-0.1-0.7-0.3c-0.3-0.4-0.2-0.9,0.2-1.2c1.5-1.1,3.1-2.2,4.7-3.2
			c0.4-0.3,0.9-0.1,1.2,0.3c0.3,0.4,0.1,0.9-0.3,1.2c-1.6,1-3.1,2.1-4.6,3.2C230.4,282.9,230.2,282.9,230.1,282.9z M329.7,280.4
			c-0.3,0-0.5-0.1-0.7-0.3c-1-1.4-2.3-2.7-3.7-3.9c-0.4-0.3-0.4-0.8-0.1-1.2c0.3-0.4,0.8-0.4,1.2-0.1c1.5,1.3,2.9,2.7,4,4.2
			c0.3,0.4,0.2,0.9-0.2,1.2C330.1,280.4,329.9,280.4,329.7,280.4z M239.6,276.9c-0.3,0-0.6-0.2-0.8-0.5c-0.2-0.4-0.1-0.9,0.3-1.1
			c1.6-0.9,3.4-1.7,5.1-2.5c0.4-0.2,0.9,0,1.1,0.4c0.2,0.4,0,0.9-0.4,1.1c-1.7,0.8-3.4,1.6-5,2.5
			C239.9,276.9,239.7,276.9,239.6,276.9z M321.3,273.1c-0.1,0-0.3,0-0.4-0.1c-1.5-0.9-3.2-1.7-4.9-2.5c-0.4-0.2-0.6-0.7-0.5-1.1
			c0.2-0.4,0.7-0.6,1.1-0.5c1.8,0.8,3.6,1.6,5.2,2.6c0.4,0.2,0.5,0.8,0.3,1.2C321.8,273,321.5,273.1,321.3,273.1z M249.9,272.3
			c-0.3,0-0.7-0.2-0.8-0.5c-0.2-0.4,0.1-0.9,0.5-1.1c1.7-0.7,3.6-1.3,5.4-1.9c0.5-0.1,0.9,0.1,1.1,0.6c0.1,0.5-0.1,0.9-0.6,1.1
			c-1.8,0.6-3.6,1.2-5.3,1.8C250.1,272.3,250,272.3,249.9,272.3z M260.7,268.9c-0.4,0-0.7-0.3-0.8-0.6c-0.1-0.5,0.2-0.9,0.6-1
			c1.8-0.5,3.7-0.9,5.6-1.3c0.5-0.1,0.9,0.2,1,0.7c0.1,0.5-0.2,0.9-0.7,1c-1.8,0.4-3.7,0.8-5.5,1.2
			C260.8,268.9,260.7,268.9,260.7,268.9z M310.9,268.7c-0.1,0-0.2,0-0.2,0c-1.7-0.5-3.5-1-5.4-1.4c-0.5-0.1-0.8-0.5-0.7-1
			c0.1-0.5,0.5-0.8,1-0.7c1.9,0.4,3.8,0.9,5.5,1.4c0.5,0.1,0.7,0.6,0.6,1.1C311.6,268.5,311.3,268.7,310.9,268.7z M271.7,266.7
			c-0.4,0-0.8-0.3-0.8-0.7c-0.1-0.5,0.3-0.9,0.7-1c1.9-0.3,3.8-0.5,5.6-0.7c0.5,0,0.9,0.3,0.9,0.8c0,0.5-0.3,0.9-0.8,0.9
			c-1.9,0.2-3.7,0.4-5.6,0.7C271.8,266.7,271.8,266.7,271.7,266.7z M299.9,266.4c0,0-0.1,0-0.1,0c-1.8-0.2-3.7-0.4-5.6-0.6
			c-0.5,0-0.8-0.4-0.8-0.9c0-0.5,0.4-0.8,0.9-0.8c1.9,0.1,3.8,0.3,5.7,0.6c0.5,0.1,0.8,0.5,0.7,1C300.6,266,300.3,266.4,299.9,266.4
			z M283,265.6c-0.5,0-0.8-0.4-0.8-0.8c0-0.5,0.3-0.9,0.8-0.9c1.9-0.1,3.8-0.1,5.7-0.1c0.5,0,0.8,0.4,0.8,0.9c0,0.5-0.4,0.8-0.8,0.8
			h0C286.8,265.5,284.9,265.5,283,265.6C283,265.6,283,265.6,283,265.6z"/>
	</g>
	<g>
		<path class="st8" d="M517.3,298.7c-0.2,0-0.3,0-0.5,0c-0.4-0.2-0.7-0.6-0.5-1.1c0.6-1.7,1.1-3.5,1.4-5.3c0.1-0.5,0.5-0.8,1-0.7
			c0.5,0.1,0.8,0.5,0.7,1c-0.4,1.9-0.9,3.8-1.5,5.6C517.8,298.4,517.5,298.6,517.3,298.7z M519.4,287.6c-0.1,0-0.2,0-0.3,0
			c-0.5,0-0.8-0.4-0.8-0.9c0.1-1.8,0.1-3.7,0-5.5c0-0.5,0.3-0.9,0.8-0.9c0.5,0,0.9,0.3,0.9,0.8c0.1,1.9,0.1,3.9,0,5.7
			C520,287.2,519.8,287.5,519.4,287.6z M518.8,276.4C518.7,276.4,518.7,276.4,518.8,276.4c-0.6,0.1-1-0.2-1.1-0.7
			c-0.3-1.7-0.7-3.4-1.2-5l-0.1-0.4c-0.1-0.5,0.1-0.9,0.6-1.1c0,0,0,0,0,0c0.4-0.1,0.9,0.1,1.1,0.6l0.1,0.4c0.5,1.7,0.9,3.5,1.2,5.2
			C519.4,275.8,519.2,276.3,518.8,276.4z M515.5,265.6c-0.4,0.1-0.8-0.1-1-0.5c-0.7-1.7-1.5-3.3-2.5-5c-0.2-0.4-0.1-0.9,0.3-1.2
			c0.4-0.2,0.9-0.1,1.2,0.3c0.9,1.7,1.8,3.4,2.5,5.1C516.2,264.9,516,265.4,515.5,265.6C515.5,265.6,515.5,265.6,515.5,265.6z
			 M510,255.8c-0.3,0.1-0.7,0-0.9-0.3c-0.4-0.6-0.9-1.3-1.4-1.9c-0.6-0.8-1.3-1.6-2-2.4c-0.3-0.3-0.3-0.9,0-1.2
			c0.3-0.3,0.9-0.3,1.2,0c0.8,0.8,1.5,1.7,2.2,2.6c0.5,0.7,1,1.3,1.4,2c0.3,0.4,0.2,0.9-0.2,1.2C510.2,255.7,510.1,255.7,510,255.8z
			 M502.2,247.7c-0.2,0.1-0.5,0-0.7-0.1c-1.4-1-3-2-4.7-2.8c-0.4-0.2-0.6-0.7-0.4-1.1c0.2-0.4,0.7-0.6,1.1-0.4
			c1.8,0.9,3.5,1.9,5,2.9c0.4,0.3,0.5,0.8,0.2,1.2C502.6,247.5,502.4,247.6,502.2,247.7z M461.2,256.6L461.2,256.6
			c-1.9,0.5-3.8,1-5.6,1.3c-0.5,0.1-0.9-0.2-1-0.7c-0.1-0.5,0.2-0.9,0.7-1c1.8-0.3,3.6-0.8,5.4-1.3c0.5-0.1,0.9,0.1,1,0.6
			C461.9,256,461.7,256.5,461.2,256.6z M466.6,254.9c-0.4,0.1-0.9-0.1-1-0.5c-0.2-0.4,0.1-0.9,0.5-1.1c1.7-0.6,3.5-1.3,5.2-2.1
			c0.4-0.2,0.9,0,1.1,0.4s0,0.9-0.4,1.1C470.2,253.5,468.4,254.2,466.6,254.9C466.6,254.9,466.6,254.9,466.6,254.9z M450.2,258.8
			c-0.1,0-0.1,0-0.2,0c-2.1,0.2-4,0.2-5.8,0.1c-0.5,0-0.8-0.4-0.8-0.9s0.4-0.8,0.9-0.8c1.7,0.1,3.5,0,5.5-0.1c0.5,0,0.9,0.3,0.9,0.8
			C450.8,258.3,450.5,258.7,450.2,258.8z M476.9,250.3c-0.4,0.1-0.8-0.1-1-0.4c-0.2-0.4-0.1-0.9,0.3-1.1c1.7-0.9,3.3-1.8,4.8-2.8
			c0.4-0.3,0.9-0.1,1.2,0.3c0.3,0.4,0.1,0.9-0.3,1.2c-1.5,1-3.2,2-4.9,2.9C477,250.3,477,250.3,476.9,250.3z M492.2,242.6
			c-0.2,0-0.3,0-0.5,0c-0.8-0.3-1.6-0.5-2.4-0.8c-0.8,0.7-1.7,1.5-2.6,2.2c-0.4,0.3-0.9,0.2-1.2-0.1c-0.3-0.4-0.2-0.9,0.1-1.2
			c0.6-0.5,1.2-0.9,1.7-1.4c-0.3-0.1-0.7-0.2-1-0.3c-0.5-0.1-0.7-0.6-0.6-1c0.1-0.5,0.6-0.7,1-0.6c0.7,0.2,1.4,0.4,2.1,0.5
			c0.3-0.3,0.6-0.6,0.9-0.9c0.3-0.3,0.9-0.3,1.2,0c0.3,0.3,0.3,0.9,0,1.2c-0.1,0.1-0.2,0.2-0.3,0.3c0.5,0.2,1,0.3,1.5,0.5
			c0.4,0.2,0.7,0.6,0.5,1.1C492.6,242.3,492.4,242.5,492.2,242.6z M439,257.9c-0.2,0-0.3,0-0.5,0c-1.8-0.6-3.4-1.5-4.5-2.6
			c-0.2-0.2-0.4-0.4-0.6-0.6c-0.3-0.4-0.3-0.9,0.1-1.2c0.4-0.3,0.9-0.3,1.2,0.1c0.2,0.2,0.3,0.3,0.5,0.5c0.9,0.9,2.2,1.7,3.8,2.2
			c0.4,0.2,0.7,0.6,0.5,1.1C439.4,257.7,439.2,257.9,439,257.9z M481.2,239.9c-0.1,0-0.2,0-0.4,0c-1.8-0.3-3.7-0.5-5.6-0.6
			c-0.5,0-0.8-0.5-0.8-0.9c0-0.5,0.4-0.8,0.9-0.8c1.9,0.2,3.8,0.4,5.7,0.7c0.5,0.1,0.8,0.5,0.7,1
			C481.8,239.6,481.5,239.8,481.2,239.9z M494.1,236c-0.2,0.1-0.5,0-0.7-0.1c-0.4-0.2-0.5-0.8-0.3-1.2c1-1.7,1.7-3.3,2-4.9
			c0.1-0.5,0.5-0.8,1-0.7c0.5,0.1,0.8,0.5,0.7,1c-0.4,1.8-1.1,3.6-2.2,5.5C494.4,235.8,494.3,235.9,494.1,236z M470,239
			c-0.1,0-0.2,0-0.3,0c-1.9,0-3.7,0-5.6,0.1c-0.5,0-0.9-0.3-0.9-0.8c0-0.5,0.3-0.9,0.8-0.9c1.9-0.1,3.8-0.1,5.7-0.1
			c0.5,0,0.8,0.4,0.8,0.9C470.6,238.6,470.3,238.9,470,239z M433.3,249.7c-0.2,0.1-0.4,0-0.6,0c-0.4-0.2-0.6-0.7-0.4-1.1
			c0.7-1.5,2.1-3,4.2-4.3c0.4-0.3,0.9-0.1,1.2,0.3c0.3,0.4,0.1,0.9-0.3,1.2c-1.8,1.2-3,2.4-3.6,3.6
			C433.7,249.5,433.5,249.7,433.3,249.7z M458.7,239.5c0,0-0.1,0-0.2,0c-1.9,0.2-3.7,0.5-5.5,0.8c-0.5,0.1-0.9-0.2-1-0.7
			c-0.1-0.5,0.2-0.9,0.7-1c1.8-0.3,3.7-0.6,5.6-0.8c0.5,0,0.9,0.3,0.9,0.8C459.3,239,459.1,239.4,458.7,239.5z M442.2,243.3
			c-0.4,0.1-0.9-0.1-1-0.5c-0.2-0.4,0-0.9,0.5-1.1c1.7-0.6,3.5-1.2,5.5-1.7c0.5-0.1,0.9,0.2,1,0.6c0.1,0.5-0.2,0.9-0.6,1
			C445.6,242,443.9,242.6,442.2,243.3C442.2,243.2,442.2,243.3,442.2,243.3z M496,225.2C496,225.2,496,225.2,496,225.2
			c-0.5,0.1-0.9-0.1-1.1-0.6l0-0.1c-0.5-1.5-1.3-3.1-2.5-4.5c-0.3-0.4-0.2-0.9,0.1-1.2s0.9-0.2,1.2,0.1c1.3,1.6,2.2,3.3,2.8,5.1
			l0,0.1C496.7,224.6,496.4,225.1,496,225.2z M489.3,216.4c-0.3,0.1-0.5,0-0.8-0.1c-1.3-1-2.9-2-4.6-3c-0.4-0.2-0.6-0.7-0.3-1.2
			c0.2-0.4,0.7-0.6,1.2-0.3c1.8,1,3.4,2.1,4.8,3.1c0.4,0.3,0.4,0.8,0.2,1.2C489.6,216.2,489.4,216.3,489.3,216.4z M479.4,210.9
			c-0.2,0.1-0.4,0-0.6,0c-1.7-0.7-3.4-1.3-5.3-1.8c-0.5-0.1-0.7-0.6-0.6-1c0.1-0.5,0.6-0.7,1-0.6c1.9,0.5,3.7,1.1,5.4,1.8
			c0.4,0.2,0.6,0.7,0.5,1.1C479.9,210.6,479.7,210.8,479.4,210.9z M468.6,207.9c-0.1,0-0.3,0-0.4,0c-1.8-0.3-3.6-0.5-5.5-0.7
			c-0.5,0-0.8-0.5-0.8-0.9c0-0.5,0.5-0.8,0.9-0.8c1.9,0.2,3.8,0.4,5.7,0.7c0.5,0.1,0.8,0.5,0.7,1
			C469.1,207.5,468.9,207.8,468.6,207.9z M367.1,236.6c-0.4,0.1-0.8,0-1-0.4c-0.2-0.4-0.1-0.9,0.3-1.2c0,0,1.8-1.1,4.9-2.8
			c0.4-0.2,0.9-0.1,1.2,0.3c0.2,0.4,0.1,0.9-0.3,1.2c-3.1,1.7-4.9,2.8-4.9,2.8C367.2,236.6,367.1,236.6,367.1,236.6z M376.9,231.1
			c-0.4,0.1-0.8-0.1-1-0.4c-0.2-0.4-0.1-0.9,0.4-1.1c1.7-0.9,3.4-1.7,5-2.6c0.4-0.2,0.9,0,1.1,0.4c0.2,0.4,0,0.9-0.4,1.1
			c-1.7,0.8-3.4,1.7-5,2.6C377,231.1,377,231.1,376.9,231.1z M457.3,206.9c-0.1,0-0.2,0-0.3,0c-1.8,0-3.7,0-5.6,0.1
			c-0.5,0-0.9-0.3-0.9-0.8c0-0.5,0.3-0.9,0.8-0.9c1.9-0.1,3.9-0.2,5.7-0.1c0.5,0,0.8,0.4,0.8,0.9
			C457.9,206.5,457.7,206.8,457.3,206.9z M387.1,226.1c-0.4,0.1-0.8-0.1-1-0.5c-0.2-0.4,0-0.9,0.4-1.1c1.7-0.8,3.4-1.6,5.1-2.4
			c0.4-0.2,0.9,0,1.1,0.4c0.2,0.4,0,0.9-0.4,1.1c-1.7,0.8-3.4,1.6-5.1,2.4C387.1,226,387.1,226.1,387.1,226.1z M446.1,207.5
			c0,0-0.1,0-0.2,0c-1.8,0.2-3.7,0.5-5.6,0.8c-0.5,0.1-0.9-0.2-1-0.7c-0.1-0.5,0.2-0.9,0.7-1c1.9-0.3,3.8-0.6,5.6-0.8
			c0.5-0.1,0.9,0.3,0.9,0.8C446.7,207,446.5,207.4,446.1,207.5z M397.4,221.4c-0.4,0.1-0.9-0.1-1-0.5c-0.2-0.4,0-0.9,0.5-1.1
			c1.7-0.7,3.5-1.5,5.2-2.2c0.4-0.2,0.9,0,1.1,0.5c0.2,0.4,0,0.9-0.5,1.1C400.9,219.9,399.2,220.7,397.4,221.4
			C397.4,221.4,397.4,221.4,397.4,221.4z M434.9,209.3C434.9,209.3,434.9,209.3,434.9,209.3c-1.9,0.4-3.7,0.8-5.6,1.2
			c-0.5,0.1-0.9-0.2-1-0.6c-0.1-0.5,0.2-0.9,0.6-1c1.9-0.5,3.7-0.9,5.5-1.2c0.5-0.1,0.9,0.2,1,0.7
			C435.6,208.7,435.3,209.2,434.9,209.3z M407.8,217.2c-0.4,0.1-0.9-0.1-1-0.5c-0.2-0.4,0.1-0.9,0.5-1.1c1.8-0.7,3.6-1.3,5.3-1.9
			c0.4-0.2,0.9,0.1,1.1,0.5c0.2,0.4-0.1,0.9-0.5,1.1C411.5,215.9,409.7,216.6,407.8,217.2C407.9,217.2,407.9,217.2,407.8,217.2z
			 M423.9,212C423.9,212,423.9,212,423.9,212c-1,0.3-2,0.6-3.1,0.9c-0.8,0.2-1.6,0.5-2.3,0.7c-0.5,0.1-0.9-0.1-1.1-0.6
			c-0.1-0.5,0.1-0.9,0.6-1.1c0.8-0.3,1.6-0.5,2.4-0.7c1-0.3,2-0.6,3-0.9c0.5-0.1,0.9,0.1,1,0.6C424.6,211.4,424.4,211.8,423.9,212z"
			/>
	</g>
</g>
</svg>
