<?xml version="1.0" encoding="utf-8"?>
<!-- Generator: Adobe Illustrator 25.4.1, SVG Export Plug-In . SVG Version: 6.00 Build 0)  -->
<svg version="1.1" id="图层_1" xmlns="http://www.w3.org/2000/svg" xmlns:xlink="http://www.w3.org/1999/xlink" x="0px" y="0px"
	 viewBox="0 0 700 700" style="enable-background:new 0 0 700 700;" xml:space="preserve">
<style type="text/css">
	.st0{fill:#92B5F9;}
	.st1{fill:#7C9AF2;}
	.st2{fill:#0B0754;}
	.st3{fill:#4951EC;}
	.st4{fill:#BED1F9;}
	.st5{fill:#FFFFFF;}
	.st6{fill:#DDE8FE;}
	.st7{fill:#FA7167;}
	.st8{fill:#FB9390;}
	.st9{fill:#EF7F7F;}
	.st10{fill:#E8605D;}
</style>
<g>
	<g>
		<g>
			<path class="st0" d="M310.3,663.7c0,0-68-94.1-78.5-115.6s9.8-17.6,9.8-17.6s-30.2-39.3-22.9-51c7.3-11.7,23.8,5.2,23.8,5.2
				s-15.1-51.2-3.6-53.1c21.6-3.5,41.2,51.8,41.2,51.8s-2.4-22.5,11.3-18.5c20.7,6.1,11.5,53.5,11.5,53.5s22.2-3.6,33.7,5.4
				C357.2,540.2,310.3,663.7,310.3,663.7z"/>
		</g>
	</g>
	<g>
		<g>
			<path class="st0" d="M310.1,650.9c0,0-126.6-15.8-154.2-32.6c-27.5-16.8-0.3-24.4-0.3-24.4s-63.6-24.4-62.9-41
				c0.7-16.6,32.3-8.2,32.3-8.2S71.4,499,84.1,490.3c23.6-16.2,85.6,31.4,85.6,31.4s-18.4-22.6,1-26.2c29.2-5.4,50.8,50.4,50.8,50.4
				s-5.5-22,14.7-19.1C272.4,532.1,310.1,650.9,310.1,650.9z"/>
		</g>
		<path class="st1" d="M236.2,526.8c-20.2-2.7-14.7,19.1-14.7,19.1s-21.6-55.8-50.8-50.4c-19.4,3.6-1,26.2-1,26.2
			s-62-47.5-85.6-31.4L309.6,651C305.6,635.6,270.1,531.4,236.2,526.8z"/>
	</g>
	<g>
		<path class="st2" d="M338.3,664.6c0,0-61.2-63.7-91-71.3s-23.6,14.2-23.6,14.2s-60.8-55.1-73.8-42.9c-13.1,12.2,2.1,25.1,2.1,25.1
			s-49.2-10.9-55.5,5.3c-9.7,24.8,71.2,41.9,71.2,41.9s-33.6,1-25.1,17.2C155.2,678.5,338.3,664.6,338.3,664.6z"/>
		<path class="st3" d="M96.4,595c6.3-16.2,55.5-5.3,55.5-5.3s-15.2-12.9-2.1-25.1c13.1-12.2,71.7,35.6,71.7,35.6
			S207,573.4,236.9,581c29.8,7.6,101.4,83.6,101.4,83.6L96.4,595z"/>
	</g>
	<g>
		<path class="st4" d="M268.5,68.6c-19.1,8.5-18.2,36.2,1.5,43.6c3.5,1.3,6.4,3.9,8.2,7.3l6.2,11.4c1.7,3.1,5.5,4.4,8.8,3l7.2-3.2
			c3.3-1.4,4.9-5.2,3.7-8.6c-4.3-12.3-6.8-16.5-4.2-23.2C307.6,79.3,287.6,60.1,268.5,68.6z"/>
		<path class="st5" d="M284.5,121.3c-4.1-10.4-8.9-21.3-10.4-24.4c-11.3,3.6-10.1-9.6-3.5-6.1c1.9,1,3.1,2.7,4.1,4.7
			c3.7-1.3,7.1-3.4,10.1-6c-0.9-2.6-1.7-4.6-1.4-6.4c0.5-2.9,3.5-4.4,5.5-2.2c0.7,0.8,1.1,2,1,3.1c-0.2,2.3-2.2,4.3-3.9,6
			c2.8,8.4,5.9,16.8,9.2,25.1l-1,0.4c-3.2-8.1-6.3-16.4-9.1-24.6c-2.9,2.6-6.3,4.6-10,5.9c1.9,3.9,6.5,14.6,10.4,24.4L284.5,121.3z
			 M268,95.8c1.3,0.8,3.1,0.9,5.6,0.1c-0.9-1.7-2-3.2-3.5-4C266.5,89.9,265.8,94.4,268,95.8z M284.5,83.2c-0.2,1.6,0.5,3.4,1.2,5.4
			c1.4-1.4,3-3,3.2-4.9c0.1-1.3-0.8-2.9-2.1-2.9C286.6,80.9,284.7,82.1,284.5,83.2z"/>
		<path class="st1" d="M278,119.2c0,0.1,0.1,0.2,0.2,0.3l6.2,11.4c1.7,3.1,5.5,4.4,8.8,3l7.2-3.2c3.3-1.4,4.9-5.2,3.7-8.6
			c-1.9-5.5-3.5-9.4-4.4-12.6L278,119.2z"/>
		
			<!-- <animateTransform  accumulate="none" additive="replace" attributeName="transform" begin="0" calcMode="linear" dur="2s" fill="remove" repeatCount="indefinite" restart="always" type="translate" values="5 5 ; 0 0; 5 5">
			</animateTransform> -->
	</g>
	<g>
		<g>
			<path class="st6" d="M251.4,63.3l-8.8-9.3c-0.9-0.9-0.8-2.3,0.1-3.2s2.3-0.8,3.2,0.1l8.8,9.3c0.9,0.9,0.8,2.3-0.1,3.2
				C253.6,64.3,252.2,64.2,251.4,63.3z"/>
		</g>
		<g>
			<path class="st6" d="M245.2,93.1l-13.3,2.3c-1.2,0.2-2.4-0.6-2.6-1.8s0.6-2.4,1.8-2.6l13.3-2.3c1.2-0.2,2.4,0.6,2.6,1.8
				S246.4,92.9,245.2,93.1z"/>
		</g>
		<g>
			<path class="st6" d="M242.7,136.4c-1.1-0.6-1.4-2-0.8-3.1c2.4-4,5.1-7.8,8.2-11.3c0.8-0.9,2.2-1,3.2-0.2c0.9,0.8,1,2.2,0.2,3.2
				c-2.9,3.3-5.5,6.8-7.7,10.6C245.2,136.6,243.8,137,242.7,136.4z"/>
		</g>
		<g>
			<path class="st6" d="M283.3,54.4c-1.2,0-2.2-1-2.2-2.3c0-5.9-0.5-11.8-1.7-17.6c-0.2-1.2,0.5-2.4,1.8-2.6
				c1.2-0.2,2.4,0.5,2.6,1.8c1.2,6.1,1.9,12.3,1.8,18.5C285.6,53.4,284.6,54.4,283.3,54.4z"/>
		</g>
		<g>
			<path class="st6" d="M301.1,67.6c-0.6-1.1-0.3-2.4,0.8-3.1l12.5-7.6c1.1-0.6,2.5-0.3,3.1,0.8s0.3,2.4-0.8,3.1l-12.5,7.6
				C303.2,69,301.8,68.6,301.1,67.6z"/>
		</g>
		<g>
			<path class="st6" d="M332.7,97.8c-0.2,0.1-0.4,0.1-0.6,0.1c-5-0.1-10.1-0.7-15-1.9c-1.2-0.3-2-1.5-1.7-2.7s1.5-2,2.7-1.7
				c4.6,1.1,9.3,1.7,14,1.8c1.2,0,2.2,1.1,2.2,2.3C334.4,96.7,333.7,97.5,332.7,97.8z"/>
		</g>
		
			<!-- <animate  accumulate="none" additive="replace" attributeName="opacity" begin="0.1" calcMode="linear" dur="1.5s" fill="remove" repeatCount="indefinite" restart="always" values="0;1;1;1;0;1;0">
			</animate> -->
	</g>
	<path class="st0" d="M111.1,179.5l-3-7.1l-7.5-1.5c-0.9-0.2-1.1-1.3-0.5-1.8l5.8-5l-0.9-7.6c-0.1-0.9,0.8-1.5,1.6-1l6.6,4l7-3.2
		c0.8-0.4,1.7,0.4,1.5,1.2L120,165l5.2,5.7c0.6,0.6,0.2,1.7-0.7,1.8l-7.6,0.7l-3.8,6.7C112.6,180.3,111.5,180.3,111.1,179.5z	">
<!-- <animateTransform  accumulate="none" additive="replace" attributeName="transform" attributeType="XML" calcMode="linear" dur="3s" fill="remove" from="0 273 268" repeatCount="indefinite" restart="always" to="-360 273 268" type="rotate">
			</animateTransform> -->
	</path>
	<polygon class="st7" points="60.1,314.6 68.6,308.9 79.3,321.7 92.8,314.9 102.3,323.1 106.5,318.3 93.7,307.3 80.9,313.7 
		69.8,300.5 57,309 	"/>
	<path class="st7" d="M566.8,669.7H277.6c-11,0-20-9.3-20-20.8v-12.3c0-11.5,9-20.8,20-20.8h289.2l0,0c-13.2,15-13.5,37.9-0.5,53.2
		L566.8,669.7z"/>
	<path class="st6" d="M562.4,622H401.9c-11,0-20,9.3-20,20.8l0,0c0,11.5,9,20.8,20,20.8h160.5C554.9,650.8,554.9,634.7,562.4,622z"
		/>
	<path class="st3" d="M465.2,578.5c0.4-0.8-0.2-1.7-1.2-1.7H311c-12,0-21.7,8.8-21.7,19.5l0,0c0,10.8,9.7,19.5,21.7,19.5h153.1
		c1,0,1.6-0.9,1.2-1.7l0,0C459.2,602.8,459.2,589.7,465.2,578.5z"/>
	<path class="st6" d="M464.2,580.4h-75.8c-14.1,0-25.5,7.3-25.5,16.4s11.4,16.4,25.5,16.4h76.3C459.5,602.7,459.4,590.9,464.2,580.4
		z"/>
	<g>
		<path class="st1" d="M444.7,588.2h-9.9c-2.1,0-3.8,0.7-3.8,1.6v0.1h13.7V588.2z"/>
		<path class="st1" d="M453.1,592.2c0-2.2-2.6-4-5.8-4h-12.7c2.4,0,4.4,1.4,4.4,3l-0.1,42.8l7-5.5l7.1,5.5L453.1,592.2z"/>
	</g>
	<g>
		<path class="st6" d="M437.1,575.3h-89c-7.9,0-14.3-7.6-14.3-17l0,0c0-9.4,6.4-17,14.3-17h89l0,0c-6.8,9.4-7.1,23.2-0.6,33
			L437.1,575.3z"/>
		<path class="st2" d="M333.7,558.4L333.7,558.4c0-9.4,6.5-17,14.6-17h90.4c0.4,0,0.8-0.4,0.8-0.9l0,0c0-0.5-0.3-0.9-0.8-0.9H295.3
			c-8.9,0-16.1,8.4-16.1,18.7l0,0c0,10.3,7.2,18.7,16.1,18.7h143.4c0.4,0,0.8-0.4,0.8-0.9l0,0c0-0.5-0.3-0.9-0.8-0.9h-90.4
			C340.3,575.3,333.7,567.8,333.7,558.4z"/>
		<g>
			<path class="st7" d="M421.5,549.8h-9.9c-2.1,0-3.8,0.7-3.8,1.6v0.1h13.7V549.8z"/>
			<path class="st7" d="M430,553.7c0-2.2-2.6-3.9-5.8-3.9h-12.7c2.4,0,4.4,1.3,4.4,3l-0.1,42l7-5.4l7.1,5.4L430,553.7z"/>
		</g>
	</g>
	<g>
		<g>
			<path class="st1" d="M579,290.3l13.2-3.5l-9,118.9l-15.8,0.5l8-111.6C575.5,292.6,577,290.8,579,290.3z"/>
			<g>
				<path class="st4" d="M584.4,409.1c-0.3,0-0.6,0-0.9,0c-2.6-0.3-4.5-2.9-4.3-5.8l8.8-111.8c0.2-2.9,2.5-5,5.1-4.7
					s4.5,2.9,4.3,5.8l-8.8,111.8C588.4,406.9,586.6,408.9,584.4,409.1z"/>
				<path class="st4" d="M463.4,415c0,0.1,0,0.2,0,0.2l0,0c0.4,4.5,3.9,8,7.9,7.6l111-9.9c3.9-0.3,6.8-4.3,6.4-8.9
					c0-0.2,0-0.4-0.1-0.6L463.4,415z"/>
			</g>
		</g>
		<path class="st8" d="M540.7,535.1c-7.3,4-29.5-3-29.5-3.7c-0.3,6.1-24.9,65.5-24.9,65.5v18.3c0,0,50.6,2.4,49.9-2.1
			s-3.5-1.6-13.5-10c-0.9-0.8-15.1-4-11.2-12.4C519.2,573.8,535.6,545.6,540.7,535.1z"/>
		<path class="st2" d="M484.7,615.8h55.4c2-0.2,2.5-1.8,1.8-2.8c-1.5-2-12.1-6.8-19.2-10c-12.4,1.5-34.3-3.3-36.3-6.2
			C481.1,603.9,483.5,615.6,484.7,615.8z"/>
		<path class="st2" d="M472.5,492.4c-0.8-2.2,47.7-22.8,49.9-20.5c3.8,4.2-26.2,82.2-26.2,82.2l34.5,10.5c0,0,35.9-90.1,34.4-106.6
			s-19.5-35.2-58.4-23.2C467.7,446.8,472.5,492.4,472.5,492.4z"/>
		<path class="st8" d="M572.8,545.3c-8.2-1.5-18.8-1.9-27.3-2.1c1,7.6,5.9,46.3,5,48.7c-3.6,9.7-11.6,14.2-11.6,14.2
			s37.6,34,39.9,30c2.3-3.9-1.7-3.4-4.1-16.3c-0.2-1.2-5.7-19.2-6-28.9C568.1,572.3,572.6,555.6,572.8,545.3z"/>
		<path class="st3" d="M560.8,418.6c-5.2-2.8-18.9-2.9-33.9-1.9c-29.2,1.9-58,7.6-85.8,16.8l-18.6,6.2l0.1-19.1
			c0,0-59.2-9.9-61.2,4.8c-3.1,22.1,0.8,66.9,20.5,76.9c61.2,31.1,147-49.5,147.3-39c0.4,14.2,12.3,66.8,15.4,89.9
			c8.5,0.2,23.1,0.1,29.4-1.3C575.1,506.7,575.7,426.5,560.8,418.6z"/>
		<path class="st2" d="M537.8,606.9l42.3,33.8c1.7,1.1,3.1,0.2,3.2-1.1c0.2-2.5-5-12.9-8.5-19.9c-10.5-6.8-24.4-24.4-24.2-27.8
			C546.1,595.6,537.1,606,537.8,606.9z"/>
		<path class="st2" d="M442.1,234.3c-1.4-13-2.9-26-13.7-35.5c-8.7-7.7-19.8-9-30.7-4.9c-31,11.7-15,39.2-54.6,67
			c-12.3,8.6-25.9,14.5-35.1,26.2c-13,16.3-8.1,35.9,3.7,48.9c56.5,62.5,119.6-21.9,124.1-42.2C439.2,278.7,443,242.6,442.1,234.3z
					">
<!-- <animate  accumulate="none" additive="replace" attributeName="d" calcMode="linear" dur="2s" fill="remove" repeatCount="indefinite" restart="always" values="    M602.9,335.3c-1.4-13-2.9-26-13.7-35.5c-8.7-7.7-19.8-9-30.7-4.9c-31,11.7-15,39.2-54.6,67    c-12.3,8.6-25.9,14.5-35.1,26.2c-13,16.3-8.1,35.9,3.7,48.9c56.5,62.5,119.6-21.9,124.1-42.2C600,379.7,603.8,343.6,602.9,335.3z;    M602.9,329c-1.6-11.1-3.3-22.2-15.7-30.3c-10-6.6-23.4-9.6-35.3-4.2c-21,14.4-17.2,33.4-62.7,57.1    c-14.1,7.3-29.7,12.4-40.3,22.3c-14.9,13.9-9.3,30.6,4.2,41.7c64.9,53.3,137.4-18.7,142.5-36C599.5,366.8,603.9,336.1,602.9,329z;    M602.9,335.3c-1.4-13-2.9-26-13.7-35.5c-8.7-7.7-19.8-9-30.7-4.9c-31,11.7-15,39.2-54.6,67    c-12.3,8.6-25.9,14.5-35.1,26.2c-13,16.3-8.1,35.9,3.7,48.9c56.5,62.5,119.6-21.9,124.1-42.2C600,379.7,603.8,343.6,602.9,335.3z" xmlns="http://www.w3.org/2000/svg">
				</animate> -->
		</path>
		<path class="st7" d="M430.6,307.3c-4.6-8.5-9.4-15.3-9.4-15.3c-4.8-8.5-17.2-12.8-17.2-12.8s-4.1,0.1-8.9,0.3
			c-0.3,0.8-0.6,1.4-0.9,1.6c-1.8,1.3-12-0.4-18.6,4.1c-22.2,19-16,111-14.3,140.1l67.5,0.6c0,0-8.5-62.5,5.2-78.6
			C443.6,336.2,437.5,319.9,430.6,307.3z"/>
		<path class="st8" d="M400.2,248.1c0,0-3.7,26.5-6.3,32.9s14.2,20.2,28.2,24.4s-4.3-14.2-3.7-21.1s3.1-39.5,3.1-39.5L400.2,248.1z"
			/>
		<path class="st9" d="M420.9,254.2c0.4-5.4,0.7-9.3,0.7-9.3l-21.4,3.2c0,0-0.5,3.1-1.1,7.5C407.7,260.6,415.5,259,420.9,254.2z"/>
		<path class="st8" d="M406.9,199.7c0,0-8.4,1.9-13.6,9.8s-8.8,31.3,8.4,42.2c17.2,10.9,30.5-4.5,30.7-19.6S429.3,197.1,406.9,199.7
			z"/>
		<path class="st8" d="M436.2,227.5c-1.5,3.6-4.4,5.9-6.5,5s-2.7-4.5-1.2-8.1s4.4-5.9,6.5-5C437.2,220.2,437.7,223.9,436.2,227.5z"
			/>
		<path class="st2" d="M409.4,199.2c0,0-10.7,24.1-20.2,26.2s-9.3,14.3-9.3,14.3s0.2-28,9-34.4C397.9,198.9,409.4,199.2,409.4,199.2
			z"/>
		<path class="st8" d="M393,230.5c1.2,3.9,0.1,7.8-2.5,8.6c-2.6,0.8-5.8-1.6-7-5.6s-0.1-7.8,2.5-8.6
			C388.6,224.1,391.8,226.6,393,230.5z"/>
		<path class="st8" d="M513.7,404.4c-4-1.5-10.1-1.6-10-2.2c0.4-2.2,18.3,4.8,15.9,1.6c-1.3-1.8-14.7-8-18-7
			c-3.2,1-23.9,6.8-23.9,6.8l-56.6-13.3c0,0-14.3-32.5-15.7-60.4c-11.8,1.6-19.9,4.5-30.1,10.2c5,26.7,17,70,30.3,78.1
			c5.6,3.4,72.5-4.1,72.5-4.1s14.7-1,17.1-2c1.8-0.7,6.5-3.4,9.1-4.1c5.8-1.6,16.2,2.5,16.2,1.4
			C520.4,408.7,517.8,405.9,513.7,404.4z"/>
		<path class="st10" d="M405.7,300.2c-0.5-8.6-3.8-16.9-12.9-19.5c-5.7-1.6-12-0.1-16.5,3.6c-5.4,4.4-6.9,11.5-6.9,18.1
			c0.1,15.2,1.1,30.9,3.9,45.8c10.3-5.7,22.3-9.1,34.1-10.7C407.3,337.4,406.4,311.6,405.7,300.2z"/>
	</g>
	<path class="st7" d="M490.4,503.3H262.5c-7.1,0-12.8,5.7-12.8,12.8v10.8c0,7.1,5.7,12.8,12.8,12.8h227.9l-0.1-0.1
		C480.5,529.4,480.6,513.3,490.4,503.3z"/>
	<path class="st6" d="M486.4,508.7H364.5c-7.1,0-12.8,5.7-12.8,12.8l0,0c0,7.1,5.7,12.8,12.8,12.8h121.8
		C481.9,526.3,481.9,516.6,486.4,508.7z"/>
	<g>
		<path class="st1" d="M541.9,105.7c-0.6,1.4,0,3,1.4,3.6s3,0,3.6-1.4s0-3-1.4-3.6S542.5,104.4,541.9,105.7z"/>
		<path class="st1" d="M560.2,114c-0.6,1.4,0,3,1.4,3.6s3,0,3.6-1.4s0-3-1.4-3.6C562.4,112,560.8,112.6,560.2,114z"/>
		<path class="st1" d="M561.9,92.5c-12.8-5.8-28-0.2-33.8,12.7c-5.8,12.8-0.2,28,12.7,33.8c12.8,5.8,28,0.2,33.8-12.7
			C580.4,113.5,574.8,98.3,561.9,92.5z M558.8,135.6c-2.6,1-5.3,1.4-8,1.4c-2.8-0.1-5.6-0.7-8.2-1.9s-4.9-2.8-6.8-4.9
			c-1.9-2-3.3-4.4-4.3-6.9c-1-2.6-1.4-5.3-1.3-8c0.1-2.8,0.7-5.6,1.9-8.2c1.2-2.6,2.8-4.9,4.9-6.8c2-1.9,4.3-3.3,6.9-4.3
			s5.3-1.4,8-1.4c2.8,0.1,5.6,0.7,8.2,1.9c2.6,1.2,4.9,2.8,6.8,4.9c1.9,2,3.3,4.4,4.3,6.9c1,2.6,1.4,5.3,1.3,8
			c-0.1,2.8-0.7,5.6-1.9,8.2c-1.2,2.6-2.8,4.9-4.9,6.8C563.7,133.2,561.4,134.6,558.8,135.6z"/>
		<path class="st1" d="M558.7,120.4l-2.5-1.1c-0.2-0.1-0.5,0-0.6,0.2c-1.4,2.5-4.4,3.5-7.1,2.3s-3.9-4.2-2.9-6.9
			c0.1-0.2,0-0.5-0.2-0.6l-2.5-1.1c-0.2-0.1-0.5,0-0.6,0.2c-1.8,4.5,0.3,9.6,4.7,11.6s9.7,0.2,11.9-4.1
			C559.1,120.8,559,120.5,558.7,120.4z"/>
		
			<!-- <animateTransform  accumulate="none" additive="replace" attributeName="transform" begin="0.5" calcMode="linear" dur="2s" fill="remove" repeatCount="indefinite" restart="always" type="translate" values="0 0 ; -5 5; 0 0" xmlns="http://www.w3.org/2000/svg">
			</animateTransform> -->
	</g>
</g>
</svg>
