<?xml version="1.0" encoding="utf-8"?>
<!-- Generator: Adobe Illustrator 25.4.1, SVG Export Plug-In . SVG Version: 6.00 Build 0)  -->
<svg version="1.1" id="图层_1" xmlns="http://www.w3.org/2000/svg" xmlns:xlink="http://www.w3.org/1999/xlink" x="0px" y="0px"
	 viewBox="0 0 700 700" style="enable-background:new 0 0 700 700;" xml:space="preserve">
<style type="text/css">
	.st0{fill:#F99746;}
	.st1{opacity:0.74;}
	.st2{fill:#FFFFFF;}
	.st3{fill:#91B3FA;}
	.st4{fill:#7D97F4;}
	.st5{fill:url(#SVGID_1_);}
	.st6{fill:url(#SVGID_00000134971678654971102630000010723806149737916584_);}
	.st7{opacity:0.61;}
	.st8{fill:url(#SVGID_00000182495061216382506920000000609364410397519279_);}
	.st9{fill:url(#SVGID_00000000936016792131531660000008996499993881721253_);}
	.st10{fill:url(#SVGID_00000164501045968614046110000018432838442676047007_);}
	.st11{fill:url(#SVGID_00000105403128398393467190000013357120144021775276_);}
	.st12{fill:url(#SVGID_00000151514012818928452590000012633556735313593492_);}
	.st13{fill:url(#SVGID_00000157290933322409416690000004559181283649587085_);}
	.st14{fill:url(#SVGID_00000026882660833936989890000016248749312983508124_);}
	.st15{fill:url(#SVGID_00000100362184947615184010000010750153528195077523_);}
	.st16{fill:url(#SVGID_00000124850696487205379140000001698402795103012762_);}
	.st17{fill:url(#SVGID_00000094589439585941699810000013885881399539589054_);}
	.st18{fill:url(#SVGID_00000069358121109607418480000014515921096514785669_);}
	.st19{fill:url(#SVGID_00000103265989778111547170000006335613803806595213_);}
	.st20{fill:url(#SVGID_00000054228933794357072240000008214602101167516805_);}
	.st21{fill:url(#SVGID_00000027601548324678193360000000756686254794505384_);}
	.st22{fill:url(#SVGID_00000127041415656792900490000005886602258777066154_);}
	.st23{fill:#80A7E0;}
	.st24{fill:#83A8EA;}
	.st25{fill:url(#SVGID_00000128483974521202458200000008653127263589483663_);}
	.st26{fill:url(#SVGID_00000109719447932081060690000014232274633729021606_);}
	.st27{fill:url(#SVGID_00000142162845782678675570000007604593813139338887_);}
	.st28{opacity:0.23;fill:url(#SVGID_00000138556820680675283400000007345953881773246888_);enable-background:new    ;}
	.st29{fill:url(#SVGID_00000127727692987569265320000004133995819499052217_);}
	.st30{fill:url(#SVGID_00000005250459541355623620000015104889295318796958_);}
	.st31{fill:url(#SVGID_00000008150802272309406680000009630445497427691401_);}
	.st32{fill:url(#SVGID_00000010277909135128363430000001410578362656794257_);}
	.st33{fill:url(#SVGID_00000000928648215566035450000013387155675796651683_);}
	.st34{fill:url(#SVGID_00000096749834115873342590000001950501961700546180_);}
	.st35{opacity:0.14;fill:#FFFFFF;enable-background:new    ;}
	.st36{opacity:0.77;fill:#FFFFFF;enable-background:new    ;}
</style>
<g>
	<g>
		<g>
			<g>
				<path class="st0" d="M368.5,316.4L316,61.8c-118.8,24.5-202.2,125.5-209.5,241l260.6,15.3C368,318.2,368.7,317.3,368.5,316.4z"
					/>
				<g class="st1">
					<path class="st2" d="M249.5,301.6h-0.1L115.7,293l0.3-1.9c3.5-22.7,9.3-44.6,18.2-69.1c0.3-0.9,1.3-1.4,2.2-1
						c0.9,0.3,1.4,1.3,1,2.2c-8.6,23.6-14.2,44.8-17.7,66.5l129.9,8.4c1,0.1,1.7,0.9,1.6,1.9C251.2,300.9,250.4,301.6,249.5,301.6z"
						/>
				</g>
				<g class="st1">
					<path class="st2" d="M354.4,308.4c-0.1,0-0.1,0-0.2,0l-27.3-1.8c-1-0.1-1.7-0.9-1.6-1.9s0.9-1.7,1.9-1.6l26.4,1.7L325.2,172
						c-0.2-0.9,0.4-1.9,1.3-2.1s1.9,0.4,2.1,1.3L357.2,305c0.2,0.9,0,1.8-0.6,2.4C356,308,355.2,308.4,354.4,308.4z M353.7,305.7
						L353.7,305.7L353.7,305.7z"/>
				</g>
				
					<!-- <animateTransform  accumulate="none" additive="replace" attributeName="transform" begin="0" calcMode="linear" dur="2s" fill="remove" repeatCount="indefinite" restart="always" type="translate" values="0 0 ; -10 -5; 0 0" xmlns="http://www.w3.org/2000/svg">
					</animateTransform> -->
			</g>
			<path class="st3" d="M656.6,275.6c-0.2-0.9-0.4-1.8-0.7-2.8C622,133.1,480,47.7,338.8,82l62.1,255.7L656.6,275.6z"/>
			<path class="st3" d="M406.3,339.6l249,85.2c15.5-44.8,19-94.3,7.6-143.8c-0.4-1.6-0.7-3.1-1.1-4.7L406.3,339.6z"/>
			<path class="st4" d="M401.9,346.8L452.5,605c1.6-0.3,3.2-0.6,4.9-1c93.4-20.1,164.5-87.6,193.5-171.8L401.9,346.8z"/>
			
				<linearGradient id="SVGID_1_" gradientUnits="userSpaceOnUse" x1="787.215" y1="-3.6924" x2="299.7011" y2="258.4119" gradientTransform="matrix(0.9994 3.495388e-02 3.495388e-02 -0.9994 -4.9073 690.0082)">
				<stop  offset="0" style="stop-color:#4F52FF"/>
				<stop  offset="1" style="stop-color:#4042E2"/>
			</linearGradient>
			<path class="st5" d="M393.3,342.3l-262.1-17.9c-1.9,22.9-0.6,42.3,3.9,66.1c20.5,110.8,107.7,192.3,212.5,211.1L393.3,342.3z"/>
			
				<linearGradient id="SVGID_00000053518687574514871010000015161368776583856783_" gradientUnits="userSpaceOnUse" x1="453.2837" y1="261.3407" x2="738.4506" y2="561.6046" gradientTransform="matrix(1 0 0 -1 0 700)">
				<stop  offset="0" style="stop-color:#4F52FF"/>
				<stop  offset="1" style="stop-color:#4042E2"/>
			</linearGradient>
			<path style="fill:url(#SVGID_00000053518687574514871010000015161368776583856783_);" d="M356.1,597c28.6,4.4,58.4,4,88.3-2l0,0
				l-46.9-244.4L356.1,597z"/>
		</g>
		<g id="arc01">
			<g class="st7">
				<path class="st2" d="M307,573.9c-0.2,0-0.4,0-0.7-0.1c-36.3-15-69.2-38.6-95-68.1c-26.7-30.5-45.9-67.6-55.5-107.3
					c-0.9-3.6-1.7-7.2-2.4-10.7c-0.2-1,0.4-1.9,1.4-2.1c1-0.2,1.9,0.4,2.1,1.4c0.7,3.5,1.5,7.1,2.3,10.6
					c9.5,39.1,28.4,75.7,54.7,105.8c25.4,29.1,57.9,52.4,93.7,67.2c0.9,0.4,1.3,1.4,1,2.3C308.4,573.5,307.7,573.9,307,573.9z"/>
			</g>
			<g class="st7">
				<path class="st2" d="M497,575c-0.7,0-1.4-0.4-1.6-1.1c-0.4-0.9,0.1-1.9,1-2.3c65-25.8,116.7-78.3,141.8-143.9
					c0.3-0.9,1.4-1.4,2.3-1c0.9,0.4,1.4,1.4,1,2.3c-25.4,66.6-77.8,119.8-143.8,145.9C497.5,575,497.2,575,497,575z"/>
			</g>
			<g class="st7">
				<path class="st2" d="M605.4,187.6c-0.5,0-1.1-0.2-1.4-0.7c-31.4-41.6-74.3-72-124.1-88c-0.9-0.3-1.4-1.3-1.1-2.2
					c0.3-0.9,1.3-1.4,2.2-1.1c50.4,16.2,93.9,47,125.8,89.2c0.6,0.8,0.4,1.9-0.3,2.5C606.2,187.5,605.8,187.6,605.4,187.6z"/>
			</g>
			
				<!-- <animateTransform  accumulate="none" additive="replace" attributeName="transform" attributeType="XML" calcMode="linear" dur="20s" fill="remove" from="0 575 480" repeatCount="indefinite" restart="always" to="-360 575 480" type="rotate" xmlns="http://www.w3.org/2000/svg">
				</animateTransform> -->
		</g>
	</g>
	<g id="curve01">
		<g>
			
				<linearGradient id="SVGID_00000089570923015263826270000011117198309774582401_" gradientUnits="userSpaceOnUse" x1="620.478" y1="594.7125" x2="417.2759" y2="395.9279" gradientTransform="matrix(1 0 0 -1 0 700)">
				<stop  offset="0" style="stop-color:#2B3582"/>
				<stop  offset="1" style="stop-color:#150E42"/>
			</linearGradient>
			<polygon style="fill:url(#SVGID_00000089570923015263826270000011117198309774582401_);" points="377.1,263 376,260.9 
				453.7,218.5 525.8,250.2 587.8,189.4 587.9,189.4 660.7,146.4 661.9,148.5 589.3,191.4 526.4,253.1 453.8,221.2 			"/>
		</g>
		
			<linearGradient id="SVGID_00000005983673171399289190000004211038068110092176_" gradientUnits="userSpaceOnUse" x1="389.8653" y1="451.0686" x2="370.0336" y2="431.668" gradientTransform="matrix(1 0 0 -1 0 700)">
			<stop  offset="0" style="stop-color:#09005D"/>
			<stop  offset="1" style="stop-color:#1A0F91"/>
		</linearGradient>
		<circle style="fill:url(#SVGID_00000005983673171399289190000004211038068110092176_);" cx="376.6" cy="262" r="8.3"/>
		
			<linearGradient id="SVGID_00000007391429849085103560000016748028440386253722_" gradientUnits="userSpaceOnUse" x1="466.9723" y1="493.2755" x2="447.1405" y2="473.8748" gradientTransform="matrix(1 0 0 -1 0 700)">
			<stop  offset="0" style="stop-color:#09005D"/>
			<stop  offset="1" style="stop-color:#1A0F91"/>
		</linearGradient>
		<circle style="fill:url(#SVGID_00000007391429849085103560000016748028440386253722_);" cx="453.7" cy="219.8" r="8.3"/>
		
			<linearGradient id="SVGID_00000124866420978813388720000014718952932593063064_" gradientUnits="userSpaceOnUse" x1="539.3507" y1="463.0544" x2="519.5189" y2="443.6537" gradientTransform="matrix(1 0 0 -1 0 700)">
			<stop  offset="0" style="stop-color:#09005D"/>
			<stop  offset="1" style="stop-color:#1A0F91"/>
		</linearGradient>
		<circle style="fill:url(#SVGID_00000124866420978813388720000014718952932593063064_);" cx="526.1" cy="250" r="8.3"/>
		
			<linearGradient id="SVGID_00000158724593014012230600000013658108267370806428_" gradientUnits="userSpaceOnUse" x1="599.8544" y1="522.6578" x2="580.0226" y2="503.2573" gradientTransform="matrix(1 0 0 -1 0 700)">
			<stop  offset="0" style="stop-color:#09005D"/>
			<stop  offset="1" style="stop-color:#1A0F91"/>
		</linearGradient>
		<circle style="fill:url(#SVGID_00000158724593014012230600000013658108267370806428_);" cx="586.6" cy="190.4" r="8.3"/>
		
			<linearGradient id="SVGID_00000093153630247066564190000014239839279104673981_" gradientUnits="userSpaceOnUse" x1="674.6161" y1="565.6182" x2="654.7843" y2="546.2177" gradientTransform="matrix(1 0 0 -1 0 700)">
			<stop  offset="0" style="stop-color:#09005D"/>
			<stop  offset="1" style="stop-color:#1A0F91"/>
		</linearGradient>
		<circle style="fill:url(#SVGID_00000093153630247066564190000014239839279104673981_);" cx="661.3" cy="147.5" r="8.3"/>
		
			<!-- <animateTransform  accumulate="none" additive="replace" attributeName="transform" begin="0.2" calcMode="linear" dur="3s" fill="remove" repeatCount="indefinite" restart="always" type="translate" values="0 0 ; 10 0; 0 0" xmlns="http://www.w3.org/2000/svg">
			</animateTransform> -->
	</g>
	<g>
		<g>
			<g>
				
					<linearGradient id="SVGID_00000034794811080741567090000014428274041841432741_" gradientUnits="userSpaceOnUse" x1="1261.286" y1="51.25" x2="1306.5048" y2="51.25" gradientTransform="matrix(1 0 0 -1 -1140.7335 700)">
					<stop  offset="0" style="stop-color:#4F52FF"/>
					<stop  offset="1" style="stop-color:#4042E2"/>
				</linearGradient>
				<path style="fill:url(#SVGID_00000034794811080741567090000014428274041841432741_);" d="M164.6,646.6
					c-7.8,0.7-21.2,1.8-31.8,2.2c-6.4,0.3-10-0.3-12.2-1.2c0,0.2,0,0.5,0,0.7c0,1.1,1,2,2.1,2.1c20,1.1,36,0.4,41.6,0
					c1.2-0.1,1.9-1.3,1.3-2.3C165.4,647.5,165,647,164.6,646.6z"/>
				
					<linearGradient id="SVGID_00000052088504542055829060000016596859751669479825_" gradientUnits="userSpaceOnUse" x1="1261.3236" y1="60.1562" x2="1305.296" y2="60.1562" gradientTransform="matrix(1 0 0 -1 -1140.7335 700)">
					<stop  offset="0" style="stop-color:#09005D"/>
					<stop  offset="1" style="stop-color:#1A0F91"/>
				</linearGradient>
				<path style="fill:url(#SVGID_00000052088504542055829060000016596859751669479825_);" d="M132.8,648.8
					c10.6-0.5,24.1-1.5,31.8-2.2c-7.6-9.3-31.8-15.7-31.8-15.7H126c-4.7,6.8-5.4,13.2-5.3,16.7C122.8,648.5,126.4,649.1,132.8,648.8
					z"/>
				
					<linearGradient id="SVGID_00000002362415891507598470000005159234282986021307_" gradientUnits="userSpaceOnUse" x1="1265.506" y1="72.4854" x2="1278.256" y2="72.4854" gradientTransform="matrix(1 0 0 -1 -1140.7335 700)">
					<stop  offset="0" style="stop-color:#FEBBBA"/>
					<stop  offset="1" style="stop-color:#FF928E"/>
				</linearGradient>
				<path style="fill:url(#SVGID_00000002362415891507598470000005159234282986021307_);" d="M124.8,619.8l0.6,12.7
					c0.1,1.4,1.1,2.5,2.5,2.7s3.2,0.2,5.1-0.4c1.2-0.4,2.1-1.4,2.3-2.6l2.2-12.3h-12.7V619.8z"/>
			</g>
			<g>
				<g>
					
						<linearGradient id="SVGID_00000059295925924107861630000005490600721155068315_" gradientUnits="userSpaceOnUse" x1="1171.1439" y1="52.2839" x2="1188.4761" y2="52.2839" gradientTransform="matrix(1 0 0 -1 -1140.7335 700)">
						<stop  offset="0" style="stop-color:#4F52FF"/>
						<stop  offset="1" style="stop-color:#4042E2"/>
					</linearGradient>
					<path style="fill:url(#SVGID_00000059295925924107861630000005490600721155068315_);" d="M36.1,648.7c-3.4-0.5-4.9-2.2-5.5-4.1
						l0,0c-0.5,2,0.6,4,2.9,5c2.8,1.2,5.8,1.4,8.1,1.3c2.5-0.1,4.8-1.2,6.1-2.8l0,0C45.3,649.3,41.7,649.5,36.1,648.7z"/>
					
						<linearGradient id="SVGID_00000034783480277124833290000002823604783303028387_" gradientUnits="userSpaceOnUse" x1="1171.286" y1="65.606" x2="1196.7319" y2="65.606" gradientTransform="matrix(1 0 0 -1 -1140.7335 700)">
						<stop  offset="0" style="stop-color:#09005D"/>
						<stop  offset="1" style="stop-color:#1A0F91"/>
					</linearGradient>
					<path style="fill:url(#SVGID_00000034783480277124833290000002823604783303028387_);" d="M51.9,619.7h-5.6
						c-8.6-0.2-14,17.9-15.7,24.9c0.6,1.9,2.2,3.6,5.5,4.1c5.6,0.8,9.2,0.6,11.7-0.6c4.6-6.1,6.9-15,8-20.2
						C57.1,621.9,51.9,619.7,51.9,619.7z"/>
				</g>
				
					<linearGradient id="SVGID_00000150069370193702012330000017833078165259431604_" gradientUnits="userSpaceOnUse" x1="1184.483" y1="83.2311" x2="1199.7129" y2="83.2311" gradientTransform="matrix(1 0 0 -1 -1140.7335 700)">
					<stop  offset="0" style="stop-color:#FEBBBA"/>
					<stop  offset="1" style="stop-color:#FF928E"/>
				</linearGradient>
				<path style="fill:url(#SVGID_00000150069370193702012330000017833078165259431604_);" d="M47,607.9l-3.1,12.4
					c-0.4,1.5,0.4,3.1,1.8,3.8c1.8,0.9,4.2,1.8,6.5,1.6c1.1-0.1,1.9-0.9,2.3-1.9l4.6-13.1L47,607.9z"/>
			</g>
			
				<linearGradient id="SVGID_00000070838412709082605530000005183815712408961925_" gradientUnits="userSpaceOnUse" x1="-113.2842" y1="-87.3358" x2="196.5602" y2="248.0635" gradientTransform="matrix(1 0 0 -1 0 700)">
				<stop  offset="0" style="stop-color:#4F52FF"/>
				<stop  offset="1" style="stop-color:#4042E2"/>
			</linearGradient>
			<path style="fill:url(#SVGID_00000070838412709082605530000005183815712408961925_);" d="M43.3,611.5c3.9,3.5,16.6,3.9,16.6,3.9
				c45.6-109.4,64.2-125,64.2-125c-6.6,41.3-1.1,132.8-1.1,132.8c7.5,3.3,17.2,0,17.2,0c0.6-67.6,11-126.6,23.3-173.1
				c-30.8-0.7-47.2-11.2-52.6-15.5C85.3,476.1,43.3,611.5,43.3,611.5z"/>
			<path class="st3" d="M118.8,308.8c-5.8,29.1-3.7,81.2-2.4,104.9c0.4,6.7-4.3,15.9-8,22.2c-0.6,1-0.2,2.3,0.8,2.8
				c6.3,3.2,27.7,13.3,52.4,14.5c1.6,0.1,3.1-1,3.5-2.6c18.4-68.6,39.7-112.4,39.7-112.4C181.4,300.6,118.8,308.8,118.8,308.8z"/>
			
				<linearGradient id="SVGID_00000114792185709183048200000009650303671116776349_" gradientUnits="userSpaceOnUse" x1="127.9065" y1="350.0624" x2="132.698" y2="272.601" gradientTransform="matrix(1 0 0 -1 0 700)">
				<stop  offset="0" style="stop-color:#4F52FF"/>
				<stop  offset="1" style="stop-color:#4042E2"/>
			</linearGradient>
			<path style="fill:url(#SVGID_00000114792185709183048200000009650303671116776349_);" d="M127.2,487.9c-0.3,0-0.5-0.1-0.8-0.2
				c-0.7-0.4-0.9-1.3-0.5-2c0.2-0.4,6.1-9.9,18.1-15.7c0.7-0.3,1.6,0,2,0.7s0,1.6-0.7,2c-11.1,5.4-16.8,14.5-16.9,14.6
				C128.2,487.6,127.7,487.9,127.2,487.9z"/>
			<g>
				
					<linearGradient id="SVGID_00000142868055328008786010000011914910287652735894_" gradientUnits="userSpaceOnUse" x1="1254.2489" y1="305.1671" x2="1200.0344" y2="257.1588" gradientTransform="matrix(1 0 0 -1 -1140.7335 700)">
					<stop  offset="0" style="stop-color:#FEBBBA"/>
					<stop  offset="1" style="stop-color:#FF928E"/>
				</linearGradient>
				<path style="fill:url(#SVGID_00000142868055328008786010000011914910287652735894_);" d="M82.2,392.3c1.9,13.5,7.4,28.3,18.5,44
					l4.2-3.4c0,0-4.9-19.7-2.1-42.1C96,389.5,87.9,390.9,82.2,392.3z"/>
				<path class="st23" d="M125.3,344.7l-6.5-35.9c0,0-43.5,33.3-36.6,83.5c5.7-1.4,13.8-2.8,20.6-1.5
					C104.8,374.7,110.8,357.2,125.3,344.7z"/>
			</g>
			<g>
				<path class="st24" d="M204.9,338.2l-16.8,36.2c2.7,21.8,14.5,31.3,27.1,34.9c0.8-10,3.3-18,5.6-23.6
					C204.7,369.1,204.9,338.2,204.9,338.2z"/>
				
					<linearGradient id="SVGID_00000041286176055666735180000011846417446472799395_" gradientUnits="userSpaceOnUse" x1="1355.896" y1="300.5687" x2="1398.5959" y2="300.5687" gradientTransform="matrix(1 0 0 -1 -1140.7335 700)">
					<stop  offset="0" style="stop-color:#FEBBBA"/>
					<stop  offset="1" style="stop-color:#FF928E"/>
				</linearGradient>
				<path style="fill:url(#SVGID_00000041286176055666735180000011846417446472799395_);" d="M220.9,385.8
					c-2.3,5.6-4.9,13.6-5.6,23.6c33.8,13.1,42.7-12.3,42.7-12.3l-6.2-1.1C237.6,397.4,227.7,392.9,220.9,385.8z"/>
			</g>
			
				<linearGradient id="SVGID_00000168812882461044809960000015604521853884266630_" gradientUnits="userSpaceOnUse" x1="1314.3474" y1="414.7083" x2="1313.8811" y2="334.9763" gradientTransform="matrix(1 0 0 -1 -1140.7335 700)">
				<stop  offset="0" style="stop-color:#FEBBBA"/>
				<stop  offset="1" style="stop-color:#FF928E"/>
			</linearGradient>
			<path style="fill:url(#SVGID_00000168812882461044809960000015604521853884266630_);" d="M189.4,293.6l-8.1,29.8
				c-0.9,3.4-4.5,5.1-7.8,3.9c-3.5-1.4-7.9-3.3-11.7-5.3c-4.1-2.2-5.3-7.4-2.8-11.2l16.9-25.1L189.4,293.6z"/>
		</g>
		
			<linearGradient id="SVGID_00000091723542850217464810000014919826919913704343_" gradientUnits="userSpaceOnUse" x1="290.2831" y1="313.296" x2="53.1067" y2="225.4529" gradientTransform="matrix(1 0 0 -1 0 700)">
			<stop  offset="0" style="stop-color:#09005D"/>
			<stop  offset="1" style="stop-color:#1A0F91"/>
		</linearGradient>
		<path style="fill:url(#SVGID_00000091723542850217464810000014919826919913704343_);" d="M273.4,377.1L65.5,452.8
			c-8.7,3.2-12.9,13.1-9,21.5l0.6,1.4c3.4,7.5,12.2,10.8,19.7,7.3l201.8-93.4L273.4,377.1z"/>
		
			<linearGradient id="SVGID_00000128471960129798084470000004607036676036397238_" gradientUnits="userSpaceOnUse" x1="1406.9861" y1="368.4452" x2="1612.186" y2="368.4452" gradientTransform="matrix(1 0 0 -1 -1140.7335 700)">
			<stop  offset="0" style="stop-color:#B37CFF"/>
			<stop  offset="1" style="stop-color:#F895E7"/>
		</linearGradient>
		
			<ellipse style="opacity:0.23;fill:url(#SVGID_00000128471960129798084470000004607036676036397238_);enable-background:new    ;" cx="368.9" cy="331.6" rx="102.6" ry="100.8"/>
		
			<linearGradient id="SVGID_00000016053937927656385790000014188818082796397732_" gradientUnits="userSpaceOnUse" x1="1395.386" y1="368.4452" x2="1623.786" y2="368.4452" gradientTransform="matrix(1 0 0 -1 -1140.7335 700)">
			<stop  offset="0" style="stop-color:#09005D"/>
			<stop  offset="1" style="stop-color:#1A0F91"/>
		</linearGradient>
		<path style="fill:url(#SVGID_00000016053937927656385790000014188818082796397732_);" d="M368.9,219.5
			c-63.1,0-114.2,50.2-114.2,112.1s51.1,112.1,114.2,112.1s114.2-50.2,114.2-112.1S432,219.5,368.9,219.5z M368.9,427.2
			c-53.8,0-97.4-42.8-97.4-95.6s43.6-95.6,97.4-95.6s97.4,42.8,97.4,95.6C466.3,384.4,422.7,427.2,368.9,427.2z"/>
		<path class="st3" d="M263.4,345.5c-0.4,0-0.7-0.3-0.8-0.7c-0.3-2.7-0.6-5.4-0.7-8c0-0.4,0.3-0.8,0.7-0.8c0.5,0,0.8,0.3,0.8,0.7
			c0.1,2.6,0.4,5.3,0.7,7.9C264.1,345,263.9,345.4,263.4,345.5C263.5,345.5,263.5,345.5,263.4,345.5z M264.2,314.1h-0.1
			c-0.4-0.1-0.7-0.5-0.6-0.9c1.3-7.2,3.4-14.3,6.2-21.1l0,0c16.5-39.9,55.4-65.7,99.3-65.7c20.5,0,40.3,5.7,57.5,16.4
			c0.4,0.2,0.5,0.7,0.2,1.1c-0.2,0.4-0.7,0.5-1.1,0.2c-16.9-10.6-36.5-16.2-56.7-16.2c-43.2,0-81.7,25.4-97.9,64.8l0,0
			c-2.8,6.7-4.8,13.7-6.1,20.8C264.9,313.9,264.6,314.1,264.2,314.1z"/>
		<g>
			
				<linearGradient id="SVGID_00000027570034511456810890000013274598015939904437_" gradientUnits="userSpaceOnUse" x1="997.8486" y1="-1447.1088" x2="958.6008" y2="-1499.0304" gradientTransform="matrix(0.9897 -0.1428 -0.1428 -0.9897 -994.6957 -1017.5357)">
				<stop  offset="0" style="stop-color:#FEBBBA"/>
				<stop  offset="1" style="stop-color:#FF928E"/>
			</linearGradient>
			<path style="fill:url(#SVGID_00000027570034511456810890000013274598015939904437_);" d="M207.2,270.9c0.1,0.5-6.8,34-6.8,34
				l-19.1-4.3l1.8-32.7C183.1,267.9,205.9,262.3,207.2,270.9z"/>
			
				<linearGradient id="SVGID_00000115492691573065609340000000872760833996843649_" gradientUnits="userSpaceOnUse" x1="163.7438" y1="419.2192" x2="299.9163" y2="402.002" gradientTransform="matrix(1 0 0 -1 0 700)">
				<stop  offset="0" style="stop-color:#09005D"/>
				<stop  offset="1" style="stop-color:#1A0F91"/>
			</linearGradient>
			<path style="fill:url(#SVGID_00000115492691573065609340000000872760833996843649_);" d="M187.4,275.2l-2.3,17.2
				c0,0.2,0,0.4,0,0.7c0.2,1.3,1.2,5.9,5.8,4.6c4.2-1.2,8-2.2,10.7-1.4c1.2,0.4,1.9,1.6,1.7,2.8c-0.6,3-2.1,9.9-4.4,15.6
				c-0.5,1.2-1.7,1.8-2.9,1.4c-3.6-1-11.2-3.5-16.8-6.9c-0.8-0.5-1.2-1.3-1.2-2.2c0.2-4.3,0.7-17.5,0.3-21.2
				c-0.4-3.5-4.6-5.5-6.5-6.3c-0.6-0.2-1.1-0.7-1.3-1.3c-0.9-2.1-2-7.1,4.2-9.1c1.3-0.4,2-1.8,1.5-3.1c-0.9-2.6-1.3-6.5,3.5-8.7
				c4.9-2.2,8.6,0.4,10.6,2.5c0.8,0.9,2.1,1,3.1,0.4c0.6-0.4,1.3-0.5,2.2,0.1c1.2,0.7,2.8,0.2,3.4-1c1.2-2.4,3.6-5,8.4-4.2
				c8.5,1.5,9.5,10.9,7.2,16.5c-2.2,5.5-11.4,3.4-16,0.6c-3.5-2.1-8,0.1-10,1.3C187.9,273.8,187.5,274.5,187.4,275.2z"/>
			
				<linearGradient id="SVGID_00000008864022951473081290000010925745036350032531_" gradientUnits="userSpaceOnUse" x1="940.3839" y1="-1488.2421" x2="971.8637" y2="-1455.9445" gradientTransform="matrix(0.9897 -0.1428 -0.1428 -0.9897 -994.6957 -1017.5357)">
				<stop  offset="0" style="stop-color:#FEBBBA"/>
				<stop  offset="1" style="stop-color:#FF928E"/>
			</linearGradient>
			<path style="fill:url(#SVGID_00000008864022951473081290000010925745036350032531_);" d="M177.5,292.1c0,0,3.5-9.8-0.1-12.2
				c-3.6-2.4-9-1.2-7.8,6C171.1,294.6,177.5,292.1,177.5,292.1z"/>
		</g>
		
			<linearGradient id="SVGID_00000001648746971852348440000017947267456747889086_" gradientUnits="userSpaceOnUse" x1="1275.6334" y1="281.0179" x2="1221.4188" y2="233.0096" gradientTransform="matrix(1 0 0 -1 -1140.7335 700)">
			<stop  offset="0" style="stop-color:#FEBBBA"/>
			<stop  offset="1" style="stop-color:#FF928E"/>
		</linearGradient>
		<path style="fill:url(#SVGID_00000001648746971852348440000017947267456747889086_);" d="M103.2,432.3l19.6-1.6l8.5,7.8
			c0,0-2,2.8-8.3,1.2s-14.9-2-14.9-2s-8.7,3.9-8.8-3.4L103.2,432.3z"/>
		
			<linearGradient id="SVGID_00000012440258575546321760000007742347055639278464_" gradientUnits="userSpaceOnUse" x1="1394.0549" y1="305.5973" x2="1409.3396" y2="305.5973" gradientTransform="matrix(1 0 0 -1 -1140.7335 700)">
			<stop  offset="0" style="stop-color:#FEBBBA"/>
			<stop  offset="1" style="stop-color:#FF928E"/>
		</linearGradient>
		<path style="fill:url(#SVGID_00000012440258575546321760000007742347055639278464_);" d="M255.4,401.7c1.7,1.3,7.5-1.4,11.1-3.4
			c1.7-0.9,2.6-3,2-4.8c-0.9-2.7-2.3-6.2-4-6.6C261.5,386.1,248.4,396.2,255.4,401.7z"/>
		<path class="st3" d="M69.6,480.1c-0.1,0-0.2,0-0.2,0c-8.1-2.8-10-7.6-10.2-11.1c-0.2-5.2,3-10,8.1-11.9l25-9.7
			c0.4-0.2,0.8,0,1,0.4c0.1,0.4,0,0.8-0.4,1l-25,9.7c-4.4,1.7-7.3,5.9-7.1,10.4c0.2,4.4,3.3,7.7,9.1,9.8c0.4,0.1,0.6,0.6,0.5,1
			C70.2,479.9,69.9,480.1,69.6,480.1z"/>
		<path class="st3" d="M100.2,445.7c-0.3,0-0.6-0.2-0.7-0.5c-0.1-0.4,0-0.8,0.4-1l3.2-1.3c0.4-0.2,0.8,0,1,0.4s0,0.8-0.4,1l-3.2,1.3
			C100.4,445.7,100.3,445.7,100.2,445.7z"/>
	</g>
	<g id="message01">
		<path class="st3" d="M231,149.2l30.9,2.1c1.5,0.1,2.3-1.7,1.2-2.7l-29.6-22L231,149.2z"/>
		<path class="st3" d="M54.4,50.2l174.1-1.1c4,0,7.2,2.9,7.2,6.6l-0.7,87.6c0,3.6-3.4,6.6-7.4,6.5l-172.2-4.7
			c-3.8-0.1-6.9-2.9-6.9-6.4l-1.1-81.9C47.3,53.2,50.4,50.3,54.4,50.2z"/>
		<path class="st35" d="M59.8,55.6l163-0.9c3.7,0,6.8,2.6,6.7,5.7l-0.7,76.6c0,3.2,2.7,7.7-1,7.6l-167.1-6.1
			c-3.6-0.1-6.4-2.6-6.5-5.6l-1.1-71.5C53.1,58.2,56.1,55.6,59.8,55.6z"/>
		<path class="st36" d="M227.8,144.6l-172.2-4.7c-0.7,0-1.3-0.6-1.3-1.2l-1.1-81.9c0-0.3,0.1-0.6,0.4-0.9s0.6-0.4,1-0.4l174.1-1.1
			c0.4,0,0.7,0.1,1,0.4c0.3,0.2,0.4,0.6,0.4,0.9l-0.7,87.7C229.2,144,228.6,144.6,227.8,144.6z M55.6,138.6l172.2,4.7l0.7-87.6
			L54.4,56.8L55.6,138.6z"/>
		<path class="st36" d="M64.4,75.4c0,3.1,1.8,5.6,4,5.6h148.1c2.2,0,4-2.5,4-5.6s-1.8-5.6-4-5.6h-148C66.3,69.8,64.4,72.3,64.4,75.4
			z"/>
		<path class="st36" d="M72.6,90.6h138.8c3,0,5.5,1.5,5.5,3.4s-2.5,3.4-5.5,3.4H72.6c-3,0-5.5-1.5-5.5-3.4S69.5,90.6,72.6,90.6z"/>
		<path class="st36" d="M67.1,109.3c0,1.9,2.4,3.4,5.5,3.4h138.8c3,0,5.5-1.5,5.5-3.4v-2.1c0-1.9-2.5-3.4-5.6-3.4l-138.8,2.1
			C69.5,106,67.1,107.5,67.1,109.3z"/>
		<path class="st36" d="M73.1,119.9h138.8c3,0,5.5,1.5,5.5,3.4s-2.5,3.4-5.5,3.4H73.1c-3,0-5.5-1.5-5.5-3.4S70.1,119.9,73.1,119.9z"
			/>
		
			<!-- <animateTransform  accumulate="none" additive="replace" attributeName="transform" begin="0.1" calcMode="linear" dur="2s" fill="remove" repeatCount="indefinite" restart="always" type="translate" values="0 0 ; 0 -10; 0 0">
			</animateTransform> -->
	</g>
</g>
</svg>
