<svg xmlns="http://www.w3.org/2000/svg" xmlns:xlink="http://www.w3.org/1999/xlink" version="1.1" x="0px" y="0px" viewBox="0 0 1000 1000" width="1000" height="1000">
<style type="text/css">
	.st0{fill:#FFFFFF;}
	.st1{fill:#92B5F9;}
	.st2{fill:#7C9AF2;}
	.st3{fill:#0B0754;}
	.st4{fill:#4951EC;}
	.st5{fill:#BED1F9;}
	.st6{fill:#DDE8FE;}
	.st7{fill:#FA7167;}
	.st8{fill:#FB9390;}
	.st9{fill:#EF7F7F;}
	.st10{fill:#E8605D;}
</style>
<g>
	<rect class="st0" width="1000" height="1000"/>
	<g>
		<g>
			<path class="st1" d="M471.1,764.7c0,0-68-94.1-78.5-115.6s9.8-17.6,9.8-17.6s-30.2-39.3-22.9-51c7.3-11.7,23.8,5.2,23.8,5.2
				s-15.1-51.2-3.6-53.1c21.6-3.5,41.2,51.8,41.2,51.8s-2.4-22.5,11.3-18.5c20.7,6.1,11.5,53.5,11.5,53.5s22.2-3.6,33.7,5.4
				C518,641.2,471.1,764.7,471.1,764.7z">
			</path>
		</g>
	</g>
	<g>
		<g>
			<path class="st1" d="M470.9,751.9c0,0-126.6-15.8-154.2-32.6c-27.5-16.8-0.3-24.4-0.3-24.4s-63.6-24.4-62.9-41
				c0.7-16.6,32.3-8.2,32.3-8.2s-53.6-45.7-40.9-54.4c23.6-16.2,85.6,31.4,85.6,31.4s-18.4-22.6,1-26.2
				c29.2-5.4,50.8,50.4,50.8,50.4s-5.5-22,14.7-19.1C433.2,633.1,470.9,751.9,470.9,751.9z"/>
		</g>
		<path class="st2" d="M397,627.8c-20.2-2.7-14.7,19.1-14.7,19.1s-21.6-55.8-50.8-50.4c-19.4,3.6-1,26.2-1,26.2s-62-47.5-85.6-31.4
			L470.4,752C466.4,736.6,430.9,632.4,397,627.8z"/>
	</g>
	<g>
		<path class="st3" d="M499.1,765.6c0,0-61.2-63.7-91-71.3s-23.6,14.2-23.6,14.2s-60.8-55.1-73.8-42.9c-13.1,12.2,2.1,25.1,2.1,25.1
			s-49.2-10.9-55.5,5.3c-9.7,24.8,71.2,41.9,71.2,41.9s-33.6,1-25.1,17.2C316,779.5,499.1,765.6,499.1,765.6z"/>
		<path class="st4" d="M257.2,696c6.3-16.2,55.5-5.3,55.5-5.3s-15.2-12.9-2.1-25.1c13.1-12.2,71.7,35.6,71.7,35.6
			s-14.5-26.8,15.4-19.2c29.8,7.6,101.4,83.6,101.4,83.6L257.2,696z"/>
	</g>
	<g>
		<path class="st5" d="M429.3,169.6c-19.1,8.5-18.2,36.2,1.5,43.6c3.5,1.3,6.4,3.9,8.2,7.3l6.2,11.4c1.7,3.1,5.5,4.4,8.8,3l7.2-3.2
			c3.3-1.4,4.9-5.2,3.7-8.6c-4.3-12.3-6.8-16.5-4.2-23.2C468.4,180.3,448.4,161.1,429.3,169.6z"/>
		<path class="st0" d="M445.3,222.3c-4.1-10.4-8.9-21.3-10.4-24.4c-11.3,3.6-10.1-9.6-3.5-6.1c1.9,1,3.1,2.7,4.1,4.7
				c3.7-1.3,7.1-3.4,10.1-6c-0.9-2.6-1.7-4.6-1.4-6.4c0.5-2.9,3.5-4.4,5.5-2.2c0.7,0.8,1.1,2,1,3.1c-0.2,2.3-2.2,4.3-3.9,6
				c2.8,8.4,5.9,16.8,9.2,25.1l-1,0.4c-3.2-8.1-6.3-16.4-9.1-24.6c-2.9,2.6-6.3,4.6-10,5.9c1.9,3.9,6.5,14.6,10.4,24.4L445.3,222.3z
				 M428.8,196.8c1.3,0.8,3.1,0.9,5.6,0.1c-0.9-1.7-2-3.2-3.5-4C427.3,190.9,426.6,195.4,428.8,196.8z M445.3,184.2
				c-0.2,1.6,0.5,3.4,1.2,5.4c1.4-1.4,3-3,3.2-4.9c0.1-1.3-0.8-2.9-2.1-2.9C447.4,181.9,445.5,183.1,445.3,184.2z"/>
		<path class="st2" d="M438.8,220.2c0,0.1,0.1,0.2,0.2,0.3l6.2,11.4c1.7,3.1,5.5,4.4,8.8,3l7.2-3.2c3.3-1.4,4.9-5.2,3.7-8.6
			c-1.9-5.5-3.5-9.4-4.4-12.6L438.8,220.2z"/>
		<animateTransform attributeName="transform" dur="2s" type="translate" values="5 5 ; 0 0; 5 5" repeatCount="indefinite" begin="0"></animateTransform>
	</g>
	<g class="flash-lights">
		<g>
			<path class="st6" d="M412.2,164.3l-8.8-9.3c-0.9-0.9-0.8-2.3,0.1-3.2s2.3-0.8,3.2,0.1l8.8,9.3c0.9,0.9,0.8,2.3-0.1,3.2
				C414.4,165.3,413,165.2,412.2,164.3z"/>
		</g>
		<g>
			<path class="st6" d="M406,194.1l-13.3,2.3c-1.2,0.2-2.4-0.6-2.6-1.8s0.6-2.4,1.8-2.6l13.3-2.3c1.2-0.2,2.4,0.6,2.6,1.8
				S407.2,193.9,406,194.1z"/>
		</g>
		<g>
			<path class="st6" d="M403.5,237.4c-1.1-0.6-1.4-2-0.8-3.1c2.4-4,5.1-7.8,8.2-11.3c0.8-0.9,2.2-1,3.2-0.2c0.9,0.8,1,2.2,0.2,3.2
				c-2.9,3.3-5.5,6.8-7.7,10.6C406,237.6,404.6,238,403.5,237.4z"/>
		</g>
		<g>
			<path class="st6" d="M444.1,155.4c-1.2,0-2.2-1-2.2-2.3c0-5.9-0.5-11.8-1.7-17.6c-0.2-1.2,0.5-2.4,1.8-2.6
				c1.2-0.2,2.4,0.5,2.6,1.8c1.2,6.1,1.9,12.3,1.8,18.5C446.4,154.4,445.4,155.4,444.1,155.4z"/>
		</g>
		<g>
			<path class="st6" d="M461.9,168.6c-0.6-1.1-0.3-2.4,0.8-3.1l12.5-7.6c1.1-0.6,2.5-0.3,3.1,0.8s0.3,2.4-0.8,3.1l-12.5,7.6
				C464,170,462.6,169.6,461.9,168.6z"/>
		</g>
		<g>
			<path class="st6" d="M493.5,198.8c-0.2,0.1-0.4,0.1-0.6,0.1c-5-0.1-10.1-0.7-15-1.9c-1.2-0.3-2-1.5-1.7-2.7s1.5-2,2.7-1.7
				c4.6,1.1,9.3,1.7,14,1.8c1.2,0,2.2,1.1,2.2,2.3C495.2,197.7,494.5,198.5,493.5,198.8z"/>
		</g>
		<animate attributeName="opacity" dur="1.5s" values="0;1;1;1;0;1;0" repeatCount="indefinite" begin="0.1"></animate>
	</g>
	<path class="st1" d="M271.9,280.5l-3-7.1l-7.5-1.5c-0.9-0.2-1.1-1.3-0.5-1.8l5.8-5l-0.9-7.6c-0.1-0.9,0.8-1.5,1.6-1l6.6,4l7-3.2
		c0.8-0.4,1.7,0.4,1.5,1.2l-1.7,7.5l5.2,5.7c0.6,0.6,0.2,1.7-0.7,1.8l-7.6,0.7l-3.8,6.7C273.4,281.3,272.3,281.3,271.9,280.5z">
		<animateTransform attributeName="transform" attributeType="XML" type="rotate" dur="3s" from="0 273 268" to="-360 273 268" repeatCount="indefinite"></animateTransform>
	</path>
	<polygon class="st7" points="220.9,415.6 229.4,409.9 240.1,422.7 253.6,415.9 263.1,424.1 267.3,419.3 254.5,408.3 241.7,414.7 
		230.6,401.5 217.8,410 	"/>
	<path class="st7" d="M727.6,770.7H438.4c-11,0-20-9.3-20-20.8v-12.3c0-11.5,9-20.8,20-20.8h289.2l0,0c-13.2,15-13.5,37.9-0.5,53.2
		L727.6,770.7z"/>
	<path class="st6" d="M723.2,723H562.7c-11,0-20,9.3-20,20.8l0,0c0,11.5,9,20.8,20,20.8h160.5C715.7,751.8,715.7,735.7,723.2,723z"
		/>
	<path class="st4" d="M626,679.5c0.4-0.8-0.2-1.7-1.2-1.7h-153c-12,0-21.7,8.8-21.7,19.5l0,0c0,10.8,9.7,19.5,21.7,19.5h153.1
		c1,0,1.6-0.9,1.2-1.7l0,0C620,703.8,620,690.7,626,679.5z"/>
	<path class="st6" d="M625,681.4h-75.8c-14.1,0-25.5,7.3-25.5,16.4s11.4,16.4,25.5,16.4h76.3C620.3,703.7,620.2,691.9,625,681.4z"/>
	<g>
		<path class="st2" d="M605.5,689.2h-9.9c-2.1,0-3.8,0.7-3.8,1.6v0.1h13.7V689.2z"/>
		<path class="st2" d="M613.9,693.2c0-2.2-2.6-4-5.8-4h-12.7c2.4,0,4.4,1.4,4.4,3l-0.1,42.8l7-5.5l7.1,5.5L613.9,693.2z"/>
	</g>
	<g>
		<path class="st6" d="M597.9,676.3h-89c-7.9,0-14.3-7.6-14.3-17l0,0c0-9.4,6.4-17,14.3-17h89l0,0c-6.8,9.4-7.1,23.2-0.6,33
			L597.9,676.3z"/>
		<path class="st3" d="M494.5,659.4L494.5,659.4c0-9.4,6.5-17,14.6-17h90.4c0.4,0,0.8-0.4,0.8-0.9l0,0c0-0.5-0.3-0.9-0.8-0.9H456.1
			c-8.9,0-16.1,8.4-16.1,18.7l0,0c0,10.3,7.2,18.7,16.1,18.7h143.4c0.4,0,0.8-0.4,0.8-0.9l0,0c0-0.5-0.3-0.9-0.8-0.9h-90.4
			C501.1,676.3,494.5,668.8,494.5,659.4z"/>
		<g>
			<path class="st7" d="M582.3,650.8h-9.9c-2.1,0-3.8,0.7-3.8,1.6v0.1h13.7V650.8z"/>
			<path class="st7" d="M590.8,654.7c0-2.2-2.6-3.9-5.8-3.9h-12.7c2.4,0,4.4,1.3,4.4,3l-0.1,42l7-5.4l7.1,5.4L590.8,654.7z"/>
		</g>
	</g>
	<g>
		<g>
			<path class="st2" d="M739.8,391.3l13.2-3.5l-9,118.9l-15.8,0.5l8-111.6C736.3,393.6,737.8,391.8,739.8,391.3z"/>
			<g>
				<path class="st5" d="M745.2,510.1c-0.3,0-0.6,0-0.9,0c-2.6-0.3-4.5-2.9-4.3-5.8l8.8-111.8c0.2-2.9,2.5-5,5.1-4.7
					s4.5,2.9,4.3,5.8l-8.8,111.8C749.2,507.9,747.4,509.9,745.2,510.1z"/>
				<path class="st5" d="M624.2,516c0,0.1,0,0.2,0,0.2l0,0c0.4,4.5,3.9,8,7.9,7.6l111-9.9c3.9-0.3,6.8-4.3,6.4-8.9
					c0-0.2,0-0.4-0.1-0.6L624.2,516z"/>
			</g>
		</g>
		<path class="st8" d="M701.5,636.1c-7.3,4-29.5-3-29.5-3.7c-0.3,6.1-24.9,65.5-24.9,65.5v18.3c0,0,50.6,2.4,49.9-2.1
			s-3.5-1.6-13.5-10c-0.9-0.8-15.1-4-11.2-12.4C680,674.8,696.4,646.6,701.5,636.1z"/>
		<path class="st3" d="M645.5,716.8h55.4c2-0.2,2.5-1.8,1.8-2.8c-1.5-2-12.1-6.8-19.2-10c-12.4,1.5-34.3-3.3-36.3-6.2
			C641.9,704.9,644.3,716.6,645.5,716.8z"/>
		<path class="st3" d="M633.3,593.4c-0.8-2.2,47.7-22.8,49.9-20.5c3.8,4.2-26.2,82.2-26.2,82.2l34.5,10.5c0,0,35.9-90.1,34.4-106.6
			s-19.5-35.2-58.4-23.2C628.5,547.8,633.3,593.4,633.3,593.4z"/>
		<path class="st8" d="M733.6,646.3c-8.2-1.5-18.8-1.9-27.3-2.1c1,7.6,5.9,46.3,5,48.7c-3.6,9.7-11.6,14.2-11.6,14.2
			s37.6,34,39.9,30c2.3-3.9-1.7-3.4-4.1-16.3c-0.2-1.2-5.7-19.2-6-28.9C728.9,673.3,733.4,656.6,733.6,646.3z"/>
		<path class="st4" d="M721.6,519.6c-5.2-2.8-18.9-2.9-33.9-1.9c-29.2,1.9-58,7.6-85.8,16.8l-18.6,6.2l0.1-19.1
			c0,0-59.2-9.9-61.2,4.8c-3.1,22.1,0.8,66.9,20.5,76.9c61.2,31.1,147-49.5,147.3-39c0.4,14.2,12.3,66.8,15.4,89.9
			c8.5,0.2,23.1,0.1,29.4-1.3C735.9,607.7,736.5,527.5,721.6,519.6z"/>
		<path class="st3" d="M698.6,707.9l42.3,33.8c1.7,1.1,3.1,0.2,3.2-1.1c0.2-2.5-5-12.9-8.5-19.9c-10.5-6.8-24.4-24.4-24.2-27.8
			C706.9,696.6,697.9,707,698.6,707.9z"/>
		<path class="st3" d="M602.9,335.3c-1.4-13-2.9-26-13.7-35.5c-8.7-7.7-19.8-9-30.7-4.9c-31,11.7-15,39.2-54.6,67
			c-12.3,8.6-25.9,14.5-35.1,26.2c-13,16.3-8.1,35.9,3.7,48.9c56.5,62.5,119.6-21.9,124.1-42.2C600,379.7,603.8,343.6,602.9,335.3z
					">
			<animate  accumulate="none" additive="replace" attributeName="d" calcMode="linear" dur="2s" fill="remove" repeatCount="indefinite" restart="always" values="
			M602.9,335.3c-1.4-13-2.9-26-13.7-35.5c-8.7-7.7-19.8-9-30.7-4.9c-31,11.7-15,39.2-54.6,67
			c-12.3,8.6-25.9,14.5-35.1,26.2c-13,16.3-8.1,35.9,3.7,48.9c56.5,62.5,119.6-21.9,124.1-42.2C600,379.7,603.8,343.6,602.9,335.3z;
			M602.9,329c-1.6-11.1-3.3-22.2-15.7-30.3c-10-6.6-23.4-9.6-35.3-4.2c-21,14.4-17.2,33.4-62.7,57.1    c-14.1,7.3-29.7,12.4-40.3,22.3c-14.9,13.9-9.3,30.6,4.2,41.7c64.9,53.3,137.4-18.7,142.5-36C599.5,366.8,603.9,336.1,602.9,329z;
			M602.9,335.3c-1.4-13-2.9-26-13.7-35.5c-8.7-7.7-19.8-9-30.7-4.9c-31,11.7-15,39.2-54.6,67
			c-12.3,8.6-25.9,14.5-35.1,26.2c-13,16.3-8.1,35.9,3.7,48.9c56.5,62.5,119.6-21.9,124.1-42.2C600,379.7,603.8,343.6,602.9,335.3z" xmlns="http://www.w3.org/2000/svg"></animate>
		</path>
		<path class="st7" d="M591.4,408.3c-4.6-8.5-9.4-15.3-9.4-15.3c-4.8-8.5-17.2-12.8-17.2-12.8s-4.1,0.1-8.9,0.3
			c-0.3,0.8-0.6,1.4-0.9,1.6c-1.8,1.3-12-0.4-18.6,4.1c-22.2,19-16,111-14.3,140.1l67.5,0.6c0,0-8.5-62.5,5.2-78.6
			C604.4,437.2,598.3,420.9,591.4,408.3z"/>
		<path class="st8" d="M561,349.1c0,0-3.7,26.5-6.3,32.9s14.2,20.2,28.2,24.4s-4.3-14.2-3.7-21.1s3.1-39.5,3.1-39.5L561,349.1z"/>
		<path class="st9" d="M581.7,355.2c0.4-5.4,0.7-9.3,0.7-9.3l-21.4,3.2c0,0-0.5,3.1-1.1,7.5C568.5,361.6,576.3,360,581.7,355.2z"/>
		<path class="st8" d="M567.7,300.7c0,0-8.4,1.9-13.6,9.8s-8.8,31.3,8.4,42.2s30.5-4.5,30.7-19.6S590.1,298.1,567.7,300.7z"/>
		<path class="st8" d="M597,328.5c-1.5,3.6-4.4,5.9-6.5,5s-2.7-4.5-1.2-8.1s4.4-5.9,6.5-5C598,321.2,598.5,324.9,597,328.5z"/>
		<path class="st3" d="M570.2,300.2c0,0-10.7,24.1-20.2,26.2s-9.3,14.3-9.3,14.3s0.2-28,9-34.4C558.7,299.9,570.2,300.2,570.2,300.2
			z"/>
		<path class="st8" d="M553.8,331.5c1.2,3.9,0.1,7.8-2.5,8.6c-2.6,0.8-5.8-1.6-7-5.6s-0.1-7.8,2.5-8.6
			C549.4,325.1,552.6,327.6,553.8,331.5z"/>
		<path class="st8" d="M674.5,505.4c-4-1.5-10.1-1.6-10-2.2c0.4-2.2,18.3,4.8,15.9,1.6c-1.3-1.8-14.7-8-18-7
			c-3.2,1-23.9,6.8-23.9,6.8l-56.6-13.3c0,0-14.3-32.5-15.7-60.4c-11.8,1.6-19.9,4.5-30.1,10.2c5,26.7,17,70,30.3,78.1
			c5.6,3.4,72.5-4.1,72.5-4.1s14.7-1,17.1-2c1.8-0.7,6.5-3.4,9.1-4.1c5.8-1.6,16.2,2.5,16.2,1.4
			C681.2,509.7,678.6,506.9,674.5,505.4z"/>
		<path class="st10" d="M566.5,401.2c-0.5-8.6-3.8-16.9-12.9-19.5c-5.7-1.6-12-0.1-16.5,3.6c-5.4,4.4-6.9,11.5-6.9,18.1
			c0.1,15.2,1.1,30.9,3.9,45.8c10.3-5.7,22.3-9.1,34.1-10.7C568.1,438.4,567.2,412.6,566.5,401.2z"/>
	</g>
	<path class="st7" d="M651.2,604.3H423.3c-7.1,0-12.8,5.7-12.8,12.8v10.8c0,7.1,5.7,12.8,12.8,12.8h227.9l-0.1-0.1
		C641.3,630.4,641.4,614.3,651.2,604.3z"/>
	<path class="st6" d="M647.2,609.7H525.3c-7.1,0-12.8,5.7-12.8,12.8l0,0c0,7.1,5.7,12.8,12.8,12.8h121.8
		C642.7,627.3,642.7,617.6,647.2,609.7z"/>
	<g>
		<path class="st2" d="M702.7,206.7c-0.6,1.4,0,3,1.4,3.6s3,0,3.6-1.4s0-3-1.4-3.6S703.3,205.4,702.7,206.7z"/>
		<path class="st2" d="M721,215c-0.6,1.4,0,3,1.4,3.6s3,0,3.6-1.4s0-3-1.4-3.6C723.2,213,721.6,213.6,721,215z"/>
		<path class="st2" d="M722.7,193.5c-12.8-5.8-28-0.2-33.8,12.7c-5.8,12.8-0.2,28,12.7,33.8c12.8,5.8,28,0.2,33.8-12.7
			C741.2,214.5,735.6,199.3,722.7,193.5z M719.6,236.6c-2.6,1-5.3,1.4-8,1.4c-2.8-0.1-5.6-0.7-8.2-1.9s-4.9-2.8-6.8-4.9
			c-1.9-2-3.3-4.4-4.3-6.9c-1-2.6-1.4-5.3-1.3-8c0.1-2.8,0.7-5.6,1.9-8.2c1.2-2.6,2.8-4.9,4.9-6.8c2-1.9,4.3-3.3,6.9-4.3
			s5.3-1.4,8-1.4c2.8,0.1,5.6,0.7,8.2,1.9c2.6,1.2,4.9,2.8,6.8,4.9c1.9,2,3.3,4.4,4.3,6.9c1,2.6,1.4,5.3,1.3,8
			c-0.1,2.8-0.7,5.6-1.9,8.2c-1.2,2.6-2.8,4.9-4.9,6.8C724.5,234.2,722.2,235.6,719.6,236.6z"/>
		<path class="st2" d="M719.5,221.4l-2.5-1.1c-0.2-0.1-0.5,0-0.6,0.2c-1.4,2.5-4.4,3.5-7.1,2.3s-3.9-4.2-2.9-6.9
			c0.1-0.2,0-0.5-0.2-0.6l-2.5-1.1c-0.2-0.1-0.5,0-0.6,0.2c-1.8,4.5,0.3,9.6,4.7,11.6s9.7,0.2,11.9-4.1
			C719.9,221.8,719.8,221.5,719.5,221.4z"/>
		<animateTransform xmlns="http://www.w3.org/2000/svg" attributeName="transform" dur="2s" type="translate" values="0 0 ; -5 5; 0 0" repeatCount="indefinite" begin="0.5"/>
	</g>
</g>
</svg>
