<svg xmlns="http://www.w3.org/2000/svg" xmlns:xlink="http://www.w3.org/1999/xlink" version="1.1" x="0px" y="0px" viewBox="0 0 1000 1000" width="1000" height="1000">
<style type="text/css">
	.st0{fill:#FF5E3A;}
	.st1{fill:#91B3FA;}
	.st2{fill:#7D97F4;}
	.st3{fill:#F99746;}
	.st4{fill:url(#SVGID_1_);}
	.st5{fill:url(#SVGID_2_);}
	.st6{opacity:0.61;}
	.st7{fill:#FFFFFF;}
	.st8{opacity:0.74;}
	.st9{fill:url(#SVGID_3_);}
	.st10{fill:url(#SVGID_4_);}
	.st11{fill:url(#SVGID_5_);}
	.st12{fill:url(#SVGID_6_);}
	.st13{fill:url(#SVGID_7_);}
	.st14{fill:url(#SVGID_8_);}
	.st15{fill:url(#SVGID_9_);}
	.st16{fill:url(#SVGID_10_);}
	.st17{fill:url(#SVGID_11_);}
	.st18{fill:url(#SVGID_12_);}
	.st19{fill:url(#SVGID_13_);}
	.st20{fill:url(#SVGID_14_);}
	.st21{fill:url(#SVGID_15_);}
	.st22{fill:url(#SVGID_16_);}
	.st23{fill:url(#SVGID_17_);}
	.st24{fill:#80A7E0;}
	.st25{fill:#83A8EA;}
	.st26{fill:url(#SVGID_18_);}
	.st27{fill:url(#SVGID_19_);}
	.st28{fill:url(#SVGID_20_);}
	.st29{opacity:0.23;fill:url(#SVGID_21_);enable-background:new    ;}
	.st30{fill:url(#SVGID_22_);}
	.st31{fill:url(#SVGID_23_);}
	.st32{fill:url(#SVGID_24_);}
	.st33{fill:url(#SVGID_25_);}
	.st34{fill:url(#SVGID_26_);}
	.st35{fill:url(#SVGID_27_);}
	.st36{opacity:0.14;fill:#FFFFFF;enable-background:new    ;}
	.st37{opacity:0.77;fill:#FFFFFF;enable-background:new    ;}
</style>
<g>
	<rect class="st0" width="1000" height="1000"/>
	<g>
		<g>
			<g>
				<path class="st3" d="M544.5,457.4L492,202.8c-118.8,24.5-202.2,125.5-209.5,241l260.6,15.3C544,459.2,544.7,458.3,544.5,457.4z"
				/>
				<g class="st8">
					<path class="st7" d="M425.5,442.6h-0.1L291.7,434l0.3-1.9c3.5-22.7,9.3-44.6,18.2-69.1c0.3-0.9,1.3-1.4,2.2-1
						c0.9,0.3,1.4,1.3,1,2.2c-8.6,23.6-14.2,44.8-17.7,66.5l129.9,8.4c1,0.1,1.7,0.9,1.6,1.9C427.2,441.9,426.4,442.6,425.5,442.6z"/>
				</g>
				<g class="st8">
					<path class="st7" d="M530.4,449.4c-0.1,0-0.1,0-0.2,0l-27.3-1.8c-1-0.1-1.7-0.9-1.6-1.9s0.9-1.7,1.9-1.6l26.4,1.7L501.2,313
						c-0.2-0.9,0.4-1.9,1.3-2.1s1.9,0.4,2.1,1.3L533.2,446c0.2,0.9,0,1.8-0.6,2.4C532,449,531.2,449.4,530.4,449.4z M529.7,446.7
						L529.7,446.7L529.7,446.7z"/>
				</g>
				<animateTransform xmlns="http://www.w3.org/2000/svg" attributeName="transform" dur="2s" type="translate" values="0 0 ; -10 -5; 0 0" repeatCount="indefinite" begin="0"/>
			</g>
			<path class="st1" d="M832.6,416.6c-0.2-0.9-0.4-1.8-0.7-2.8C798,274.1,656,188.7,514.8,223l62.1,255.7L832.6,416.6z"/>
			<path class="st1" d="M582.3,480.6l249,85.2c15.5-44.8,19-94.3,7.6-143.8c-0.4-1.6-0.7-3.1-1.1-4.7L582.3,480.6z"/>
			<path class="st2" d="M577.9,487.8L628.5,746c1.6-0.3,3.2-0.6,4.9-1c93.4-20.1,164.5-87.6,193.5-171.8L577.9,487.8z"/>
				<linearGradient id="SVGID_1_" gradientUnits="userSpaceOnUse" x1="966.4453" y1="843.7393" x2="478.9315" y2="581.6351" gradientTransform="matrix(0.9994 3.495388e-02 -3.495388e-02 0.9994 21.3981 -14.7849)">
				<stop  offset="0" style="stop-color:#4F52FF"/>
				<stop  offset="1" style="stop-color:#4042E2"/>
			</linearGradient>
			<path class="st4" d="M569.3,483.3l-262.1-17.9c-1.9,22.9-0.6,42.3,3.9,66.1c20.5,110.8,107.7,192.3,212.5,211.1L569.3,483.3z"/>
			<linearGradient id="SVGID_2_" gradientUnits="userSpaceOnUse" x1="629.3292" y1="579.7027" x2="914.4962" y2="279.4388">
				<stop  offset="0" style="stop-color:#4F52FF"/>
				<stop  offset="1" style="stop-color:#4042E2"/>
			</linearGradient>
			<path class="st5" d="M532.1,738c28.6,4.4,58.4,4,88.3-2l0,0l-46.9-244.4L532.1,738z"/>
		</g>
		<g id="arc01">
			<g class="st6">
				<path class="st7" d="M483,714.9c-0.2,0-0.4,0-0.7-0.1c-36.3-15-69.2-38.6-95-68.1c-26.7-30.5-45.9-67.6-55.5-107.3
					c-0.9-3.6-1.7-7.2-2.4-10.7c-0.2-1,0.4-1.9,1.4-2.1c1-0.2,1.9,0.4,2.1,1.4c0.7,3.5,1.5,7.1,2.3,10.6
					c9.5,39.1,28.4,75.7,54.7,105.8c25.4,29.1,57.9,52.4,93.7,67.2c0.9,0.4,1.3,1.4,1,2.3C484.4,714.5,483.7,714.9,483,714.9z"/>
			</g>
			<g class="st6">
				<path class="st7" d="M673,716c-0.7,0-1.4-0.4-1.6-1.1c-0.4-0.9,0.1-1.9,1-2.3c65-25.8,116.7-78.3,141.8-143.9
					c0.3-0.9,1.4-1.4,2.3-1c0.9,0.4,1.4,1.4,1,2.3c-25.4,66.6-77.8,119.8-143.8,145.9C673.5,716,673.2,716,673,716z"/>
			</g>
			<g class="st6">
				<path class="st7" d="M781.4,328.6c-0.5,0-1.1-0.2-1.4-0.7c-31.4-41.6-74.3-72-124.1-88c-0.9-0.3-1.4-1.3-1.1-2.2
					c0.3-0.9,1.3-1.4,2.2-1.1c50.4,16.2,93.9,47,125.8,89.2c0.6,0.8,0.4,1.9-0.3,2.5C782.2,328.5,781.8,328.6,781.4,328.6z"/>
			</g>
			<animateTransform xmlns="http://www.w3.org/2000/svg" attributeName="transform" attributeType="XML" type="rotate" dur="20s" from="0 575 480" to="-360 575 480" repeatCount="indefinite"/>
		</g>
		
	</g>
	<g id="curve01">
		<g>
			<linearGradient id="SVGID_3_" gradientUnits="userSpaceOnUse" x1="796.5255" y1="246.3327" x2="593.3234" y2="445.1173">
				<stop  offset="0" style="stop-color:#2B3582"/>
				<stop  offset="1" style="stop-color:#150E42"/>
			</linearGradient>
			<polygon class="st9" points="553.1,404 552,401.9 629.7,359.5 701.8,391.2 763.8,330.4 763.9,330.4 836.7,287.4 837.9,289.5 
				765.3,332.4 702.4,394.1 629.8,362.2 			"/>
		</g>
		<linearGradient id="SVGID_4_" gradientUnits="userSpaceOnUse" x1="565.9128" y1="389.9766" x2="546.0811" y2="409.3772">
			<stop  offset="0" style="stop-color:#09005D"/>
			<stop  offset="1" style="stop-color:#1A0F91"/>
		</linearGradient>
		<circle class="st10" cx="552.6" cy="403" r="8.3"/>
		<linearGradient id="SVGID_5_" gradientUnits="userSpaceOnUse" x1="643.0198" y1="347.7697" x2="623.188" y2="367.1704">
			<stop  offset="0" style="stop-color:#09005D"/>
			<stop  offset="1" style="stop-color:#1A0F91"/>
		</linearGradient>
		<circle class="st11" cx="629.7" cy="360.8" r="8.3"/>
		<linearGradient id="SVGID_6_" gradientUnits="userSpaceOnUse" x1="715.3982" y1="377.9908" x2="695.5664" y2="397.3915">
			<stop  offset="0" style="stop-color:#09005D"/>
			<stop  offset="1" style="stop-color:#1A0F91"/>
		</linearGradient>
		<circle class="st12" cx="702.1" cy="391" r="8.3"/>
		<linearGradient id="SVGID_7_" gradientUnits="userSpaceOnUse" x1="775.9019" y1="318.3874" x2="756.0701" y2="337.7879">
			<stop  offset="0" style="stop-color:#09005D"/>
			<stop  offset="1" style="stop-color:#1A0F91"/>
		</linearGradient>
		<circle class="st13" cx="762.6" cy="331.4" r="8.3"/>
		<linearGradient id="SVGID_8_" gradientUnits="userSpaceOnUse" x1="850.6636" y1="275.4269" x2="830.8318" y2="294.8275">
			<stop  offset="0" style="stop-color:#09005D"/>
			<stop  offset="1" style="stop-color:#1A0F91"/>
		</linearGradient>
		<circle class="st14" cx="837.3" cy="288.5" r="8.3"/>
		<animateTransform xmlns="http://www.w3.org/2000/svg" attributeName="transform" dur="3s" type="translate" values="0 0 ; 10 0; 0 0" repeatCount="indefinite" begin="0.2"/>
	</g>
	<g>
		<g>
			<g>
				
					<linearGradient id="SVGID_9_" gradientUnits="userSpaceOnUse" x1="1437.3335" y1="789.7952" x2="1482.5522" y2="789.7952" gradientTransform="matrix(1 0 0 1 -1140.7335 0)">
					<stop  offset="0" style="stop-color:#4F52FF"/>
					<stop  offset="1" style="stop-color:#4042E2"/>
				</linearGradient>
				<path class="st15" d="M340.6,787.6c-7.8,0.7-21.2,1.8-31.8,2.2c-6.4,0.3-10-0.3-12.2-1.2c0,0.2,0,0.5,0,0.7c0,1.1,1,2,2.1,2.1
					c20,1.1,36,0.4,41.6,0c1.2-0.1,1.9-1.3,1.3-2.3C341.4,788.5,341,788,340.6,787.6z"/>
				
					<linearGradient id="SVGID_10_" gradientUnits="userSpaceOnUse" x1="1437.3711" y1="780.889" x2="1481.3435" y2="780.889" gradientTransform="matrix(1 0 0 1 -1140.7335 0)">
					<stop  offset="0" style="stop-color:#09005D"/>
					<stop  offset="1" style="stop-color:#1A0F91"/>
				</linearGradient>
				<path class="st16" d="M308.8,789.8c10.6-0.5,24.1-1.5,31.8-2.2c-7.6-9.3-31.8-15.7-31.8-15.7H302c-4.7,6.8-5.4,13.2-5.3,16.7
					C298.8,789.5,302.4,790.1,308.8,789.8z"/>
				
					<linearGradient id="SVGID_11_" gradientUnits="userSpaceOnUse" x1="1441.5535" y1="768.5598" x2="1454.3035" y2="768.5598" gradientTransform="matrix(1 0 0 1 -1140.7335 0)">
					<stop  offset="0" style="stop-color:#FEBBBA"/>
					<stop  offset="1" style="stop-color:#FF928E"/>
				</linearGradient>
				<path class="st17" d="M300.8,760.8l0.6,12.7c0.1,1.4,1.1,2.5,2.5,2.7s3.2,0.2,5.1-0.4c1.2-0.4,2.1-1.4,2.3-2.6l2.2-12.3h-12.7
					V760.8z"/>
			</g>
			<g>
				<g>
					
						<linearGradient id="SVGID_12_" gradientUnits="userSpaceOnUse" x1="1347.1914" y1="788.7613" x2="1364.5236" y2="788.7613" gradientTransform="matrix(1 0 0 1 -1140.7335 0)">
						<stop  offset="0" style="stop-color:#4F52FF"/>
						<stop  offset="1" style="stop-color:#4042E2"/>
					</linearGradient>
					<path class="st18" d="M212.1,789.7c-3.4-0.5-4.9-2.2-5.5-4.1l0,0c-0.5,2,0.6,4,2.9,5c2.8,1.2,5.8,1.4,8.1,1.3
						c2.5-0.1,4.8-1.2,6.1-2.8l0,0C221.3,790.3,217.7,790.5,212.1,789.7z"/>
					
						<linearGradient id="SVGID_13_" gradientUnits="userSpaceOnUse" x1="1347.3335" y1="775.4392" x2="1372.7794" y2="775.4392" gradientTransform="matrix(1 0 0 1 -1140.7335 0)">
						<stop  offset="0" style="stop-color:#09005D"/>
						<stop  offset="1" style="stop-color:#1A0F91"/>
					</linearGradient>
					<path class="st19" d="M227.9,760.7h-5.6c-8.6-0.2-14,17.9-15.7,24.9c0.6,1.9,2.2,3.6,5.5,4.1c5.6,0.8,9.2,0.6,11.7-0.6
						c4.6-6.1,6.9-15,8-20.2C233.1,762.9,227.9,760.7,227.9,760.7z"/>
				</g>
				
					<linearGradient id="SVGID_14_" gradientUnits="userSpaceOnUse" x1="1360.5305" y1="757.8141" x2="1375.7604" y2="757.8141" gradientTransform="matrix(1 0 0 1 -1140.7335 0)">
					<stop  offset="0" style="stop-color:#FEBBBA"/>
					<stop  offset="1" style="stop-color:#FF928E"/>
				</linearGradient>
				<path class="st20" d="M223,748.9l-3.1,12.4c-0.4,1.5,0.4,3.1,1.8,3.8c1.8,0.9,4.2,1.8,6.5,1.6c1.1-0.1,1.9-0.9,2.3-1.9l4.6-13.1
					L223,748.9z"/>
			</g>
			<linearGradient id="SVGID_15_" gradientUnits="userSpaceOnUse" x1="62.7633" y1="928.381" x2="372.6077" y2="592.9817">
				<stop  offset="0" style="stop-color:#4F52FF"/>
				<stop  offset="1" style="stop-color:#4042E2"/>
			</linearGradient>
			<path class="st21" d="M219.3,752.5c3.9,3.5,16.6,3.9,16.6,3.9c45.6-109.4,64.2-125,64.2-125c-6.6,41.3-1.1,132.8-1.1,132.8
				c7.5,3.3,17.2,0,17.2,0c0.6-67.6,11-126.6,23.3-173.1c-30.8-0.7-47.2-11.2-52.6-15.5C261.3,617.1,219.3,752.5,219.3,752.5z"/>
			<path class="st1" d="M294.8,449.8c-5.8,29.1-3.7,81.2-2.4,104.9c0.4,6.7-4.3,15.9-8,22.2c-0.6,1-0.2,2.3,0.8,2.8
				c6.3,3.2,27.7,13.3,52.4,14.5c1.6,0.1,3.1-1,3.5-2.6c18.4-68.6,39.7-112.4,39.7-112.4C357.4,441.6,294.8,449.8,294.8,449.8z"/>
			<linearGradient id="SVGID_16_" gradientUnits="userSpaceOnUse" x1="303.954" y1="490.9828" x2="308.7455" y2="568.4442">
				<stop  offset="0" style="stop-color:#4F52FF"/>
				<stop  offset="1" style="stop-color:#4042E2"/>
			</linearGradient>
			<path class="st22" d="M303.2,628.9c-0.3,0-0.5-0.1-0.8-0.2c-0.7-0.4-0.9-1.3-0.5-2c0.2-0.4,6.1-9.9,18.1-15.7
				c0.7-0.3,1.6,0,2,0.7s0,1.6-0.7,2c-11.1,5.4-16.8,14.5-16.9,14.6C304.2,628.6,303.7,628.9,303.2,628.9z"/>
			<g>
				
					<linearGradient id="SVGID_17_" gradientUnits="userSpaceOnUse" x1="1430.2964" y1="535.8781" x2="1376.0819" y2="583.8864" gradientTransform="matrix(1 0 0 1 -1140.7335 0)">
					<stop  offset="0" style="stop-color:#FEBBBA"/>
					<stop  offset="1" style="stop-color:#FF928E"/>
				</linearGradient>
				<path class="st23" d="M258.2,533.3c1.9,13.5,7.4,28.3,18.5,44l4.2-3.4c0,0-4.9-19.7-2.1-42.1C272,530.5,263.9,531.9,258.2,533.3
					z"/>
				<path class="st24" d="M301.3,485.7l-6.5-35.9c0,0-43.5,33.3-36.6,83.5c5.7-1.4,13.8-2.8,20.6-1.5
					C280.8,515.7,286.8,498.2,301.3,485.7z"/>
			</g>
			<g>
				<path class="st25" d="M380.9,479.2l-16.8,36.2c2.7,21.8,14.5,31.3,27.1,34.9c0.8-10,3.3-18,5.6-23.6
					C380.7,510.1,380.9,479.2,380.9,479.2z"/>
				
					<linearGradient id="SVGID_18_" gradientUnits="userSpaceOnUse" x1="1531.9435" y1="540.4765" x2="1574.6436" y2="540.4765" gradientTransform="matrix(1 0 0 1 -1140.7335 0)">
					<stop  offset="0" style="stop-color:#FEBBBA"/>
					<stop  offset="1" style="stop-color:#FF928E"/>
				</linearGradient>
				<path class="st26" d="M396.9,526.8c-2.3,5.6-4.9,13.6-5.6,23.6c33.8,13.1,42.7-12.3,42.7-12.3l-6.2-1.1
					C413.6,538.4,403.7,533.9,396.9,526.8z"/>
			</g>
			
				<linearGradient id="SVGID_19_" gradientUnits="userSpaceOnUse" x1="1490.3949" y1="426.3369" x2="1489.9286" y2="506.0689" gradientTransform="matrix(1 0 0 1 -1140.7335 0)">
				<stop  offset="0" style="stop-color:#FEBBBA"/>
				<stop  offset="1" style="stop-color:#FF928E"/>
			</linearGradient>
			<path class="st27" d="M365.4,434.6l-8.1,29.8c-0.9,3.4-4.5,5.1-7.8,3.9c-3.5-1.4-7.9-3.3-11.7-5.3c-4.1-2.2-5.3-7.4-2.8-11.2
				l16.9-25.1L365.4,434.6z"/>
		</g>
		<linearGradient id="SVGID_20_" gradientUnits="userSpaceOnUse" x1="466.3306" y1="527.7492" x2="229.1542" y2="615.5923">
			<stop  offset="0" style="stop-color:#09005D"/>
			<stop  offset="1" style="stop-color:#1A0F91"/>
		</linearGradient>
		<path class="st28" d="M449.4,518.1l-207.9,75.7c-8.7,3.2-12.9,13.1-9,21.5l0.6,1.4c3.4,7.5,12.2,10.8,19.7,7.3l201.8-93.4
			L449.4,518.1z"/>
		
			<linearGradient id="SVGID_21_" gradientUnits="userSpaceOnUse" x1="1583.0336" y1="472.6" x2="1788.2335" y2="472.6" gradientTransform="matrix(1 0 0 1 -1140.7335 0)">
			<stop  offset="0" style="stop-color:#B37CFF"/>
			<stop  offset="1" style="stop-color:#F895E7"/>
		</linearGradient>
		<ellipse class="st29" cx="544.9" cy="472.6" rx="102.6" ry="100.8"/>
		
			<linearGradient id="SVGID_22_" gradientUnits="userSpaceOnUse" x1="1571.4336" y1="472.6" x2="1799.8335" y2="472.6" gradientTransform="matrix(1 0 0 1 -1140.7335 0)">
			<stop  offset="0" style="stop-color:#09005D"/>
			<stop  offset="1" style="stop-color:#1A0F91"/>
		</linearGradient>
		<path class="st30" d="M544.9,360.5c-63.1,0-114.2,50.2-114.2,112.1s51.1,112.1,114.2,112.1s114.2-50.2,114.2-112.1
			S608,360.5,544.9,360.5z M544.9,568.2c-53.8,0-97.4-42.8-97.4-95.6s43.6-95.6,97.4-95.6s97.4,42.8,97.4,95.6
			C642.3,525.4,598.7,568.2,544.9,568.2z"/>
		<path class="st1" d="M439.4,486.5c-0.4,0-0.7-0.3-0.8-0.7c-0.3-2.7-0.6-5.4-0.7-8c0-0.4,0.3-0.8,0.7-0.8c0.5,0,0.8,0.3,0.8,0.7
			c0.1,2.6,0.4,5.3,0.7,7.9C440.1,486,439.9,486.4,439.4,486.5C439.5,486.5,439.5,486.5,439.4,486.5z M440.2,455.1h-0.1
			c-0.4-0.1-0.7-0.5-0.6-0.9c1.3-7.2,3.4-14.3,6.2-21.1l0,0c16.5-39.9,55.4-65.7,99.3-65.7c20.5,0,40.3,5.7,57.5,16.4
			c0.4,0.2,0.5,0.7,0.2,1.1c-0.2,0.4-0.7,0.5-1.1,0.2c-16.9-10.6-36.5-16.2-56.7-16.2c-43.2,0-81.7,25.4-97.9,64.8l0,0
			c-2.8,6.7-4.8,13.7-6.1,20.8C440.9,454.9,440.6,455.1,440.2,455.1z"/>
		<g>
			
				<linearGradient id="SVGID_23_" gradientUnits="userSpaceOnUse" x1="1160.6278" y1="2290.9453" x2="1121.38" y2="2342.8669" gradientTransform="matrix(0.9897 -0.1428 0.1428 0.9897 -1100.2507 -1688.3907)">
				<stop  offset="0" style="stop-color:#FEBBBA"/>
				<stop  offset="1" style="stop-color:#FF928E"/>
			</linearGradient>
			<path class="st31" d="M383.2,411.9c0.1,0.5-6.8,34-6.8,34l-19.1-4.3l1.8-32.7C359.1,408.9,381.9,403.3,383.2,411.9z"/>
			<linearGradient id="SVGID_24_" gradientUnits="userSpaceOnUse" x1="339.7913" y1="421.826" x2="475.9638" y2="439.0432">
				<stop  offset="0" style="stop-color:#09005D"/>
				<stop  offset="1" style="stop-color:#1A0F91"/>
			</linearGradient>
			<path class="st32" d="M363.4,416.2l-2.3,17.2c0,0.2,0,0.4,0,0.7c0.2,1.3,1.2,5.9,5.8,4.6c4.2-1.2,8-2.2,10.7-1.4
				c1.2,0.4,1.9,1.6,1.7,2.8c-0.6,3-2.1,9.9-4.4,15.6c-0.5,1.2-1.7,1.8-2.9,1.4c-3.6-1-11.2-3.5-16.8-6.9c-0.8-0.5-1.2-1.3-1.2-2.2
				c0.2-4.3,0.7-17.5,0.3-21.2c-0.4-3.5-4.6-5.5-6.5-6.3c-0.6-0.2-1.1-0.7-1.3-1.3c-0.9-2.1-2-7.1,4.2-9.1c1.3-0.4,2-1.8,1.5-3.1
				c-0.9-2.6-1.3-6.5,3.5-8.7c4.9-2.2,8.6,0.4,10.6,2.5c0.8,0.9,2.1,1,3.1,0.4c0.6-0.4,1.3-0.5,2.2,0.1c1.2,0.7,2.8,0.2,3.4-1
				c1.2-2.4,3.6-5,8.4-4.2c8.5,1.5,9.5,10.9,7.2,16.5c-2.2,5.5-11.4,3.4-16,0.6c-3.5-2.1-8,0.1-10,1.3
				C363.9,414.8,363.5,415.5,363.4,416.2z"/>
			
				<linearGradient id="SVGID_25_" gradientUnits="userSpaceOnUse" x1="1103.1631" y1="2332.0786" x2="1134.6429" y2="2299.781" gradientTransform="matrix(0.9897 -0.1428 0.1428 0.9897 -1100.2507 -1688.3907)">
				<stop  offset="0" style="stop-color:#FEBBBA"/>
				<stop  offset="1" style="stop-color:#FF928E"/>
			</linearGradient>
			<path class="st33" d="M353.5,433.1c0,0,3.5-9.8-0.1-12.2c-3.6-2.4-9-1.2-7.8,6C347.1,435.6,353.5,433.1,353.5,433.1z"/>
		</g>
		
			<linearGradient id="SVGID_26_" gradientUnits="userSpaceOnUse" x1="1451.6809" y1="560.0273" x2="1397.4663" y2="608.0356" gradientTransform="matrix(1 0 0 1 -1140.7335 0)">
			<stop  offset="0" style="stop-color:#FEBBBA"/>
			<stop  offset="1" style="stop-color:#FF928E"/>
		</linearGradient>
		<path class="st34" d="M279.2,573.3l19.6-1.6l8.5,7.8c0,0-2,2.8-8.3,1.2s-14.9-2-14.9-2s-8.7,3.9-8.8-3.4L279.2,573.3z"/>
		
			<linearGradient id="SVGID_27_" gradientUnits="userSpaceOnUse" x1="1570.1024" y1="535.4479" x2="1585.3871" y2="535.4479" gradientTransform="matrix(1 0 0 1 -1140.7335 0)">
			<stop  offset="0" style="stop-color:#FEBBBA"/>
			<stop  offset="1" style="stop-color:#FF928E"/>
		</linearGradient>
		<path class="st35" d="M431.4,542.7c1.7,1.3,7.5-1.4,11.1-3.4c1.7-0.9,2.6-3,2-4.8c-0.9-2.7-2.3-6.2-4-6.6
			C437.5,527.1,424.4,537.2,431.4,542.7z"/>
		<path class="st1" d="M245.6,621.1c-0.1,0-0.2,0-0.2,0c-8.1-2.8-10-7.6-10.2-11.1c-0.2-5.2,3-10,8.1-11.9l25-9.7
			c0.4-0.2,0.8,0,1,0.4c0.1,0.4,0,0.8-0.4,1l-25,9.7c-4.4,1.7-7.3,5.9-7.1,10.4c0.2,4.4,3.3,7.7,9.1,9.8c0.4,0.1,0.6,0.6,0.5,1
			C246.2,620.9,245.9,621.1,245.6,621.1z"/>
		<path class="st1" d="M276.2,586.7c-0.3,0-0.6-0.2-0.7-0.5c-0.1-0.4,0-0.8,0.4-1l3.2-1.3c0.4-0.2,0.8,0,1,0.4s0,0.8-0.4,1l-3.2,1.3
			C276.4,586.7,276.3,586.7,276.2,586.7z"/>
	</g>
	<g id="message01">
		<path class="st1" d="M407,290.2l30.9,2.1c1.5,0.1,2.3-1.7,1.2-2.7l-29.6-22L407,290.2z"/>
		<path class="st1" d="M230.4,191.2l174.1-1.1c4,0,7.2,2.9,7.2,6.6l-0.7,87.6c0,3.6-3.4,6.6-7.4,6.5l-172.2-4.7
			c-3.8-0.1-6.9-2.9-6.9-6.4l-1.1-81.9C223.3,194.2,226.4,191.3,230.4,191.2z"/>
		<path class="st36" d="M235.8,196.6l163-0.9c3.7,0,6.8,2.6,6.7,5.7l-0.7,76.6c0,3.2,2.7,7.7-1,7.6l-167.1-6.1
			c-3.6-0.1-6.4-2.6-6.5-5.6l-1.1-71.5C229.1,199.2,232.1,196.6,235.8,196.6z"/>
		<path class="st37" d="M403.8,285.6l-172.2-4.7c-0.7,0-1.3-0.6-1.3-1.2l-1.1-81.9c0-0.3,0.1-0.6,0.4-0.9s0.6-0.4,1-0.4l174.1-1.1
			c0.4,0,0.7,0.1,1,0.4c0.3,0.2,0.4,0.6,0.4,0.9l-0.7,87.7C405.2,285,404.6,285.6,403.8,285.6z M231.6,279.6l172.2,4.7l0.7-87.6
			l-174.1,1.1L231.6,279.6z"/>
		<path class="st37" d="M240.4,216.4c0,3.1,1.8,5.6,4,5.6h148.1c2.2,0,4-2.5,4-5.6s-1.8-5.6-4-5.6h-148
			C242.3,210.8,240.4,213.3,240.4,216.4z"/>
		<path class="st37" d="M248.6,231.6h138.8c3,0,5.5,1.5,5.5,3.4s-2.5,3.4-5.5,3.4H248.6c-3,0-5.5-1.5-5.5-3.4
			S245.5,231.6,248.6,231.6z"/>
		<path class="st37" d="M243.1,250.3c0,1.9,2.4,3.4,5.5,3.4h138.8c3,0,5.5-1.5,5.5-3.4v-2.1c0-1.9-2.5-3.4-5.6-3.4l-138.8,2.1
			C245.5,247,243.1,248.5,243.1,250.3z"/>
		<path class="st37" d="M249.1,260.9h138.8c3,0,5.5,1.5,5.5,3.4s-2.5,3.4-5.5,3.4H249.1c-3,0-5.5-1.5-5.5-3.4
			S246.1,260.9,249.1,260.9z"/>
		<animateTransform attributeName="transform" dur="2s" type="translate" values="0 0 ; 0 -10; 0 0" repeatCount="indefinite" begin="0.1"></animateTransform>
	</g>
</g>
</svg>
