<?xml version="1.0" encoding="utf-8"?>
<!-- Generator: Adobe Illustrator 25.4.1, SVG Export Plug-In . SVG Version: 6.00 Build 0)  -->
<svg version="1.1" id="图层_1" xmlns="http://www.w3.org/2000/svg" xmlns:xlink="http://www.w3.org/1999/xlink" x="0px" y="0px"
	 viewBox="0 0 700 700" style="enable-background:new 0 0 700 700;" xml:space="preserve">
<style type="text/css">
	.st0{opacity:0.5;}
	.st1{fill:#AEC3FF;}
	.st2{fill:#D2E0FF;}
	.st3{fill:#739AF0;}
	.st4{fill:#F77D48;}
	.st5{fill:#233862;}
	.st6{fill:none;stroke:#AEC3FF;stroke-width:7.0984;stroke-linecap:round;stroke-miterlimit:10;}
	.st7{fill:none;stroke:#F77D48;stroke-width:7.0984;stroke-linecap:round;stroke-miterlimit:10;}
	.st8{fill:#163560;}
	.st9{fill:#ED985F;}
	.st10{fill:#FFB27D;}
	.st11{fill:#DD6D22;}
	.st12{fill:#1A2E4F;}
	.st13{fill:#4868C1;}
	.st14{fill:#ED7D2B;}
	.st15{fill:#F99746;}
	.st16{fill:#2B478B;}
	.st17{fill:#254F82;}
</style>
<g>
	<g class="st0">
		<g>
			<path class="st1" d="M185,186.5c0,0,43.7-3,39.9-36.9c0,0-5.3-22.2-17.2-32.9c0,0-11.1,42.6-18.9,40.1
				c-7.8-2.6,15.8-46.6,15.8-46.6s-28.1-34.7-43.1-40c0,0,4.5,48.9-2.4,44.5c-6.9-4.4-14-55.1-14-55.1s-34.1-24.5-50.5-5.2
				s-12,34.9-7.1,38.9c4.9,4,40.6,20.3,37.5,24.4c-3.1,4.2-30.5,0.2-41.9-10.2c0,0-2.4,43.4,17.8,50.6c20.2,7.3,31.9-1.9,44.3,2.9
				c12.4,4.7,19.7,12.1,12.1,12.5c-7.5,0.4-26.8-11.3-40.3-7.7c-13.6,3.7-23.8,5-7.5,17.2c16.2,12.2,49.6,25.1,62.5,14.3
				C185,186.5,185,186.5,185,186.5z"/>
		</g>
		<g>
			<g>
				<path class="st1" d="M108.4,69.3c0,0,82,77,76.5,117.2c0,0-7.9,15.4-6.7,38l-3.3,6.9c0,0,1-28.3-3.1-34.1
					C172,197.3,208,177.1,108.4,69.3z"/>
			</g>
			<g>
				<path class="st1" d="M178.3,224.5c0,0,4.2,29.7-17.3,53.3l-3.4-2.8c0,0,18.1-28.6,17.5-47.6
					C174.5,208.4,178.3,224.5,178.3,224.5z"/>
			</g>
		</g>
	</g>
	<g id="leaves02">
		<g>
			<path class="st2" d="M454.8,135.7c0,0,18.9-79.9,82.5-88.7c0,0,12.4-1.5,16.5,12.1c4.1,13.6-20.5,13.7-35.7,19.2
				C502.9,83.8,467.4,107.1,454.8,135.7z"/>
		</g>
		<g>
			<path class="st2" d="M453.4,120.8c0,0-6.6-66.2,39.8-89.7c0,0,9.1-4.4,15.8,4.9c6.7,9.4-12.1,15.9-22.3,24.1
				C476.5,68.3,455.5,95.5,453.4,120.8z"/>
		</g>
		
			<!-- <animateTransform  accumulate="none" additive="replace" attributeName="transform" attributeType="XML" calcMode="linear" dur="3s" fill="remove" repeatCount="indefinite" restart="always" type="rotate" values="0 680 335;5 680 335;0 680 335" xmlns="http://www.w3.org/2000/svg">
			</animateTransform> -->
	</g>
	<g>
		<g>
			<path class="st1" d="M180.1,578.8c0,0-64.8-7.7-88.7,37.5c0,0-4.5,8.8,4.6,15.6c9.1,6.8,15.8-11.6,24.1-21.4
				C128.3,600.5,155.3,580.4,180.1,578.8z"/>
		</g>
		<g>
			<path class="st1" d="M169.3,573.6c0,0-47.6-22.9-77.8,5.3c0,0-5.8,5.6-0.6,13.2c5.1,7.6,15.2-4.7,24.1-10.1
				C123.9,576.6,149.9,568.3,169.3,573.6z"/>
		</g>
	</g>
	<g id="leaves01">
		<g>
			<path class="st1" d="M554.6,183.9c0,0-33.4-18.7-17.8-44c0,0,12.4-15.6,25.8-19.6c0,0-7.1,37.8,0,38.7c7.1,0.9,4.9-42.7,4.9-42.7
				s35.1-16.9,48.9-15.6c0,0-21.8,36.9-14.7,36c7.1-0.9,31.6-38.2,31.6-38.2s36-6.7,41.8,14.7c5.8,21.3-3.6,32-8.9,33.4
				c-5.3,1.3-39.6,0.9-38.7,5.3c0.9,4.4,24,11.6,36.9,7.6c0,0-14.2,35.1-32.9,33.4c-18.7-1.8-24.5-13.3-36-14.2
				c-11.6-0.9-20,2.2-14.2,5.3c5.8,3.1,25.3,1,34.7,9c9.3,7.9,16.9,12.8-0.4,16.4c-17.3,3.6-48.5,1.3-54.7-12
				C554.6,183.9,554.6,183.9,554.6,183.9z"/>
		</g>
		<g>
			<g>
				<path class="st1" d="M658.6,119.9c0,0-93.4,30.2-104,64c0,0,0.4,15.1-8.9,32.5v6.7c0,0,9.8-22.7,15.1-25.8
					C560.8,197.3,539.9,167.9,658.6,119.9z"/>
			</g>
			<g>
				<path class="st1" d="M545.7,216.4c0,0-14.4,21.9-6.2,48.5l3.7-1c0,0-3.6-29.3,3.9-44.1C554.7,205.1,545.7,216.4,545.7,216.4z"/>
			</g>
		</g>
		
			<!-- <animateTransform  accumulate="none" additive="replace" attributeName="transform" attributeType="XML" calcMode="linear" dur="5s" fill="remove" repeatCount="indefinite" restart="always" type="rotate" values="0 752 406;-10 752 406;0 752 406" xmlns="http://www.w3.org/2000/svg">
			</animateTransform> -->
	</g>
	<g>
		<g>
			<path class="st2" d="M593.4,574.2H101.6c-26.3,0-47.6-24.8-47.6-55.3V255c0-30.6,21.3-55.3,47.6-55.3h491.8
				c26.3,0,47.6,24.8,47.6,55.3v263.8C641,549.4,619.7,574.2,593.4,574.2z"/>
		</g>
		<g>
			<path class="st3" d="M641,227.9H54v-7.8c0-23.3,10.6-42.1,23.8-42.1h539.4c13.1,0,23.8,18.9,23.8,42.1L641,227.9L641,227.9z"/>
		</g>
		<g id="line01">
			<g>
				<g>
					<path class="st1" d="M351,474.8H81.9c-1.9,0-3.4-1.5-3.4-3.4l0,0c0-1.9,1.5-3.4,3.4-3.4H351c1.9,0,3.4,1.5,3.4,3.4l0,0
						C354.4,473.3,352.9,474.8,351,474.8z"/>
				</g>
				<g>
					<path class="st4" d="M171,474.8H81.9c-1.9,0-3.4-1.5-3.4-3.4l0,0c0-1.9,1.5-3.4,3.4-3.4H171c1.9,0,3.4,1.5,3.4,3.4l0,0
						C174.4,473.3,172.9,474.8,171,474.8z					">
<!-- <animate  accumulate="none" additive="replace" attributeName="d" calcMode="linear" dur="6s" fill="remove" repeatCount="indefinite" restart="always" values="           M311.27,644.89H210.84c-2.09,0-3.79-1.7-3.79-3.79l0,0c0-2.09,1.7-3.79,3.79-3.79h100.43       c2.09,0,3.79,1.7,3.79,3.79l0,0C315.07,643.2,313.37,644.89,311.27,644.89z;           M444.4,644.9H215.7c-4.8,0-8.6-1.7-8.6-3.8l0,0c0-2.1,3.9-3.8,8.6-3.8h228.7c4.8,0,8.6,1.7,8.6,3.8l0,0        C453,643.2,449.2,644.9,444.4,644.9z;           M311.27,644.89H210.84c-2.09,0-3.79-1.7-3.79-3.79l0,0c0-2.09,1.7-3.79,3.79-3.79h100.43       c2.09,0,3.79,1.7,3.79,3.79l0,0C315.07,643.2,313.37,644.89,311.27,644.89z" xmlns="http://www.w3.org/2000/svg">
							</animate> -->
					</path>
				</g>
				<g>
					<path class="st3" d="M93.5,487H82.7c-1.3,0-2.4-1.1-2.4-2.4l0,0c0-1.3,1.1-2.4,2.4-2.4h10.9c1.3,0,2.4,1.1,2.4,2.4l0,0
						C95.9,486,94.8,487,93.5,487z"/>
				</g>
				<g>
					<path class="st3" d="M352.1,487h-10.9c-1.3,0-2.4-1.1-2.4-2.4l0,0c0-1.3,1.1-2.4,2.4-2.4h10.9c1.3,0,2.4,1.1,2.4,2.4l0,0
						C354.4,486,353.3,487,352.1,487z"/>
				</g>
			</g>
		</g>
		<g id="line02">
			<g>
				<path class="st3" d="M168.8,395.2H81.9c-1.9,0-3.4-1.5-3.4-3.4l0,0c0-1.9,1.5-3.4,3.4-3.4h86.9c1.9,0,3.4,1.5,3.4,3.4l0,0
					C172.2,393.7,170.6,395.2,168.8,395.2z				">
<!-- <animate  accumulate="none" additive="replace" attributeName="d" begin="1" calcMode="linear" dur="4s" fill="remove" repeatCount="indefinite" restart="always" values="           M308.79,555.2h-97.95c-2.09,0-3.79-1.7-3.79-3.79l0,0c0-2.09,1.7-3.79,3.79-3.79h97.95     c2.09,0,3.79,1.7,3.79,3.79l0,0C312.58,553.5,310.88,555.2,308.79,555.2z;           M377.6,555.2H213.4c-3.5,0-6.4-1.7-6.4-3.8l0,0c0-2.1,2.9-3.8,6.4-3.8h164.2c3.5,0,6.4,1.7,6.4,3.8l0,0     C384,553.5,381.1,555.2,377.6,555.2z;           M308.79,555.2h-97.95c-2.09,0-3.79-1.7-3.79-3.79l0,0c0-2.09,1.7-3.79,3.79-3.79h97.95     c2.09,0,3.79,1.7,3.79,3.79l0,0C312.58,553.5,310.88,555.2,308.79,555.2z" xmlns="http://www.w3.org/2000/svg">
						</animate> -->
				</path>
			</g>
			<g>
				<path class="st1" d="M351,410H81.9c-1.9,0-3.4-1.5-3.4-3.4l0,0c0-1.9,1.5-3.4,3.4-3.4H351c1.9,0,3.4,1.5,3.4,3.4l0,0
					C354.4,408.5,352.9,410,351,410z"/>
			</g>
			<g>
				<path class="st3" d="M93.5,422.2H82.7c-1.3,0-2.4-1.1-2.4-2.4l0,0c0-1.3,1.1-2.4,2.4-2.4h10.9c1.3,0,2.4,1.1,2.4,2.4l0,0
					C95.9,421.1,94.8,422.2,93.5,422.2z"/>
			</g>
			<g>
				<path class="st3" d="M352.1,422.2h-10.9c-1.3,0-2.4-1.1-2.4-2.4l0,0c0-1.3,1.1-2.4,2.4-2.4h10.9c1.3,0,2.4,1.1,2.4,2.4l0,0
					C354.4,421.1,353.3,422.2,352.1,422.2z"/>
			</g>
		</g>
		<g id="line03">
			<g>
				<path class="st3" d="M168.8,331H81.9c-1.9,0-3.4-1.5-3.4-3.4l0,0c0-1.9,1.5-3.4,3.4-3.4h86.9c1.9,0,3.4,1.5,3.4,3.4l0,0
					C172.2,329.5,170.6,331,168.8,331z"/>
			</g>
			<g>
				<path class="st1" d="M351,345.2H81.9c-1.9,0-3.4-1.5-3.4-3.4l0,0c0-1.9,1.5-3.4,3.4-3.4H351c1.9,0,3.4,1.5,3.4,3.4l0,0
					C354.4,343.7,352.9,345.2,351,345.2z"/>
			</g>
			<g>
				<path class="st3" d="M93.5,357.3H82.7c-1.3,0-2.4-1.1-2.4-2.4l0,0c0-1.3,1.1-2.4,2.4-2.4h10.9c1.3,0,2.4,1.1,2.4,2.4l0,0
					C95.9,356.3,94.8,357.3,93.5,357.3z"/>
			</g>
			<g>
				<path class="st3" d="M352.1,357.3h-10.9c-1.3,0-2.4-1.1-2.4-2.4l0,0c0-1.3,1.1-2.4,2.4-2.4h10.9c1.3,0,2.4,1.1,2.4,2.4l0,0
					C354.4,356.3,353.3,357.3,352.1,357.3z"/>
			</g>
		</g>
		<g id="line04">
			<g>
				<path class="st3" d="M168.8,267H81.9c-1.9,0-3.4-1.5-3.4-3.4l0,0c0-1.9,1.5-3.4,3.4-3.4h86.9c1.9,0,3.4,1.5,3.4,3.4l0,0
					C172.2,265.5,170.6,267,168.8,267z"/>
			</g>
			<g>
				<path class="st1" d="M351,280.3H81.9c-1.9,0-3.4-1.5-3.4-3.4l0,0c0-1.9,1.5-3.4,3.4-3.4H351c1.9,0,3.4,1.5,3.4,3.4l0,0
					C354.4,278.8,352.9,280.3,351,280.3z"/>
			</g>
			<g>
				<path class="st3" d="M93.5,292.5H82.7c-1.3,0-2.4-1.1-2.4-2.4l0,0c0-1.3,1.1-2.4,2.4-2.4h10.9c1.3,0,2.4,1.1,2.4,2.4l0,0
					C95.9,291.5,94.8,292.5,93.5,292.5z"/>
			</g>
			<g>
				<path class="st3" d="M352.1,292.5h-10.9c-1.3,0-2.4-1.1-2.4-2.4l0,0c0-1.3,1.1-2.4,2.4-2.4h10.9c1.3,0,2.4,1.1,2.4,2.4l0,0
					C354.4,291.5,353.3,292.5,352.1,292.5z"/>
			</g>
		</g>
		<g>
			<g>
				<path class="st5" d="M82.8,202.9c0,5.4-1.9,9.9-4.3,9.9c-2.4,0-4.3-4.4-4.3-9.9s1.9-9.9,4.3-9.9C80.9,193,82.8,197.4,82.8,202.9
					z"/>
			</g>
			<g>
				<path class="st5" d="M101.3,202.9c0,5.4-1.9,9.9-4.3,9.9c-2.4,0-4.3-4.4-4.3-9.9s1.9-9.9,4.3-9.9
					C99.4,193,101.3,197.4,101.3,202.9z"/>
			</g>
			<g>
				<path class="st5" d="M120.9,202.9c0,5.4-1.9,9.9-4.3,9.9c-2.4,0-4.3-4.4-4.3-9.9s1.9-9.9,4.3-9.9
					C119,193,120.9,197.4,120.9,202.9z"/>
			</g>
		</g>
		<path class="st6" d="M517.4,324.5c0,33.1-26.8,60-60,60s-60-26.8-60-60s26.8-60,60-60		">
<!-- <animateTransform  accumulate="none" additive="replace" attributeName="transform" attributeType="XML" calcMode="linear" dur="6s" fill="remove" from="0 634 478" repeatCount="indefinite" restart="always" to="-360 634 478" type="rotate" xmlns="http://www.w3.org/2000/svg">
				</animateTransform> -->
		</path>
		<path class="st7" d="M492.7,342.8c-5.2,10.6-15.3,18.6-27.8,20.6c-20.4,3.2-39.4-10.7-42.6-31.1c-3.2-20.4,10.7-39.4,31.1-42.6		"
			>
<!-- <animateTransform  accumulate="none" additive="replace" attributeName="transform" attributeType="XML" calcMode="linear" dur="10s" fill="remove" from="0 634 478" repeatCount="indefinite" restart="always" to="-360 634 478" type="rotate" xmlns="http://www.w3.org/2000/svg">
				</animateTransform> -->
		</path>
	</g>
	<g id="girl_2_1_">
		<g>
			<path class="st8" d="M645.1,409c-3.7,22.9-29.9,32.2-56,36.7c-35.1,6.1-68.5-30.9-70-33.1c-1.5-2.3-8-3.4,10.3-21.9
				c26.3-26.4-20.4-41.8-24.7-69.2c0,0-12.4-15.9,1.8-24.6c8.3-5.1,22-4,23.3-4.4c4.2-1.3,8.3-2.3,12.1-2.9
				c16.3-2.7,29.2,0.1,36.8,6.1c12.4,9.6,8.8,43.2,25.8,42.5c17-0.7,33,5.7,31.3,24.7C634.1,382,649.2,384,645.1,409z			">
<!-- <animate  accumulate="none" additive="replace" attributeName="d" calcMode="linear" dur="3s" fill="remove" repeatCount="indefinite" restart="always" values="                M883.58,550.1c-3.08,18.78-24.59,26.46-45.99,30.2c-28.84,5.04-56.26-25.36-57.52-27.21     c-1.26-1.85-6.61-2.82,8.5-18c21.64-21.73-16.73-34.39-20.31-56.89c0,0-10.18-13.05,1.46-20.2c6.79-4.17,18.1-3.3,19.18-3.64     c3.46-1.06,6.78-1.85,9.94-2.37c13.39-2.23,23.98,0.12,30.25,4.98c10.2,7.92,7.2,35.46,21.17,34.92     c13.98-0.54,27.09,4.66,25.71,20.32C874.59,527.86,886.96,529.51,883.58,550.1z;                M899,546.9c-3.1,18.8-32.8,14.1-54.2,17.8c-28.8,5-63.5-9.8-64.8-11.7c-1.3-1.8-6.6-2.8,8.5-18     c21.6-21.7-16.7-34.4-20.3-56.9c0,0-10.2-13,1.5-20.2c28.7-16,36.5-13.3,19.2-3.6c3.5-1.1,6.8-1.9,9.9-2.4     c13.4-2.2,24,0.1,30.2,5c7.3,9.6,14.4,34.1,28.3,33.6c10.6,0.7,34.9,9.8,33.6,25.5C889.6,531.7,902.4,526.3,899,546.9z;                M883.58,550.1c-3.08,18.78-24.59,26.46-45.99,30.2c-28.84,5.04-56.26-25.36-57.52-27.21     c-1.26-1.85-6.61-2.82,8.5-18c21.64-21.73-16.73-34.39-20.31-56.89c0,0-10.18-13.05,1.46-20.2c6.79-4.17,18.1-3.3,19.18-3.64     c3.46-1.06,6.78-1.85,9.94-2.37c13.39-2.23,23.98,0.12,30.25,4.98c10.2,7.92,7.2,35.46,21.17,34.92     c13.98-0.54,27.09,4.66,25.71,20.32C874.59,527.86,886.96,529.51,883.58,550.1z" xmlns="http://www.w3.org/2000/svg">
					</animate> -->
			</path>
		</g>
		<g>
			<g>
				<path class="st8" d="M635.9,361.4l-2.4-2.2c1.4-7.1,0.1-13.3-5.1-18.2c-4.5-4.2-9.4-5.9-15.2-4.5c-13.8,3.5-16.7,0.6-16.8,0.4
					l-0.8,1l0-1.6l0.7-1.5c0,0,3.7,4.1,16.7,0.8c6.1-1.5,12.3,0.1,17,4.6C635.4,345.3,637.4,354,635.9,361.4z"/>
			</g>
		</g>
		<g>
			<path class="st9" d="M511.2,398c0,0-60,27.2-72.3,26.6c-12.3-0.5-81.1-30-81.1-30l2.3,13.4c0,0,47.6,38.6,68.1,40.5
				c20.2,1.9,89.1-18.1,95.8-22.3C530.6,422,530.6,402.3,511.2,398z"/>
		</g>
		<g>
			<path class="st10" d="M507.4,426.3c6,4.1,13.4,7.5,22.8,9.7c35.2,8.1,48.7-21.6,53.7-42c-4.8-2.8-9.3-3.3-11.9-3.7
				c-2.5-0.3-5.2-0.5-7.4-0.6c-4-3-9.8-15.4-11.1-34.6l-1.7,0.4l-27.7,7.6c0,0,1.3,8.8,1.9,17.1c0.5,6.5-1.2,10.8-2.4,12.3
				c-2.2,0.5-1.7,2.8-1.7,2.8s0,0,0,0C521.4,395.9,513.4,409.2,507.4,426.3z"/>
		</g>
		<g>
			<path class="st9" d="M524.1,363.1c0,0,1.3,8.8,1.9,17.1c15.7-1.6,23-16.5,25.8-24.7L524.1,363.1z"/>
		</g>
		<g>
			<path class="st10" d="M519.4,371.4c0,0,37.3-2.1,35.6-25.3c-1.6-23.2,2.1-39.1-21.8-38.7c-23.9,0.3-27.9,9.5-29.2,17.4
				C502.7,332.6,509.6,371.3,519.4,371.4z"/>
		</g>
		<g>
			<path class="st3" d="M594.5,502.1c3.4-17.2,14.3-86,3.4-108.1c-3.9-7.9-19.4-8.7-36.4-8c-5.3,3.4-16.8,15.6-34.1,13.3
				c-4-0.5-3.9-5.5-3.2-7.9c0,0-8.7,0.1-19.2,3.6c-5.7,1.9-21.8,13.1-21.8,13.1s9.4,11.4,21.2,16.4c-2,18,1,25.9,19.6,67.4
				c15.7,35.1-2.1,66.6-2.1,66.6s92.7,74.5,93.2,36.6C615.5,566.5,590.2,524.1,594.5,502.1z"/>
		</g>
		<g>
			<path class="st11" d="M517.3,639.5c-5-0.6-9.6-3.3-12.4-7.5c-0.5-0.7-0.9-1.4-1.4-2.2c-10.6-16-14.7-64.9-38.4-117
				c-5.8-12.7-26.5-15-32.2-29.3c0,0-13.9-46.5,26.6-47.9c40.6-1.4,108.7,129.3,109.8,143.1C570.4,592,596.2,648.4,517.3,639.5z"/>
		</g>
		<g>
			<path class="st12" d="M356,638.5h57.8c0,0,2.2-9.2-1.6-15.5c-3.4-5.5-2.1-8.7,0.4-13.3c-2.6,1.1-6,2-9.7,1.8
				c-2.9-0.2-5.9-1.5-8.6-3c-2.5,2.8-13.1,14.9-16.5,17.3C374,628.5,357.2,627.5,356,638.5z"/>
		</g>
		<g>
			<path class="st13" d="M597.4,417c0,0-10.7,31.3-59.4,45.7c-48.7,14.3-53.3-30.9-13.9-36.4C563.3,420.7,597.4,417,597.4,417z"/>
		</g>
		<g>
			<path class="st14" d="M431.6,449.1c-3.5,26.1-17.1,108.4-41,148.5c-7.7,12.9,19.5,20.2,19.6,20.2c3.7-0.9,9.7-6.8,12.5-9.3
				c19.4-17.5,58.9-67.2,58.9-107c0-19.4,0.3-56.5-13.8-65.9C459.2,429.8,433,438.7,431.6,449.1z"/>
		</g>
		<g>
			<path class="st15" d="M551.8,638.5c0,0-2.1-3-5.9-8.6c-4.4-6.7-9.4-20-15.3-36.9c-6.3-17.8-13.7-39.7-23-62.5
				c-2.9-7-5.9-14.2-9.2-21.3c-5.8-12.7-21.7-10.9-27.3-25.3c0,0-22.1-49.7,18.5-51.1c40.6-1.4,117.7,133,122.1,146
				C616.6,593,640.3,652.1,551.8,638.5z"/>
		</g>
		<g>
			<path class="st16" d="M398.4,638.5h57.8c0,0,2.2-9.2-1.6-15.5c-3.4-5.5-2.1-8.7,0.4-13.3c-2.6,1.1-6,2-9.7,1.8
				c-2.9-0.2-5.9-1.5-8.6-3c-2.5,2.8-13.1,14.9-16.5,17.3C416.4,628.5,399.6,627.5,398.4,638.5z"/>
		</g>
		<g>
			<path class="st14" d="M530.6,592.9c-6.3-17.8-13.7-39.7-23-62.5c2.4-17.3,7.7-32.4,16.5-38.5C524.1,491.8,545.4,558,530.6,592.9z
				"/>
		</g>
		<g>
			<path class="st15" d="M465.3,447.2c-3.5,26.1-8.4,110.2-32.3,150.4c-7.7,12.9,19.5,20.2,19.6,20.2c3.7-0.9,9.7-6.8,12.5-9.3
				c19.4-17.5,58.9-67.2,58.9-107c0-19.4-22.8-54.9-36.9-64.3C478.5,431.4,466.7,436.9,465.3,447.2z"/>
		</g>
		<g>
			<g>
				<path class="st17" d="M399.7,421.8l-29.5,4.2c-2.4,0.3-4.7-1.4-5-3.8l-7.9-55.7c-0.3-2.4,1.4-4.7,3.8-5l29.5-4.2
					c2.4-0.3,4.7,1.4,5,3.8l7.9,55.7C403.8,419.2,402.1,421.5,399.7,421.8z"/>
			</g>
			<g>
				<path class="st8" d="M393.7,422.6l-29.5,4.2c-2.4,0.3-4.7-1.4-5-3.8l-7.9-55.7c-0.3-2.4,1.4-4.7,3.8-5l29.5-4.2
					c2.4-0.3,4.7,1.4,5,3.8l7.9,55.7C397.9,420,396.2,422.3,393.7,422.6z"/>
			</g>
			<g>
				<path class="st17" d="M354.8,370.7c-0.3-2.1,1.2-4.1,3.3-4.4c2.1-0.3,4.1,1.2,4.4,3.3c0.3,2.1-1.2,4.1-3.3,4.4
					C357.1,374.2,355.1,372.8,354.8,370.7z"/>
			</g>
		</g>
		<g>
			<path class="st10" d="M348.4,386.4c1.4-4,5.9-9.4,7.9-9.8c5.9-1.2,5.9,6.6,4.7,11.6c-0.9,3.5-3.7,6-5.5,7.8l0,0l1.3,9.1
				C346.7,399.7,346.5,391.7,348.4,386.4z"/>
		</g>
		<g>
			<path class="st10" d="M384,395.2c2.1-0.4,6.5-2.1,11.1-3.3c-1.4-1-2.8-2.3-3.3-3.7c-0.8-2.5-1.3-3.4,1.3-2.6
				c2.7,0.8,12.1,5.1,12.1,5.1l0,0c5.3,1.6,10.3,9.1,10.3,9.1s66.2,23.3,74.1,23.7c12.3,0.6,94.3-29.6,94.3-29.6
				c19.3,4.3,15,28,8.3,32.3c-6.7,4.2-65.7,25.7-100.6,26.1c-17.7,0.2-82.1-41.2-82.1-41.2s-7.5-3.4-13.4-2.4
				c-5.9,1.1-19.6,0-22.6-4.8C370.6,399.1,380.5,395.9,384,395.2z"/>
		</g>
		<g>
			<path class="st3" d="M541.7,408.9c0,0,7.3,23.2,32.5,28.5c0,0,41.6-12.8,20.9-41.1C595.1,396.2,574.6,381,541.7,408.9z"/>
		</g>
		<g>
			<path class="st8" d="M504.7,321.5c0,0,6.4,2.8,16.8-1.4c10.4-4.2,12.4,3.7,12.5,7.2c0.3,8.5,7.6,8.3,7.6,8.3l18.7-11.9v-22.1
				l-30.9-7.7l-25.6,8.6C503.8,302.5,502.5,314.3,504.7,321.5z"/>
		</g>
	</g>
</g>
</svg>
