<svg xmlns="http://www.w3.org/2000/svg" xmlns:xlink="http://www.w3.org/1999/xlink" version="1.1" x="0px" y="0px" viewBox="0 0 1000 1000" width="1000" height="1000">
	<style type="text/css">
		.st0 {
			fill: #FFFFFF;
		}

		.st1 {
			opacity: 0.5;
		}

		.st2 {
			fill: #AEC3FF;
		}

		.st3 {
			fill: #D2E0FF;
		}

		.st4 {
			fill: #739AF0;
		}

		.st5 {
			fill: #F77D48;
		}

		.st6 {
			fill: #233862;
		}

		.st7 {
			fill: none;
			stroke: #AEC3FF;
			stroke-width: 8;
			stroke-linecap: round;
			stroke-miterlimit: 10;
		}

		.st8 {
			fill: none;
			stroke: #F77D48;
			stroke-width: 8;
			stroke-linecap: round;
			stroke-miterlimit: 10;
		}

		.st9 {
			fill: #163560;
		}

		.st10 {
			fill: #ED985F;
		}

		.st11 {
			fill: #FFB27D;
		}

		.st12 {
			fill: #DD6D22;
		}

		.st13 {
			fill: #1A2E4F;
		}

		.st14 {
			fill: #4868C1;
		}

		.st15 {
			fill: #ED7D2B;
		}

		.st16 {
			fill: #F99746;
		}

		.st17 {
			fill: #2B478B;
		}

		.st18 {
			fill: #254F82;
		}
	</style>
	<g>
		<rect class="st0" width="1000" height="1000"/>
		<g class="st1">
			<g>
				<path class="st2" d="M376.27,370.48c0,0,54.18-3.78,49.54-45.79c0,0-6.57-27.55-21.28-40.78c0,0-13.77,52.89-23.45,49.72     c-9.68-3.17,19.59-57.82,19.59-57.82s-34.9-43.01-53.43-49.65c0,0,5.63,60.64-2.98,55.18c-8.6-5.46-17.39-68.28-17.39-68.28     s-42.24-30.41-62.61-6.48c-20.37,23.93-14.84,43.3-8.79,48.25c6.05,4.95,50.32,25.13,46.48,30.31     c-3.84,5.18-37.87,0.3-52.01-12.66c0,0-3.01,53.77,22.07,62.81c25.08,9.04,39.52-2.32,54.91,3.55     c15.4,5.87,24.37,14.99,15.05,15.48c-9.32,0.5-33.19-14.05-50-9.51s-29.49,6.24-9.36,21.33c20.13,15.08,61.48,31.1,77.57,17.73     C376.27,370.48,376.27,370.48,376.27,370.48z"/>
			</g>
			<g>
				<g>
					<path class="st2" d="M281.36,225.12c0,0,101.68,95.46,94.9,145.36c0,0-9.74,19.16-8.25,47.11l-4.04,8.57      c0,0,1.18-35.07-3.8-42.31C360.18,383.85,404.83,358.81,281.36,225.12z"/>
				</g>
				<g>
					<path class="st2" d="M368.02,417.59c0,0,5.25,36.83-21.44,66.07l-4.16-3.52c0,0,22.39-35.5,21.65-59.02      C363.33,397.6,368.02,417.59,368.02,417.59z"/>
				</g>
			</g>
		</g>
		<g id="leaves02">
			<g>
				<path class="st3" d="M670.17,365.14c0,0,23.38-99.1,102.26-110c0,0,15.35-1.89,20.46,15.01c5.11,16.9-25.4,17.02-44.27,23.82     C729.76,300.77,685.79,329.59,670.17,365.14z"/>
			</g>
			<g>
				<path class="st3" d="M668.38,346.59c0,0-8.2-82.09,49.36-111.22c0,0,11.26-5.49,19.63,6.11c8.37,11.6-14.98,19.74-27.64,29.91     C697.07,281.57,670.98,315.24,668.38,346.59z"/>
			</g>
			<animateTransform xmlns="http://www.w3.org/2000/svg" attributeName="transform" attributeType="XML" type="rotate" dur="3s" values="0 680 335;5 680 335;0 680 335" repeatCount="indefinite"/>
		</g>
		<g>
			<g>
				<path class="st2" d="M228.32,570c0,0-59.12-55.29-116.13-27.76c0,0-10.99,5.51-6.93,18.95c4.06,13.44,24.31,0.08,39.79-3.73     C160.53,553.64,202.32,553.35,228.32,570z"/>
			</g>
			<g>
				<path class="st2" d="M221.34,556.93c0,0-30.73-57.94-81.65-51.87c0,0-9.87,1.33-10.3,12.69c-0.43,11.36,18.6,6.47,31.47,7.63     C173.71,526.54,205.81,537.32,221.34,556.93z"/>
			</g>
		</g>
		<g id="leaves01">
			<g>
				<path class="st2" d="M779.03,393.8c0,0-41.36-23.16-22.06-54.59c0,0,15.44-19.3,31.98-24.26c0,0-8.82,46.87,0,47.97     c8.82,1.1,6.07-52.94,6.07-52.94s43.56-20.95,60.66-19.3c0,0-27.02,45.77-18.2,44.66c8.82-1.1,39.15-47.42,39.15-47.42     s44.66-8.27,51.83,18.2c7.17,26.47-4.41,39.7-11.03,41.36c-6.62,1.65-49.08,1.1-47.97,6.62c1.1,5.51,29.78,14.34,45.77,9.37     c0,0-17.64,43.56-40.8,41.36c-23.16-2.21-30.33-16.54-44.66-17.64c-14.34-1.1-24.81,2.76-17.65,6.62     c7.17,3.86,31.43,1.26,43.01,11.11c11.58,9.84,20.95,15.91-0.55,20.32c-21.5,4.41-60.1,1.65-67.82-14.89     C779.03,393.8,779.03,393.8,779.03,393.8z"/>
			</g>
			<g>
				<g>
					<path class="st2" d="M908.06,314.4c0,0-115.8,37.5-129.03,79.4c0,0,0.55,18.75-11.03,40.25v8.27c0,0,12.13-28.12,18.75-31.98      C786.75,410.34,760.83,373.95,908.06,314.4z"/>
				</g>
				<g>
					<path class="st2" d="M768,434.05c0,0-17.86,27.12-7.68,60.13l4.59-1.23c0,0-4.46-36.36,4.88-54.64      C779.14,420.02,768,434.05,768,434.05z"/>
				</g>
			</g>
			<animateTransform xmlns="http://www.w3.org/2000/svg" attributeName="transform" attributeType="XML" type="rotate" dur="5s" values="0 752 406;-10 752 406;0 752 406" repeatCount="indefinite"/>
		</g>
		<g>
			<g>
				<path class="st3" d="M787.32,698H233.07c-29.63,0-53.65-24.02-53.65-53.65V388.49c0-29.63,24.02-53.65,53.65-53.65h554.25     c29.63,0,53.65,24.02,53.65,53.65v255.86C840.97,673.98,816.95,698,787.32,698z"/>
			</g>
			<g>
				<path class="st4" d="M840.97,366.59H179.42v-4.95c0-14.8,12-26.8,26.8-26.8h607.96c14.8,0,26.8,12,26.8,26.8V366.59z"/>
			</g>
			<g id="line01">
				<g>
					<g>
						<path class="st2" d="M514.19,644.89H210.84c-2.09,0-3.79-1.7-3.79-3.79l0,0c0-2.09,1.7-3.79,3.79-3.79h303.34       c2.09,0,3.79,1.7,3.79,3.79l0,0C517.98,643.2,516.28,644.89,514.19,644.89z"/>
					</g>
					<g>
						<path class="st5" d="M311.27,644.89H210.84c-2.09,0-3.79-1.7-3.79-3.79l0,0c0-2.09,1.7-3.79,3.79-3.79h100.43       c2.09,0,3.79,1.7,3.79,3.79l0,0C315.07,643.2,313.37,644.89,311.27,644.89z">
						<animate xmlns="http://www.w3.org/2000/svg" accumulate="none" additive="replace" attributeName="d" calcMode="linear" dur="6s" fill="remove" repeatCount="indefinite" restart="always" values="    
						M311.27,644.89H210.84c-2.09,0-3.79-1.7-3.79-3.79l0,0c0-2.09,1.7-3.79,3.79-3.79h100.43       c2.09,0,3.79,1.7,3.79,3.79l0,0C315.07,643.2,313.37,644.89,311.27,644.89z;    
						M444.4,644.9H215.7c-4.8,0-8.6-1.7-8.6-3.8l0,0c0-2.1,3.9-3.8,8.6-3.8h228.7c4.8,0,8.6,1.7,8.6,3.8l0,0        C453,643.2,449.2,644.9,444.4,644.9z;    
						M311.27,644.89H210.84c-2.09,0-3.79-1.7-3.79-3.79l0,0c0-2.09,1.7-3.79,3.79-3.79h100.43       c2.09,0,3.79,1.7,3.79,3.79l0,0C315.07,643.2,313.37,644.89,311.27,644.89z"/>
						</path>
					</g>
					<g>
						<path class="st4" d="M223.98,658.62h-12.23c-1.46,0-2.65-1.19-2.65-2.65l0,0c0-1.46,1.19-2.65,2.65-2.65h12.23       c1.46,0,2.65,1.19,2.65,2.65l0,0C226.63,657.43,225.44,658.62,223.98,658.62z"/>
					</g>
					<g>
						<path class="st4" d="M515.33,658.62H503.1c-1.46,0-2.65-1.19-2.65-2.65l0,0c0-1.46,1.19-2.65,2.65-2.65h12.23       c1.46,0,2.65,1.19,2.65,2.65l0,0C517.98,657.43,516.79,658.62,515.33,658.62z"/>
					</g>
				</g>
			</g>

			<g id="line02">
				<g>
					<path class="st4" d="M308.79,555.2h-97.95c-2.09,0-3.79-1.7-3.79-3.79l0,0c0-2.09,1.7-3.79,3.79-3.79h97.95     c2.09,0,3.79,1.7,3.79,3.79l0,0C312.58,553.5,310.88,555.2,308.79,555.2z">
					<animate xmlns="http://www.w3.org/2000/svg" accumulate="none" additive="replace" attributeName="d" calcMode="linear" dur="4s" fill="remove" repeatCount="indefinite" restart="always" begin="1" values="    
						M308.79,555.2h-97.95c-2.09,0-3.79-1.7-3.79-3.79l0,0c0-2.09,1.7-3.79,3.79-3.79h97.95     c2.09,0,3.79,1.7,3.79,3.79l0,0C312.58,553.5,310.88,555.2,308.79,555.2z;    
						M377.6,555.2H213.4c-3.5,0-6.4-1.7-6.4-3.8l0,0c0-2.1,2.9-3.8,6.4-3.8h164.2c3.5,0,6.4,1.7,6.4,3.8l0,0     C384,553.5,381.1,555.2,377.6,555.2z;    
						M308.79,555.2h-97.95c-2.09,0-3.79-1.7-3.79-3.79l0,0c0-2.09,1.7-3.79,3.79-3.79h97.95     c2.09,0,3.79,1.7,3.79,3.79l0,0C312.58,553.5,310.88,555.2,308.79,555.2z"/>
					</path>
				</g>
				<g>
					<path class="st2" d="M514.19,571.83H210.84c-2.09,0-3.79-1.7-3.79-3.79l0,0c0-2.09,1.7-3.79,3.79-3.79h303.34     c2.09,0,3.79,1.7,3.79,3.79l0,0C517.98,570.13,516.28,571.83,514.19,571.83z"/>
				</g>
				<g>
					<path class="st4" d="M223.98,585.55h-12.23c-1.46,0-2.65-1.19-2.65-2.65l0,0c0-1.46,1.19-2.65,2.65-2.65h12.23     c1.46,0,2.65,1.19,2.65,2.65l0,0C226.63,584.36,225.44,585.55,223.98,585.55z"/>
				</g>
				<g>
					<path class="st4" d="M515.33,585.55H503.1c-1.46,0-2.65-1.19-2.65-2.65l0,0c0-1.46,1.19-2.65,2.65-2.65h12.23     c1.46,0,2.65,1.19,2.65,2.65l0,0C517.98,584.36,516.79,585.55,515.33,585.55z"/>
				</g>
			</g>
			<g id="line03">
				<g>
					<path class="st4" d="M308.79,482.84h-97.95c-2.09,0-3.79-1.7-3.79-3.79l0,0c0-2.09,1.7-3.79,3.79-3.79h97.95     c2.09,0,3.79,1.7,3.79,3.79l0,0C312.58,481.14,310.88,482.84,308.79,482.84z"/>
				</g>
				<g>
					<path class="st2" d="M514.19,498.76H210.84c-2.09,0-3.79-1.7-3.79-3.79l0,0c0-2.09,1.7-3.79,3.79-3.79h303.34     c2.09,0,3.79,1.7,3.79,3.79l0,0C517.98,497.06,516.28,498.76,514.19,498.76z"/>
				</g>
				<g>
					<path class="st4" d="M223.98,512.48h-12.23c-1.46,0-2.65-1.19-2.65-2.65l0,0c0-1.46,1.19-2.65,2.65-2.65h12.23     c1.46,0,2.65,1.19,2.65,2.65l0,0C226.63,511.29,225.44,512.48,223.98,512.48z"/>
				</g>
				<g>
					<path class="st4" d="M515.33,512.48H503.1c-1.46,0-2.65-1.19-2.65-2.65l0,0c0-1.46,1.19-2.65,2.65-2.65h12.23     c1.46,0,2.65,1.19,2.65,2.65l0,0C517.98,511.29,516.79,512.48,515.33,512.48z"/>
				</g>
			</g>
			<g id="line04">
				<g>
					<path class="st4" d="M308.79,410.7h-97.95c-2.09,0-3.79-1.7-3.79-3.79l0,0c0-2.09,1.7-3.79,3.79-3.79h97.95     c2.09,0,3.79,1.7,3.79,3.79l0,0C312.58,409.01,310.88,410.7,308.79,410.7z"/>
				</g>
				<g>
					<path class="st2" d="M514.19,425.69H210.84c-2.09,0-3.79-1.7-3.79-3.79l0,0c0-2.09,1.7-3.79,3.79-3.79h303.34     c2.09,0,3.79,1.7,3.79,3.79l0,0C517.98,423.99,516.28,425.69,514.19,425.69z"/>
				</g>
				<g>
					<path class="st4" d="M223.98,439.41h-12.23c-1.46,0-2.65-1.19-2.65-2.65l0,0c0-1.46,1.19-2.65,2.65-2.65h12.23     c1.46,0,2.65,1.19,2.65,2.65l0,0C226.63,438.23,225.44,439.41,223.98,439.41z"/>
				</g>
				<g>
					<path class="st4" d="M515.33,439.41H503.1c-1.46,0-2.65-1.19-2.65-2.65l0,0c0-1.46,1.19-2.65,2.65-2.65h12.23     c1.46,0,2.65,1.19,2.65,2.65l0,0C517.98,438.23,516.79,439.41,515.33,439.41z"/>
				</g>
			</g>
			<g>
				<g>
					<path class="st6" d="M211.9,350.87c0,2.68-2.17,4.85-4.85,4.85c-2.68,0-4.85-2.17-4.85-4.85c0-2.68,2.17-4.85,4.85-4.85      C209.73,346.01,211.9,348.19,211.9,350.87z"/>
				</g>
				<g>
					<path class="st6" d="M232.75,350.87c0,2.68-2.17,4.85-4.85,4.85c-2.68,0-4.85-2.17-4.85-4.85c0-2.68,2.17-4.85,4.85-4.85      C230.58,346.01,232.75,348.19,232.75,350.87z"/>
				</g>
				<g>
					<path class="st6" d="M254.86,350.87c0,2.68-2.17,4.85-4.85,4.85c-2.68,0-4.85-2.17-4.85-4.85c0-2.68,2.17-4.85,4.85-4.85      C252.69,346.01,254.86,348.19,254.86,350.87z"/>
				</g>
			</g>
			<path class="st7" d="M701.71,475.42c0,37.32-30.26,67.58-67.58,67.58c-37.32,0-67.58-30.26-67.58-67.58s30.26-67.58,67.58-67.58">
			<animateTransform xmlns="http://www.w3.org/2000/svg" attributeName="transform" attributeType="XML" type="rotate" dur="6s" from="0 634 478" to="-360 634 478" repeatCount="indefinite"/>
			</path>
			<path class="st8" d="M673.84,496.15c-5.81,11.98-17.21,21.01-31.36,23.23c-22.95,3.59-44.46-12.11-48.05-35.05    c-3.59-22.95,12.11-44.46,35.05-48.05">
			<animateTransform xmlns="http://www.w3.org/2000/svg" attributeName="transform" attributeType="XML" type="rotate" dur="10s" from="0 634 478" to="-360 634 478" repeatCount="indefinite"/>
			</path>
		</g>
		<g id="girl_2_1_">
			<g>
				<path class="st9" d="M883.58,550.1c-3.08,18.78-24.59,26.46-45.99,30.2c-28.84,5.04-56.26-25.36-57.52-27.21     c-1.26-1.85-6.61-2.82,8.5-18c21.64-21.73-16.73-34.39-20.31-56.89c0,0-10.18-13.05,1.46-20.2c6.79-4.17,18.1-3.3,19.18-3.64     c3.46-1.06,6.78-1.85,9.94-2.37c13.39-2.23,23.98,0.12,30.25,4.98c10.2,7.92,7.2,35.46,21.17,34.92     c13.98-0.54,27.09,4.66,25.71,20.32C874.59,527.86,886.96,529.51,883.58,550.1z">
				<animate xmlns="http://www.w3.org/2000/svg" accumulate="none" additive="replace" attributeName="d" calcMode="linear" dur="3s" fill="remove" repeatCount="indefinite" restart="always" values="           
				M883.58,550.1c-3.08,18.78-24.59,26.46-45.99,30.2c-28.84,5.04-56.26-25.36-57.52-27.21     c-1.26-1.85-6.61-2.82,8.5-18c21.64-21.73-16.73-34.39-20.31-56.89c0,0-10.18-13.05,1.46-20.2c6.79-4.17,18.1-3.3,19.18-3.64     c3.46-1.06,6.78-1.85,9.94-2.37c13.39-2.23,23.98,0.12,30.25,4.98c10.2,7.92,7.2,35.46,21.17,34.92     c13.98-0.54,27.09,4.66,25.71,20.32C874.59,527.86,886.96,529.51,883.58,550.1z;           
				M899,546.9c-3.1,18.8-32.8,14.1-54.2,17.8c-28.8,5-63.5-9.8-64.8-11.7c-1.3-1.8-6.6-2.8,8.5-18     c21.6-21.7-16.7-34.4-20.3-56.9c0,0-10.2-13,1.5-20.2c28.7-16,36.5-13.3,19.2-3.6c3.5-1.1,6.8-1.9,9.9-2.4     c13.4-2.2,24,0.1,30.2,5c7.3,9.6,14.4,34.1,28.3,33.6c10.6,0.7,34.9,9.8,33.6,25.5C889.6,531.7,902.4,526.3,899,546.9z;           
				M883.58,550.1c-3.08,18.78-24.59,26.46-45.99,30.2c-28.84,5.04-56.26-25.36-57.52-27.21     c-1.26-1.85-6.61-2.82,8.5-18c21.64-21.73-16.73-34.39-20.31-56.89c0,0-10.18-13.05,1.46-20.2c6.79-4.17,18.1-3.3,19.18-3.64     c3.46-1.06,6.78-1.85,9.94-2.37c13.39-2.23,23.98,0.12,30.25,4.98c10.2,7.92,7.2,35.46,21.17,34.92     c13.98-0.54,27.09,4.66,25.71,20.32C874.59,527.86,886.96,529.51,883.58,550.1z"/>
				</path>
			</g>
			<g>
				<g>
					<path class="st9" d="M876.05,510.98l-1.97-1.83c1.14-5.86,0.07-10.92-4.18-14.94c-3.68-3.48-7.76-4.88-12.47-3.69      c-11.35,2.87-13.69,0.48-13.79,0.33l-0.69,0.84l0.01-1.33l0.59-1.25c0.02,0.03,3.02,3.34,13.69,0.64      c4.98-1.26,10.07,0.12,13.95,3.79C875.64,497.73,877.24,504.85,876.05,510.98z"/>
				</g>
			</g>
			<g>
				<path class="st10" d="M773.6,541.02c0,0-49.33,22.32-59.45,21.88c-10.13-0.44-66.63-24.63-66.63-24.63l1.91,11     c0,0,39.11,31.73,55.94,33.3c16.57,1.55,73.24-14.87,78.71-18.34C789.55,560.76,789.49,544.53,773.6,541.02z"/>
			</g>
			<g>
				<path class="st11" d="M770.43,564.26c4.9,3.4,11.04,6.2,18.75,7.98c28.91,6.68,39.98-17.75,44.14-34.52     c-3.94-2.26-7.65-2.75-9.79-3.01c-2.09-0.25-4.29-0.41-6.11-0.5c-3.25-2.49-8.08-12.66-9.15-28.46l-1.36,0.36l-22.78,6.24     c0,0,1.04,7.24,1.56,14.09c0.39,5.36-0.99,8.85-2.01,10.1c-1.78,0.39-1.39,2.26-1.39,2.26s0,0.01-0.01,0.02     C781.98,539.32,775.37,550.19,770.43,564.26z"/>
			</g>
			<g>
				<path class="st10" d="M784.14,512.35c0,0,1.05,7.24,1.55,14.09c12.91-1.29,18.9-13.58,21.23-20.32L784.14,512.35z"/>
			</g>
			<g>
				<path class="st11" d="M780.28,519.15c0,0,30.63-1.69,29.29-20.75c-1.35-19.06,1.7-32.12-17.92-31.84     c-19.62,0.27-22.9,7.82-24,14.29C766.56,487.31,772.28,519.1,780.28,519.15z"/>
			</g>
			<g>
				<path class="st4" d="M842.06,626.54c2.77-14.14,11.79-70.64,2.77-88.83c-3.24-6.53-15.95-7.12-29.9-6.55     c-4.34,2.8-13.82,12.82-28,10.95c-3.27-0.43-3.24-4.48-2.65-6.51c0-0.01-7.14,0.07-15.78,2.98     c-4.67,1.57-17.94,10.74-17.94,10.74s7.75,9.35,17.46,13.45c-1.65,14.76,0.8,21.27,16.12,55.37     c12.94,28.82-1.75,54.77-1.75,54.77s76.17,61.24,76.6,30.06C859.31,679.49,838.52,644.62,842.06,626.54z"/>
			</g>
			<g>
				<path class="st12" d="M778.62,739.5c-4.14-0.47-7.87-2.74-10.19-6.2c-0.37-0.55-0.76-1.14-1.18-1.77     c-8.67-13.13-12.04-53.32-31.55-96.15c-4.75-10.43-21.8-12.3-26.45-24.09c0,0-11.44-38.2,21.9-39.33     c33.35-1.13,89.31,106.29,90.2,117.56C822.21,700.44,843.4,746.81,778.62,739.5z"/>
			</g>
			<g>
				<path class="st13" d="M646.07,738.63h47.47c0,0,1.77-7.57-1.34-12.72c-2.76-4.56-1.7-7.15,0.34-10.93     c-2.15,0.88-4.93,1.68-7.99,1.51c-2.37-0.14-4.87-1.21-7.06-2.48c-2.04,2.33-10.79,12.24-13.52,14.21     C660.86,730.44,647.02,729.64,646.07,738.63z"/>
			</g>
			<g>
				<path class="st14" d="M844.37,556.64c0,0-8.77,25.75-48.84,37.53c-40.06,11.78-43.8-25.38-11.45-29.94     C816.42,559.66,844.37,556.64,844.37,556.64z"/>
			</g>
			<g>
				<path class="st15" d="M708.17,583.01c-2.86,21.43-14.02,89.06-33.71,122.06c-6.35,10.64,15.99,16.6,16.11,16.57     c3-0.78,7.99-5.56,10.29-7.63c15.98-14.41,48.43-55.2,48.43-87.9c0-15.95,0.28-46.4-11.32-54.14     C730.84,567.19,709.3,574.5,708.17,583.01z"/>
			</g>
			<g>
				<path class="st16" d="M806.92,738.63c0,0-1.76-2.45-4.83-7.1c-3.65-5.53-7.69-16.41-12.59-30.36     c-5.15-14.64-11.26-32.66-18.89-51.4c-2.36-5.78-4.86-11.64-7.52-17.49c-4.75-10.43-17.82-8.98-22.47-20.77     c0,0-18.14-40.86,15.21-41.98c33.35-1.13,96.72,109.3,100.36,119.99C860.19,701.23,879.63,749.84,806.92,738.63z"/>
			</g>
			<g>
				<path class="st17" d="M680.91,738.63h47.47c0,0,1.77-7.57-1.34-12.72c-2.76-4.56-1.7-7.15,0.34-10.93     c-2.15,0.88-4.93,1.68-7.99,1.51c-2.37-0.14-4.87-1.21-7.06-2.48c-2.04,2.33-10.79,12.24-13.52,14.21     C695.7,730.44,681.87,729.64,680.91,738.63z"/>
			</g>
			<g>
				<path class="st15" d="M789.51,701.17c-5.15-14.64-11.26-32.66-18.89-51.4c1.99-14.2,6.29-26.62,13.52-31.63     C784.14,618.14,801.68,672.48,789.51,701.17z"/>
			</g>
			<g>
				<path class="st16" d="M735.87,581.49c-2.86,21.43-6.88,90.58-26.57,123.57c-6.35,10.64,15.99,16.6,16.11,16.57     c3-0.78,7.99-5.56,10.29-7.63c15.98-14.41,48.43-55.2,48.43-87.9c0-15.95-18.71-45.12-30.31-52.86     C746.69,568.47,737.01,572.98,735.87,581.49z"/>
			</g>
			<g>
				<g>
					<path class="st18" d="M681.91,560.59l-24.26,3.43c-2,0.28-3.85-1.11-4.14-3.11l-6.46-45.74c-0.28-2,1.11-3.85,3.11-4.14      l24.26-3.43c2-0.28,3.85,1.11,4.14,3.11l6.46,45.74C685.3,558.46,683.91,560.31,681.91,560.59z"/>
				</g>
				<g>
					<path class="st9" d="M677.05,561.28l-24.26,3.43c-2,0.28-3.85-1.11-4.14-3.11l-6.46-45.75c-0.28-2,1.11-3.85,3.11-4.14      l24.26-3.43c2-0.28,3.85,1.11,4.14,3.11l6.46,45.74C680.44,559.14,679.05,560.99,677.05,561.28z"/>
				</g>
				<g>
					<path class="st18" d="M645.06,518.56c-0.24-1.73,0.96-3.34,2.7-3.58c1.73-0.25,3.34,0.96,3.58,2.7c0.24,1.73-0.96,3.34-2.7,3.58      C646.91,521.5,645.31,520.29,645.06,518.56z"/>
				</g>
			</g>
			<g>
				<path class="st11" d="M639.76,531.51c1.18-3.28,4.87-7.71,6.47-8.03c4.86-0.96,4.86,5.44,3.83,9.57     c-0.72,2.88-3.05,4.94-4.53,6.43l0,0l1.05,7.44C638.37,542.41,638.22,535.81,639.76,531.51z"/>
			</g>
			<g>
				<path class="st11" d="M669.04,538.7c1.71-0.33,5.38-1.71,9.1-2.73c-1.11-0.86-2.34-1.92-2.69-3.01c-0.66-2.09-1.1-2.77,1.1-2.1     c2.21,0.66,9.94,4.21,9.94,4.21s-0.02,0.01-0.02,0.01c4.39,1.28,8.44,7.49,8.44,7.49s54.38,19.12,60.93,19.45     c10.12,0.51,77.49-24.3,77.49-24.3c15.9,3.51,12.33,23.04,6.86,26.51c-5.47,3.47-53.95,21.1-82.68,21.43     c-14.55,0.17-67.49-33.85-67.49-33.85s-6.19-2.83-11.05-1.94c-4.86,0.88-16.13,0-18.56-3.98     C657.99,541.91,666.16,539.26,669.04,538.7z"/>
			</g>
			<g>
				<path class="st4" d="M798.62,549.95c0,0,6.03,19.07,26.72,23.42c0,0,34.17-10.53,17.16-33.81     C842.5,539.56,825.67,527.06,798.62,549.95z"/>
			</g>
			<g>
				<path class="st9" d="M768.26,478.19c0,0,5.28,2.3,13.82-1.15c8.54-3.45,10.17,3,10.27,5.93c0.23,6.96,6.27,6.84,6.27,6.84     l15.34-9.82v-18.18l-25.39-6.36l-21.05,7.09C767.53,462.54,766.42,472.22,768.26,478.19z"/>
			</g>
		</g>
	</g>

</svg>