<svg version="1.1" xmlns="http://www.w3.org/2000/svg" xmlns:xlink="http://www.w3.org/1999/xlink" x="0px"
	y="0px" viewBox="0 0 1000 1000" width="1000" height="1000">
	<style type="text/css">
		.st0 {
			fill: #444FDF;
		}

		.st1 {
			fill: #5372E5;
		}

		.st2 {
			fill: #BDD0FB;
		}

		.st3 {
			fill: #FFFFFF;
		}

		.st4 {
			fill: #91B3FA;
		}

		.st5 {
			fill: url(#SVGID_1_);
		}

		.st6 {
			opacity: 0.72;
			fill: #FFFFFF;
			enable-background: new;
		}

		.st7 {
			fill: url(#SVGID_2_);
		}

		.st8 {
			fill: url(#SVGID_3_);
		}

		.st9 {
			fill: url(#SVGID_4_);
		}

		.st10 {
			fill: url(#SVGID_5_);
		}

		.st11 {
			fill: #0C216B;
		}

		.st12 {
			fill: url(#SVGID_6_);
		}

		.st13 {
			fill: url(#SVGID_7_);
		}

		.st14 {
			fill: url(#SVGID_8_);
		}

		.st15 {
			fill: url(#SVGID_9_);
		}

		.st16 {
			fill: url(#SVGID_10_);
		}

		.st17 {
			fill: url(#SVGID_11_);
		}
	</style>
	<rect x="0" y="-1" class="st0" width="1000" height="1000" />
	<g>
		<path class="st1" d="M758,703.8c-15.2,15.6-28.7,24.8-39.1,31.7c-101.2,67.6-216.9,48.1-252.7,41.5
		c-57.7-10.7-106.4-18.3-148.3-56.1c-95.1-85.9-90.5-265.2-17.8-376.2c8.6-13.2,81.2-120.7,197.1-135.9c2.8-0.4,5-0.6,6.8-0.8
		c17.9-1.9,129.1-11.9,219.7,64c13,10.9,33.8,30.5,53.2,60.4C847.8,441.6,848,611,758,703.8z" >
		<animate xmlns="http://www.w3.org/2000/svg" accumulate="none" additive="replace" attributeName="d" calcMode="linear" dur="3s" fill="remove" repeatCount="indefinite" restart="always" begin="0.5" values="   M758,703.8c-15.2,15.6-28.7,24.8-39.1,31.7c-101.2,67.6-216.9,48.1-252.7,41.5
		c-57.7-10.7-106.4-18.3-148.3-56.1c-95.1-85.9-90.5-265.2-17.8-376.2c8.6-13.2,81.2-120.7,197.1-135.9c2.8-0.4,5-0.6,6.8-0.8
		c17.9-1.9,129.1-11.9,219.7,64c13,10.9,33.8,30.5,53.2,60.4C847.8,441.6,848,611,758,703.8z; 
		M802.7,594.1c-8.6,20-33,61-40.2,71.2C692.3,764.7,628.1,774,592.3,780.7c-57.7,10.7-144.5-16.1-197.2-36.3   c-119.6-46.1-149.6-164.3-121.6-294c3.3-15.4,20.3-151.4,123.1-207.2c2.5-1.4,4.5-2.4,6.1-3.2c16-8.2,112.4-41.6,224.2-3.2   c16,5.5,60.9,11.7,89.7,32.7C821.9,346,853.4,475.2,802.7,594.1z;       
		M758,703.8c-15.2,15.6-28.7,24.8-39.1,31.7c-101.2,67.6-216.9,48.1-252.7,41.5
		c-57.7-10.7-106.4-18.3-148.3-56.1c-95.1-85.9-90.5-265.2-17.8-376.2c8.6-13.2,81.2-120.7,197.1-135.9c2.8-0.4,5-0.6,6.8-0.8
		c17.9-1.9,129.1-11.9,219.7,64c13,10.9,33.8,30.5,53.2,60.4C847.8,441.6,848,611,758,703.8z"/>
		</path>
		<g class="landing02-leaves">
			<g>
				<path class="st2" d="M167.4,223.3c-2.4-2.3-7.5-0.9-7.4,2.1c0.9,29.6,15.3,108.7,135.1,167.3c150.4,73.6,174.4,126.2,173,171.8
				c0,0,29.2-45.3,6.3-100.1C418.2,330.1,209.7,264,167.4,223.3z" />
				<path class="st3"
					d="M194.7,262.8c12.6,11.6,25.6,23.1,39.1,34.2c13.4,11.1,27.3,21.9,41.6,32.4c14.4,10.4,29.1,20.6,44.3,30.4
				c15.2,9.8,31,19.1,46.9,28.4c15.8,9.3,31.8,18.7,46.5,29.3c14.7,10.6,27.8,22.6,37.4,36.2c2.4,3.4,4.7,6.8,6.8,10.3
				c2.1,3.5,4,7,5.8,10.6c3.6,7.1,6.5,14.5,8.7,22c4.3,15,5.4,30.5,3.8,45.8c-0.2,1.6-2.1,2.9-4.3,2.8c-2.1-0.1-3.8-1.4-3.7-3v0
				c0.2-3.7,0.4-7.5,0.4-11.2c0-1.9-0.1-3.7-0.1-5.6c-0.1-1.8-0.2-3.7-0.4-5.5c-0.7-7.4-2.1-14.7-4.2-21.9
				c-4.2-14.4-11.3-28.3-20.5-41.2c-4.7-6.4-10-12.6-16-18.4c-6-5.8-12.6-11.3-19.7-16.5c-14.1-10.4-29.9-19.7-45.6-29.1
				c-15.7-9.4-31.4-19-46.5-29c-7.6-5-15-10.1-22.3-15.3c-3.7-2.6-7.3-5.2-10.9-7.9c-3.6-2.7-7.1-5.3-10.6-8
				c-14-10.8-27.6-21.9-40.7-33.4c-13-11.5-25.6-23.2-37.4-35.3c-0.3-0.4-0.2-0.8,0.3-1.1C193.7,262.4,194.4,262.4,194.7,262.8z" />
			</g>
			<g>
				<path class="st4" d="M416.1,481.4c5.2,3.4,12.4,0.5,13.7-5.4c7.5-32.7,20.2-127-54.6-216c-63.1-75.2-89.8-121.8-100.3-143.8
				c-2.2-4.7-9.4-3.8-10.5,1.3C252.1,173.3,228.2,359.5,416.1,481.4z" />
				<path class="st3" d="M423.1,476.6c0.2,0,0.3,0,0.5-0.1c1.3-0.3,2.2-1.6,1.9-2.9c-0.3-1.4-35-144.9-117.8-253.3
				c-0.8-1-2.3-1.2-3.4-0.5s-1.4,2.3-0.6,3.3c82.2,107.6,116.6,250.2,117,251.6C420.9,475.9,422,476.7,423.1,476.6z" />
			</g>
			<animateTransform xmlns="http://www.w3.org/2000/svg" attributeName="transform" attributeType="XML" type="rotate" dur="4s" values="0 500 500;-5 400 400;0 500 500;" repeatCount="indefinite"/>
		</g>
	</g>
	<g>

		<linearGradient id="SVGID_1_" gradientUnits="userSpaceOnUse" x1="394.362" y1="462.3828" x2="792.7009"
			y2="627.7312" gradientTransform="matrix(0.1083 0.9941 0.9941 -0.1083 -103.8847 10.1622)">
			<stop offset="0" style="stop-color:#4F52FF" />
			<stop offset="1" style="stop-color:#4042E2" />
		</linearGradient>
		<path class="st5" d="M363,667.8c1.8,15.3,13.7,26.2,26.4,24.4l196.3-27.8c10.8-1.5,18.5-13,17.5-26l-26.6-342.9
		c-0.8-10.2-8.5-17.8-17-16.8l-225.6,26.9c-8,1-13.6,9.6-12.4,19.1L363,667.8z" />
		<g>
			<path class="st2" d="M381.8,687.9c0.6,4.9,4.6,8.2,8.6,6.9c26.3-8.2,116.8-34.7,193.9-38.4c3.5-0.2,6.2-3.8,5.8-8L564,304
			c-0.4-4.7-3.8-8.3-7.8-8c-32.3,2.3-165.4,12.1-211.8,24.7c-2.8,0.8-4.6,4-4.2,7.4L381.8,687.9z" />
			<path class="st4" d="M383.9,678.9c0.5,4.7,4.4,7.8,8.2,6.7c25.3-7.8,112.4-33.3,186.6-37c3.4-0.2,5.9-3.6,5.6-7.7l-25.1-331.5
			c-0.3-4.5-3.7-8-7.5-7.7c-31.1,2.2-159.2,11.7-203.8,23.8c-2.7,0.7-4.5,3.8-4.1,7.1L383.9,678.9z" />
		</g>
		<path class="st6" d="M541.2,455.1l-22.4,3.1c-3.4,0.5-6.5-2.1-6.9-5.8l-2.6-24.4c-0.4-3.5,2-6.8,5.3-7.2l23.5-3.3
		c3.5-0.5,6.7,2.3,7,6.1l1.5,24.6C546.8,451.7,544.4,454.7,541.2,455.1z" />
		<path class="st6" d="M521.5,543.8l-2.6-24.4c-0.4-3.5,2-6.8,5.3-7.2l20-2.8c3.5-0.5,6.7,2.3,7,6l1.7,24.5c0.2,3.5-2.1,6.5-5.3,7
		l-19,2.6C525,550,521.9,547.4,521.5,543.8z" />
		<path class="st6" d="M419.5,534l2.6,23.2c0.4,3.9-2.2,7.4-5.8,7.9l-20.4,2.8c-3.6,0.5-7-2.2-7.5-6l-3.3-23.1c-0.6-4,2-7.6,5.8-8.2
		l21.1-2.9C415.6,527.2,419,530,419.5,534z" />
		<path class="st6" d="M397.1,576.1l20-2.8c3.6-0.5,7,2.2,7.4,6.1l2.6,23.4c0.4,3.8-2.1,7.3-5.7,7.8l-19.3,2.7
		c-3.6,0.5-6.9-2.1-7.4-5.9l-3.3-23.3C390.9,580.2,393.5,576.6,397.1,576.1z" />
		<path class="st6" d="M487.3,563.6l16.4-2.3c4-0.5,7.6,2.5,8,6.7l2.3,22.4c0.4,4.1-2.3,7.8-6.2,8.3l-15.7,2.2
		c-3.9,0.5-7.4-2.3-8-6.4l-3-22.3C480.6,568,483.4,564.1,487.3,563.6z" />
		<path class="st6" d="M439.7,570.2l25.1-3.5c3.6-0.5,6.9,2.2,7.4,6l3.1,22.8c0.6,4.2-2.2,8-6.1,8.6l-25.3,3.5
		c-3.7,0.5-7-2.3-7.4-6.2l-2.4-23.5C433.6,574.1,436.1,570.7,439.7,570.2z" />
		<path class="st6" d="M516.6,498.2l-2.6-24.4c-0.4-3.5,2-6.8,5.3-7.2l21.8-3c3.5-0.5,6.7,2.3,7,6l1.7,24.5c0.2,3.5-2.1,6.5-5.3,7
		l-20.8,2.9C520.1,504.4,517,501.8,516.6,498.2z" />
		<path class="st6" d="M435.1,524.5l23.5-3.2c3.6-0.5,7,2.2,7.5,6.1l3.1,23.1c0.5,3.9-2.1,7.6-5.8,8.1l-24.2,3.3
		c-3.7,0.5-7.1-2.3-7.6-6.3l-2.4-23.2C428.9,528.5,431.5,525,435.1,524.5z" />
		<path class="st6" d="M502.3,474.5l2.7,26.7c0.3,2.9-1.7,5.6-4.4,6l-22.6,3.1c-2.8,0.4-5.3-1.7-5.7-4.6l-3.5-26.5
		c-0.4-3,1.6-5.8,4.4-6.1l23.4-3.2C499.4,469.3,502,471.4,502.3,474.5z" />
		<path class="st6" d="M494.7,461.6l-21.5,3c-3.5,0.5-6.7-2.1-7.2-5.8l-3.2-23.8c-0.5-3.8,2-7.2,5.5-7.7l22.3-3.1
		c3.6-0.5,6.8,2.2,7.2,6l2.4,23.9C500.6,457.8,498.1,461.1,494.7,461.6z" />
		<path class="st6" d="M478.4,551.1l-3.5-26.5c-0.4-3,1.6-5.8,4.4-6.1l21.9-3c2.8-0.4,5.4,1.8,5.7,4.8l2.7,26.7
		c0.3,2.9-1.7,5.6-4.4,6l-21.1,2.9C481.3,556,478.8,554,478.4,551.1z" />
		<path class="st6" d="M460,481.9l3.1,23.1c0.5,3.9-2.1,7.6-5.8,8.1l-22.8,3.2c-3.7,0.5-7.1-2.3-7.6-6.3l-2.4-23.2
		c-0.4-3.9,2.2-7.4,5.8-7.9l22.1-3.1C456.1,475.3,459.5,478,460,481.9z" />
		<path class="st6" d="M453.8,435.6l3.3,24.8c0.5,3.5-1.8,6.7-5.1,7.2l-22.9,3.2c-3.3,0.5-6.3-2.1-6.7-5.6l-2.5-24.9
		c-0.4-3.4,1.9-6.5,5.1-7l22.2-3.1C450.4,429.8,453.3,432.1,453.8,435.6z" />
		<path class="st6" d="M526.3,586l-2-18.5c-0.5-4.9,2.8-9.4,7.4-10l14.4-2c4.3-0.6,8.3,2.8,8.6,7.4l1.4,20.7c0.3,4.7-2.9,8.8-7.3,9.5
		l-12,1.7C531.7,595.4,526.9,591.5,526.3,586z" />
		<path class="st6" d="M421.7,619c3.9-0.5,7.5,2.4,8,6.6l0.9,8.1c0.7,6.1-2.6,11.6-7.4,12.2l-13.9,1.9c-4.8,0.7-9.2-3.6-10.1-9.7
		l-1.2-8.6c-0.6-3.9,2-7.5,5.7-8L421.7,619z" />
		<path class="st6" d="M399.9,358.9l1.8,15.9c0.4,3.9-2.2,7.4-5.8,7.9l-26,3.6c-3.6,0.5-7-2.2-7.5-6l-2.2-15.7
		c-0.9-6.3,2.4-12,7.4-12.7l22.3-3.1C394.6,348.1,399.2,352.6,399.9,358.9z" />
		<path class="st6" d="M439.5,632l-0.8-7.9c-0.4-4.1,2.3-7.8,6.1-8.3l25.5-3.5c3.9-0.5,7.4,2.3,8,6.4l1.1,7.9
		c0.8,6.2-2.5,11.9-7.4,12.6l-22.3,3.1C444.8,642.9,440.1,638.3,439.5,632z" />
		<path class="st6" d="M488.4,625.6l-1.3-9.9c-0.4-3.2,1.7-6.1,4.6-6.5l18.4-2.5c3-0.4,5.7,1.9,6.1,5.1l1,10
		c0.6,6.1-2.7,11.4-7.4,12.1l-11.2,1.6C493.7,636.1,489.2,631.7,488.4,625.6z" />
		<path class="st6" d="M539.4,340.1l1.1,16c0.2,3.6-2.2,6.8-5.6,7.2l-25.7,3.6c-3.5,0.5-6.8-2.2-7.2-6l-1.8-16.4
		c-0.7-6.1,2.6-11.5,7.4-12.2l21.5-3C534.3,328.7,539,333.6,539.4,340.1z" />
		<path class="st6" d="M414.4,488.3l2.6,23.2c0.4,3.9-2.2,7.4-5.8,7.9l-21.8,3c-3.6,0.5-7-2.2-7.5-6l-3.3-23.1c-0.6-4,2-7.6,5.8-8.2
		l22.5-3.1C410.5,481.6,413.9,484.4,414.4,488.3z" />
		<path class="st6" d="M489.4,346.6l1.6,16.1c0.4,3.7-2.1,7-5.5,7.5l-24.5,3.4c-3.5,0.5-6.7-2.1-7.2-5.8l-2.2-16.1
		c-0.8-6.2,2.5-11.9,7.4-12.6l20.1-2.8C484.1,335.6,488.8,340.3,489.4,346.6z" />
		<path class="st6" d="M442.7,352.6l2.2,16.8c0.5,3.5-1.8,6.7-5.1,7.2l-20.1,2.8c-3.3,0.5-6.3-2.1-6.7-5.6l-1.7-16.9
		c-0.6-6.1,2.7-11.5,7.4-12.1l13.9-1.9C437.4,342.1,441.9,346.5,442.7,352.6z" />
		<path class="st6" d="M445.9,422l-21.5,3c-3.3,0.5-6.3-2.1-6.7-5.6l-2.5-24.9c-0.4-3.4,1.9-6.5,5.1-7l20.8-2.9
		c3.2-0.5,6.2,2,6.7,5.4l3.3,24.8C451.5,418.4,449.2,421.6,445.9,422z" />
		<path class="st6" d="M404.1,397.1l2.6,23.2c0.4,3.9-2.2,7.4-5.8,7.9l-24.6,3.4c-3.6,0.5-7-2.2-7.5-6l-3.3-23.1
		c-0.6-4,2-7.6,5.8-8.2l25.3-3.5C400.3,390.4,403.7,393.2,404.1,397.1z" />
		<path class="st6" d="M530,619.5l-1-9.7c-0.3-3.1,1.7-5.9,4.7-6.3l18-2.5c3.1-0.4,5.8,2,6.1,5.2l0.7,10.3c0.4,5.9-2.9,11-7.5,11.6
		l-10.8,1.5C535.2,630.4,530.6,625.8,530,619.5z" />
		<path class="st6" d="M409.2,442.7l2.5,22.8c0.5,4.1-2.3,7.8-6.1,8.4l-22.9,3.2c-3.6,0.5-7-2.2-7.5-6L372,448c-0.6-4,2-7.6,5.8-8.2
		l23.9-3.3C405.4,436,408.8,438.8,409.2,442.7z" />
		<path class="st6" d="M538.1,409.3l-23.9,3.3c-3.5,0.5-6.8-2.2-7.2-6l-2.6-23.9c-0.4-3.7,2.1-7,5.5-7.5l24.8-3.4
		c3.7-0.5,7,2.4,7.2,6.3l1.6,24C543.9,405.6,541.5,408.8,538.1,409.3z" />
		<path class="st6" d="M490.1,415.9l-23,3.2c-3.5,0.5-6.7-2.1-7.2-5.8l-3.2-23.8c-0.5-3.8,2-7.2,5.5-7.7l23.7-3.3
		c3.6-0.5,6.8,2.2,7.2,6l2.4,23.9C496,412.1,493.5,415.4,490.1,415.9z" />
		<g>
			<path class="st2" d="M362.6,624.3c0.5-0.1,0.8-0.5,0.7-1l-18.5-151.7c-0.1-0.5-0.5-0.8-0.9-0.8l0,0c-0.5,0.1-0.8,0.5-0.7,1
			l18.5,151.7C361.7,624,362.1,624.4,362.6,624.3L362.6,624.3z" />
			<path class="st2" d="M339.9,437.8c0.5-0.1,0.8-0.5,0.7-1l-6.5-53c-0.1-0.5-0.5-0.8-0.9-0.8h0c-0.5,0.1-0.8,0.5-0.7,1l6.5,53
			C339,437.5,339.4,437.8,339.9,437.8L339.9,437.8z" />
		</g>

		<linearGradient id="SVGID_2_" gradientUnits="userSpaceOnUse" x1="469.8204" y1="677.7759" x2="433.0937"
			y2="551.509" gradientTransform="matrix(0.1199 1.1004 1.1438 -0.1246 -195.5767 -22.69)">
			<stop offset="0" style="stop-color:#FF928E" />
			<stop offset="1" style="stop-color:#FE7062" />
		</linearGradient>
		<path class="st7" d="M503.4,379.5c-0.2-1.8,0.3-3.6,1.4-5c1.1-1.5,2.8-2.5,4.6-2.8l26.9-3.7c1.9-0.3,3.7,0.2,5.2,1.4
		s2.4,2.9,2.6,4.8v0l3,29.5c0.4,3.8-2.3,7.3-6,7.8l-26,3.6c-3.7,0.5-7.2-2.2-7.7-6l-4-29.4C503.4,379.7,503.4,379.6,503.4,379.5z
		 M542,374.5c-0.1-1.3-0.8-2.5-1.8-3.3c-1-0.8-2.3-1.2-3.6-1l-27,3.7c-1.3,0.2-2.4,0.9-3.2,1.9c-0.8,1.1-1.1,2.4-1,3.7l4,29.4
		c0.4,2.7,2.8,4.5,5.4,4.2l26-3.6c2.6-0.4,4.5-2.8,4.2-5.4L542,374.5C542,374.5,542,374.5,542,374.5z" />
	</g>
	<g>

		<linearGradient id="SVGID_3_" gradientUnits="userSpaceOnUse" x1="-6922.7212" y1="194.7961" x2="-6824.5122"
			y2="447.6215" gradientTransform="matrix(-1 0 0 -1 -6156.3174 1000)">
			<stop offset="0" style="stop-color:#FEBBBA" />
			<stop offset="1" style="stop-color:#FF928E" />
		</linearGradient>
		<path class="st8" d="M687.4,575.2l35.9,8.7l-9,65.1c0,0,13.5,13,18,30.4c4.5,17.4,8.6,90.2,8.6,90.2l8.5,5l1,4.2l-24.8,32.2
		l4.1-25.7c0.7-4.1-0.5-12.3-0.1-12.5c-13.5-34.7-42.3-132.5-42.3-132.5L687.4,575.2L687.4,575.2z" />

		<linearGradient id="SVGID_4_" gradientUnits="userSpaceOnUse" x1="-6922.9365" y1="-616.5962" x2="-6599.0288"
			y2="3169.0737" gradientTransform="matrix(-1 0 0 -1 -6156.3174 1000)">
			<stop offset="0" style="stop-color:#FEBBBA" />
			<stop offset="1" style="stop-color:#FF928E" />
		</linearGradient>
		<path class="st9"
			d="M676.9,779.1c0.4,0,0.8,0,1.2,0c-1.7-20.9-9.7-113-17.6-147.6c-9-39.1,13.5-117.2,13.5-117.2l40.4,39.1
		l-22.5,73.8c15.4,22.3-2.5,152.9-2.1,152.9l0,0.3l5.9,7.8l-0.7,4.2l-35.8,20.4l14.1-22.1C675.4,787.2,676.7,783.2,676.9,779.1z" />

		<linearGradient id="SVGID_5_" gradientUnits="userSpaceOnUse" x1="-6913.6616" y1="594.005" x2="-6870.6772"
			y2="594.005" gradientTransform="matrix(-1 0 0 -1 -6156.3174 1000)">
			<stop offset="0" style="stop-color:#FEBBBA" />
			<stop offset="1" style="stop-color:#FF928E" />
		</linearGradient>
		<path class="st10" d="M722.4,341.2c0,0,78.7,85.7,0,129.6l-8-5.6c0,0,39.1-36.1,0-80.4L722.4,341.2z" />
		<path class="st11" d="M656.8,816h11.4c2.1,0,4.2-1,5.5-2.6c3.6-4.5,10.9-13.2,14.5-13.4c4.8-0.3,4.1,16,4.1,16h2.7l3.4-20.3
		c0.8-5.1-1.8-10.2-6.5-12.5l0,0c0,0-1.1,7.8-7,11.2c-5.9,3.4-23.9,15.7-23.9,15.7s-2.2-0.3-4.6,0.1
		C652.6,810.8,653.1,816,656.8,816z" />
		<path class="st11"
			d="M724.8,814.7l10.5-4.3c2-0.8,3.5-2.4,4-4.4c1.5-5.5,4.8-16.3,8-17.8c4.2-2.1,10.2,13.2,10.2,13.2l2.5-1l-5-20
		c-1.3-5-5.7-8.7-11-9.1l0,0c0,0,2.1,7.6-1.9,12.9s-15.8,23.5-15.8,23.5s-2.2,0.5-4.2,1.8C718.9,811.5,721.5,816.1,724.8,814.7z" />

		<linearGradient id="SVGID_6_" gradientUnits="userSpaceOnUse" x1="789.4725" y1="603.6196" x2="702.1904"
			y2="485.425" gradientTransform="matrix(1 0 0 -1 0 1000)">
			<stop offset="0" style="stop-color:#4F52FF" />
			<stop offset="1" style="stop-color:#4042E2" />
		</linearGradient>
		<path class="st12" d="M663.7,448.4c0,0,1.3,7.8-0.6,29.3c-1.9,21.5-11.2,72-9.3,120.3c0,0,26.3,5.9,72,3.1
		c0,0,19.3-75.4,14.6-104.1c-4.7-28.7-30.2-49.2-30.2-49.2L663.7,448.4z" />

		<linearGradient id="SVGID_7_" gradientUnits="userSpaceOnUse" x1="-6866.7173" y1="686.705" x2="-6836.1973"
			y2="686.705" gradientTransform="matrix(-1 0 0 -1 -6156.3174 1000)">
			<stop offset="0" style="stop-color:#FEBBBA" />
			<stop offset="1" style="stop-color:#FF928E" />
		</linearGradient>
		<polygon class="st13" points="683.1,304.6 679.9,341.2 710.4,341.2 702.8,285.4 	" />

		<linearGradient id="SVGID_8_" gradientUnits="userSpaceOnUse" x1="1060.6177" y1="730.6868" x2="937.0234"
			y2="690.1036" gradientTransform="matrix(1 0 0 -1 0 1000)">
			<stop offset="0" style="stop-color:#FF928E" />
			<stop offset="1" style="stop-color:#FE7062" />
		</linearGradient>
		<path class="st14" d="M719.4,336.1c-10.5-0.6-34.1-1.6-50.8-0.7c-8.8,0.5-16.1,6.6-17.9,14.9l-4.1,18.9c-1.5,7-1.3,14.3,0.7,21.2
		l16.3,58c0,0,14.5,8.5,46.5-0.6c0,0,28-64.6,16.6-106C725.8,338.6,722.9,336.3,719.4,336.1z" />

		<linearGradient id="SVGID_9_" gradientUnits="userSpaceOnUse" x1="-6687.438" y1="671.7551" x2="-6950.79"
			y2="520.8857" gradientTransform="matrix(-1 0 0 -1 -6156.3174 1000)">
			<stop offset="0" style="stop-color:#FEBBBA" />
			<stop offset="1" style="stop-color:#FF928E" />
		</linearGradient>
		<path class="st15" d="M651.5,346.9c-4.5,11.5-8.6,23.5-12.9,34.7c-2.2,5.6-4.5,11.1-6.9,16.2c-1.2,2.5-2.5,4.8-3.8,6.9
		c-1.2,2.1-2.6,3.8-3.3,4.6c-0.1,0.1,0.3,0.2,0.5,0.2c0.1,0-3,0.5-4,0.6l-3.8,0c-5.4-0.3-11.5-1.2-17.6-2.3
		c-12.3-2.2-25.2-5.4-38.3-7.7l-0.1,0c-2.5-0.5-4.9,1.2-5.4,3.6c-0.3,1.6,0.3,3.2,1.5,4.2c5.3,4.5,10.9,8.2,16.8,11.9
		c2.9,1.7,5.9,3.4,9,5.1c3.1,1.5,6.2,3.1,9.4,4.5c6.5,2.7,13.2,5.3,21,6.9c2,0.3,4,0.7,6.1,0.9c2.3,0.1,4.5,0.3,7,0.1
		c1.4-0.1,2.7-0.3,4.1-0.5c0.7-0.1,1.3-0.1,2.1-0.4c0.9-0.3,1.9-0.6,2.8-0.9c1.9-0.7,3.2-1.5,4.7-2.3c1.3-0.8,2.5-1.7,3.6-2.6
		c4.2-3.5,6.9-6.9,9.2-10.3s4.1-6.6,5.8-9.9c3.3-6.5,5.9-13,8-19.4c4.2-13,7.1-25.8,8.3-39.4c0.6-6.5-4.4-12.2-11.1-12.8
		c-5.6-0.5-10.6,2.8-12.5,7.6L651.5,346.9z" />

		<linearGradient id="SVGID_10_" gradientUnits="userSpaceOnUse" x1="-6661.8223" y1="626.2571" x2="-6923.4307"
			y2="476.3865" gradientTransform="matrix(-1 0 0 -1 -6156.3174 1000)">
			<stop offset="0" style="stop-color:#FEBBBA" />
			<stop offset="1" style="stop-color:#FF928E" />
		</linearGradient>
		<path class="st16"
			d="M565.5,406l-5.5-12.5l-28.7-6.9c0,0-2.3,4.8,9.8,6.9c0,0-4.3,4.6-2,10C541.5,408.9,565.8,414.3,565.5,406z" />

		<linearGradient id="SVGID_11_" gradientUnits="userSpaceOnUse" x1="-6816.5015" y1="686.4248" x2="-6874.3672"
			y2="771.0399" gradientTransform="matrix(-1 0 0 -1 -6156.3174 1000)">
			<stop offset="0" style="stop-color:#FEBBBA" />
			<stop offset="1" style="stop-color:#FF928E" />
		</linearGradient>
		<path class="st17"
			d="M670.2,262.5c-1.1,0.6-9.7,29.9-2.5,42.2s29.2-1.5,35.1-19.2C708.8,267.7,699.2,245.9,670.2,262.5z" />
		<path class="st11"
			d="M727.1,285.4c4.9,23.4,21.3,17,32.8,27.3c18.8,16.8,45.6-0.5,71.6,15.4c18.8,11.5,27.9,41,18.9,64.8
		c-12.5,33-55.3,46.5-77.4,36.5c-21.2-9.6-18.2-38.3-46.7-49.4c-12.1-4.7-18.1-1.6-25.3-8.6c-12.7-12.2-9.3-36-7.9-45.1
		c2.9-19.8,9.7-23.4,6.5-32.1c-6.4-17-36.2-13.5-38.7-25.4c-2.3-10.9,19.4-31.6,39.7-28.3C732,245.4,724.9,275,727.1,285.4z" >
		<animate xmlns="http://www.w3.org/2000/svg" accumulate="none" additive="replace" attributeName="d" calcMode="linear" dur="2s" fill="remove" repeatCount="indefinite" restart="always" values="
		M727.1,285.4c4.9,23.4,21.3,17,32.8,27.3c18.8,16.8,45.6-0.5,71.6,15.4c18.8,11.5,27.9,41,18.9,64.8
		c-12.5,33-55.3,46.5-77.4,36.5c-21.2-9.6-18.2-38.3-46.7-49.4c-12.1-4.7-18.1-1.6-25.3-8.6c-12.7-12.2-9.3-36-7.9-45.1
		c2.9-19.8,9.7-23.4,6.5-32.1c-6.4-17-36.2-13.5-38.7-25.4c-2.3-10.9,19.4-31.6,39.7-28.3C732,245.4,724.9,275,727.1,285.4z;
		M727.1,285.4c4.9,23.4,21.3,17,32.8,27.3c18.8,16.8,63.2-6.1,89.2,9.8c18.8,11.5,27.9,41,18.9,64.8   c-12.5,33-48.9,35.3-71,25.3c-21.2-9.6-25.7-27.5-54.2-38.6c-8.4-2.4-22.1-2.4-32.4-6.2c-12.7-12.2-18.7-32.5-17.3-41.6   c2.9-19.8,9.7-23.4,6.5-32.1c-6.4-17-36.2-13.5-38.7-25.4c-2.3-10.9,19.4-31.6,39.7-28.3C732,245.4,724.9,275,727.1,285.4z;    
		M727.1,285.4c4.9,23.4,21.3,17,32.8,27.3c18.8,16.8,45.6-0.5,71.6,15.4c18.8,11.5,27.9,41,18.9,64.8
		c-12.5,33-55.3,46.5-77.4,36.5c-21.2-9.6-18.2-38.3-46.7-49.4c-12.1-4.7-18.1-1.6-25.3-8.6c-12.7-12.2-9.3-36-7.9-45.1
		c2.9-19.8,9.7-23.4,6.5-32.1c-6.4-17-36.2-13.5-38.7-25.4c-2.3-10.9,19.4-31.6,39.7-28.3C732,245.4,724.9,275,727.1,285.4z"/>
		</path>
	</g>
</svg>