<?xml version="1.0" encoding="utf-8"?>
<!-- Generator: Adobe Illustrator 23.0.3, SVG Export Plug-In . SVG Version: 6.00 Build 0)  -->
<svg version="1.1" id="_x3C_Layer_x3E_" xmlns="http://www.w3.org/2000/svg" xmlns:xlink="http://www.w3.org/1999/xlink" x="0px"
	 y="0px" viewBox="0 0 628.99 457.15" style="enable-background:new 0 0 628.99 457.15;" xml:space="preserve">
<style type="text/css">
	.st0{opacity:0.3;fill:#50546F;}
	.st1{fill:#060632;}
	.st2{fill:#FC9492;}
	.st3{fill:#EB8D8D;}
	.st4{fill:#FC5E3A;}
	.st5{fill:#FFFFFF;}
	.st6{fill:#4951EC;}
	.st7{fill:#7C9AF2;}
	.st8{opacity:0.4;fill:#ED6966;}
</style>
<g>
	<g>
		<path class="st0" d="M606.19,270.08c-41.42,72.96-152.44,119.87-237.03,147.45c-116.35,38.39-292.71,59.03-358.22-42.91
			c-47.25-73.6,65.11-198.72,209.95-286.75l0.02-0.01c51.96-31.61,110.34-59.72,168.45-78.22
			C557.21-43.76,682.28,136.02,606.19,270.08z"/>
		<g>
			<g>
				<g>
					<path class="st1" d="M455.26,78.86c-9.96-6.1-25.87,1.19-25.87,1.19c5.5-7.73,25.57-5.2,25.57-5.2
						c-39.98-8.51-48.33,17.05-49.02,19.45c-29-26.17-75.43,29.62-75.43,29.62l66.63,88.32c0,0,6.08-14.05,14.11-9.66
						c12.52,6.84,36.73-20.84,28.99-57.24c-0.84-3.94-1.84-7.53-2.96-10.83c2.6,1.14,5.55,2.06,8.31,2.06
						c7.28,0,18.29-18.59,19.78-24.83C466.86,105.48,465.23,84.96,455.26,78.86z"/>
					<path class="st2" d="M461.27,382.23c3.03-48.57-20.54-101.17-39.79-116.23c-3.03-2.38-5.96-3.91-8.69-4.47
						c-0.57-0.15-1.16-0.48-1.79-0.98c-5.42-4.36-12.72-21.73-13.9-48.37c-0.12-2.64-0.17-5.36-0.17-8.17c0,0,0.01,0,0-0.01
						l-2.67,0.53l-2.55,0.5h-0.01l-42.35,8.39c0.24,3.04,1.05,17.18,1.05,27.45c0.03,11.1-0.64,21.61-3.16,22.94
						c-0.07,0.01-0.7,0.06-1.36,0.12c-1.49,0.15-3.7,0.38-3.85,0.41c0,0-16.34,22.73-28.36,52.19c0,0.01,0,0.02,0,0.03l-0.01,0.01
						c-6.11,15.01-11.08,31.75-12.15,48.08c-0.66,10.14,0.27,19.08,1.88,27.76v0.01c2.38,12.82,6.4,26.27,8.79,41.11
						c19.98-4.67,39.18-10.12,56.97-15.99C398.06,408.11,430.04,396.43,461.27,382.23z"/>
					<path class="st3" d="M349.35,213.41c0,0,1.02,14.13,1.05,27.44c25.13-0.71,38.41-23.63,43.85-36.34L349.35,213.41z"/>
					<path class="st1" d="M398.9,199.63c0,0,13.17-20.81,16.33-38.6c2.26-12.7-4.21-59.78-51.53-53c0,0-13.74,1.35-26.66,10.08
						c-10.27,6.94-25.1,21.92-8.52,63l4.31,13.88L398.9,199.63z"/>
					<path class="st2" d="M340.96,226.01c0,0,59.45,0.98,59.49-36.05c0.04-37.03,7.74-61.85-30.21-64.04
						c-37.96-2.19-45.35,11.93-48.37,24.29C318.85,162.57,325.5,224.8,340.96,226.01z"/>
					<path class="st1" d="M343.16,125.01c0,0,16.28,43.45,41.26,49.87c24.98,6.42,35.82-0.27,35.82-0.27s-19.16-15.22-23.14-41.79
						C397.1,132.82,355.44,104.33,343.16,125.01z"/>
					<path class="st1" d="M347.2,128.54c0,0-12.16,9.7-15.12,19.13c-2.96,9.43-4.3,28.84-9.96,28.18c0,0-12.26-29.53,1.52-46.24
						C338.26,111.9,347.2,128.54,347.2,128.54z"/>
					<path class="st2" d="M489.68,367.66c-9.89,4.94-19.61,9.58-29.14,13.95c-5.56,2.55-11.05,5.01-16.47,7.37
						c-0.71,0.31-1.42,0.61-2.12,0.92c-6.93-25.02-12.76-45.55-12.76-45.55l-4.39-19.03l-8.86-38.36v-0.01l-6.13-26.54
						c0,0,0.42,0.04,1.2,0.14c1.95,0.22,6.15,0.73,11.39,1.56c9.55,1.52,22.62,4.1,32.17,7.95c0.07,0.03,0.14,0.06,0.22,0.1
						c0.17,0.06,0.34,0.14,0.51,0.21c4.82,2.02,8.66,4.37,10.55,7.08c0.01,0.01,0.02,0.02,0.02,0.02c0,0.01,0.01,0.02,0.02,0.02
						c0.01,0,0.01,0.01,0.01,0.02c0.26,0.39,0.49,0.79,0.68,1.2C474.61,296.39,482.65,331.7,489.68,367.66z"/>
					<path class="st1" d="M344.94,130.01c0,0,11.6,45.5,43.12,60.07c0,0-31.52-27.95-34.2-57.99
						C351.18,102.06,344.94,130.01,344.94,130.01z"/>
					<path class="st2" d="M263.41,364.01c-0.88,3.94-1.71,8.04-2.48,12.31c-2.04,11.22-3.69,23.63-4.83,37.29
						c0,0-49.87-31.14-60.95-47.35c0-1.34,0.82-15.9-0.58-25.81c-0.52-3.64-1.34-6.66-2.61-8.16c-0.61-0.71-1.28-1.46-2.02-2.23
						c-0.01-0.01,0-0.01,0-0.01c-2.42-2.5-5.42-5.17-8.2-7.25c-2.91-2.19-5.56-3.75-7-3.78c-0.07-0.01-0.13-0.01-0.2,0
						c-0.1,0.01-0.2,0.03-0.31,0.07c-3.44,1.15-14.48,16.33-11.03,28.04c3.56,12.09,18.63,28.45,18.63,28.45s25.31,43.86,55.65,70.7
						c18.2-1.92,36.36-4.76,54.08-8.3c4.56-12.41,8.7-29.13,11.83-45.58v-0.01c4.84-25.42,8.13-53.28,10.27-75.84l0.01-0.01v-0.04
						c1.12-11.89,1.94-22.3,2.48-30.11c0.45-6.35,0.72-10.97,0.84-13.27c0.07-1.07,0.1-1.63,0.1-1.63s-0.77,0.3-2.14,1.08
						C306.93,277.12,278.25,297.53,263.41,364.01z"/>
					<path class="st4" d="M369.17,417.53c38.94-12.7,83.48-29.49,124.25-51.04c-7.89-34.08-17.97-71.12-26.7-87.73
						c-0.22-0.43-0.51-0.85-0.84-1.26c0-0.01,0-0.02-0.01-0.02c-0.01-0.01-0.02-0.02-0.02-0.02c-0.01-0.01-0.02-0.02-0.02-0.02
						c-0.68-0.84-1.57-1.63-2.64-2.4c0.09-0.11,0.14-0.18,0.14-0.18c-2.46-1.79-5.4-3.36-8.55-4.71c-0.07-0.04-0.14-0.06-0.22-0.1
						c-14.01-5.99-32.16-7.97-32.16-7.97s0,0.01-0.01,0.02c-0.05,0.22-0.37,1.66-0.91,3.89c-1.14,4.78-3.23,13.16-5.56,20.95v0.01
						c-2.44,8.13-5.15,15.61-7.34,17.61c-5.36,4.9-82.97,12.93-84.76,4.02c-1.7-8.52,20.43-41.74,22.06-44.67
						c-6.44,0.6-18.4,2.33-23.37,3.18c-8.82,1.51-14.21,5.29-14.72,5.87c-10.44,7.91-35.01,32.21-44.6,90.77c0,0,0.07,0.1,0.21,0.29
						c1.71,2.22,13.26,16.74,29.04,21.27c0.45,0.14,0.9,0.25,1.36,0.36c-0.85,14.24-3.48,34.55-5.97,53.07
						C316.58,433.15,344.25,425.75,369.17,417.53z"/>
					<g>
						<g>
							<path class="st5" d="M222.62,336.21l-39.26,11.77c-1.3,0.39-2.69-0.41-3.11-1.78l-23.68-78.99c-0.41-1.37,0.31-2.8,1.61-3.2
								l39.26-11.77c1.3-0.39,2.69,0.41,3.1,1.78l23.67,78.99C224.65,334.39,223.93,335.82,222.62,336.21z"/>
							<path class="st5" d="M216.91,334.53l-30.82,9.24c-2,0.6-4.17-0.76-4.86-3.04l-21.06-70.27c-0.68-2.28,0.38-4.61,2.38-5.21
								l30.82-9.24c2-0.6,4.17,0.76,4.86,3.04l21.06,70.27C219.98,331.6,218.91,333.93,216.91,334.53z"/>
						</g>
						<g>
							<path class="st6" d="M222.62,336.21l-39.26,11.77c-1.3,0.39-2.69-0.41-3.11-1.78l-23.68-78.99c-0.41-1.37,0.31-2.8,1.61-3.2
								l39.26-11.77c1.3-0.39,2.69,0.41,3.1,1.78l23.67,78.99C224.65,334.39,223.93,335.82,222.62,336.21z"/>
							<path class="st7" d="M216.91,334.53l-30.82,9.24c-2,0.6-4.17-0.76-4.86-3.04l-21.06-70.27c-0.68-2.28,0.38-4.61,2.38-5.21
								l30.82-9.24c2-0.6,4.17,0.76,4.86,3.04l21.06,70.27C219.98,331.6,218.91,333.93,216.91,334.53z"/>
						</g>
					</g>
					<path class="st8" d="M441.63,390.8c-2.61-6.86-5.65-12.65-7.67-12.19c-1.9,0.44-8.22,9.25-13.77,20.82
						C427.3,396.69,434.46,393.81,441.63,390.8z"/>
					<path class="st2" d="M172.17,320.82c0,0,8.69-7.88,15.78-0.43c7.09,7.45-2.68,20.77-9.84,23.94c-7.15,3.17-9.53,4.97-9.53,4.97
						L172.17,320.82z"/>
				</g>
			</g>
			<path class="st5" d="M352.58,204.03c0,0-1.03,4.36-11.89,3.69c0,0-9.11-0.56-8.84-5.36C331.86,202.36,340.7,198.95,352.58,204.03
				z"/>
		</g>
	</g>
</g>
<circle class="st5" cx="170.46" cy="271.51" r="4.99"/>
</svg>
