<svg xmlns="http://www.w3.org/2000/svg" xmlns:xlink="http://www.w3.org/1999/xlink" version="1.1" id="图层_1" x="0px" y="0px" viewBox="0 0 3321.5 1876.5" style="enable-background:new 0 0 3321.5 1876.5;" xml:space="preserve">
<title>emojiall.com</title>
<style type="text/css">
	.st0{fill: #3f4257;}
	.st1{fill: #fc5e3a;}
	.st2{fill: #50546f;}
	.st3{fill: #fc5e3a;}
	.st4{fill:#92B5F9;}
	.st5{fill:#FFCA28;}
	.st6{fill:#FB9390;}
	.st7{fill:#0B0754;}
	.st8{fill: #dc5637;}
	.st9{fill:#4951EC;}
	.st10{fill:#7C9AF2;}
	.st11{fill:#EF7F7F;}
	.st12{fill:#F7A491;}
	.st13{fill:#BED1F9;}
	.st14{fill:#FFFFFF;}
	.st15{fill:#DDE8FE;}
</style>
<g id="layer_2">
	<g>
		<g>
			<g>
				<path id="w45ve" class="st2" d="M4422-703c-33.8,158.3-104.5,323.5-208.6,447.8C4112.6-134.8,3964-32,3810.9,0.1     c-177,37-359.1,12-532.8-27.9c-202.5-46.6-481.8-23.7-681.6,104.4c-191.7,122.7-318.1,289.4-466.1,459     c-215.5,246.7-490.1,458.9-834.7,433.6c-273.2-20-504.6-186.3-661.7-403.5c-99.3-137.4-171.7-293.2-225.4-453.6     C204.8-496,301.8-697.4,301.8-697.4L4422-703L4422-703z">
					<animate attributeName="d" dur="20s" values="      M4422-703c-33.8,158.3-104.5,323.5-208.6,447.8C4112.6-134.8,3964-32,3810.9,0.1      c-177,37-359.1,12-532.8-27.9c-202.5-46.6-481.8-23.7-681.6,104.4c-191.7,122.7-318.1,289.4-466.1,459      c-215.5,246.7-490.1,458.9-834.7,433.6c-273.2-20-504.6-186.3-661.7-403.5c-99.3-137.4-171.7-293.2-225.4-453.6      C204.8-496,301.8-697.4,301.8-697.4L4422-703L4422-703z;      M4422-703c-33.8,158.3-104.5,323.5-208.6,447.8c-100.8,120.4-114.2,472.3-267.3,504.4      c-177,37-511.7-0.5-685.4-40.4C3058.2,162.1,3072.8,398,2873,526.2c-191.7,122.7-679.6-188.1-827.6-18.5      c-215.5,246.7-138.5,786.4-483.1,761.1c-273.2-20-771.2-485.9-928.3-703.1c-99.3-137.4-171.7-293.2-225.4-453.6      C204.8-496,301.8-697.4,301.8-697.4L4422-703L4422-703z;      M4422-703c-33.8,158.3-104.5,323.5-208.6,447.8C4112.6-134.8,3964-32,3810.9,0.1      c-177,37-359.1,12-532.8-27.9c-202.5-46.6-481.8-23.7-681.6,104.4c-191.7,122.7-318.1,289.4-466.1,459      c-215.5,246.7-490.1,458.9-834.7,433.6c-273.2-20-504.6-186.3-661.7-403.5c-99.3-137.4-171.7-293.2-225.4-453.6      C204.8-496,301.8-697.4,301.8-697.4L4422-703L4422-703z;" repeatCount="indefinite"/>
				</path>
				<g>
					<path id="w45vj" class="st0" d="M-554.2-889.3c112.1-12.9,393.6,14.6,625.4,151.4S417-304.5,406.7-93.7      c-10.4,210.8,59,375.4,201.6,448c142.7,72.7,232.3,22.4,380.3,4.1c148-18.4,513,82.8,566.9,405.7      c53.9,323-225.5,628.5-412.9,724.3c-187.5,95.6-291.2,228.8-167.1,370.4c64.2,73.3,291.2,256.2,175.7,432      c-553,842.2-2215.1-62.8-2504.1-1176.5C-1614.1,108.1-1161.8-818-554.2-889.3">
						<animate attributeName="d" dur="16s" values="        M-554.2-889.3c112.1-12.9,393.6,14.6,625.4,151.4S417-304.5,406.7-93.7        c-10.4,210.8,59,375.4,201.6,448c142.7,72.7,232.3,22.4,380.3,4.1c148-18.4,513,82.8,566.9,405.7        c53.9,323-225.5,628.5-412.9,724.3c-187.5,95.6-291.2,228.8-167.1,370.4c64.2,73.3,291.2,256.2,175.7,432        c-553,842.2-2215.1-62.8-2504.1-1176.5C-1614.1,108.1-1161.8-818-554.2-889.3;        M-554.2-889.3c112.1-12.9,393.6,14.6,625.4,151.4S918.3-381.8,908-171       C897.6,39.8,456.4,210.7,599,283.3c142.7,72.7,327.6-106.8,475.6-125.1c148-18.4,416.6-103.4,470.5,219.5       c53.9,323-546,1109.5-733.4,1205.3c-187.5,95.6-272.5,525.4-148.4,667c64.2,73.3,263.9,333.5,148.4,509.3       c-553,842.2-1875.6-531.3-2164.6-1645C-1614.1,108.1-1161.8-818-554.2-889.3;        M-554.2-889.3c112.1-12.9,393.6,14.6,625.4,151.4S417-304.5,406.7-93.7        c-10.4,210.8,59,375.4,201.6,448c142.7,72.7,232.3,22.4,380.3,4.1c148-18.4,513,82.8,566.9,405.7        c53.9,323-225.5,628.5-412.9,724.3c-187.5,95.6-291.2,228.8-167.1,370.4c64.2,73.3,291.2,256.2,175.7,432        c-553,842.2-2215.1-62.8-2504.1-1176.5C-1614.1,108.1-1161.8-818-554.2-889.3;" repeatCount="indefinite"/>
					</path>
				</g>
			</g>
		</g>
	</g>
</g>

<path id="rotate" class="st16" fill="none" stroke="none" stroke-miterlimit="10" d="M1202.3,424.3c71.2,94.8,52.1,229.4-42.7,300.6c-75.8,57-183.5,41.7-240.5-34.2  c-45.6-60.7-33.3-146.8,27.3-192.4c48.5-36.5,117.4-26.7,153.9,21.9c29.2,38.8,21.3,93.9-17.5,123.1c-31.1,23.3-75.2,17.1-98.5-14  c-18.7-24.9-13.6-60.1,11.2-78.8c19.9-14.9,48.1-10.9,63,9c11.9,15.9,8.7,38.5-7.2,50.4c-12.7,9.6-30.8,7-40.3-5.7"/>

</svg>